%TF.GenerationSoftware,KiCad,Pcbnew,(5.1.7)-1*%
%TF.CreationDate,2020-11-23T19:12:34+01:00*%
%TF.ProjectId,astro_compute_board,61737472-6f5f-4636-9f6d-707574655f62,1*%
%TF.SameCoordinates,Original*%
%TF.FileFunction,Soldermask,Top*%
%TF.FilePolarity,Negative*%
%FSLAX46Y46*%
G04 Gerber Fmt 4.6, Leading zero omitted, Abs format (unit mm)*
G04 Created by KiCad (PCBNEW (5.1.7)-1) date 2020-11-23 19:12:34*
%MOMM*%
%LPD*%
G01*
G04 APERTURE LIST*
%ADD10R,1.900000X1.200000*%
%ADD11O,1.900000X1.200000*%
%ADD12R,1.900000X1.500000*%
%ADD13C,1.450000*%
%ADD14R,1.350000X0.400000*%
%ADD15C,0.800000*%
%ADD16C,6.400000*%
%ADD17R,1.200000X1.400000*%
%ADD18O,1.300000X0.800000*%
%ADD19R,1.500000X2.000000*%
%ADD20R,3.800000X2.000000*%
%ADD21R,0.650000X1.060000*%
%ADD22R,2.290000X3.000000*%
%ADD23R,0.800000X1.000000*%
%ADD24R,1.500000X0.700000*%
%ADD25C,0.900000*%
%ADD26R,10.800000X9.400000*%
%ADD27R,1.100000X4.600000*%
%ADD28R,5.800000X6.400000*%
%ADD29R,1.200000X2.200000*%
%ADD30R,2.500000X1.900000*%
%ADD31O,0.800000X1.300000*%
%ADD32C,3.000000*%
%ADD33R,3.000000X3.000000*%
%ADD34O,1.700000X1.700000*%
%ADD35R,1.700000X1.700000*%
%ADD36R,2.400000X0.740000*%
%ADD37R,0.740000X2.400000*%
%ADD38R,0.900000X1.200000*%
G04 APERTURE END LIST*
%TO.C,U1*%
G36*
G01*
X177600000Y-135925000D02*
X177600000Y-134525000D01*
G75*
G02*
X177675000Y-134450000I75000J0D01*
G01*
X177825000Y-134450000D01*
G75*
G02*
X177900000Y-134525000I0J-75000D01*
G01*
X177900000Y-135925000D01*
G75*
G02*
X177825000Y-136000000I-75000J0D01*
G01*
X177675000Y-136000000D01*
G75*
G02*
X177600000Y-135925000I0J75000D01*
G01*
G37*
G36*
G01*
X178100000Y-135925000D02*
X178100000Y-134525000D01*
G75*
G02*
X178175000Y-134450000I75000J0D01*
G01*
X178325000Y-134450000D01*
G75*
G02*
X178400000Y-134525000I0J-75000D01*
G01*
X178400000Y-135925000D01*
G75*
G02*
X178325000Y-136000000I-75000J0D01*
G01*
X178175000Y-136000000D01*
G75*
G02*
X178100000Y-135925000I0J75000D01*
G01*
G37*
G36*
G01*
X178600000Y-135925000D02*
X178600000Y-134525000D01*
G75*
G02*
X178675000Y-134450000I75000J0D01*
G01*
X178825000Y-134450000D01*
G75*
G02*
X178900000Y-134525000I0J-75000D01*
G01*
X178900000Y-135925000D01*
G75*
G02*
X178825000Y-136000000I-75000J0D01*
G01*
X178675000Y-136000000D01*
G75*
G02*
X178600000Y-135925000I0J75000D01*
G01*
G37*
G36*
G01*
X179100000Y-135925000D02*
X179100000Y-134525000D01*
G75*
G02*
X179175000Y-134450000I75000J0D01*
G01*
X179325000Y-134450000D01*
G75*
G02*
X179400000Y-134525000I0J-75000D01*
G01*
X179400000Y-135925000D01*
G75*
G02*
X179325000Y-136000000I-75000J0D01*
G01*
X179175000Y-136000000D01*
G75*
G02*
X179100000Y-135925000I0J75000D01*
G01*
G37*
G36*
G01*
X179600000Y-135925000D02*
X179600000Y-134525000D01*
G75*
G02*
X179675000Y-134450000I75000J0D01*
G01*
X179825000Y-134450000D01*
G75*
G02*
X179900000Y-134525000I0J-75000D01*
G01*
X179900000Y-135925000D01*
G75*
G02*
X179825000Y-136000000I-75000J0D01*
G01*
X179675000Y-136000000D01*
G75*
G02*
X179600000Y-135925000I0J75000D01*
G01*
G37*
G36*
G01*
X180100000Y-135925000D02*
X180100000Y-134525000D01*
G75*
G02*
X180175000Y-134450000I75000J0D01*
G01*
X180325000Y-134450000D01*
G75*
G02*
X180400000Y-134525000I0J-75000D01*
G01*
X180400000Y-135925000D01*
G75*
G02*
X180325000Y-136000000I-75000J0D01*
G01*
X180175000Y-136000000D01*
G75*
G02*
X180100000Y-135925000I0J75000D01*
G01*
G37*
G36*
G01*
X180600000Y-135925000D02*
X180600000Y-134525000D01*
G75*
G02*
X180675000Y-134450000I75000J0D01*
G01*
X180825000Y-134450000D01*
G75*
G02*
X180900000Y-134525000I0J-75000D01*
G01*
X180900000Y-135925000D01*
G75*
G02*
X180825000Y-136000000I-75000J0D01*
G01*
X180675000Y-136000000D01*
G75*
G02*
X180600000Y-135925000I0J75000D01*
G01*
G37*
G36*
G01*
X181100000Y-135925000D02*
X181100000Y-134525000D01*
G75*
G02*
X181175000Y-134450000I75000J0D01*
G01*
X181325000Y-134450000D01*
G75*
G02*
X181400000Y-134525000I0J-75000D01*
G01*
X181400000Y-135925000D01*
G75*
G02*
X181325000Y-136000000I-75000J0D01*
G01*
X181175000Y-136000000D01*
G75*
G02*
X181100000Y-135925000I0J75000D01*
G01*
G37*
G36*
G01*
X181600000Y-135925000D02*
X181600000Y-134525000D01*
G75*
G02*
X181675000Y-134450000I75000J0D01*
G01*
X181825000Y-134450000D01*
G75*
G02*
X181900000Y-134525000I0J-75000D01*
G01*
X181900000Y-135925000D01*
G75*
G02*
X181825000Y-136000000I-75000J0D01*
G01*
X181675000Y-136000000D01*
G75*
G02*
X181600000Y-135925000I0J75000D01*
G01*
G37*
G36*
G01*
X182100000Y-135925000D02*
X182100000Y-134525000D01*
G75*
G02*
X182175000Y-134450000I75000J0D01*
G01*
X182325000Y-134450000D01*
G75*
G02*
X182400000Y-134525000I0J-75000D01*
G01*
X182400000Y-135925000D01*
G75*
G02*
X182325000Y-136000000I-75000J0D01*
G01*
X182175000Y-136000000D01*
G75*
G02*
X182100000Y-135925000I0J75000D01*
G01*
G37*
G36*
G01*
X182600000Y-135925000D02*
X182600000Y-134525000D01*
G75*
G02*
X182675000Y-134450000I75000J0D01*
G01*
X182825000Y-134450000D01*
G75*
G02*
X182900000Y-134525000I0J-75000D01*
G01*
X182900000Y-135925000D01*
G75*
G02*
X182825000Y-136000000I-75000J0D01*
G01*
X182675000Y-136000000D01*
G75*
G02*
X182600000Y-135925000I0J75000D01*
G01*
G37*
G36*
G01*
X183100000Y-135925000D02*
X183100000Y-134525000D01*
G75*
G02*
X183175000Y-134450000I75000J0D01*
G01*
X183325000Y-134450000D01*
G75*
G02*
X183400000Y-134525000I0J-75000D01*
G01*
X183400000Y-135925000D01*
G75*
G02*
X183325000Y-136000000I-75000J0D01*
G01*
X183175000Y-136000000D01*
G75*
G02*
X183100000Y-135925000I0J75000D01*
G01*
G37*
G36*
G01*
X183600000Y-135925000D02*
X183600000Y-134525000D01*
G75*
G02*
X183675000Y-134450000I75000J0D01*
G01*
X183825000Y-134450000D01*
G75*
G02*
X183900000Y-134525000I0J-75000D01*
G01*
X183900000Y-135925000D01*
G75*
G02*
X183825000Y-136000000I-75000J0D01*
G01*
X183675000Y-136000000D01*
G75*
G02*
X183600000Y-135925000I0J75000D01*
G01*
G37*
G36*
G01*
X184100000Y-135925000D02*
X184100000Y-134525000D01*
G75*
G02*
X184175000Y-134450000I75000J0D01*
G01*
X184325000Y-134450000D01*
G75*
G02*
X184400000Y-134525000I0J-75000D01*
G01*
X184400000Y-135925000D01*
G75*
G02*
X184325000Y-136000000I-75000J0D01*
G01*
X184175000Y-136000000D01*
G75*
G02*
X184100000Y-135925000I0J75000D01*
G01*
G37*
G36*
G01*
X184600000Y-135925000D02*
X184600000Y-134525000D01*
G75*
G02*
X184675000Y-134450000I75000J0D01*
G01*
X184825000Y-134450000D01*
G75*
G02*
X184900000Y-134525000I0J-75000D01*
G01*
X184900000Y-135925000D01*
G75*
G02*
X184825000Y-136000000I-75000J0D01*
G01*
X184675000Y-136000000D01*
G75*
G02*
X184600000Y-135925000I0J75000D01*
G01*
G37*
G36*
G01*
X185100000Y-135925000D02*
X185100000Y-134525000D01*
G75*
G02*
X185175000Y-134450000I75000J0D01*
G01*
X185325000Y-134450000D01*
G75*
G02*
X185400000Y-134525000I0J-75000D01*
G01*
X185400000Y-135925000D01*
G75*
G02*
X185325000Y-136000000I-75000J0D01*
G01*
X185175000Y-136000000D01*
G75*
G02*
X185100000Y-135925000I0J75000D01*
G01*
G37*
G36*
G01*
X186400000Y-137225000D02*
X186400000Y-137075000D01*
G75*
G02*
X186475000Y-137000000I75000J0D01*
G01*
X187875000Y-137000000D01*
G75*
G02*
X187950000Y-137075000I0J-75000D01*
G01*
X187950000Y-137225000D01*
G75*
G02*
X187875000Y-137300000I-75000J0D01*
G01*
X186475000Y-137300000D01*
G75*
G02*
X186400000Y-137225000I0J75000D01*
G01*
G37*
G36*
G01*
X186400000Y-137725000D02*
X186400000Y-137575000D01*
G75*
G02*
X186475000Y-137500000I75000J0D01*
G01*
X187875000Y-137500000D01*
G75*
G02*
X187950000Y-137575000I0J-75000D01*
G01*
X187950000Y-137725000D01*
G75*
G02*
X187875000Y-137800000I-75000J0D01*
G01*
X186475000Y-137800000D01*
G75*
G02*
X186400000Y-137725000I0J75000D01*
G01*
G37*
G36*
G01*
X186400000Y-138225000D02*
X186400000Y-138075000D01*
G75*
G02*
X186475000Y-138000000I75000J0D01*
G01*
X187875000Y-138000000D01*
G75*
G02*
X187950000Y-138075000I0J-75000D01*
G01*
X187950000Y-138225000D01*
G75*
G02*
X187875000Y-138300000I-75000J0D01*
G01*
X186475000Y-138300000D01*
G75*
G02*
X186400000Y-138225000I0J75000D01*
G01*
G37*
G36*
G01*
X186400000Y-138725000D02*
X186400000Y-138575000D01*
G75*
G02*
X186475000Y-138500000I75000J0D01*
G01*
X187875000Y-138500000D01*
G75*
G02*
X187950000Y-138575000I0J-75000D01*
G01*
X187950000Y-138725000D01*
G75*
G02*
X187875000Y-138800000I-75000J0D01*
G01*
X186475000Y-138800000D01*
G75*
G02*
X186400000Y-138725000I0J75000D01*
G01*
G37*
G36*
G01*
X186400000Y-139225000D02*
X186400000Y-139075000D01*
G75*
G02*
X186475000Y-139000000I75000J0D01*
G01*
X187875000Y-139000000D01*
G75*
G02*
X187950000Y-139075000I0J-75000D01*
G01*
X187950000Y-139225000D01*
G75*
G02*
X187875000Y-139300000I-75000J0D01*
G01*
X186475000Y-139300000D01*
G75*
G02*
X186400000Y-139225000I0J75000D01*
G01*
G37*
G36*
G01*
X186400000Y-139725000D02*
X186400000Y-139575000D01*
G75*
G02*
X186475000Y-139500000I75000J0D01*
G01*
X187875000Y-139500000D01*
G75*
G02*
X187950000Y-139575000I0J-75000D01*
G01*
X187950000Y-139725000D01*
G75*
G02*
X187875000Y-139800000I-75000J0D01*
G01*
X186475000Y-139800000D01*
G75*
G02*
X186400000Y-139725000I0J75000D01*
G01*
G37*
G36*
G01*
X186400000Y-140225000D02*
X186400000Y-140075000D01*
G75*
G02*
X186475000Y-140000000I75000J0D01*
G01*
X187875000Y-140000000D01*
G75*
G02*
X187950000Y-140075000I0J-75000D01*
G01*
X187950000Y-140225000D01*
G75*
G02*
X187875000Y-140300000I-75000J0D01*
G01*
X186475000Y-140300000D01*
G75*
G02*
X186400000Y-140225000I0J75000D01*
G01*
G37*
G36*
G01*
X186400000Y-140725000D02*
X186400000Y-140575000D01*
G75*
G02*
X186475000Y-140500000I75000J0D01*
G01*
X187875000Y-140500000D01*
G75*
G02*
X187950000Y-140575000I0J-75000D01*
G01*
X187950000Y-140725000D01*
G75*
G02*
X187875000Y-140800000I-75000J0D01*
G01*
X186475000Y-140800000D01*
G75*
G02*
X186400000Y-140725000I0J75000D01*
G01*
G37*
G36*
G01*
X186400000Y-141225000D02*
X186400000Y-141075000D01*
G75*
G02*
X186475000Y-141000000I75000J0D01*
G01*
X187875000Y-141000000D01*
G75*
G02*
X187950000Y-141075000I0J-75000D01*
G01*
X187950000Y-141225000D01*
G75*
G02*
X187875000Y-141300000I-75000J0D01*
G01*
X186475000Y-141300000D01*
G75*
G02*
X186400000Y-141225000I0J75000D01*
G01*
G37*
G36*
G01*
X186400000Y-141725000D02*
X186400000Y-141575000D01*
G75*
G02*
X186475000Y-141500000I75000J0D01*
G01*
X187875000Y-141500000D01*
G75*
G02*
X187950000Y-141575000I0J-75000D01*
G01*
X187950000Y-141725000D01*
G75*
G02*
X187875000Y-141800000I-75000J0D01*
G01*
X186475000Y-141800000D01*
G75*
G02*
X186400000Y-141725000I0J75000D01*
G01*
G37*
G36*
G01*
X186400000Y-142225000D02*
X186400000Y-142075000D01*
G75*
G02*
X186475000Y-142000000I75000J0D01*
G01*
X187875000Y-142000000D01*
G75*
G02*
X187950000Y-142075000I0J-75000D01*
G01*
X187950000Y-142225000D01*
G75*
G02*
X187875000Y-142300000I-75000J0D01*
G01*
X186475000Y-142300000D01*
G75*
G02*
X186400000Y-142225000I0J75000D01*
G01*
G37*
G36*
G01*
X186400000Y-142725000D02*
X186400000Y-142575000D01*
G75*
G02*
X186475000Y-142500000I75000J0D01*
G01*
X187875000Y-142500000D01*
G75*
G02*
X187950000Y-142575000I0J-75000D01*
G01*
X187950000Y-142725000D01*
G75*
G02*
X187875000Y-142800000I-75000J0D01*
G01*
X186475000Y-142800000D01*
G75*
G02*
X186400000Y-142725000I0J75000D01*
G01*
G37*
G36*
G01*
X186400000Y-143225000D02*
X186400000Y-143075000D01*
G75*
G02*
X186475000Y-143000000I75000J0D01*
G01*
X187875000Y-143000000D01*
G75*
G02*
X187950000Y-143075000I0J-75000D01*
G01*
X187950000Y-143225000D01*
G75*
G02*
X187875000Y-143300000I-75000J0D01*
G01*
X186475000Y-143300000D01*
G75*
G02*
X186400000Y-143225000I0J75000D01*
G01*
G37*
G36*
G01*
X186400000Y-143725000D02*
X186400000Y-143575000D01*
G75*
G02*
X186475000Y-143500000I75000J0D01*
G01*
X187875000Y-143500000D01*
G75*
G02*
X187950000Y-143575000I0J-75000D01*
G01*
X187950000Y-143725000D01*
G75*
G02*
X187875000Y-143800000I-75000J0D01*
G01*
X186475000Y-143800000D01*
G75*
G02*
X186400000Y-143725000I0J75000D01*
G01*
G37*
G36*
G01*
X186400000Y-144225000D02*
X186400000Y-144075000D01*
G75*
G02*
X186475000Y-144000000I75000J0D01*
G01*
X187875000Y-144000000D01*
G75*
G02*
X187950000Y-144075000I0J-75000D01*
G01*
X187950000Y-144225000D01*
G75*
G02*
X187875000Y-144300000I-75000J0D01*
G01*
X186475000Y-144300000D01*
G75*
G02*
X186400000Y-144225000I0J75000D01*
G01*
G37*
G36*
G01*
X186400000Y-144725000D02*
X186400000Y-144575000D01*
G75*
G02*
X186475000Y-144500000I75000J0D01*
G01*
X187875000Y-144500000D01*
G75*
G02*
X187950000Y-144575000I0J-75000D01*
G01*
X187950000Y-144725000D01*
G75*
G02*
X187875000Y-144800000I-75000J0D01*
G01*
X186475000Y-144800000D01*
G75*
G02*
X186400000Y-144725000I0J75000D01*
G01*
G37*
G36*
G01*
X185100000Y-147275000D02*
X185100000Y-145875000D01*
G75*
G02*
X185175000Y-145800000I75000J0D01*
G01*
X185325000Y-145800000D01*
G75*
G02*
X185400000Y-145875000I0J-75000D01*
G01*
X185400000Y-147275000D01*
G75*
G02*
X185325000Y-147350000I-75000J0D01*
G01*
X185175000Y-147350000D01*
G75*
G02*
X185100000Y-147275000I0J75000D01*
G01*
G37*
G36*
G01*
X184600000Y-147275000D02*
X184600000Y-145875000D01*
G75*
G02*
X184675000Y-145800000I75000J0D01*
G01*
X184825000Y-145800000D01*
G75*
G02*
X184900000Y-145875000I0J-75000D01*
G01*
X184900000Y-147275000D01*
G75*
G02*
X184825000Y-147350000I-75000J0D01*
G01*
X184675000Y-147350000D01*
G75*
G02*
X184600000Y-147275000I0J75000D01*
G01*
G37*
G36*
G01*
X184100000Y-147275000D02*
X184100000Y-145875000D01*
G75*
G02*
X184175000Y-145800000I75000J0D01*
G01*
X184325000Y-145800000D01*
G75*
G02*
X184400000Y-145875000I0J-75000D01*
G01*
X184400000Y-147275000D01*
G75*
G02*
X184325000Y-147350000I-75000J0D01*
G01*
X184175000Y-147350000D01*
G75*
G02*
X184100000Y-147275000I0J75000D01*
G01*
G37*
G36*
G01*
X183600000Y-147275000D02*
X183600000Y-145875000D01*
G75*
G02*
X183675000Y-145800000I75000J0D01*
G01*
X183825000Y-145800000D01*
G75*
G02*
X183900000Y-145875000I0J-75000D01*
G01*
X183900000Y-147275000D01*
G75*
G02*
X183825000Y-147350000I-75000J0D01*
G01*
X183675000Y-147350000D01*
G75*
G02*
X183600000Y-147275000I0J75000D01*
G01*
G37*
G36*
G01*
X183100000Y-147275000D02*
X183100000Y-145875000D01*
G75*
G02*
X183175000Y-145800000I75000J0D01*
G01*
X183325000Y-145800000D01*
G75*
G02*
X183400000Y-145875000I0J-75000D01*
G01*
X183400000Y-147275000D01*
G75*
G02*
X183325000Y-147350000I-75000J0D01*
G01*
X183175000Y-147350000D01*
G75*
G02*
X183100000Y-147275000I0J75000D01*
G01*
G37*
G36*
G01*
X182600000Y-147275000D02*
X182600000Y-145875000D01*
G75*
G02*
X182675000Y-145800000I75000J0D01*
G01*
X182825000Y-145800000D01*
G75*
G02*
X182900000Y-145875000I0J-75000D01*
G01*
X182900000Y-147275000D01*
G75*
G02*
X182825000Y-147350000I-75000J0D01*
G01*
X182675000Y-147350000D01*
G75*
G02*
X182600000Y-147275000I0J75000D01*
G01*
G37*
G36*
G01*
X182100000Y-147275000D02*
X182100000Y-145875000D01*
G75*
G02*
X182175000Y-145800000I75000J0D01*
G01*
X182325000Y-145800000D01*
G75*
G02*
X182400000Y-145875000I0J-75000D01*
G01*
X182400000Y-147275000D01*
G75*
G02*
X182325000Y-147350000I-75000J0D01*
G01*
X182175000Y-147350000D01*
G75*
G02*
X182100000Y-147275000I0J75000D01*
G01*
G37*
G36*
G01*
X181600000Y-147275000D02*
X181600000Y-145875000D01*
G75*
G02*
X181675000Y-145800000I75000J0D01*
G01*
X181825000Y-145800000D01*
G75*
G02*
X181900000Y-145875000I0J-75000D01*
G01*
X181900000Y-147275000D01*
G75*
G02*
X181825000Y-147350000I-75000J0D01*
G01*
X181675000Y-147350000D01*
G75*
G02*
X181600000Y-147275000I0J75000D01*
G01*
G37*
G36*
G01*
X181100000Y-147275000D02*
X181100000Y-145875000D01*
G75*
G02*
X181175000Y-145800000I75000J0D01*
G01*
X181325000Y-145800000D01*
G75*
G02*
X181400000Y-145875000I0J-75000D01*
G01*
X181400000Y-147275000D01*
G75*
G02*
X181325000Y-147350000I-75000J0D01*
G01*
X181175000Y-147350000D01*
G75*
G02*
X181100000Y-147275000I0J75000D01*
G01*
G37*
G36*
G01*
X180600000Y-147275000D02*
X180600000Y-145875000D01*
G75*
G02*
X180675000Y-145800000I75000J0D01*
G01*
X180825000Y-145800000D01*
G75*
G02*
X180900000Y-145875000I0J-75000D01*
G01*
X180900000Y-147275000D01*
G75*
G02*
X180825000Y-147350000I-75000J0D01*
G01*
X180675000Y-147350000D01*
G75*
G02*
X180600000Y-147275000I0J75000D01*
G01*
G37*
G36*
G01*
X180100000Y-147275000D02*
X180100000Y-145875000D01*
G75*
G02*
X180175000Y-145800000I75000J0D01*
G01*
X180325000Y-145800000D01*
G75*
G02*
X180400000Y-145875000I0J-75000D01*
G01*
X180400000Y-147275000D01*
G75*
G02*
X180325000Y-147350000I-75000J0D01*
G01*
X180175000Y-147350000D01*
G75*
G02*
X180100000Y-147275000I0J75000D01*
G01*
G37*
G36*
G01*
X179600000Y-147275000D02*
X179600000Y-145875000D01*
G75*
G02*
X179675000Y-145800000I75000J0D01*
G01*
X179825000Y-145800000D01*
G75*
G02*
X179900000Y-145875000I0J-75000D01*
G01*
X179900000Y-147275000D01*
G75*
G02*
X179825000Y-147350000I-75000J0D01*
G01*
X179675000Y-147350000D01*
G75*
G02*
X179600000Y-147275000I0J75000D01*
G01*
G37*
G36*
G01*
X179100000Y-147275000D02*
X179100000Y-145875000D01*
G75*
G02*
X179175000Y-145800000I75000J0D01*
G01*
X179325000Y-145800000D01*
G75*
G02*
X179400000Y-145875000I0J-75000D01*
G01*
X179400000Y-147275000D01*
G75*
G02*
X179325000Y-147350000I-75000J0D01*
G01*
X179175000Y-147350000D01*
G75*
G02*
X179100000Y-147275000I0J75000D01*
G01*
G37*
G36*
G01*
X178600000Y-147275000D02*
X178600000Y-145875000D01*
G75*
G02*
X178675000Y-145800000I75000J0D01*
G01*
X178825000Y-145800000D01*
G75*
G02*
X178900000Y-145875000I0J-75000D01*
G01*
X178900000Y-147275000D01*
G75*
G02*
X178825000Y-147350000I-75000J0D01*
G01*
X178675000Y-147350000D01*
G75*
G02*
X178600000Y-147275000I0J75000D01*
G01*
G37*
G36*
G01*
X178100000Y-147275000D02*
X178100000Y-145875000D01*
G75*
G02*
X178175000Y-145800000I75000J0D01*
G01*
X178325000Y-145800000D01*
G75*
G02*
X178400000Y-145875000I0J-75000D01*
G01*
X178400000Y-147275000D01*
G75*
G02*
X178325000Y-147350000I-75000J0D01*
G01*
X178175000Y-147350000D01*
G75*
G02*
X178100000Y-147275000I0J75000D01*
G01*
G37*
G36*
G01*
X177600000Y-147275000D02*
X177600000Y-145875000D01*
G75*
G02*
X177675000Y-145800000I75000J0D01*
G01*
X177825000Y-145800000D01*
G75*
G02*
X177900000Y-145875000I0J-75000D01*
G01*
X177900000Y-147275000D01*
G75*
G02*
X177825000Y-147350000I-75000J0D01*
G01*
X177675000Y-147350000D01*
G75*
G02*
X177600000Y-147275000I0J75000D01*
G01*
G37*
G36*
G01*
X175050000Y-144725000D02*
X175050000Y-144575000D01*
G75*
G02*
X175125000Y-144500000I75000J0D01*
G01*
X176525000Y-144500000D01*
G75*
G02*
X176600000Y-144575000I0J-75000D01*
G01*
X176600000Y-144725000D01*
G75*
G02*
X176525000Y-144800000I-75000J0D01*
G01*
X175125000Y-144800000D01*
G75*
G02*
X175050000Y-144725000I0J75000D01*
G01*
G37*
G36*
G01*
X175050000Y-144225000D02*
X175050000Y-144075000D01*
G75*
G02*
X175125000Y-144000000I75000J0D01*
G01*
X176525000Y-144000000D01*
G75*
G02*
X176600000Y-144075000I0J-75000D01*
G01*
X176600000Y-144225000D01*
G75*
G02*
X176525000Y-144300000I-75000J0D01*
G01*
X175125000Y-144300000D01*
G75*
G02*
X175050000Y-144225000I0J75000D01*
G01*
G37*
G36*
G01*
X175050000Y-143725000D02*
X175050000Y-143575000D01*
G75*
G02*
X175125000Y-143500000I75000J0D01*
G01*
X176525000Y-143500000D01*
G75*
G02*
X176600000Y-143575000I0J-75000D01*
G01*
X176600000Y-143725000D01*
G75*
G02*
X176525000Y-143800000I-75000J0D01*
G01*
X175125000Y-143800000D01*
G75*
G02*
X175050000Y-143725000I0J75000D01*
G01*
G37*
G36*
G01*
X175050000Y-143225000D02*
X175050000Y-143075000D01*
G75*
G02*
X175125000Y-143000000I75000J0D01*
G01*
X176525000Y-143000000D01*
G75*
G02*
X176600000Y-143075000I0J-75000D01*
G01*
X176600000Y-143225000D01*
G75*
G02*
X176525000Y-143300000I-75000J0D01*
G01*
X175125000Y-143300000D01*
G75*
G02*
X175050000Y-143225000I0J75000D01*
G01*
G37*
G36*
G01*
X175050000Y-142725000D02*
X175050000Y-142575000D01*
G75*
G02*
X175125000Y-142500000I75000J0D01*
G01*
X176525000Y-142500000D01*
G75*
G02*
X176600000Y-142575000I0J-75000D01*
G01*
X176600000Y-142725000D01*
G75*
G02*
X176525000Y-142800000I-75000J0D01*
G01*
X175125000Y-142800000D01*
G75*
G02*
X175050000Y-142725000I0J75000D01*
G01*
G37*
G36*
G01*
X175050000Y-142225000D02*
X175050000Y-142075000D01*
G75*
G02*
X175125000Y-142000000I75000J0D01*
G01*
X176525000Y-142000000D01*
G75*
G02*
X176600000Y-142075000I0J-75000D01*
G01*
X176600000Y-142225000D01*
G75*
G02*
X176525000Y-142300000I-75000J0D01*
G01*
X175125000Y-142300000D01*
G75*
G02*
X175050000Y-142225000I0J75000D01*
G01*
G37*
G36*
G01*
X175050000Y-141725000D02*
X175050000Y-141575000D01*
G75*
G02*
X175125000Y-141500000I75000J0D01*
G01*
X176525000Y-141500000D01*
G75*
G02*
X176600000Y-141575000I0J-75000D01*
G01*
X176600000Y-141725000D01*
G75*
G02*
X176525000Y-141800000I-75000J0D01*
G01*
X175125000Y-141800000D01*
G75*
G02*
X175050000Y-141725000I0J75000D01*
G01*
G37*
G36*
G01*
X175050000Y-141225000D02*
X175050000Y-141075000D01*
G75*
G02*
X175125000Y-141000000I75000J0D01*
G01*
X176525000Y-141000000D01*
G75*
G02*
X176600000Y-141075000I0J-75000D01*
G01*
X176600000Y-141225000D01*
G75*
G02*
X176525000Y-141300000I-75000J0D01*
G01*
X175125000Y-141300000D01*
G75*
G02*
X175050000Y-141225000I0J75000D01*
G01*
G37*
G36*
G01*
X175050000Y-140725000D02*
X175050000Y-140575000D01*
G75*
G02*
X175125000Y-140500000I75000J0D01*
G01*
X176525000Y-140500000D01*
G75*
G02*
X176600000Y-140575000I0J-75000D01*
G01*
X176600000Y-140725000D01*
G75*
G02*
X176525000Y-140800000I-75000J0D01*
G01*
X175125000Y-140800000D01*
G75*
G02*
X175050000Y-140725000I0J75000D01*
G01*
G37*
G36*
G01*
X175050000Y-140225000D02*
X175050000Y-140075000D01*
G75*
G02*
X175125000Y-140000000I75000J0D01*
G01*
X176525000Y-140000000D01*
G75*
G02*
X176600000Y-140075000I0J-75000D01*
G01*
X176600000Y-140225000D01*
G75*
G02*
X176525000Y-140300000I-75000J0D01*
G01*
X175125000Y-140300000D01*
G75*
G02*
X175050000Y-140225000I0J75000D01*
G01*
G37*
G36*
G01*
X175050000Y-139725000D02*
X175050000Y-139575000D01*
G75*
G02*
X175125000Y-139500000I75000J0D01*
G01*
X176525000Y-139500000D01*
G75*
G02*
X176600000Y-139575000I0J-75000D01*
G01*
X176600000Y-139725000D01*
G75*
G02*
X176525000Y-139800000I-75000J0D01*
G01*
X175125000Y-139800000D01*
G75*
G02*
X175050000Y-139725000I0J75000D01*
G01*
G37*
G36*
G01*
X175050000Y-139225000D02*
X175050000Y-139075000D01*
G75*
G02*
X175125000Y-139000000I75000J0D01*
G01*
X176525000Y-139000000D01*
G75*
G02*
X176600000Y-139075000I0J-75000D01*
G01*
X176600000Y-139225000D01*
G75*
G02*
X176525000Y-139300000I-75000J0D01*
G01*
X175125000Y-139300000D01*
G75*
G02*
X175050000Y-139225000I0J75000D01*
G01*
G37*
G36*
G01*
X175050000Y-138725000D02*
X175050000Y-138575000D01*
G75*
G02*
X175125000Y-138500000I75000J0D01*
G01*
X176525000Y-138500000D01*
G75*
G02*
X176600000Y-138575000I0J-75000D01*
G01*
X176600000Y-138725000D01*
G75*
G02*
X176525000Y-138800000I-75000J0D01*
G01*
X175125000Y-138800000D01*
G75*
G02*
X175050000Y-138725000I0J75000D01*
G01*
G37*
G36*
G01*
X175050000Y-138225000D02*
X175050000Y-138075000D01*
G75*
G02*
X175125000Y-138000000I75000J0D01*
G01*
X176525000Y-138000000D01*
G75*
G02*
X176600000Y-138075000I0J-75000D01*
G01*
X176600000Y-138225000D01*
G75*
G02*
X176525000Y-138300000I-75000J0D01*
G01*
X175125000Y-138300000D01*
G75*
G02*
X175050000Y-138225000I0J75000D01*
G01*
G37*
G36*
G01*
X175050000Y-137725000D02*
X175050000Y-137575000D01*
G75*
G02*
X175125000Y-137500000I75000J0D01*
G01*
X176525000Y-137500000D01*
G75*
G02*
X176600000Y-137575000I0J-75000D01*
G01*
X176600000Y-137725000D01*
G75*
G02*
X176525000Y-137800000I-75000J0D01*
G01*
X175125000Y-137800000D01*
G75*
G02*
X175050000Y-137725000I0J75000D01*
G01*
G37*
G36*
G01*
X175050000Y-137225000D02*
X175050000Y-137075000D01*
G75*
G02*
X175125000Y-137000000I75000J0D01*
G01*
X176525000Y-137000000D01*
G75*
G02*
X176600000Y-137075000I0J-75000D01*
G01*
X176600000Y-137225000D01*
G75*
G02*
X176525000Y-137300000I-75000J0D01*
G01*
X175125000Y-137300000D01*
G75*
G02*
X175050000Y-137225000I0J75000D01*
G01*
G37*
%TD*%
D10*
%TO.C,J6*%
X202262500Y-128750000D03*
X202262500Y-122950000D03*
D11*
X202262500Y-122350000D03*
X202262500Y-129350000D03*
D12*
X202262500Y-126850000D03*
D13*
X199562500Y-123350000D03*
D14*
X199562500Y-125850000D03*
X199562500Y-125200000D03*
X199562500Y-124550000D03*
X199562500Y-127150000D03*
X199562500Y-126500000D03*
D13*
X199562500Y-128350000D03*
D12*
X202262500Y-124850000D03*
%TD*%
%TO.C,R17*%
G36*
G01*
X184665000Y-150635000D02*
X184665000Y-150265000D01*
G75*
G02*
X184800000Y-150130000I135000J0D01*
G01*
X185070000Y-150130000D01*
G75*
G02*
X185205000Y-150265000I0J-135000D01*
G01*
X185205000Y-150635000D01*
G75*
G02*
X185070000Y-150770000I-135000J0D01*
G01*
X184800000Y-150770000D01*
G75*
G02*
X184665000Y-150635000I0J135000D01*
G01*
G37*
G36*
G01*
X183645000Y-150635000D02*
X183645000Y-150265000D01*
G75*
G02*
X183780000Y-150130000I135000J0D01*
G01*
X184050000Y-150130000D01*
G75*
G02*
X184185000Y-150265000I0J-135000D01*
G01*
X184185000Y-150635000D01*
G75*
G02*
X184050000Y-150770000I-135000J0D01*
G01*
X183780000Y-150770000D01*
G75*
G02*
X183645000Y-150635000I0J135000D01*
G01*
G37*
%TD*%
%TO.C,C6*%
G36*
G01*
X187795000Y-135270000D02*
X187455000Y-135270000D01*
G75*
G02*
X187315000Y-135130000I0J140000D01*
G01*
X187315000Y-134850000D01*
G75*
G02*
X187455000Y-134710000I140000J0D01*
G01*
X187795000Y-134710000D01*
G75*
G02*
X187935000Y-134850000I0J-140000D01*
G01*
X187935000Y-135130000D01*
G75*
G02*
X187795000Y-135270000I-140000J0D01*
G01*
G37*
G36*
G01*
X187795000Y-136230000D02*
X187455000Y-136230000D01*
G75*
G02*
X187315000Y-136090000I0J140000D01*
G01*
X187315000Y-135810000D01*
G75*
G02*
X187455000Y-135670000I140000J0D01*
G01*
X187795000Y-135670000D01*
G75*
G02*
X187935000Y-135810000I0J-140000D01*
G01*
X187935000Y-136090000D01*
G75*
G02*
X187795000Y-136230000I-140000J0D01*
G01*
G37*
%TD*%
D15*
%TO.C,H4*%
X153122056Y-94927944D03*
X151425000Y-94225000D03*
X149727944Y-94927944D03*
X149025000Y-96625000D03*
X149727944Y-98322056D03*
X151425000Y-99025000D03*
X153122056Y-98322056D03*
X153825000Y-96625000D03*
D16*
X151425000Y-96625000D03*
%TD*%
D15*
%TO.C,H3*%
X153122056Y-152952944D03*
X151425000Y-152250000D03*
X149727944Y-152952944D03*
X149025000Y-154650000D03*
X149727944Y-156347056D03*
X151425000Y-157050000D03*
X153122056Y-156347056D03*
X153825000Y-154650000D03*
D16*
X151425000Y-154650000D03*
%TD*%
D15*
%TO.C,H2*%
X202122056Y-152952944D03*
X200425000Y-152250000D03*
X198727944Y-152952944D03*
X198025000Y-154650000D03*
X198727944Y-156347056D03*
X200425000Y-157050000D03*
X202122056Y-156347056D03*
X202825000Y-154650000D03*
D16*
X200425000Y-154650000D03*
%TD*%
D15*
%TO.C,H1*%
X202122056Y-94927944D03*
X200425000Y-94225000D03*
X198727944Y-94927944D03*
X198025000Y-96625000D03*
X198727944Y-98322056D03*
X200425000Y-99025000D03*
X202122056Y-98322056D03*
X202825000Y-96625000D03*
D16*
X200425000Y-96625000D03*
%TD*%
D17*
%TO.C,Y1*%
X172425000Y-138100000D03*
X172425000Y-140300000D03*
X170725000Y-140300000D03*
X170725000Y-138100000D03*
%TD*%
D18*
%TO.C,USART1*%
X197225000Y-133100000D03*
X197225000Y-134350000D03*
X197225000Y-135600000D03*
G36*
G01*
X197675000Y-137250000D02*
X196775000Y-137250000D01*
G75*
G02*
X196575000Y-137050000I0J200000D01*
G01*
X196575000Y-136650000D01*
G75*
G02*
X196775000Y-136450000I200000J0D01*
G01*
X197675000Y-136450000D01*
G75*
G02*
X197875000Y-136650000I0J-200000D01*
G01*
X197875000Y-137050000D01*
G75*
G02*
X197675000Y-137250000I-200000J0D01*
G01*
G37*
%TD*%
%TO.C,U5*%
G36*
G01*
X176987500Y-155850000D02*
X176987500Y-156050000D01*
G75*
G02*
X176887500Y-156150000I-100000J0D01*
G01*
X175462500Y-156150000D01*
G75*
G02*
X175362500Y-156050000I0J100000D01*
G01*
X175362500Y-155850000D01*
G75*
G02*
X175462500Y-155750000I100000J0D01*
G01*
X176887500Y-155750000D01*
G75*
G02*
X176987500Y-155850000I0J-100000D01*
G01*
G37*
G36*
G01*
X176987500Y-155200000D02*
X176987500Y-155400000D01*
G75*
G02*
X176887500Y-155500000I-100000J0D01*
G01*
X175462500Y-155500000D01*
G75*
G02*
X175362500Y-155400000I0J100000D01*
G01*
X175362500Y-155200000D01*
G75*
G02*
X175462500Y-155100000I100000J0D01*
G01*
X176887500Y-155100000D01*
G75*
G02*
X176987500Y-155200000I0J-100000D01*
G01*
G37*
G36*
G01*
X176987500Y-154550000D02*
X176987500Y-154750000D01*
G75*
G02*
X176887500Y-154850000I-100000J0D01*
G01*
X175462500Y-154850000D01*
G75*
G02*
X175362500Y-154750000I0J100000D01*
G01*
X175362500Y-154550000D01*
G75*
G02*
X175462500Y-154450000I100000J0D01*
G01*
X176887500Y-154450000D01*
G75*
G02*
X176987500Y-154550000I0J-100000D01*
G01*
G37*
G36*
G01*
X176987500Y-153900000D02*
X176987500Y-154100000D01*
G75*
G02*
X176887500Y-154200000I-100000J0D01*
G01*
X175462500Y-154200000D01*
G75*
G02*
X175362500Y-154100000I0J100000D01*
G01*
X175362500Y-153900000D01*
G75*
G02*
X175462500Y-153800000I100000J0D01*
G01*
X176887500Y-153800000D01*
G75*
G02*
X176987500Y-153900000I0J-100000D01*
G01*
G37*
G36*
G01*
X181212500Y-153900000D02*
X181212500Y-154100000D01*
G75*
G02*
X181112500Y-154200000I-100000J0D01*
G01*
X179687500Y-154200000D01*
G75*
G02*
X179587500Y-154100000I0J100000D01*
G01*
X179587500Y-153900000D01*
G75*
G02*
X179687500Y-153800000I100000J0D01*
G01*
X181112500Y-153800000D01*
G75*
G02*
X181212500Y-153900000I0J-100000D01*
G01*
G37*
G36*
G01*
X181212500Y-154550000D02*
X181212500Y-154750000D01*
G75*
G02*
X181112500Y-154850000I-100000J0D01*
G01*
X179687500Y-154850000D01*
G75*
G02*
X179587500Y-154750000I0J100000D01*
G01*
X179587500Y-154550000D01*
G75*
G02*
X179687500Y-154450000I100000J0D01*
G01*
X181112500Y-154450000D01*
G75*
G02*
X181212500Y-154550000I0J-100000D01*
G01*
G37*
G36*
G01*
X181212500Y-155200000D02*
X181212500Y-155400000D01*
G75*
G02*
X181112500Y-155500000I-100000J0D01*
G01*
X179687500Y-155500000D01*
G75*
G02*
X179587500Y-155400000I0J100000D01*
G01*
X179587500Y-155200000D01*
G75*
G02*
X179687500Y-155100000I100000J0D01*
G01*
X181112500Y-155100000D01*
G75*
G02*
X181212500Y-155200000I0J-100000D01*
G01*
G37*
G36*
G01*
X181212500Y-155850000D02*
X181212500Y-156050000D01*
G75*
G02*
X181112500Y-156150000I-100000J0D01*
G01*
X179687500Y-156150000D01*
G75*
G02*
X179587500Y-156050000I0J100000D01*
G01*
X179587500Y-155850000D01*
G75*
G02*
X179687500Y-155750000I100000J0D01*
G01*
X181112500Y-155750000D01*
G75*
G02*
X181212500Y-155850000I0J-100000D01*
G01*
G37*
%TD*%
D19*
%TO.C,U4*%
X165725000Y-137950000D03*
X161125000Y-137950000D03*
X163425000Y-137950000D03*
D20*
X163425000Y-144250000D03*
%TD*%
D21*
%TO.C,U3*%
X192475000Y-131550000D03*
X193425000Y-131550000D03*
X191525000Y-131550000D03*
X191525000Y-129350000D03*
X192475000Y-129350000D03*
X193425000Y-129350000D03*
%TD*%
D22*
%TO.C,U2*%
X163700000Y-126035000D03*
G36*
G01*
X165200000Y-124280000D02*
X165200000Y-123980000D01*
G75*
G02*
X165350000Y-123830000I150000J0D01*
G01*
X167000000Y-123830000D01*
G75*
G02*
X167150000Y-123980000I0J-150000D01*
G01*
X167150000Y-124280000D01*
G75*
G02*
X167000000Y-124430000I-150000J0D01*
G01*
X165350000Y-124430000D01*
G75*
G02*
X165200000Y-124280000I0J150000D01*
G01*
G37*
G36*
G01*
X165200000Y-125550000D02*
X165200000Y-125250000D01*
G75*
G02*
X165350000Y-125100000I150000J0D01*
G01*
X167000000Y-125100000D01*
G75*
G02*
X167150000Y-125250000I0J-150000D01*
G01*
X167150000Y-125550000D01*
G75*
G02*
X167000000Y-125700000I-150000J0D01*
G01*
X165350000Y-125700000D01*
G75*
G02*
X165200000Y-125550000I0J150000D01*
G01*
G37*
G36*
G01*
X165200000Y-126820000D02*
X165200000Y-126520000D01*
G75*
G02*
X165350000Y-126370000I150000J0D01*
G01*
X167000000Y-126370000D01*
G75*
G02*
X167150000Y-126520000I0J-150000D01*
G01*
X167150000Y-126820000D01*
G75*
G02*
X167000000Y-126970000I-150000J0D01*
G01*
X165350000Y-126970000D01*
G75*
G02*
X165200000Y-126820000I0J150000D01*
G01*
G37*
G36*
G01*
X165200000Y-128090000D02*
X165200000Y-127790000D01*
G75*
G02*
X165350000Y-127640000I150000J0D01*
G01*
X167000000Y-127640000D01*
G75*
G02*
X167150000Y-127790000I0J-150000D01*
G01*
X167150000Y-128090000D01*
G75*
G02*
X167000000Y-128240000I-150000J0D01*
G01*
X165350000Y-128240000D01*
G75*
G02*
X165200000Y-128090000I0J150000D01*
G01*
G37*
G36*
G01*
X160250000Y-128090000D02*
X160250000Y-127790000D01*
G75*
G02*
X160400000Y-127640000I150000J0D01*
G01*
X162050000Y-127640000D01*
G75*
G02*
X162200000Y-127790000I0J-150000D01*
G01*
X162200000Y-128090000D01*
G75*
G02*
X162050000Y-128240000I-150000J0D01*
G01*
X160400000Y-128240000D01*
G75*
G02*
X160250000Y-128090000I0J150000D01*
G01*
G37*
G36*
G01*
X160250000Y-126820000D02*
X160250000Y-126520000D01*
G75*
G02*
X160400000Y-126370000I150000J0D01*
G01*
X162050000Y-126370000D01*
G75*
G02*
X162200000Y-126520000I0J-150000D01*
G01*
X162200000Y-126820000D01*
G75*
G02*
X162050000Y-126970000I-150000J0D01*
G01*
X160400000Y-126970000D01*
G75*
G02*
X160250000Y-126820000I0J150000D01*
G01*
G37*
G36*
G01*
X160250000Y-125550000D02*
X160250000Y-125250000D01*
G75*
G02*
X160400000Y-125100000I150000J0D01*
G01*
X162050000Y-125100000D01*
G75*
G02*
X162200000Y-125250000I0J-150000D01*
G01*
X162200000Y-125550000D01*
G75*
G02*
X162050000Y-125700000I-150000J0D01*
G01*
X160400000Y-125700000D01*
G75*
G02*
X160250000Y-125550000I0J150000D01*
G01*
G37*
G36*
G01*
X160250000Y-124280000D02*
X160250000Y-123980000D01*
G75*
G02*
X160400000Y-123830000I150000J0D01*
G01*
X162050000Y-123830000D01*
G75*
G02*
X162200000Y-123980000I0J-150000D01*
G01*
X162200000Y-124280000D01*
G75*
G02*
X162050000Y-124430000I-150000J0D01*
G01*
X160400000Y-124430000D01*
G75*
G02*
X160250000Y-124280000I0J150000D01*
G01*
G37*
%TD*%
D23*
%TO.C,BOOT*%
X200745000Y-113550000D03*
X200745000Y-106250000D03*
X202955000Y-106250000D03*
X202955000Y-113550000D03*
D24*
X200095000Y-107650000D03*
X200095000Y-109150000D03*
X200095000Y-112150000D03*
D25*
X201855000Y-108400000D03*
X201855000Y-111400000D03*
%TD*%
%TO.C,R24*%
G36*
G01*
X166975000Y-113725000D02*
X166975000Y-113175000D01*
G75*
G02*
X167175000Y-112975000I200000J0D01*
G01*
X167575000Y-112975000D01*
G75*
G02*
X167775000Y-113175000I0J-200000D01*
G01*
X167775000Y-113725000D01*
G75*
G02*
X167575000Y-113925000I-200000J0D01*
G01*
X167175000Y-113925000D01*
G75*
G02*
X166975000Y-113725000I0J200000D01*
G01*
G37*
G36*
G01*
X165325000Y-113725000D02*
X165325000Y-113175000D01*
G75*
G02*
X165525000Y-112975000I200000J0D01*
G01*
X165925000Y-112975000D01*
G75*
G02*
X166125000Y-113175000I0J-200000D01*
G01*
X166125000Y-113725000D01*
G75*
G02*
X165925000Y-113925000I-200000J0D01*
G01*
X165525000Y-113925000D01*
G75*
G02*
X165325000Y-113725000I0J200000D01*
G01*
G37*
%TD*%
%TO.C,R23*%
G36*
G01*
X170050000Y-115500000D02*
X170600000Y-115500000D01*
G75*
G02*
X170800000Y-115700000I0J-200000D01*
G01*
X170800000Y-116100000D01*
G75*
G02*
X170600000Y-116300000I-200000J0D01*
G01*
X170050000Y-116300000D01*
G75*
G02*
X169850000Y-116100000I0J200000D01*
G01*
X169850000Y-115700000D01*
G75*
G02*
X170050000Y-115500000I200000J0D01*
G01*
G37*
G36*
G01*
X170050000Y-113850000D02*
X170600000Y-113850000D01*
G75*
G02*
X170800000Y-114050000I0J-200000D01*
G01*
X170800000Y-114450000D01*
G75*
G02*
X170600000Y-114650000I-200000J0D01*
G01*
X170050000Y-114650000D01*
G75*
G02*
X169850000Y-114450000I0J200000D01*
G01*
X169850000Y-114050000D01*
G75*
G02*
X170050000Y-113850000I200000J0D01*
G01*
G37*
%TD*%
%TO.C,R22*%
G36*
G01*
X184750000Y-116000000D02*
X185300000Y-116000000D01*
G75*
G02*
X185500000Y-116200000I0J-200000D01*
G01*
X185500000Y-116600000D01*
G75*
G02*
X185300000Y-116800000I-200000J0D01*
G01*
X184750000Y-116800000D01*
G75*
G02*
X184550000Y-116600000I0J200000D01*
G01*
X184550000Y-116200000D01*
G75*
G02*
X184750000Y-116000000I200000J0D01*
G01*
G37*
G36*
G01*
X184750000Y-114350000D02*
X185300000Y-114350000D01*
G75*
G02*
X185500000Y-114550000I0J-200000D01*
G01*
X185500000Y-114950000D01*
G75*
G02*
X185300000Y-115150000I-200000J0D01*
G01*
X184750000Y-115150000D01*
G75*
G02*
X184550000Y-114950000I0J200000D01*
G01*
X184550000Y-114550000D01*
G75*
G02*
X184750000Y-114350000I200000J0D01*
G01*
G37*
%TD*%
%TO.C,R21*%
G36*
G01*
X181412500Y-149700001D02*
X181412500Y-148799999D01*
G75*
G02*
X181662499Y-148550000I249999J0D01*
G01*
X182187501Y-148550000D01*
G75*
G02*
X182437500Y-148799999I0J-249999D01*
G01*
X182437500Y-149700001D01*
G75*
G02*
X182187501Y-149950000I-249999J0D01*
G01*
X181662499Y-149950000D01*
G75*
G02*
X181412500Y-149700001I0J249999D01*
G01*
G37*
G36*
G01*
X179587500Y-149700001D02*
X179587500Y-148799999D01*
G75*
G02*
X179837499Y-148550000I249999J0D01*
G01*
X180362501Y-148550000D01*
G75*
G02*
X180612500Y-148799999I0J-249999D01*
G01*
X180612500Y-149700001D01*
G75*
G02*
X180362501Y-149950000I-249999J0D01*
G01*
X179837499Y-149950000D01*
G75*
G02*
X179587500Y-149700001I0J249999D01*
G01*
G37*
%TD*%
%TO.C,R20*%
G36*
G01*
X181437500Y-151900001D02*
X181437500Y-150999999D01*
G75*
G02*
X181687499Y-150750000I249999J0D01*
G01*
X182212501Y-150750000D01*
G75*
G02*
X182462500Y-150999999I0J-249999D01*
G01*
X182462500Y-151900001D01*
G75*
G02*
X182212501Y-152150000I-249999J0D01*
G01*
X181687499Y-152150000D01*
G75*
G02*
X181437500Y-151900001I0J249999D01*
G01*
G37*
G36*
G01*
X179612500Y-151900001D02*
X179612500Y-150999999D01*
G75*
G02*
X179862499Y-150750000I249999J0D01*
G01*
X180387501Y-150750000D01*
G75*
G02*
X180637500Y-150999999I0J-249999D01*
G01*
X180637500Y-151900001D01*
G75*
G02*
X180387501Y-152150000I-249999J0D01*
G01*
X179862499Y-152150000D01*
G75*
G02*
X179612500Y-151900001I0J249999D01*
G01*
G37*
%TD*%
%TO.C,R19*%
G36*
G01*
X175449000Y-121712500D02*
X174899000Y-121712500D01*
G75*
G02*
X174699000Y-121512500I0J200000D01*
G01*
X174699000Y-121112500D01*
G75*
G02*
X174899000Y-120912500I200000J0D01*
G01*
X175449000Y-120912500D01*
G75*
G02*
X175649000Y-121112500I0J-200000D01*
G01*
X175649000Y-121512500D01*
G75*
G02*
X175449000Y-121712500I-200000J0D01*
G01*
G37*
G36*
G01*
X175449000Y-123362500D02*
X174899000Y-123362500D01*
G75*
G02*
X174699000Y-123162500I0J200000D01*
G01*
X174699000Y-122762500D01*
G75*
G02*
X174899000Y-122562500I200000J0D01*
G01*
X175449000Y-122562500D01*
G75*
G02*
X175649000Y-122762500I0J-200000D01*
G01*
X175649000Y-123162500D01*
G75*
G02*
X175449000Y-123362500I-200000J0D01*
G01*
G37*
%TD*%
%TO.C,R18*%
G36*
G01*
X170600000Y-118300000D02*
X170050000Y-118300000D01*
G75*
G02*
X169850000Y-118100000I0J200000D01*
G01*
X169850000Y-117700000D01*
G75*
G02*
X170050000Y-117500000I200000J0D01*
G01*
X170600000Y-117500000D01*
G75*
G02*
X170800000Y-117700000I0J-200000D01*
G01*
X170800000Y-118100000D01*
G75*
G02*
X170600000Y-118300000I-200000J0D01*
G01*
G37*
G36*
G01*
X170600000Y-119950000D02*
X170050000Y-119950000D01*
G75*
G02*
X169850000Y-119750000I0J200000D01*
G01*
X169850000Y-119350000D01*
G75*
G02*
X170050000Y-119150000I200000J0D01*
G01*
X170600000Y-119150000D01*
G75*
G02*
X170800000Y-119350000I0J-200000D01*
G01*
X170800000Y-119750000D01*
G75*
G02*
X170600000Y-119950000I-200000J0D01*
G01*
G37*
%TD*%
%TO.C,R16*%
G36*
G01*
X188641500Y-147712500D02*
X189011500Y-147712500D01*
G75*
G02*
X189146500Y-147847500I0J-135000D01*
G01*
X189146500Y-148117500D01*
G75*
G02*
X189011500Y-148252500I-135000J0D01*
G01*
X188641500Y-148252500D01*
G75*
G02*
X188506500Y-148117500I0J135000D01*
G01*
X188506500Y-147847500D01*
G75*
G02*
X188641500Y-147712500I135000J0D01*
G01*
G37*
G36*
G01*
X188641500Y-146692500D02*
X189011500Y-146692500D01*
G75*
G02*
X189146500Y-146827500I0J-135000D01*
G01*
X189146500Y-147097500D01*
G75*
G02*
X189011500Y-147232500I-135000J0D01*
G01*
X188641500Y-147232500D01*
G75*
G02*
X188506500Y-147097500I0J135000D01*
G01*
X188506500Y-146827500D01*
G75*
G02*
X188641500Y-146692500I135000J0D01*
G01*
G37*
%TD*%
%TO.C,R15*%
G36*
G01*
X184240000Y-153800000D02*
X184610000Y-153800000D01*
G75*
G02*
X184745000Y-153935000I0J-135000D01*
G01*
X184745000Y-154205000D01*
G75*
G02*
X184610000Y-154340000I-135000J0D01*
G01*
X184240000Y-154340000D01*
G75*
G02*
X184105000Y-154205000I0J135000D01*
G01*
X184105000Y-153935000D01*
G75*
G02*
X184240000Y-153800000I135000J0D01*
G01*
G37*
G36*
G01*
X184240000Y-152780000D02*
X184610000Y-152780000D01*
G75*
G02*
X184745000Y-152915000I0J-135000D01*
G01*
X184745000Y-153185000D01*
G75*
G02*
X184610000Y-153320000I-135000J0D01*
G01*
X184240000Y-153320000D01*
G75*
G02*
X184105000Y-153185000I0J135000D01*
G01*
X184105000Y-152915000D01*
G75*
G02*
X184240000Y-152780000I135000J0D01*
G01*
G37*
%TD*%
%TO.C,R14*%
G36*
G01*
X184240000Y-156000000D02*
X184610000Y-156000000D01*
G75*
G02*
X184745000Y-156135000I0J-135000D01*
G01*
X184745000Y-156405000D01*
G75*
G02*
X184610000Y-156540000I-135000J0D01*
G01*
X184240000Y-156540000D01*
G75*
G02*
X184105000Y-156405000I0J135000D01*
G01*
X184105000Y-156135000D01*
G75*
G02*
X184240000Y-156000000I135000J0D01*
G01*
G37*
G36*
G01*
X184240000Y-154980000D02*
X184610000Y-154980000D01*
G75*
G02*
X184745000Y-155115000I0J-135000D01*
G01*
X184745000Y-155385000D01*
G75*
G02*
X184610000Y-155520000I-135000J0D01*
G01*
X184240000Y-155520000D01*
G75*
G02*
X184105000Y-155385000I0J135000D01*
G01*
X184105000Y-155115000D01*
G75*
G02*
X184240000Y-154980000I135000J0D01*
G01*
G37*
%TD*%
%TO.C,R13*%
G36*
G01*
X194575000Y-134215000D02*
X194575000Y-134585000D01*
G75*
G02*
X194440000Y-134720000I-135000J0D01*
G01*
X194170000Y-134720000D01*
G75*
G02*
X194035000Y-134585000I0J135000D01*
G01*
X194035000Y-134215000D01*
G75*
G02*
X194170000Y-134080000I135000J0D01*
G01*
X194440000Y-134080000D01*
G75*
G02*
X194575000Y-134215000I0J-135000D01*
G01*
G37*
G36*
G01*
X195595000Y-134215000D02*
X195595000Y-134585000D01*
G75*
G02*
X195460000Y-134720000I-135000J0D01*
G01*
X195190000Y-134720000D01*
G75*
G02*
X195055000Y-134585000I0J135000D01*
G01*
X195055000Y-134215000D01*
G75*
G02*
X195190000Y-134080000I135000J0D01*
G01*
X195460000Y-134080000D01*
G75*
G02*
X195595000Y-134215000I0J-135000D01*
G01*
G37*
%TD*%
%TO.C,R12*%
G36*
G01*
X194575000Y-135465000D02*
X194575000Y-135835000D01*
G75*
G02*
X194440000Y-135970000I-135000J0D01*
G01*
X194170000Y-135970000D01*
G75*
G02*
X194035000Y-135835000I0J135000D01*
G01*
X194035000Y-135465000D01*
G75*
G02*
X194170000Y-135330000I135000J0D01*
G01*
X194440000Y-135330000D01*
G75*
G02*
X194575000Y-135465000I0J-135000D01*
G01*
G37*
G36*
G01*
X195595000Y-135465000D02*
X195595000Y-135835000D01*
G75*
G02*
X195460000Y-135970000I-135000J0D01*
G01*
X195190000Y-135970000D01*
G75*
G02*
X195055000Y-135835000I0J135000D01*
G01*
X195055000Y-135465000D01*
G75*
G02*
X195190000Y-135330000I135000J0D01*
G01*
X195460000Y-135330000D01*
G75*
G02*
X195595000Y-135465000I0J-135000D01*
G01*
G37*
%TD*%
%TO.C,R11*%
G36*
G01*
X184750000Y-119250000D02*
X185300000Y-119250000D01*
G75*
G02*
X185500000Y-119450000I0J-200000D01*
G01*
X185500000Y-119850000D01*
G75*
G02*
X185300000Y-120050000I-200000J0D01*
G01*
X184750000Y-120050000D01*
G75*
G02*
X184550000Y-119850000I0J200000D01*
G01*
X184550000Y-119450000D01*
G75*
G02*
X184750000Y-119250000I200000J0D01*
G01*
G37*
G36*
G01*
X184750000Y-117600000D02*
X185300000Y-117600000D01*
G75*
G02*
X185500000Y-117800000I0J-200000D01*
G01*
X185500000Y-118200000D01*
G75*
G02*
X185300000Y-118400000I-200000J0D01*
G01*
X184750000Y-118400000D01*
G75*
G02*
X184550000Y-118200000I0J200000D01*
G01*
X184550000Y-117800000D01*
G75*
G02*
X184750000Y-117600000I200000J0D01*
G01*
G37*
%TD*%
%TO.C,R10*%
G36*
G01*
X184972500Y-121228000D02*
X184972500Y-121778000D01*
G75*
G02*
X184772500Y-121978000I-200000J0D01*
G01*
X184372500Y-121978000D01*
G75*
G02*
X184172500Y-121778000I0J200000D01*
G01*
X184172500Y-121228000D01*
G75*
G02*
X184372500Y-121028000I200000J0D01*
G01*
X184772500Y-121028000D01*
G75*
G02*
X184972500Y-121228000I0J-200000D01*
G01*
G37*
G36*
G01*
X186622500Y-121228000D02*
X186622500Y-121778000D01*
G75*
G02*
X186422500Y-121978000I-200000J0D01*
G01*
X186022500Y-121978000D01*
G75*
G02*
X185822500Y-121778000I0J200000D01*
G01*
X185822500Y-121228000D01*
G75*
G02*
X186022500Y-121028000I200000J0D01*
G01*
X186422500Y-121028000D01*
G75*
G02*
X186622500Y-121228000I0J-200000D01*
G01*
G37*
%TD*%
%TO.C,R9*%
G36*
G01*
X171258000Y-129078500D02*
X170708000Y-129078500D01*
G75*
G02*
X170508000Y-128878500I0J200000D01*
G01*
X170508000Y-128478500D01*
G75*
G02*
X170708000Y-128278500I200000J0D01*
G01*
X171258000Y-128278500D01*
G75*
G02*
X171458000Y-128478500I0J-200000D01*
G01*
X171458000Y-128878500D01*
G75*
G02*
X171258000Y-129078500I-200000J0D01*
G01*
G37*
G36*
G01*
X171258000Y-130728500D02*
X170708000Y-130728500D01*
G75*
G02*
X170508000Y-130528500I0J200000D01*
G01*
X170508000Y-130128500D01*
G75*
G02*
X170708000Y-129928500I200000J0D01*
G01*
X171258000Y-129928500D01*
G75*
G02*
X171458000Y-130128500I0J-200000D01*
G01*
X171458000Y-130528500D01*
G75*
G02*
X171258000Y-130728500I-200000J0D01*
G01*
G37*
%TD*%
%TO.C,R8*%
G36*
G01*
X165175000Y-129475000D02*
X165175000Y-130025000D01*
G75*
G02*
X164975000Y-130225000I-200000J0D01*
G01*
X164575000Y-130225000D01*
G75*
G02*
X164375000Y-130025000I0J200000D01*
G01*
X164375000Y-129475000D01*
G75*
G02*
X164575000Y-129275000I200000J0D01*
G01*
X164975000Y-129275000D01*
G75*
G02*
X165175000Y-129475000I0J-200000D01*
G01*
G37*
G36*
G01*
X166825000Y-129475000D02*
X166825000Y-130025000D01*
G75*
G02*
X166625000Y-130225000I-200000J0D01*
G01*
X166225000Y-130225000D01*
G75*
G02*
X166025000Y-130025000I0J200000D01*
G01*
X166025000Y-129475000D01*
G75*
G02*
X166225000Y-129275000I200000J0D01*
G01*
X166625000Y-129275000D01*
G75*
G02*
X166825000Y-129475000I0J-200000D01*
G01*
G37*
%TD*%
%TO.C,R7*%
G36*
G01*
X169200000Y-132425000D02*
X168650000Y-132425000D01*
G75*
G02*
X168450000Y-132225000I0J200000D01*
G01*
X168450000Y-131825000D01*
G75*
G02*
X168650000Y-131625000I200000J0D01*
G01*
X169200000Y-131625000D01*
G75*
G02*
X169400000Y-131825000I0J-200000D01*
G01*
X169400000Y-132225000D01*
G75*
G02*
X169200000Y-132425000I-200000J0D01*
G01*
G37*
G36*
G01*
X169200000Y-134075000D02*
X168650000Y-134075000D01*
G75*
G02*
X168450000Y-133875000I0J200000D01*
G01*
X168450000Y-133475000D01*
G75*
G02*
X168650000Y-133275000I200000J0D01*
G01*
X169200000Y-133275000D01*
G75*
G02*
X169400000Y-133475000I0J-200000D01*
G01*
X169400000Y-133875000D01*
G75*
G02*
X169200000Y-134075000I-200000J0D01*
G01*
G37*
%TD*%
%TO.C,R6*%
G36*
G01*
X168800000Y-124100000D02*
X168250000Y-124100000D01*
G75*
G02*
X168050000Y-123900000I0J200000D01*
G01*
X168050000Y-123500000D01*
G75*
G02*
X168250000Y-123300000I200000J0D01*
G01*
X168800000Y-123300000D01*
G75*
G02*
X169000000Y-123500000I0J-200000D01*
G01*
X169000000Y-123900000D01*
G75*
G02*
X168800000Y-124100000I-200000J0D01*
G01*
G37*
G36*
G01*
X168800000Y-125750000D02*
X168250000Y-125750000D01*
G75*
G02*
X168050000Y-125550000I0J200000D01*
G01*
X168050000Y-125150000D01*
G75*
G02*
X168250000Y-124950000I200000J0D01*
G01*
X168800000Y-124950000D01*
G75*
G02*
X169000000Y-125150000I0J-200000D01*
G01*
X169000000Y-125550000D01*
G75*
G02*
X168800000Y-125750000I-200000J0D01*
G01*
G37*
%TD*%
%TO.C,R5*%
G36*
G01*
X175274999Y-129137500D02*
X176175001Y-129137500D01*
G75*
G02*
X176425000Y-129387499I0J-249999D01*
G01*
X176425000Y-129912501D01*
G75*
G02*
X176175001Y-130162500I-249999J0D01*
G01*
X175274999Y-130162500D01*
G75*
G02*
X175025000Y-129912501I0J249999D01*
G01*
X175025000Y-129387499D01*
G75*
G02*
X175274999Y-129137500I249999J0D01*
G01*
G37*
G36*
G01*
X175274999Y-127312500D02*
X176175001Y-127312500D01*
G75*
G02*
X176425000Y-127562499I0J-249999D01*
G01*
X176425000Y-128087501D01*
G75*
G02*
X176175001Y-128337500I-249999J0D01*
G01*
X175274999Y-128337500D01*
G75*
G02*
X175025000Y-128087501I0J249999D01*
G01*
X175025000Y-127562499D01*
G75*
G02*
X175274999Y-127312500I249999J0D01*
G01*
G37*
%TD*%
%TO.C,R4*%
G36*
G01*
X172874999Y-129137500D02*
X173775001Y-129137500D01*
G75*
G02*
X174025000Y-129387499I0J-249999D01*
G01*
X174025000Y-129912501D01*
G75*
G02*
X173775001Y-130162500I-249999J0D01*
G01*
X172874999Y-130162500D01*
G75*
G02*
X172625000Y-129912501I0J249999D01*
G01*
X172625000Y-129387499D01*
G75*
G02*
X172874999Y-129137500I249999J0D01*
G01*
G37*
G36*
G01*
X172874999Y-127312500D02*
X173775001Y-127312500D01*
G75*
G02*
X174025000Y-127562499I0J-249999D01*
G01*
X174025000Y-128087501D01*
G75*
G02*
X173775001Y-128337500I-249999J0D01*
G01*
X172874999Y-128337500D01*
G75*
G02*
X172625000Y-128087501I0J249999D01*
G01*
X172625000Y-127562499D01*
G75*
G02*
X172874999Y-127312500I249999J0D01*
G01*
G37*
%TD*%
%TO.C,R3*%
G36*
G01*
X175425000Y-149675000D02*
X175425000Y-149125000D01*
G75*
G02*
X175625000Y-148925000I200000J0D01*
G01*
X176025000Y-148925000D01*
G75*
G02*
X176225000Y-149125000I0J-200000D01*
G01*
X176225000Y-149675000D01*
G75*
G02*
X176025000Y-149875000I-200000J0D01*
G01*
X175625000Y-149875000D01*
G75*
G02*
X175425000Y-149675000I0J200000D01*
G01*
G37*
G36*
G01*
X173775000Y-149675000D02*
X173775000Y-149125000D01*
G75*
G02*
X173975000Y-148925000I200000J0D01*
G01*
X174375000Y-148925000D01*
G75*
G02*
X174575000Y-149125000I0J-200000D01*
G01*
X174575000Y-149675000D01*
G75*
G02*
X174375000Y-149875000I-200000J0D01*
G01*
X173975000Y-149875000D01*
G75*
G02*
X173775000Y-149675000I0J200000D01*
G01*
G37*
%TD*%
%TO.C,R2*%
G36*
G01*
X173740000Y-140640000D02*
X174110000Y-140640000D01*
G75*
G02*
X174245000Y-140775000I0J-135000D01*
G01*
X174245000Y-141045000D01*
G75*
G02*
X174110000Y-141180000I-135000J0D01*
G01*
X173740000Y-141180000D01*
G75*
G02*
X173605000Y-141045000I0J135000D01*
G01*
X173605000Y-140775000D01*
G75*
G02*
X173740000Y-140640000I135000J0D01*
G01*
G37*
G36*
G01*
X173740000Y-139620000D02*
X174110000Y-139620000D01*
G75*
G02*
X174245000Y-139755000I0J-135000D01*
G01*
X174245000Y-140025000D01*
G75*
G02*
X174110000Y-140160000I-135000J0D01*
G01*
X173740000Y-140160000D01*
G75*
G02*
X173605000Y-140025000I0J135000D01*
G01*
X173605000Y-139755000D01*
G75*
G02*
X173740000Y-139620000I135000J0D01*
G01*
G37*
%TD*%
%TO.C,R1*%
G36*
G01*
X199373000Y-116284000D02*
X199743000Y-116284000D01*
G75*
G02*
X199878000Y-116419000I0J-135000D01*
G01*
X199878000Y-116689000D01*
G75*
G02*
X199743000Y-116824000I-135000J0D01*
G01*
X199373000Y-116824000D01*
G75*
G02*
X199238000Y-116689000I0J135000D01*
G01*
X199238000Y-116419000D01*
G75*
G02*
X199373000Y-116284000I135000J0D01*
G01*
G37*
G36*
G01*
X199373000Y-115264000D02*
X199743000Y-115264000D01*
G75*
G02*
X199878000Y-115399000I0J-135000D01*
G01*
X199878000Y-115669000D01*
G75*
G02*
X199743000Y-115804000I-135000J0D01*
G01*
X199373000Y-115804000D01*
G75*
G02*
X199238000Y-115669000I0J135000D01*
G01*
X199238000Y-115399000D01*
G75*
G02*
X199373000Y-115264000I135000J0D01*
G01*
G37*
%TD*%
D26*
%TO.C,Q3*%
X177625000Y-108675000D03*
D27*
X180165000Y-117825000D03*
X175085000Y-117825000D03*
%TD*%
D26*
%TO.C,Q2*%
X192050000Y-108625000D03*
D27*
X194590000Y-117775000D03*
X189510000Y-117775000D03*
%TD*%
D28*
%TO.C,Q1*%
X161050000Y-106925000D03*
D29*
X163330000Y-113225000D03*
X158770000Y-113225000D03*
%TD*%
D30*
%TO.C,L2*%
X159225000Y-134450000D03*
X159225000Y-130350000D03*
%TD*%
%TO.C,L1*%
G36*
G01*
X166941500Y-146567500D02*
X166941500Y-146222500D01*
G75*
G02*
X167089000Y-146075000I147500J0D01*
G01*
X167384000Y-146075000D01*
G75*
G02*
X167531500Y-146222500I0J-147500D01*
G01*
X167531500Y-146567500D01*
G75*
G02*
X167384000Y-146715000I-147500J0D01*
G01*
X167089000Y-146715000D01*
G75*
G02*
X166941500Y-146567500I0J147500D01*
G01*
G37*
G36*
G01*
X165971500Y-146567500D02*
X165971500Y-146222500D01*
G75*
G02*
X166119000Y-146075000I147500J0D01*
G01*
X166414000Y-146075000D01*
G75*
G02*
X166561500Y-146222500I0J-147500D01*
G01*
X166561500Y-146567500D01*
G75*
G02*
X166414000Y-146715000I-147500J0D01*
G01*
X166119000Y-146715000D01*
G75*
G02*
X165971500Y-146567500I0J147500D01*
G01*
G37*
%TD*%
D31*
%TO.C,ADC*%
X170175000Y-151650000D03*
X168925000Y-151650000D03*
X167675000Y-151650000D03*
X166425000Y-151650000D03*
G36*
G01*
X164775000Y-152100000D02*
X164775000Y-151200000D01*
G75*
G02*
X164975000Y-151000000I200000J0D01*
G01*
X165375000Y-151000000D01*
G75*
G02*
X165575000Y-151200000I0J-200000D01*
G01*
X165575000Y-152100000D01*
G75*
G02*
X165375000Y-152300000I-200000J0D01*
G01*
X164975000Y-152300000D01*
G75*
G02*
X164775000Y-152100000I0J200000D01*
G01*
G37*
%TD*%
D32*
%TO.C,J9*%
X160345000Y-97650000D03*
D33*
X165425000Y-97650000D03*
%TD*%
D34*
%TO.C,J8*%
X150135000Y-101510000D03*
X152675000Y-101510000D03*
X150135000Y-104050000D03*
X152675000Y-104050000D03*
X150135000Y-106590000D03*
X152675000Y-106590000D03*
X150135000Y-109130000D03*
X152675000Y-109130000D03*
X150135000Y-111670000D03*
X152675000Y-111670000D03*
X150135000Y-114210000D03*
X152675000Y-114210000D03*
X150135000Y-116750000D03*
X152675000Y-116750000D03*
X150135000Y-119290000D03*
X152675000Y-119290000D03*
X150135000Y-121830000D03*
X152675000Y-121830000D03*
X150135000Y-124370000D03*
X152675000Y-124370000D03*
X150135000Y-126910000D03*
X152675000Y-126910000D03*
X150135000Y-129450000D03*
X152675000Y-129450000D03*
X150135000Y-131990000D03*
X152675000Y-131990000D03*
X150135000Y-134530000D03*
X152675000Y-134530000D03*
X150135000Y-137070000D03*
X152675000Y-137070000D03*
X150135000Y-139610000D03*
X152675000Y-139610000D03*
X150135000Y-142150000D03*
X152675000Y-142150000D03*
X150135000Y-144690000D03*
X152675000Y-144690000D03*
X150135000Y-147230000D03*
X152675000Y-147230000D03*
X150135000Y-149770000D03*
D35*
X152675000Y-149770000D03*
%TD*%
D36*
%TO.C,SWD*%
X187775000Y-150820000D03*
X191675000Y-150820000D03*
X187775000Y-152090000D03*
X191675000Y-152090000D03*
X187775000Y-153360000D03*
X191675000Y-153360000D03*
X187775000Y-154630000D03*
X191675000Y-154630000D03*
X187775000Y-155900000D03*
X191675000Y-155900000D03*
%TD*%
D32*
%TO.C,Heater2*%
X174945000Y-97650000D03*
D33*
X180025000Y-97650000D03*
%TD*%
D32*
%TO.C,Heater1*%
X189095000Y-97640000D03*
D33*
X194175000Y-97640000D03*
%TD*%
D37*
%TO.C,GPIO*%
X196045000Y-146050000D03*
X196045000Y-142150000D03*
X197315000Y-146050000D03*
X197315000Y-142150000D03*
X198585000Y-146050000D03*
X198585000Y-142150000D03*
X199855000Y-146050000D03*
X199855000Y-142150000D03*
X201125000Y-146050000D03*
X201125000Y-142150000D03*
%TD*%
%TO.C,FB1*%
G36*
G01*
X160937500Y-117231250D02*
X160937500Y-116468750D01*
G75*
G02*
X161156250Y-116250000I218750J0D01*
G01*
X161593750Y-116250000D01*
G75*
G02*
X161812500Y-116468750I0J-218750D01*
G01*
X161812500Y-117231250D01*
G75*
G02*
X161593750Y-117450000I-218750J0D01*
G01*
X161156250Y-117450000D01*
G75*
G02*
X160937500Y-117231250I0J218750D01*
G01*
G37*
G36*
G01*
X158812500Y-117231250D02*
X158812500Y-116468750D01*
G75*
G02*
X159031250Y-116250000I218750J0D01*
G01*
X159468750Y-116250000D01*
G75*
G02*
X159687500Y-116468750I0J-218750D01*
G01*
X159687500Y-117231250D01*
G75*
G02*
X159468750Y-117450000I-218750J0D01*
G01*
X159031250Y-117450000D01*
G75*
G02*
X158812500Y-117231250I0J218750D01*
G01*
G37*
%TD*%
%TO.C,F1*%
G36*
G01*
X166150000Y-106625000D02*
X167400000Y-106625000D01*
G75*
G02*
X167650000Y-106875000I0J-250000D01*
G01*
X167650000Y-107625000D01*
G75*
G02*
X167400000Y-107875000I-250000J0D01*
G01*
X166150000Y-107875000D01*
G75*
G02*
X165900000Y-107625000I0J250000D01*
G01*
X165900000Y-106875000D01*
G75*
G02*
X166150000Y-106625000I250000J0D01*
G01*
G37*
G36*
G01*
X166150000Y-103825000D02*
X167400000Y-103825000D01*
G75*
G02*
X167650000Y-104075000I0J-250000D01*
G01*
X167650000Y-104825000D01*
G75*
G02*
X167400000Y-105075000I-250000J0D01*
G01*
X166150000Y-105075000D01*
G75*
G02*
X165900000Y-104825000I0J250000D01*
G01*
X165900000Y-104075000D01*
G75*
G02*
X166150000Y-103825000I250000J0D01*
G01*
G37*
%TD*%
%TO.C,D5*%
G36*
G01*
X166918750Y-110612500D02*
X167431250Y-110612500D01*
G75*
G02*
X167650000Y-110831250I0J-218750D01*
G01*
X167650000Y-111268750D01*
G75*
G02*
X167431250Y-111487500I-218750J0D01*
G01*
X166918750Y-111487500D01*
G75*
G02*
X166700000Y-111268750I0J218750D01*
G01*
X166700000Y-110831250D01*
G75*
G02*
X166918750Y-110612500I218750J0D01*
G01*
G37*
G36*
G01*
X166918750Y-109037500D02*
X167431250Y-109037500D01*
G75*
G02*
X167650000Y-109256250I0J-218750D01*
G01*
X167650000Y-109693750D01*
G75*
G02*
X167431250Y-109912500I-218750J0D01*
G01*
X166918750Y-109912500D01*
G75*
G02*
X166700000Y-109693750I0J218750D01*
G01*
X166700000Y-109256250D01*
G75*
G02*
X166918750Y-109037500I218750J0D01*
G01*
G37*
%TD*%
%TO.C,D4*%
G36*
G01*
X170168750Y-112012500D02*
X170681250Y-112012500D01*
G75*
G02*
X170900000Y-112231250I0J-218750D01*
G01*
X170900000Y-112668750D01*
G75*
G02*
X170681250Y-112887500I-218750J0D01*
G01*
X170168750Y-112887500D01*
G75*
G02*
X169950000Y-112668750I0J218750D01*
G01*
X169950000Y-112231250D01*
G75*
G02*
X170168750Y-112012500I218750J0D01*
G01*
G37*
G36*
G01*
X170168750Y-110437500D02*
X170681250Y-110437500D01*
G75*
G02*
X170900000Y-110656250I0J-218750D01*
G01*
X170900000Y-111093750D01*
G75*
G02*
X170681250Y-111312500I-218750J0D01*
G01*
X170168750Y-111312500D01*
G75*
G02*
X169950000Y-111093750I0J218750D01*
G01*
X169950000Y-110656250D01*
G75*
G02*
X170168750Y-110437500I218750J0D01*
G01*
G37*
%TD*%
%TO.C,D3*%
G36*
G01*
X184668750Y-112712500D02*
X185181250Y-112712500D01*
G75*
G02*
X185400000Y-112931250I0J-218750D01*
G01*
X185400000Y-113368750D01*
G75*
G02*
X185181250Y-113587500I-218750J0D01*
G01*
X184668750Y-113587500D01*
G75*
G02*
X184450000Y-113368750I0J218750D01*
G01*
X184450000Y-112931250D01*
G75*
G02*
X184668750Y-112712500I218750J0D01*
G01*
G37*
G36*
G01*
X184668750Y-111137500D02*
X185181250Y-111137500D01*
G75*
G02*
X185400000Y-111356250I0J-218750D01*
G01*
X185400000Y-111793750D01*
G75*
G02*
X185181250Y-112012500I-218750J0D01*
G01*
X184668750Y-112012500D01*
G75*
G02*
X184450000Y-111793750I0J218750D01*
G01*
X184450000Y-111356250D01*
G75*
G02*
X184668750Y-111137500I218750J0D01*
G01*
G37*
%TD*%
D38*
%TO.C,D2*%
X166575000Y-116850000D03*
X163275000Y-116850000D03*
%TD*%
%TO.C,D1*%
G36*
G01*
X175312500Y-147906250D02*
X175312500Y-147393750D01*
G75*
G02*
X175531250Y-147175000I218750J0D01*
G01*
X175968750Y-147175000D01*
G75*
G02*
X176187500Y-147393750I0J-218750D01*
G01*
X176187500Y-147906250D01*
G75*
G02*
X175968750Y-148125000I-218750J0D01*
G01*
X175531250Y-148125000D01*
G75*
G02*
X175312500Y-147906250I0J218750D01*
G01*
G37*
G36*
G01*
X173737500Y-147906250D02*
X173737500Y-147393750D01*
G75*
G02*
X173956250Y-147175000I218750J0D01*
G01*
X174393750Y-147175000D01*
G75*
G02*
X174612500Y-147393750I0J-218750D01*
G01*
X174612500Y-147906250D01*
G75*
G02*
X174393750Y-148125000I-218750J0D01*
G01*
X173956250Y-148125000D01*
G75*
G02*
X173737500Y-147906250I0J218750D01*
G01*
G37*
%TD*%
%TO.C,C20*%
G36*
G01*
X167315001Y-133176000D02*
X166014999Y-133176000D01*
G75*
G02*
X165765000Y-132926001I0J249999D01*
G01*
X165765000Y-132275999D01*
G75*
G02*
X166014999Y-132026000I249999J0D01*
G01*
X167315001Y-132026000D01*
G75*
G02*
X167565000Y-132275999I0J-249999D01*
G01*
X167565000Y-132926001D01*
G75*
G02*
X167315001Y-133176000I-249999J0D01*
G01*
G37*
G36*
G01*
X167315001Y-136126000D02*
X166014999Y-136126000D01*
G75*
G02*
X165765000Y-135876001I0J249999D01*
G01*
X165765000Y-135225999D01*
G75*
G02*
X166014999Y-134976000I249999J0D01*
G01*
X167315001Y-134976000D01*
G75*
G02*
X167565000Y-135225999I0J-249999D01*
G01*
X167565000Y-135876001D01*
G75*
G02*
X167315001Y-136126000I-249999J0D01*
G01*
G37*
%TD*%
%TO.C,C19*%
G36*
G01*
X157505999Y-144994500D02*
X158806001Y-144994500D01*
G75*
G02*
X159056000Y-145244499I0J-249999D01*
G01*
X159056000Y-145894501D01*
G75*
G02*
X158806001Y-146144500I-249999J0D01*
G01*
X157505999Y-146144500D01*
G75*
G02*
X157256000Y-145894501I0J249999D01*
G01*
X157256000Y-145244499D01*
G75*
G02*
X157505999Y-144994500I249999J0D01*
G01*
G37*
G36*
G01*
X157505999Y-142044500D02*
X158806001Y-142044500D01*
G75*
G02*
X159056000Y-142294499I0J-249999D01*
G01*
X159056000Y-142944501D01*
G75*
G02*
X158806001Y-143194500I-249999J0D01*
G01*
X157505999Y-143194500D01*
G75*
G02*
X157256000Y-142944501I0J249999D01*
G01*
X157256000Y-142294499D01*
G75*
G02*
X157505999Y-142044500I249999J0D01*
G01*
G37*
%TD*%
%TO.C,C18*%
G36*
G01*
X156150000Y-136699999D02*
X156150000Y-138000001D01*
G75*
G02*
X155900001Y-138250000I-249999J0D01*
G01*
X155249999Y-138250000D01*
G75*
G02*
X155000000Y-138000001I0J249999D01*
G01*
X155000000Y-136699999D01*
G75*
G02*
X155249999Y-136450000I249999J0D01*
G01*
X155900001Y-136450000D01*
G75*
G02*
X156150000Y-136699999I0J-249999D01*
G01*
G37*
G36*
G01*
X159100000Y-136699999D02*
X159100000Y-138000001D01*
G75*
G02*
X158850001Y-138250000I-249999J0D01*
G01*
X158199999Y-138250000D01*
G75*
G02*
X157950000Y-138000001I0J249999D01*
G01*
X157950000Y-136699999D01*
G75*
G02*
X158199999Y-136450000I249999J0D01*
G01*
X158850001Y-136450000D01*
G75*
G02*
X159100000Y-136699999I0J-249999D01*
G01*
G37*
%TD*%
%TO.C,C17*%
G36*
G01*
X169575001Y-127825000D02*
X168274999Y-127825000D01*
G75*
G02*
X168025000Y-127575001I0J249999D01*
G01*
X168025000Y-126924999D01*
G75*
G02*
X168274999Y-126675000I249999J0D01*
G01*
X169575001Y-126675000D01*
G75*
G02*
X169825000Y-126924999I0J-249999D01*
G01*
X169825000Y-127575001D01*
G75*
G02*
X169575001Y-127825000I-249999J0D01*
G01*
G37*
G36*
G01*
X169575001Y-130775000D02*
X168274999Y-130775000D01*
G75*
G02*
X168025000Y-130525001I0J249999D01*
G01*
X168025000Y-129874999D01*
G75*
G02*
X168274999Y-129625000I249999J0D01*
G01*
X169575001Y-129625000D01*
G75*
G02*
X169825000Y-129874999I0J-249999D01*
G01*
X169825000Y-130525001D01*
G75*
G02*
X169575001Y-130775000I-249999J0D01*
G01*
G37*
%TD*%
%TO.C,C16*%
G36*
G01*
X159075001Y-124475000D02*
X157774999Y-124475000D01*
G75*
G02*
X157525000Y-124225001I0J249999D01*
G01*
X157525000Y-123574999D01*
G75*
G02*
X157774999Y-123325000I249999J0D01*
G01*
X159075001Y-123325000D01*
G75*
G02*
X159325000Y-123574999I0J-249999D01*
G01*
X159325000Y-124225001D01*
G75*
G02*
X159075001Y-124475000I-249999J0D01*
G01*
G37*
G36*
G01*
X159075001Y-127425000D02*
X157774999Y-127425000D01*
G75*
G02*
X157525000Y-127175001I0J249999D01*
G01*
X157525000Y-126524999D01*
G75*
G02*
X157774999Y-126275000I249999J0D01*
G01*
X159075001Y-126275000D01*
G75*
G02*
X159325000Y-126524999I0J-249999D01*
G01*
X159325000Y-127175001D01*
G75*
G02*
X159075001Y-127425000I-249999J0D01*
G01*
G37*
%TD*%
%TO.C,C15*%
G36*
G01*
X156100000Y-139599999D02*
X156100000Y-140900001D01*
G75*
G02*
X155850001Y-141150000I-249999J0D01*
G01*
X155199999Y-141150000D01*
G75*
G02*
X154950000Y-140900001I0J249999D01*
G01*
X154950000Y-139599999D01*
G75*
G02*
X155199999Y-139350000I249999J0D01*
G01*
X155850001Y-139350000D01*
G75*
G02*
X156100000Y-139599999I0J-249999D01*
G01*
G37*
G36*
G01*
X159050000Y-139599999D02*
X159050000Y-140900001D01*
G75*
G02*
X158800001Y-141150000I-249999J0D01*
G01*
X158149999Y-141150000D01*
G75*
G02*
X157900000Y-140900001I0J249999D01*
G01*
X157900000Y-139599999D01*
G75*
G02*
X158149999Y-139350000I249999J0D01*
G01*
X158800001Y-139350000D01*
G75*
G02*
X159050000Y-139599999I0J-249999D01*
G01*
G37*
%TD*%
%TO.C,C14*%
G36*
G01*
X166825001Y-119725000D02*
X165524999Y-119725000D01*
G75*
G02*
X165275000Y-119475001I0J249999D01*
G01*
X165275000Y-118824999D01*
G75*
G02*
X165524999Y-118575000I249999J0D01*
G01*
X166825001Y-118575000D01*
G75*
G02*
X167075000Y-118824999I0J-249999D01*
G01*
X167075000Y-119475001D01*
G75*
G02*
X166825001Y-119725000I-249999J0D01*
G01*
G37*
G36*
G01*
X166825001Y-122675000D02*
X165524999Y-122675000D01*
G75*
G02*
X165275000Y-122425001I0J249999D01*
G01*
X165275000Y-121774999D01*
G75*
G02*
X165524999Y-121525000I249999J0D01*
G01*
X166825001Y-121525000D01*
G75*
G02*
X167075000Y-121774999I0J-249999D01*
G01*
X167075000Y-122425001D01*
G75*
G02*
X166825001Y-122675000I-249999J0D01*
G01*
G37*
%TD*%
%TO.C,C13*%
G36*
G01*
X161600000Y-120300001D02*
X161600000Y-118999999D01*
G75*
G02*
X161849999Y-118750000I249999J0D01*
G01*
X162500001Y-118750000D01*
G75*
G02*
X162750000Y-118999999I0J-249999D01*
G01*
X162750000Y-120300001D01*
G75*
G02*
X162500001Y-120550000I-249999J0D01*
G01*
X161849999Y-120550000D01*
G75*
G02*
X161600000Y-120300001I0J249999D01*
G01*
G37*
G36*
G01*
X158650000Y-120300001D02*
X158650000Y-118999999D01*
G75*
G02*
X158899999Y-118750000I249999J0D01*
G01*
X159550001Y-118750000D01*
G75*
G02*
X159800000Y-118999999I0J-249999D01*
G01*
X159800000Y-120300001D01*
G75*
G02*
X159550001Y-120550000I-249999J0D01*
G01*
X158899999Y-120550000D01*
G75*
G02*
X158650000Y-120300001I0J249999D01*
G01*
G37*
%TD*%
%TO.C,C12*%
G36*
G01*
X171128500Y-141907000D02*
X171128500Y-142247000D01*
G75*
G02*
X170988500Y-142387000I-140000J0D01*
G01*
X170708500Y-142387000D01*
G75*
G02*
X170568500Y-142247000I0J140000D01*
G01*
X170568500Y-141907000D01*
G75*
G02*
X170708500Y-141767000I140000J0D01*
G01*
X170988500Y-141767000D01*
G75*
G02*
X171128500Y-141907000I0J-140000D01*
G01*
G37*
G36*
G01*
X172088500Y-141907000D02*
X172088500Y-142247000D01*
G75*
G02*
X171948500Y-142387000I-140000J0D01*
G01*
X171668500Y-142387000D01*
G75*
G02*
X171528500Y-142247000I0J140000D01*
G01*
X171528500Y-141907000D01*
G75*
G02*
X171668500Y-141767000I140000J0D01*
G01*
X171948500Y-141767000D01*
G75*
G02*
X172088500Y-141907000I0J-140000D01*
G01*
G37*
%TD*%
%TO.C,C11*%
G36*
G01*
X171895000Y-136470000D02*
X171895000Y-136130000D01*
G75*
G02*
X172035000Y-135990000I140000J0D01*
G01*
X172315000Y-135990000D01*
G75*
G02*
X172455000Y-136130000I0J-140000D01*
G01*
X172455000Y-136470000D01*
G75*
G02*
X172315000Y-136610000I-140000J0D01*
G01*
X172035000Y-136610000D01*
G75*
G02*
X171895000Y-136470000I0J140000D01*
G01*
G37*
G36*
G01*
X170935000Y-136470000D02*
X170935000Y-136130000D01*
G75*
G02*
X171075000Y-135990000I140000J0D01*
G01*
X171355000Y-135990000D01*
G75*
G02*
X171495000Y-136130000I0J-140000D01*
G01*
X171495000Y-136470000D01*
G75*
G02*
X171355000Y-136610000I-140000J0D01*
G01*
X171075000Y-136610000D01*
G75*
G02*
X170935000Y-136470000I0J140000D01*
G01*
G37*
%TD*%
%TO.C,C10*%
G36*
G01*
X169132000Y-143685000D02*
X169132000Y-144025000D01*
G75*
G02*
X168992000Y-144165000I-140000J0D01*
G01*
X168712000Y-144165000D01*
G75*
G02*
X168572000Y-144025000I0J140000D01*
G01*
X168572000Y-143685000D01*
G75*
G02*
X168712000Y-143545000I140000J0D01*
G01*
X168992000Y-143545000D01*
G75*
G02*
X169132000Y-143685000I0J-140000D01*
G01*
G37*
G36*
G01*
X170092000Y-143685000D02*
X170092000Y-144025000D01*
G75*
G02*
X169952000Y-144165000I-140000J0D01*
G01*
X169672000Y-144165000D01*
G75*
G02*
X169532000Y-144025000I0J140000D01*
G01*
X169532000Y-143685000D01*
G75*
G02*
X169672000Y-143545000I140000J0D01*
G01*
X169952000Y-143545000D01*
G75*
G02*
X170092000Y-143685000I0J-140000D01*
G01*
G37*
%TD*%
%TO.C,C9*%
G36*
G01*
X168080500Y-144764500D02*
X168080500Y-145104500D01*
G75*
G02*
X167940500Y-145244500I-140000J0D01*
G01*
X167660500Y-145244500D01*
G75*
G02*
X167520500Y-145104500I0J140000D01*
G01*
X167520500Y-144764500D01*
G75*
G02*
X167660500Y-144624500I140000J0D01*
G01*
X167940500Y-144624500D01*
G75*
G02*
X168080500Y-144764500I0J-140000D01*
G01*
G37*
G36*
G01*
X169040500Y-144764500D02*
X169040500Y-145104500D01*
G75*
G02*
X168900500Y-145244500I-140000J0D01*
G01*
X168620500Y-145244500D01*
G75*
G02*
X168480500Y-145104500I0J140000D01*
G01*
X168480500Y-144764500D01*
G75*
G02*
X168620500Y-144624500I140000J0D01*
G01*
X168900500Y-144624500D01*
G75*
G02*
X169040500Y-144764500I0J-140000D01*
G01*
G37*
%TD*%
%TO.C,C8*%
G36*
G01*
X174195000Y-136270000D02*
X173855000Y-136270000D01*
G75*
G02*
X173715000Y-136130000I0J140000D01*
G01*
X173715000Y-135850000D01*
G75*
G02*
X173855000Y-135710000I140000J0D01*
G01*
X174195000Y-135710000D01*
G75*
G02*
X174335000Y-135850000I0J-140000D01*
G01*
X174335000Y-136130000D01*
G75*
G02*
X174195000Y-136270000I-140000J0D01*
G01*
G37*
G36*
G01*
X174195000Y-137230000D02*
X173855000Y-137230000D01*
G75*
G02*
X173715000Y-137090000I0J140000D01*
G01*
X173715000Y-136810000D01*
G75*
G02*
X173855000Y-136670000I140000J0D01*
G01*
X174195000Y-136670000D01*
G75*
G02*
X174335000Y-136810000I0J-140000D01*
G01*
X174335000Y-137090000D01*
G75*
G02*
X174195000Y-137230000I-140000J0D01*
G01*
G37*
%TD*%
%TO.C,C7*%
G36*
G01*
X177695000Y-132670000D02*
X177355000Y-132670000D01*
G75*
G02*
X177215000Y-132530000I0J140000D01*
G01*
X177215000Y-132250000D01*
G75*
G02*
X177355000Y-132110000I140000J0D01*
G01*
X177695000Y-132110000D01*
G75*
G02*
X177835000Y-132250000I0J-140000D01*
G01*
X177835000Y-132530000D01*
G75*
G02*
X177695000Y-132670000I-140000J0D01*
G01*
G37*
G36*
G01*
X177695000Y-133630000D02*
X177355000Y-133630000D01*
G75*
G02*
X177215000Y-133490000I0J140000D01*
G01*
X177215000Y-133210000D01*
G75*
G02*
X177355000Y-133070000I140000J0D01*
G01*
X177695000Y-133070000D01*
G75*
G02*
X177835000Y-133210000I0J-140000D01*
G01*
X177835000Y-133490000D01*
G75*
G02*
X177695000Y-133630000I-140000J0D01*
G01*
G37*
%TD*%
%TO.C,C5*%
G36*
G01*
X187125000Y-147220000D02*
X187125000Y-146880000D01*
G75*
G02*
X187265000Y-146740000I140000J0D01*
G01*
X187545000Y-146740000D01*
G75*
G02*
X187685000Y-146880000I0J-140000D01*
G01*
X187685000Y-147220000D01*
G75*
G02*
X187545000Y-147360000I-140000J0D01*
G01*
X187265000Y-147360000D01*
G75*
G02*
X187125000Y-147220000I0J140000D01*
G01*
G37*
G36*
G01*
X186165000Y-147220000D02*
X186165000Y-146880000D01*
G75*
G02*
X186305000Y-146740000I140000J0D01*
G01*
X186585000Y-146740000D01*
G75*
G02*
X186725000Y-146880000I0J-140000D01*
G01*
X186725000Y-147220000D01*
G75*
G02*
X186585000Y-147360000I-140000J0D01*
G01*
X186305000Y-147360000D01*
G75*
G02*
X186165000Y-147220000I0J140000D01*
G01*
G37*
%TD*%
%TO.C,C4*%
G36*
G01*
X178355000Y-148970000D02*
X178695000Y-148970000D01*
G75*
G02*
X178835000Y-149110000I0J-140000D01*
G01*
X178835000Y-149390000D01*
G75*
G02*
X178695000Y-149530000I-140000J0D01*
G01*
X178355000Y-149530000D01*
G75*
G02*
X178215000Y-149390000I0J140000D01*
G01*
X178215000Y-149110000D01*
G75*
G02*
X178355000Y-148970000I140000J0D01*
G01*
G37*
G36*
G01*
X178355000Y-148010000D02*
X178695000Y-148010000D01*
G75*
G02*
X178835000Y-148150000I0J-140000D01*
G01*
X178835000Y-148430000D01*
G75*
G02*
X178695000Y-148570000I-140000J0D01*
G01*
X178355000Y-148570000D01*
G75*
G02*
X178215000Y-148430000I0J140000D01*
G01*
X178215000Y-148150000D01*
G75*
G02*
X178355000Y-148010000I140000J0D01*
G01*
G37*
%TD*%
%TO.C,C3*%
G36*
G01*
X176595000Y-133270000D02*
X176255000Y-133270000D01*
G75*
G02*
X176115000Y-133130000I0J140000D01*
G01*
X176115000Y-132850000D01*
G75*
G02*
X176255000Y-132710000I140000J0D01*
G01*
X176595000Y-132710000D01*
G75*
G02*
X176735000Y-132850000I0J-140000D01*
G01*
X176735000Y-133130000D01*
G75*
G02*
X176595000Y-133270000I-140000J0D01*
G01*
G37*
G36*
G01*
X176595000Y-134230000D02*
X176255000Y-134230000D01*
G75*
G02*
X176115000Y-134090000I0J140000D01*
G01*
X176115000Y-133810000D01*
G75*
G02*
X176255000Y-133670000I140000J0D01*
G01*
X176595000Y-133670000D01*
G75*
G02*
X176735000Y-133810000I0J-140000D01*
G01*
X176735000Y-134090000D01*
G75*
G02*
X176595000Y-134230000I-140000J0D01*
G01*
G37*
%TD*%
%TO.C,C2*%
G36*
G01*
X189475000Y-134650000D02*
X188975000Y-134650000D01*
G75*
G02*
X188750000Y-134425000I0J225000D01*
G01*
X188750000Y-133975000D01*
G75*
G02*
X188975000Y-133750000I225000J0D01*
G01*
X189475000Y-133750000D01*
G75*
G02*
X189700000Y-133975000I0J-225000D01*
G01*
X189700000Y-134425000D01*
G75*
G02*
X189475000Y-134650000I-225000J0D01*
G01*
G37*
G36*
G01*
X189475000Y-136200000D02*
X188975000Y-136200000D01*
G75*
G02*
X188750000Y-135975000I0J225000D01*
G01*
X188750000Y-135525000D01*
G75*
G02*
X188975000Y-135300000I225000J0D01*
G01*
X189475000Y-135300000D01*
G75*
G02*
X189700000Y-135525000I0J-225000D01*
G01*
X189700000Y-135975000D01*
G75*
G02*
X189475000Y-136200000I-225000J0D01*
G01*
G37*
%TD*%
%TO.C,C1*%
G36*
G01*
X186475000Y-148900000D02*
X186475000Y-148400000D01*
G75*
G02*
X186700000Y-148175000I225000J0D01*
G01*
X187150000Y-148175000D01*
G75*
G02*
X187375000Y-148400000I0J-225000D01*
G01*
X187375000Y-148900000D01*
G75*
G02*
X187150000Y-149125000I-225000J0D01*
G01*
X186700000Y-149125000D01*
G75*
G02*
X186475000Y-148900000I0J225000D01*
G01*
G37*
G36*
G01*
X184925000Y-148900000D02*
X184925000Y-148400000D01*
G75*
G02*
X185150000Y-148175000I225000J0D01*
G01*
X185600000Y-148175000D01*
G75*
G02*
X185825000Y-148400000I0J-225000D01*
G01*
X185825000Y-148900000D01*
G75*
G02*
X185600000Y-149125000I-225000J0D01*
G01*
X185150000Y-149125000D01*
G75*
G02*
X184925000Y-148900000I0J225000D01*
G01*
G37*
%TD*%
M02*
