M48
; DRILL file {KiCad (5.1.7)-1} date 11/23/20 19:12:32
; FORMAT={-:-/ absolute / inch / decimal}
; #@! TF.CreationDate,2020-11-23T19:12:32+01:00
; #@! TF.GenerationSoftware,Kicad,Pcbnew,(5.1.7)-1
; #@! TF.FileFunction,Plated,1,4,PTH
FMAT,2
INCH
T1C0.0118
T2C0.0157
T3C0.0197
T4C0.0236
T5C0.0335
T6C0.0394
T7C0.0598
T8C0.1260
%
G90
G05
T1
X7.2443Y-5.9547
X7.4447Y-5.5472
T2
X6.1093Y-5.7441
X6.1093Y-5.7933
X6.1207Y-5.8992
X6.1241Y-5.3411
X6.1241Y-5.6286
X6.2266Y-5.7811
X6.2274Y-4.5335
X6.2667Y-4.5335
X6.3002Y-5.7657
X6.3002Y-5.8051
X6.4183Y-5.3287
X6.4183Y-5.3642
X6.4262Y-5.0965
X6.4262Y-5.1319
X6.4341Y-4.7028
X6.4419Y-5.2146
X6.4537Y-5.3287
X6.4537Y-5.3642
X6.4813Y-4.687
X6.4813Y-5.1673
X6.4813Y-5.2146
X6.488Y-5.3449
X6.503Y-5.8819
X6.5091Y-5.7661
X6.5522Y-5.8799
X6.5896Y-4.5157
X6.5896Y-4.5551
X6.6014Y-5.8799
X6.6066Y-5.6661
X6.6309Y-4.3071
X6.6404Y-5.3209
X6.6411Y-5.3642
X6.6491Y-5.6261
X6.6506Y-5.8799
X6.6703Y-3.7146
X6.6716Y-5.5236
X6.6916Y-5.5936
X6.7066Y-5.2236
X6.7096Y-4.3169
X6.7293Y-3.7146
X6.7316Y-5.1811
X6.7791Y-5.3286
X6.8179Y-4.9764
X6.8391Y-5.4386
X6.8474Y-4.002
X6.8474Y-4.0413
X6.8474Y-5.9705
X6.8474Y-6.0098
X6.8474Y-6.0492
X6.8474Y-6.0886
X6.851Y-5.5913
X6.8516Y-5.3186
X6.8671Y-4.9764
X6.8671Y-6.1476
X6.8868Y-4.002
X6.8868Y-4.0413
X6.8868Y-5.9705
X6.8868Y-6.0098
X6.8941Y-5.3586
X6.9065Y-5.2717
X6.9262Y-4.002
X6.9262Y-4.0413
X6.9262Y-5.9705
X6.9262Y-6.0098
X6.936Y-5.3209
X6.9459Y-4.8445
X6.9459Y-5.1929
X6.9656Y-5.8819
X6.9656Y-5.9705
X6.9656Y-6.0098
X6.9816Y-5.5211
X6.9852Y-5.1732
X6.9852Y-5.8425
X7.0148Y-6.1969
X7.0246Y-5.9114
X7.0316Y-6.0061
X7.0344Y-5.252
X7.0404Y-5.9547
X7.0541Y-6.1969
X7.0683Y-5.6976
X7.0738Y-5.3996
X7.0766Y-5.2311
X7.0935Y-6.0197
X7.0935Y-6.1969
X7.1132Y-5.3996
X7.123Y-4.7598
X7.1616Y-5.7086
X7.1624Y-4.6811
X7.1624Y-4.7205
X7.1624Y-4.7598
X7.2018Y-4.6811
X7.2018Y-4.7205
X7.2018Y-4.7598
X7.2018Y-5.2303
X7.2066Y-5.7086
X7.2191Y-6.0261
X7.2392Y-3.7165
X7.2516Y-5.1261
X7.253Y-5.876
X7.2766Y-4.3406
X7.2844Y-5.3957
X7.2844Y-5.4429
X7.2844Y-5.7106
X7.2982Y-3.7165
X7.31Y-5.0354
X7.3166Y-5.2286
X7.3396Y-4.6417
X7.3591Y-5.2286
X7.3947Y-5.2697
X7.4183Y-4.002
X7.4183Y-4.0413
X7.4183Y-5.8681
X7.4498Y-5.2382
X7.4577Y-4.002
X7.4577Y-4.0413
X7.4813Y-5.1398
X7.497Y-4.002
X7.497Y-4.0413
X7.623Y-5.939
X7.623Y-6.0413
X7.623Y-6.0886
X7.623Y-6.1358
X7.6545Y-5.687
X7.6703Y-5.439
X7.6781Y-5.124
X7.6841Y-4.7598
X7.7234Y-4.6811
X7.7234Y-4.7205
X7.7234Y-4.7598
X7.7628Y-4.6811
X7.7628Y-4.7205
X7.7628Y-4.7598
X7.7923Y-4.872
X7.797Y-5.0079
X7.812Y-4.2382
X7.8159Y-5.2894
X7.8199Y-5.3406
X7.8671Y-5.5059
X7.8711Y-4.3661
X7.9222Y-5.5059
T3
X5.8671Y-3.8041
X5.8948Y-3.7373
X5.8948Y-3.8709
X5.9616Y-3.7096
X5.9616Y-3.8986
X6.0284Y-3.7373
X6.0284Y-3.8709
X6.0561Y-3.8041
X7.7963Y-6.0886
X7.8239Y-6.0218
X7.8239Y-6.1554
X7.8907Y-5.9941
X7.8907Y-6.1831
X7.9576Y-6.0218
X7.9576Y-6.1554
X7.9852Y-6.0886
X6.503Y-5.9705
X6.5522Y-5.9705
X6.6014Y-5.9705
X6.6506Y-5.9705
X6.6998Y-5.9705
X5.8671Y-6.0886
X5.8948Y-6.0218
X5.8948Y-6.1554
X5.9616Y-5.9941
X5.9616Y-6.1831
X6.0284Y-6.0218
X6.0284Y-6.1554
X6.0561Y-6.0886
X7.7963Y-3.8041
X7.8239Y-3.7373
X7.8239Y-3.8709
X7.8907Y-3.7096
X7.8907Y-3.8986
X7.9576Y-3.7373
X7.9576Y-3.8709
X7.9852Y-3.8041
X7.7648Y-5.2402
X7.7648Y-5.2894
X7.7648Y-5.3386
X7.7648Y-5.3878
T5
X7.8568Y-4.8563
X7.8568Y-5.0531
T6
X5.9108Y-3.9965
X5.9108Y-4.0965
X5.9108Y-4.1965
X5.9108Y-4.2965
X5.9108Y-4.3965
X5.9108Y-4.4965
X5.9108Y-4.5965
X5.9108Y-4.6965
X5.9108Y-4.7965
X5.9108Y-4.8965
X5.9108Y-4.9965
X5.9108Y-5.0965
X5.9108Y-5.1965
X5.9108Y-5.2965
X5.9108Y-5.3965
X5.9108Y-5.4965
X5.9108Y-5.5965
X5.9108Y-5.6965
X5.9108Y-5.7965
X5.9108Y-5.8965
X6.0108Y-3.9965
X6.0108Y-4.0965
X6.0108Y-4.1965
X6.0108Y-4.2965
X6.0108Y-4.3965
X6.0108Y-4.4965
X6.0108Y-4.5965
X6.0108Y-4.6965
X6.0108Y-4.7965
X6.0108Y-4.8965
X6.0108Y-4.9965
X6.0108Y-5.0965
X6.0108Y-5.1965
X6.0108Y-5.2965
X6.0108Y-5.3965
X6.0108Y-5.4965
X6.0108Y-5.5965
X6.0108Y-5.6965
X6.0108Y-5.7965
X6.0108Y-5.8965
T7
X7.4447Y-3.8441
X7.6447Y-3.8441
X6.3128Y-3.8445
X6.5128Y-3.8445
X6.8876Y-3.8445
X7.0876Y-3.8445
T8
X5.9616Y-3.8041
X7.8907Y-6.0886
X5.9616Y-6.0886
X7.8907Y-3.8041
T4
G00X7.9493Y-4.8169
M15
G01X7.9769Y-4.8169
M16
G05
G00X7.9769Y-5.0925
M15
G01X7.9493Y-5.0925
M16
G05
T0
M30
