%TF.GenerationSoftware,KiCad,Pcbnew,(5.1.7)-1*%
%TF.CreationDate,2020-11-23T19:12:34+01:00*%
%TF.ProjectId,astro_compute_board,61737472-6f5f-4636-9f6d-707574655f62,1*%
%TF.SameCoordinates,Original*%
%TF.FileFunction,Copper,L1,Top*%
%TF.FilePolarity,Positive*%
%FSLAX46Y46*%
G04 Gerber Fmt 4.6, Leading zero omitted, Abs format (unit mm)*
G04 Created by KiCad (PCBNEW (5.1.7)-1) date 2020-11-23 19:12:34*
%MOMM*%
%LPD*%
G01*
G04 APERTURE LIST*
%TA.AperFunction,SMDPad,CuDef*%
%ADD10R,1.900000X1.200000*%
%TD*%
%TA.AperFunction,ComponentPad*%
%ADD11O,1.900000X1.200000*%
%TD*%
%TA.AperFunction,SMDPad,CuDef*%
%ADD12R,1.900000X1.500000*%
%TD*%
%TA.AperFunction,ComponentPad*%
%ADD13C,1.450000*%
%TD*%
%TA.AperFunction,SMDPad,CuDef*%
%ADD14R,1.350000X0.400000*%
%TD*%
%TA.AperFunction,ComponentPad*%
%ADD15C,0.800000*%
%TD*%
%TA.AperFunction,ComponentPad*%
%ADD16C,6.400000*%
%TD*%
%TA.AperFunction,SMDPad,CuDef*%
%ADD17R,1.200000X1.400000*%
%TD*%
%TA.AperFunction,ComponentPad*%
%ADD18O,1.300000X0.800000*%
%TD*%
%TA.AperFunction,SMDPad,CuDef*%
%ADD19R,1.500000X2.000000*%
%TD*%
%TA.AperFunction,SMDPad,CuDef*%
%ADD20R,3.800000X2.000000*%
%TD*%
%TA.AperFunction,SMDPad,CuDef*%
%ADD21R,0.650000X1.060000*%
%TD*%
%TA.AperFunction,SMDPad,CuDef*%
%ADD22R,2.290000X3.000000*%
%TD*%
%TA.AperFunction,SMDPad,CuDef*%
%ADD23R,0.800000X1.000000*%
%TD*%
%TA.AperFunction,SMDPad,CuDef*%
%ADD24R,1.500000X0.700000*%
%TD*%
%TA.AperFunction,SMDPad,CuDef*%
%ADD25R,10.800000X9.400000*%
%TD*%
%TA.AperFunction,SMDPad,CuDef*%
%ADD26R,1.100000X4.600000*%
%TD*%
%TA.AperFunction,SMDPad,CuDef*%
%ADD27R,5.800000X6.400000*%
%TD*%
%TA.AperFunction,SMDPad,CuDef*%
%ADD28R,1.200000X2.200000*%
%TD*%
%TA.AperFunction,SMDPad,CuDef*%
%ADD29R,2.500000X1.900000*%
%TD*%
%TA.AperFunction,ComponentPad*%
%ADD30O,0.800000X1.300000*%
%TD*%
%TA.AperFunction,ComponentPad*%
%ADD31C,3.000000*%
%TD*%
%TA.AperFunction,ComponentPad*%
%ADD32R,3.000000X3.000000*%
%TD*%
%TA.AperFunction,ComponentPad*%
%ADD33O,1.700000X1.700000*%
%TD*%
%TA.AperFunction,ComponentPad*%
%ADD34R,1.700000X1.700000*%
%TD*%
%TA.AperFunction,SMDPad,CuDef*%
%ADD35R,2.400000X0.740000*%
%TD*%
%TA.AperFunction,SMDPad,CuDef*%
%ADD36R,0.740000X2.400000*%
%TD*%
%TA.AperFunction,SMDPad,CuDef*%
%ADD37R,0.900000X1.200000*%
%TD*%
%TA.AperFunction,ViaPad*%
%ADD38C,0.600000*%
%TD*%
%TA.AperFunction,ViaPad*%
%ADD39C,0.800000*%
%TD*%
%TA.AperFunction,Conductor*%
%ADD40C,1.000000*%
%TD*%
%TA.AperFunction,Conductor*%
%ADD41C,0.500000*%
%TD*%
%TA.AperFunction,Conductor*%
%ADD42C,0.300000*%
%TD*%
%TA.AperFunction,Conductor*%
%ADD43C,0.750000*%
%TD*%
%TA.AperFunction,Conductor*%
%ADD44C,1.400000*%
%TD*%
%TA.AperFunction,Conductor*%
%ADD45C,0.261112*%
%TD*%
%TA.AperFunction,Conductor*%
%ADD46C,0.254000*%
%TD*%
%TA.AperFunction,Conductor*%
%ADD47C,0.100000*%
%TD*%
G04 APERTURE END LIST*
%TO.P,U1,64*%
%TO.N,+3V3*%
%TA.AperFunction,SMDPad,CuDef*%
G36*
G01*
X177600000Y-135925000D02*
X177600000Y-134525000D01*
G75*
G02*
X177675000Y-134450000I75000J0D01*
G01*
X177825000Y-134450000D01*
G75*
G02*
X177900000Y-134525000I0J-75000D01*
G01*
X177900000Y-135925000D01*
G75*
G02*
X177825000Y-136000000I-75000J0D01*
G01*
X177675000Y-136000000D01*
G75*
G02*
X177600000Y-135925000I0J75000D01*
G01*
G37*
%TD.AperFunction*%
%TO.P,U1,63*%
%TO.N,GND*%
%TA.AperFunction,SMDPad,CuDef*%
G36*
G01*
X178100000Y-135925000D02*
X178100000Y-134525000D01*
G75*
G02*
X178175000Y-134450000I75000J0D01*
G01*
X178325000Y-134450000D01*
G75*
G02*
X178400000Y-134525000I0J-75000D01*
G01*
X178400000Y-135925000D01*
G75*
G02*
X178325000Y-136000000I-75000J0D01*
G01*
X178175000Y-136000000D01*
G75*
G02*
X178100000Y-135925000I0J75000D01*
G01*
G37*
%TD.AperFunction*%
%TO.P,U1,62*%
%TO.N,Net-(U1-Pad62)*%
%TA.AperFunction,SMDPad,CuDef*%
G36*
G01*
X178600000Y-135925000D02*
X178600000Y-134525000D01*
G75*
G02*
X178675000Y-134450000I75000J0D01*
G01*
X178825000Y-134450000D01*
G75*
G02*
X178900000Y-134525000I0J-75000D01*
G01*
X178900000Y-135925000D01*
G75*
G02*
X178825000Y-136000000I-75000J0D01*
G01*
X178675000Y-136000000D01*
G75*
G02*
X178600000Y-135925000I0J75000D01*
G01*
G37*
%TD.AperFunction*%
%TO.P,U1,61*%
%TO.N,Net-(U1-Pad61)*%
%TA.AperFunction,SMDPad,CuDef*%
G36*
G01*
X179100000Y-135925000D02*
X179100000Y-134525000D01*
G75*
G02*
X179175000Y-134450000I75000J0D01*
G01*
X179325000Y-134450000D01*
G75*
G02*
X179400000Y-134525000I0J-75000D01*
G01*
X179400000Y-135925000D01*
G75*
G02*
X179325000Y-136000000I-75000J0D01*
G01*
X179175000Y-136000000D01*
G75*
G02*
X179100000Y-135925000I0J75000D01*
G01*
G37*
%TD.AperFunction*%
%TO.P,U1,60*%
%TO.N,BOOT0*%
%TA.AperFunction,SMDPad,CuDef*%
G36*
G01*
X179600000Y-135925000D02*
X179600000Y-134525000D01*
G75*
G02*
X179675000Y-134450000I75000J0D01*
G01*
X179825000Y-134450000D01*
G75*
G02*
X179900000Y-134525000I0J-75000D01*
G01*
X179900000Y-135925000D01*
G75*
G02*
X179825000Y-136000000I-75000J0D01*
G01*
X179675000Y-136000000D01*
G75*
G02*
X179600000Y-135925000I0J75000D01*
G01*
G37*
%TD.AperFunction*%
%TO.P,U1,59*%
%TO.N,I2C1_SDA*%
%TA.AperFunction,SMDPad,CuDef*%
G36*
G01*
X180100000Y-135925000D02*
X180100000Y-134525000D01*
G75*
G02*
X180175000Y-134450000I75000J0D01*
G01*
X180325000Y-134450000D01*
G75*
G02*
X180400000Y-134525000I0J-75000D01*
G01*
X180400000Y-135925000D01*
G75*
G02*
X180325000Y-136000000I-75000J0D01*
G01*
X180175000Y-136000000D01*
G75*
G02*
X180100000Y-135925000I0J75000D01*
G01*
G37*
%TD.AperFunction*%
%TO.P,U1,58*%
%TO.N,I2C1_SCL*%
%TA.AperFunction,SMDPad,CuDef*%
G36*
G01*
X180600000Y-135925000D02*
X180600000Y-134525000D01*
G75*
G02*
X180675000Y-134450000I75000J0D01*
G01*
X180825000Y-134450000D01*
G75*
G02*
X180900000Y-134525000I0J-75000D01*
G01*
X180900000Y-135925000D01*
G75*
G02*
X180825000Y-136000000I-75000J0D01*
G01*
X180675000Y-136000000D01*
G75*
G02*
X180600000Y-135925000I0J75000D01*
G01*
G37*
%TD.AperFunction*%
%TO.P,U1,57*%
%TO.N,Net-(U1-Pad57)*%
%TA.AperFunction,SMDPad,CuDef*%
G36*
G01*
X181100000Y-135925000D02*
X181100000Y-134525000D01*
G75*
G02*
X181175000Y-134450000I75000J0D01*
G01*
X181325000Y-134450000D01*
G75*
G02*
X181400000Y-134525000I0J-75000D01*
G01*
X181400000Y-135925000D01*
G75*
G02*
X181325000Y-136000000I-75000J0D01*
G01*
X181175000Y-136000000D01*
G75*
G02*
X181100000Y-135925000I0J75000D01*
G01*
G37*
%TD.AperFunction*%
%TO.P,U1,56*%
%TO.N,Net-(U1-Pad56)*%
%TA.AperFunction,SMDPad,CuDef*%
G36*
G01*
X181600000Y-135925000D02*
X181600000Y-134525000D01*
G75*
G02*
X181675000Y-134450000I75000J0D01*
G01*
X181825000Y-134450000D01*
G75*
G02*
X181900000Y-134525000I0J-75000D01*
G01*
X181900000Y-135925000D01*
G75*
G02*
X181825000Y-136000000I-75000J0D01*
G01*
X181675000Y-136000000D01*
G75*
G02*
X181600000Y-135925000I0J75000D01*
G01*
G37*
%TD.AperFunction*%
%TO.P,U1,55*%
%TO.N,SWO*%
%TA.AperFunction,SMDPad,CuDef*%
G36*
G01*
X182100000Y-135925000D02*
X182100000Y-134525000D01*
G75*
G02*
X182175000Y-134450000I75000J0D01*
G01*
X182325000Y-134450000D01*
G75*
G02*
X182400000Y-134525000I0J-75000D01*
G01*
X182400000Y-135925000D01*
G75*
G02*
X182325000Y-136000000I-75000J0D01*
G01*
X182175000Y-136000000D01*
G75*
G02*
X182100000Y-135925000I0J75000D01*
G01*
G37*
%TD.AperFunction*%
%TO.P,U1,54*%
%TO.N,Net-(U1-Pad54)*%
%TA.AperFunction,SMDPad,CuDef*%
G36*
G01*
X182600000Y-135925000D02*
X182600000Y-134525000D01*
G75*
G02*
X182675000Y-134450000I75000J0D01*
G01*
X182825000Y-134450000D01*
G75*
G02*
X182900000Y-134525000I0J-75000D01*
G01*
X182900000Y-135925000D01*
G75*
G02*
X182825000Y-136000000I-75000J0D01*
G01*
X182675000Y-136000000D01*
G75*
G02*
X182600000Y-135925000I0J75000D01*
G01*
G37*
%TD.AperFunction*%
%TO.P,U1,53*%
%TO.N,Net-(U1-Pad53)*%
%TA.AperFunction,SMDPad,CuDef*%
G36*
G01*
X183100000Y-135925000D02*
X183100000Y-134525000D01*
G75*
G02*
X183175000Y-134450000I75000J0D01*
G01*
X183325000Y-134450000D01*
G75*
G02*
X183400000Y-134525000I0J-75000D01*
G01*
X183400000Y-135925000D01*
G75*
G02*
X183325000Y-136000000I-75000J0D01*
G01*
X183175000Y-136000000D01*
G75*
G02*
X183100000Y-135925000I0J75000D01*
G01*
G37*
%TD.AperFunction*%
%TO.P,U1,52*%
%TO.N,Net-(U1-Pad52)*%
%TA.AperFunction,SMDPad,CuDef*%
G36*
G01*
X183600000Y-135925000D02*
X183600000Y-134525000D01*
G75*
G02*
X183675000Y-134450000I75000J0D01*
G01*
X183825000Y-134450000D01*
G75*
G02*
X183900000Y-134525000I0J-75000D01*
G01*
X183900000Y-135925000D01*
G75*
G02*
X183825000Y-136000000I-75000J0D01*
G01*
X183675000Y-136000000D01*
G75*
G02*
X183600000Y-135925000I0J75000D01*
G01*
G37*
%TD.AperFunction*%
%TO.P,U1,51*%
%TO.N,Net-(U1-Pad51)*%
%TA.AperFunction,SMDPad,CuDef*%
G36*
G01*
X184100000Y-135925000D02*
X184100000Y-134525000D01*
G75*
G02*
X184175000Y-134450000I75000J0D01*
G01*
X184325000Y-134450000D01*
G75*
G02*
X184400000Y-134525000I0J-75000D01*
G01*
X184400000Y-135925000D01*
G75*
G02*
X184325000Y-136000000I-75000J0D01*
G01*
X184175000Y-136000000D01*
G75*
G02*
X184100000Y-135925000I0J75000D01*
G01*
G37*
%TD.AperFunction*%
%TO.P,U1,50*%
%TO.N,TEMP_ALERT*%
%TA.AperFunction,SMDPad,CuDef*%
G36*
G01*
X184600000Y-135925000D02*
X184600000Y-134525000D01*
G75*
G02*
X184675000Y-134450000I75000J0D01*
G01*
X184825000Y-134450000D01*
G75*
G02*
X184900000Y-134525000I0J-75000D01*
G01*
X184900000Y-135925000D01*
G75*
G02*
X184825000Y-136000000I-75000J0D01*
G01*
X184675000Y-136000000D01*
G75*
G02*
X184600000Y-135925000I0J75000D01*
G01*
G37*
%TD.AperFunction*%
%TO.P,U1,49*%
%TO.N,SWCLCK*%
%TA.AperFunction,SMDPad,CuDef*%
G36*
G01*
X185100000Y-135925000D02*
X185100000Y-134525000D01*
G75*
G02*
X185175000Y-134450000I75000J0D01*
G01*
X185325000Y-134450000D01*
G75*
G02*
X185400000Y-134525000I0J-75000D01*
G01*
X185400000Y-135925000D01*
G75*
G02*
X185325000Y-136000000I-75000J0D01*
G01*
X185175000Y-136000000D01*
G75*
G02*
X185100000Y-135925000I0J75000D01*
G01*
G37*
%TD.AperFunction*%
%TO.P,U1,48*%
%TO.N,+3V3*%
%TA.AperFunction,SMDPad,CuDef*%
G36*
G01*
X186400000Y-137225000D02*
X186400000Y-137075000D01*
G75*
G02*
X186475000Y-137000000I75000J0D01*
G01*
X187875000Y-137000000D01*
G75*
G02*
X187950000Y-137075000I0J-75000D01*
G01*
X187950000Y-137225000D01*
G75*
G02*
X187875000Y-137300000I-75000J0D01*
G01*
X186475000Y-137300000D01*
G75*
G02*
X186400000Y-137225000I0J75000D01*
G01*
G37*
%TD.AperFunction*%
%TO.P,U1,47*%
%TO.N,Net-(C2-Pad1)*%
%TA.AperFunction,SMDPad,CuDef*%
G36*
G01*
X186400000Y-137725000D02*
X186400000Y-137575000D01*
G75*
G02*
X186475000Y-137500000I75000J0D01*
G01*
X187875000Y-137500000D01*
G75*
G02*
X187950000Y-137575000I0J-75000D01*
G01*
X187950000Y-137725000D01*
G75*
G02*
X187875000Y-137800000I-75000J0D01*
G01*
X186475000Y-137800000D01*
G75*
G02*
X186400000Y-137725000I0J75000D01*
G01*
G37*
%TD.AperFunction*%
%TO.P,U1,46*%
%TO.N,SWDIO*%
%TA.AperFunction,SMDPad,CuDef*%
G36*
G01*
X186400000Y-138225000D02*
X186400000Y-138075000D01*
G75*
G02*
X186475000Y-138000000I75000J0D01*
G01*
X187875000Y-138000000D01*
G75*
G02*
X187950000Y-138075000I0J-75000D01*
G01*
X187950000Y-138225000D01*
G75*
G02*
X187875000Y-138300000I-75000J0D01*
G01*
X186475000Y-138300000D01*
G75*
G02*
X186400000Y-138225000I0J75000D01*
G01*
G37*
%TD.AperFunction*%
%TO.P,U1,45*%
%TO.N,USB_D+*%
%TA.AperFunction,SMDPad,CuDef*%
G36*
G01*
X186400000Y-138725000D02*
X186400000Y-138575000D01*
G75*
G02*
X186475000Y-138500000I75000J0D01*
G01*
X187875000Y-138500000D01*
G75*
G02*
X187950000Y-138575000I0J-75000D01*
G01*
X187950000Y-138725000D01*
G75*
G02*
X187875000Y-138800000I-75000J0D01*
G01*
X186475000Y-138800000D01*
G75*
G02*
X186400000Y-138725000I0J75000D01*
G01*
G37*
%TD.AperFunction*%
%TO.P,U1,44*%
%TO.N,USB_D-*%
%TA.AperFunction,SMDPad,CuDef*%
G36*
G01*
X186400000Y-139225000D02*
X186400000Y-139075000D01*
G75*
G02*
X186475000Y-139000000I75000J0D01*
G01*
X187875000Y-139000000D01*
G75*
G02*
X187950000Y-139075000I0J-75000D01*
G01*
X187950000Y-139225000D01*
G75*
G02*
X187875000Y-139300000I-75000J0D01*
G01*
X186475000Y-139300000D01*
G75*
G02*
X186400000Y-139225000I0J75000D01*
G01*
G37*
%TD.AperFunction*%
%TO.P,U1,43*%
%TO.N,USART1_RX*%
%TA.AperFunction,SMDPad,CuDef*%
G36*
G01*
X186400000Y-139725000D02*
X186400000Y-139575000D01*
G75*
G02*
X186475000Y-139500000I75000J0D01*
G01*
X187875000Y-139500000D01*
G75*
G02*
X187950000Y-139575000I0J-75000D01*
G01*
X187950000Y-139725000D01*
G75*
G02*
X187875000Y-139800000I-75000J0D01*
G01*
X186475000Y-139800000D01*
G75*
G02*
X186400000Y-139725000I0J75000D01*
G01*
G37*
%TD.AperFunction*%
%TO.P,U1,42*%
%TO.N,USART1_TX*%
%TA.AperFunction,SMDPad,CuDef*%
G36*
G01*
X186400000Y-140225000D02*
X186400000Y-140075000D01*
G75*
G02*
X186475000Y-140000000I75000J0D01*
G01*
X187875000Y-140000000D01*
G75*
G02*
X187950000Y-140075000I0J-75000D01*
G01*
X187950000Y-140225000D01*
G75*
G02*
X187875000Y-140300000I-75000J0D01*
G01*
X186475000Y-140300000D01*
G75*
G02*
X186400000Y-140225000I0J75000D01*
G01*
G37*
%TD.AperFunction*%
%TO.P,U1,41*%
%TO.N,Net-(U1-Pad41)*%
%TA.AperFunction,SMDPad,CuDef*%
G36*
G01*
X186400000Y-140725000D02*
X186400000Y-140575000D01*
G75*
G02*
X186475000Y-140500000I75000J0D01*
G01*
X187875000Y-140500000D01*
G75*
G02*
X187950000Y-140575000I0J-75000D01*
G01*
X187950000Y-140725000D01*
G75*
G02*
X187875000Y-140800000I-75000J0D01*
G01*
X186475000Y-140800000D01*
G75*
G02*
X186400000Y-140725000I0J75000D01*
G01*
G37*
%TD.AperFunction*%
%TO.P,U1,40*%
%TO.N,GPIO_01*%
%TA.AperFunction,SMDPad,CuDef*%
G36*
G01*
X186400000Y-141225000D02*
X186400000Y-141075000D01*
G75*
G02*
X186475000Y-141000000I75000J0D01*
G01*
X187875000Y-141000000D01*
G75*
G02*
X187950000Y-141075000I0J-75000D01*
G01*
X187950000Y-141225000D01*
G75*
G02*
X187875000Y-141300000I-75000J0D01*
G01*
X186475000Y-141300000D01*
G75*
G02*
X186400000Y-141225000I0J75000D01*
G01*
G37*
%TD.AperFunction*%
%TO.P,U1,39*%
%TO.N,GPIO_02*%
%TA.AperFunction,SMDPad,CuDef*%
G36*
G01*
X186400000Y-141725000D02*
X186400000Y-141575000D01*
G75*
G02*
X186475000Y-141500000I75000J0D01*
G01*
X187875000Y-141500000D01*
G75*
G02*
X187950000Y-141575000I0J-75000D01*
G01*
X187950000Y-141725000D01*
G75*
G02*
X187875000Y-141800000I-75000J0D01*
G01*
X186475000Y-141800000D01*
G75*
G02*
X186400000Y-141725000I0J75000D01*
G01*
G37*
%TD.AperFunction*%
%TO.P,U1,38*%
%TO.N,GPIO_03*%
%TA.AperFunction,SMDPad,CuDef*%
G36*
G01*
X186400000Y-142225000D02*
X186400000Y-142075000D01*
G75*
G02*
X186475000Y-142000000I75000J0D01*
G01*
X187875000Y-142000000D01*
G75*
G02*
X187950000Y-142075000I0J-75000D01*
G01*
X187950000Y-142225000D01*
G75*
G02*
X187875000Y-142300000I-75000J0D01*
G01*
X186475000Y-142300000D01*
G75*
G02*
X186400000Y-142225000I0J75000D01*
G01*
G37*
%TD.AperFunction*%
%TO.P,U1,37*%
%TO.N,GPIO_04*%
%TA.AperFunction,SMDPad,CuDef*%
G36*
G01*
X186400000Y-142725000D02*
X186400000Y-142575000D01*
G75*
G02*
X186475000Y-142500000I75000J0D01*
G01*
X187875000Y-142500000D01*
G75*
G02*
X187950000Y-142575000I0J-75000D01*
G01*
X187950000Y-142725000D01*
G75*
G02*
X187875000Y-142800000I-75000J0D01*
G01*
X186475000Y-142800000D01*
G75*
G02*
X186400000Y-142725000I0J75000D01*
G01*
G37*
%TD.AperFunction*%
%TO.P,U1,36*%
%TO.N,GPIO_08*%
%TA.AperFunction,SMDPad,CuDef*%
G36*
G01*
X186400000Y-143225000D02*
X186400000Y-143075000D01*
G75*
G02*
X186475000Y-143000000I75000J0D01*
G01*
X187875000Y-143000000D01*
G75*
G02*
X187950000Y-143075000I0J-75000D01*
G01*
X187950000Y-143225000D01*
G75*
G02*
X187875000Y-143300000I-75000J0D01*
G01*
X186475000Y-143300000D01*
G75*
G02*
X186400000Y-143225000I0J75000D01*
G01*
G37*
%TD.AperFunction*%
%TO.P,U1,35*%
%TO.N,GPIO_07*%
%TA.AperFunction,SMDPad,CuDef*%
G36*
G01*
X186400000Y-143725000D02*
X186400000Y-143575000D01*
G75*
G02*
X186475000Y-143500000I75000J0D01*
G01*
X187875000Y-143500000D01*
G75*
G02*
X187950000Y-143575000I0J-75000D01*
G01*
X187950000Y-143725000D01*
G75*
G02*
X187875000Y-143800000I-75000J0D01*
G01*
X186475000Y-143800000D01*
G75*
G02*
X186400000Y-143725000I0J75000D01*
G01*
G37*
%TD.AperFunction*%
%TO.P,U1,34*%
%TO.N,GPIO_06*%
%TA.AperFunction,SMDPad,CuDef*%
G36*
G01*
X186400000Y-144225000D02*
X186400000Y-144075000D01*
G75*
G02*
X186475000Y-144000000I75000J0D01*
G01*
X187875000Y-144000000D01*
G75*
G02*
X187950000Y-144075000I0J-75000D01*
G01*
X187950000Y-144225000D01*
G75*
G02*
X187875000Y-144300000I-75000J0D01*
G01*
X186475000Y-144300000D01*
G75*
G02*
X186400000Y-144225000I0J75000D01*
G01*
G37*
%TD.AperFunction*%
%TO.P,U1,33*%
%TO.N,GPIO_05*%
%TA.AperFunction,SMDPad,CuDef*%
G36*
G01*
X186400000Y-144725000D02*
X186400000Y-144575000D01*
G75*
G02*
X186475000Y-144500000I75000J0D01*
G01*
X187875000Y-144500000D01*
G75*
G02*
X187950000Y-144575000I0J-75000D01*
G01*
X187950000Y-144725000D01*
G75*
G02*
X187875000Y-144800000I-75000J0D01*
G01*
X186475000Y-144800000D01*
G75*
G02*
X186400000Y-144725000I0J75000D01*
G01*
G37*
%TD.AperFunction*%
%TO.P,U1,32*%
%TO.N,+3V3*%
%TA.AperFunction,SMDPad,CuDef*%
G36*
G01*
X185100000Y-147275000D02*
X185100000Y-145875000D01*
G75*
G02*
X185175000Y-145800000I75000J0D01*
G01*
X185325000Y-145800000D01*
G75*
G02*
X185400000Y-145875000I0J-75000D01*
G01*
X185400000Y-147275000D01*
G75*
G02*
X185325000Y-147350000I-75000J0D01*
G01*
X185175000Y-147350000D01*
G75*
G02*
X185100000Y-147275000I0J75000D01*
G01*
G37*
%TD.AperFunction*%
%TO.P,U1,31*%
%TO.N,Net-(C1-Pad1)*%
%TA.AperFunction,SMDPad,CuDef*%
G36*
G01*
X184600000Y-147275000D02*
X184600000Y-145875000D01*
G75*
G02*
X184675000Y-145800000I75000J0D01*
G01*
X184825000Y-145800000D01*
G75*
G02*
X184900000Y-145875000I0J-75000D01*
G01*
X184900000Y-147275000D01*
G75*
G02*
X184825000Y-147350000I-75000J0D01*
G01*
X184675000Y-147350000D01*
G75*
G02*
X184600000Y-147275000I0J75000D01*
G01*
G37*
%TD.AperFunction*%
%TO.P,U1,30*%
%TO.N,I2C2_SDA*%
%TA.AperFunction,SMDPad,CuDef*%
G36*
G01*
X184100000Y-147275000D02*
X184100000Y-145875000D01*
G75*
G02*
X184175000Y-145800000I75000J0D01*
G01*
X184325000Y-145800000D01*
G75*
G02*
X184400000Y-145875000I0J-75000D01*
G01*
X184400000Y-147275000D01*
G75*
G02*
X184325000Y-147350000I-75000J0D01*
G01*
X184175000Y-147350000D01*
G75*
G02*
X184100000Y-147275000I0J75000D01*
G01*
G37*
%TD.AperFunction*%
%TO.P,U1,29*%
%TO.N,I2C2_SCL*%
%TA.AperFunction,SMDPad,CuDef*%
G36*
G01*
X183600000Y-147275000D02*
X183600000Y-145875000D01*
G75*
G02*
X183675000Y-145800000I75000J0D01*
G01*
X183825000Y-145800000D01*
G75*
G02*
X183900000Y-145875000I0J-75000D01*
G01*
X183900000Y-147275000D01*
G75*
G02*
X183825000Y-147350000I-75000J0D01*
G01*
X183675000Y-147350000D01*
G75*
G02*
X183600000Y-147275000I0J75000D01*
G01*
G37*
%TD.AperFunction*%
%TO.P,U1,28*%
%TO.N,Net-(U1-Pad28)*%
%TA.AperFunction,SMDPad,CuDef*%
G36*
G01*
X183100000Y-147275000D02*
X183100000Y-145875000D01*
G75*
G02*
X183175000Y-145800000I75000J0D01*
G01*
X183325000Y-145800000D01*
G75*
G02*
X183400000Y-145875000I0J-75000D01*
G01*
X183400000Y-147275000D01*
G75*
G02*
X183325000Y-147350000I-75000J0D01*
G01*
X183175000Y-147350000D01*
G75*
G02*
X183100000Y-147275000I0J75000D01*
G01*
G37*
%TD.AperFunction*%
%TO.P,U1,27*%
%TO.N,PWM_B2*%
%TA.AperFunction,SMDPad,CuDef*%
G36*
G01*
X182600000Y-147275000D02*
X182600000Y-145875000D01*
G75*
G02*
X182675000Y-145800000I75000J0D01*
G01*
X182825000Y-145800000D01*
G75*
G02*
X182900000Y-145875000I0J-75000D01*
G01*
X182900000Y-147275000D01*
G75*
G02*
X182825000Y-147350000I-75000J0D01*
G01*
X182675000Y-147350000D01*
G75*
G02*
X182600000Y-147275000I0J75000D01*
G01*
G37*
%TD.AperFunction*%
%TO.P,U1,26*%
%TO.N,PWM_A2*%
%TA.AperFunction,SMDPad,CuDef*%
G36*
G01*
X182100000Y-147275000D02*
X182100000Y-145875000D01*
G75*
G02*
X182175000Y-145800000I75000J0D01*
G01*
X182325000Y-145800000D01*
G75*
G02*
X182400000Y-145875000I0J-75000D01*
G01*
X182400000Y-147275000D01*
G75*
G02*
X182325000Y-147350000I-75000J0D01*
G01*
X182175000Y-147350000D01*
G75*
G02*
X182100000Y-147275000I0J75000D01*
G01*
G37*
%TD.AperFunction*%
%TO.P,U1,25*%
%TO.N,Net-(U1-Pad25)*%
%TA.AperFunction,SMDPad,CuDef*%
G36*
G01*
X181600000Y-147275000D02*
X181600000Y-145875000D01*
G75*
G02*
X181675000Y-145800000I75000J0D01*
G01*
X181825000Y-145800000D01*
G75*
G02*
X181900000Y-145875000I0J-75000D01*
G01*
X181900000Y-147275000D01*
G75*
G02*
X181825000Y-147350000I-75000J0D01*
G01*
X181675000Y-147350000D01*
G75*
G02*
X181600000Y-147275000I0J75000D01*
G01*
G37*
%TD.AperFunction*%
%TO.P,U1,24*%
%TO.N,Net-(U1-Pad24)*%
%TA.AperFunction,SMDPad,CuDef*%
G36*
G01*
X181100000Y-147275000D02*
X181100000Y-145875000D01*
G75*
G02*
X181175000Y-145800000I75000J0D01*
G01*
X181325000Y-145800000D01*
G75*
G02*
X181400000Y-145875000I0J-75000D01*
G01*
X181400000Y-147275000D01*
G75*
G02*
X181325000Y-147350000I-75000J0D01*
G01*
X181175000Y-147350000D01*
G75*
G02*
X181100000Y-147275000I0J75000D01*
G01*
G37*
%TD.AperFunction*%
%TO.P,U1,23*%
%TO.N,Net-(U1-Pad23)*%
%TA.AperFunction,SMDPad,CuDef*%
G36*
G01*
X180600000Y-147275000D02*
X180600000Y-145875000D01*
G75*
G02*
X180675000Y-145800000I75000J0D01*
G01*
X180825000Y-145800000D01*
G75*
G02*
X180900000Y-145875000I0J-75000D01*
G01*
X180900000Y-147275000D01*
G75*
G02*
X180825000Y-147350000I-75000J0D01*
G01*
X180675000Y-147350000D01*
G75*
G02*
X180600000Y-147275000I0J75000D01*
G01*
G37*
%TD.AperFunction*%
%TO.P,U1,22*%
%TO.N,Net-(U1-Pad22)*%
%TA.AperFunction,SMDPad,CuDef*%
G36*
G01*
X180100000Y-147275000D02*
X180100000Y-145875000D01*
G75*
G02*
X180175000Y-145800000I75000J0D01*
G01*
X180325000Y-145800000D01*
G75*
G02*
X180400000Y-145875000I0J-75000D01*
G01*
X180400000Y-147275000D01*
G75*
G02*
X180325000Y-147350000I-75000J0D01*
G01*
X180175000Y-147350000D01*
G75*
G02*
X180100000Y-147275000I0J75000D01*
G01*
G37*
%TD.AperFunction*%
%TO.P,U1,21*%
%TO.N,Net-(U1-Pad21)*%
%TA.AperFunction,SMDPad,CuDef*%
G36*
G01*
X179600000Y-147275000D02*
X179600000Y-145875000D01*
G75*
G02*
X179675000Y-145800000I75000J0D01*
G01*
X179825000Y-145800000D01*
G75*
G02*
X179900000Y-145875000I0J-75000D01*
G01*
X179900000Y-147275000D01*
G75*
G02*
X179825000Y-147350000I-75000J0D01*
G01*
X179675000Y-147350000D01*
G75*
G02*
X179600000Y-147275000I0J75000D01*
G01*
G37*
%TD.AperFunction*%
%TO.P,U1,20*%
%TO.N,Net-(U1-Pad20)*%
%TA.AperFunction,SMDPad,CuDef*%
G36*
G01*
X179100000Y-147275000D02*
X179100000Y-145875000D01*
G75*
G02*
X179175000Y-145800000I75000J0D01*
G01*
X179325000Y-145800000D01*
G75*
G02*
X179400000Y-145875000I0J-75000D01*
G01*
X179400000Y-147275000D01*
G75*
G02*
X179325000Y-147350000I-75000J0D01*
G01*
X179175000Y-147350000D01*
G75*
G02*
X179100000Y-147275000I0J75000D01*
G01*
G37*
%TD.AperFunction*%
%TO.P,U1,19*%
%TO.N,+3V3*%
%TA.AperFunction,SMDPad,CuDef*%
G36*
G01*
X178600000Y-147275000D02*
X178600000Y-145875000D01*
G75*
G02*
X178675000Y-145800000I75000J0D01*
G01*
X178825000Y-145800000D01*
G75*
G02*
X178900000Y-145875000I0J-75000D01*
G01*
X178900000Y-147275000D01*
G75*
G02*
X178825000Y-147350000I-75000J0D01*
G01*
X178675000Y-147350000D01*
G75*
G02*
X178600000Y-147275000I0J75000D01*
G01*
G37*
%TD.AperFunction*%
%TO.P,U1,18*%
%TO.N,GND*%
%TA.AperFunction,SMDPad,CuDef*%
G36*
G01*
X178100000Y-147275000D02*
X178100000Y-145875000D01*
G75*
G02*
X178175000Y-145800000I75000J0D01*
G01*
X178325000Y-145800000D01*
G75*
G02*
X178400000Y-145875000I0J-75000D01*
G01*
X178400000Y-147275000D01*
G75*
G02*
X178325000Y-147350000I-75000J0D01*
G01*
X178175000Y-147350000D01*
G75*
G02*
X178100000Y-147275000I0J75000D01*
G01*
G37*
%TD.AperFunction*%
%TO.P,U1,17*%
%TO.N,LED_STATUS*%
%TA.AperFunction,SMDPad,CuDef*%
G36*
G01*
X177600000Y-147275000D02*
X177600000Y-145875000D01*
G75*
G02*
X177675000Y-145800000I75000J0D01*
G01*
X177825000Y-145800000D01*
G75*
G02*
X177900000Y-145875000I0J-75000D01*
G01*
X177900000Y-147275000D01*
G75*
G02*
X177825000Y-147350000I-75000J0D01*
G01*
X177675000Y-147350000D01*
G75*
G02*
X177600000Y-147275000I0J75000D01*
G01*
G37*
%TD.AperFunction*%
%TO.P,U1,16*%
%TO.N,ADC1_IN2*%
%TA.AperFunction,SMDPad,CuDef*%
G36*
G01*
X175050000Y-144725000D02*
X175050000Y-144575000D01*
G75*
G02*
X175125000Y-144500000I75000J0D01*
G01*
X176525000Y-144500000D01*
G75*
G02*
X176600000Y-144575000I0J-75000D01*
G01*
X176600000Y-144725000D01*
G75*
G02*
X176525000Y-144800000I-75000J0D01*
G01*
X175125000Y-144800000D01*
G75*
G02*
X175050000Y-144725000I0J75000D01*
G01*
G37*
%TD.AperFunction*%
%TO.P,U1,15*%
%TO.N,ADC1_IN1*%
%TA.AperFunction,SMDPad,CuDef*%
G36*
G01*
X175050000Y-144225000D02*
X175050000Y-144075000D01*
G75*
G02*
X175125000Y-144000000I75000J0D01*
G01*
X176525000Y-144000000D01*
G75*
G02*
X176600000Y-144075000I0J-75000D01*
G01*
X176600000Y-144225000D01*
G75*
G02*
X176525000Y-144300000I-75000J0D01*
G01*
X175125000Y-144300000D01*
G75*
G02*
X175050000Y-144225000I0J75000D01*
G01*
G37*
%TD.AperFunction*%
%TO.P,U1,14*%
%TO.N,ADC1_IN0*%
%TA.AperFunction,SMDPad,CuDef*%
G36*
G01*
X175050000Y-143725000D02*
X175050000Y-143575000D01*
G75*
G02*
X175125000Y-143500000I75000J0D01*
G01*
X176525000Y-143500000D01*
G75*
G02*
X176600000Y-143575000I0J-75000D01*
G01*
X176600000Y-143725000D01*
G75*
G02*
X176525000Y-143800000I-75000J0D01*
G01*
X175125000Y-143800000D01*
G75*
G02*
X175050000Y-143725000I0J75000D01*
G01*
G37*
%TD.AperFunction*%
%TO.P,U1,13*%
%TO.N,+3.3VA*%
%TA.AperFunction,SMDPad,CuDef*%
G36*
G01*
X175050000Y-143225000D02*
X175050000Y-143075000D01*
G75*
G02*
X175125000Y-143000000I75000J0D01*
G01*
X176525000Y-143000000D01*
G75*
G02*
X176600000Y-143075000I0J-75000D01*
G01*
X176600000Y-143225000D01*
G75*
G02*
X176525000Y-143300000I-75000J0D01*
G01*
X175125000Y-143300000D01*
G75*
G02*
X175050000Y-143225000I0J75000D01*
G01*
G37*
%TD.AperFunction*%
%TO.P,U1,12*%
%TO.N,GND*%
%TA.AperFunction,SMDPad,CuDef*%
G36*
G01*
X175050000Y-142725000D02*
X175050000Y-142575000D01*
G75*
G02*
X175125000Y-142500000I75000J0D01*
G01*
X176525000Y-142500000D01*
G75*
G02*
X176600000Y-142575000I0J-75000D01*
G01*
X176600000Y-142725000D01*
G75*
G02*
X176525000Y-142800000I-75000J0D01*
G01*
X175125000Y-142800000D01*
G75*
G02*
X175050000Y-142725000I0J75000D01*
G01*
G37*
%TD.AperFunction*%
%TO.P,U1,11*%
%TO.N,Net-(U1-Pad11)*%
%TA.AperFunction,SMDPad,CuDef*%
G36*
G01*
X175050000Y-142225000D02*
X175050000Y-142075000D01*
G75*
G02*
X175125000Y-142000000I75000J0D01*
G01*
X176525000Y-142000000D01*
G75*
G02*
X176600000Y-142075000I0J-75000D01*
G01*
X176600000Y-142225000D01*
G75*
G02*
X176525000Y-142300000I-75000J0D01*
G01*
X175125000Y-142300000D01*
G75*
G02*
X175050000Y-142225000I0J75000D01*
G01*
G37*
%TD.AperFunction*%
%TO.P,U1,10*%
%TO.N,Net-(U1-Pad10)*%
%TA.AperFunction,SMDPad,CuDef*%
G36*
G01*
X175050000Y-141725000D02*
X175050000Y-141575000D01*
G75*
G02*
X175125000Y-141500000I75000J0D01*
G01*
X176525000Y-141500000D01*
G75*
G02*
X176600000Y-141575000I0J-75000D01*
G01*
X176600000Y-141725000D01*
G75*
G02*
X176525000Y-141800000I-75000J0D01*
G01*
X175125000Y-141800000D01*
G75*
G02*
X175050000Y-141725000I0J75000D01*
G01*
G37*
%TD.AperFunction*%
%TO.P,U1,9*%
%TO.N,Net-(U1-Pad9)*%
%TA.AperFunction,SMDPad,CuDef*%
G36*
G01*
X175050000Y-141225000D02*
X175050000Y-141075000D01*
G75*
G02*
X175125000Y-141000000I75000J0D01*
G01*
X176525000Y-141000000D01*
G75*
G02*
X176600000Y-141075000I0J-75000D01*
G01*
X176600000Y-141225000D01*
G75*
G02*
X176525000Y-141300000I-75000J0D01*
G01*
X175125000Y-141300000D01*
G75*
G02*
X175050000Y-141225000I0J75000D01*
G01*
G37*
%TD.AperFunction*%
%TO.P,U1,8*%
%TO.N,Net-(U1-Pad8)*%
%TA.AperFunction,SMDPad,CuDef*%
G36*
G01*
X175050000Y-140725000D02*
X175050000Y-140575000D01*
G75*
G02*
X175125000Y-140500000I75000J0D01*
G01*
X176525000Y-140500000D01*
G75*
G02*
X176600000Y-140575000I0J-75000D01*
G01*
X176600000Y-140725000D01*
G75*
G02*
X176525000Y-140800000I-75000J0D01*
G01*
X175125000Y-140800000D01*
G75*
G02*
X175050000Y-140725000I0J75000D01*
G01*
G37*
%TD.AperFunction*%
%TO.P,U1,7*%
%TO.N,NRST*%
%TA.AperFunction,SMDPad,CuDef*%
G36*
G01*
X175050000Y-140225000D02*
X175050000Y-140075000D01*
G75*
G02*
X175125000Y-140000000I75000J0D01*
G01*
X176525000Y-140000000D01*
G75*
G02*
X176600000Y-140075000I0J-75000D01*
G01*
X176600000Y-140225000D01*
G75*
G02*
X176525000Y-140300000I-75000J0D01*
G01*
X175125000Y-140300000D01*
G75*
G02*
X175050000Y-140225000I0J75000D01*
G01*
G37*
%TD.AperFunction*%
%TO.P,U1,6*%
%TO.N,HSE_OUT*%
%TA.AperFunction,SMDPad,CuDef*%
G36*
G01*
X175050000Y-139725000D02*
X175050000Y-139575000D01*
G75*
G02*
X175125000Y-139500000I75000J0D01*
G01*
X176525000Y-139500000D01*
G75*
G02*
X176600000Y-139575000I0J-75000D01*
G01*
X176600000Y-139725000D01*
G75*
G02*
X176525000Y-139800000I-75000J0D01*
G01*
X175125000Y-139800000D01*
G75*
G02*
X175050000Y-139725000I0J75000D01*
G01*
G37*
%TD.AperFunction*%
%TO.P,U1,5*%
%TO.N,HSE_IN*%
%TA.AperFunction,SMDPad,CuDef*%
G36*
G01*
X175050000Y-139225000D02*
X175050000Y-139075000D01*
G75*
G02*
X175125000Y-139000000I75000J0D01*
G01*
X176525000Y-139000000D01*
G75*
G02*
X176600000Y-139075000I0J-75000D01*
G01*
X176600000Y-139225000D01*
G75*
G02*
X176525000Y-139300000I-75000J0D01*
G01*
X175125000Y-139300000D01*
G75*
G02*
X175050000Y-139225000I0J75000D01*
G01*
G37*
%TD.AperFunction*%
%TO.P,U1,4*%
%TO.N,Net-(U1-Pad4)*%
%TA.AperFunction,SMDPad,CuDef*%
G36*
G01*
X175050000Y-138725000D02*
X175050000Y-138575000D01*
G75*
G02*
X175125000Y-138500000I75000J0D01*
G01*
X176525000Y-138500000D01*
G75*
G02*
X176600000Y-138575000I0J-75000D01*
G01*
X176600000Y-138725000D01*
G75*
G02*
X176525000Y-138800000I-75000J0D01*
G01*
X175125000Y-138800000D01*
G75*
G02*
X175050000Y-138725000I0J75000D01*
G01*
G37*
%TD.AperFunction*%
%TO.P,U1,3*%
%TO.N,Net-(U1-Pad3)*%
%TA.AperFunction,SMDPad,CuDef*%
G36*
G01*
X175050000Y-138225000D02*
X175050000Y-138075000D01*
G75*
G02*
X175125000Y-138000000I75000J0D01*
G01*
X176525000Y-138000000D01*
G75*
G02*
X176600000Y-138075000I0J-75000D01*
G01*
X176600000Y-138225000D01*
G75*
G02*
X176525000Y-138300000I-75000J0D01*
G01*
X175125000Y-138300000D01*
G75*
G02*
X175050000Y-138225000I0J75000D01*
G01*
G37*
%TD.AperFunction*%
%TO.P,U1,2*%
%TO.N,Net-(U1-Pad2)*%
%TA.AperFunction,SMDPad,CuDef*%
G36*
G01*
X175050000Y-137725000D02*
X175050000Y-137575000D01*
G75*
G02*
X175125000Y-137500000I75000J0D01*
G01*
X176525000Y-137500000D01*
G75*
G02*
X176600000Y-137575000I0J-75000D01*
G01*
X176600000Y-137725000D01*
G75*
G02*
X176525000Y-137800000I-75000J0D01*
G01*
X175125000Y-137800000D01*
G75*
G02*
X175050000Y-137725000I0J75000D01*
G01*
G37*
%TD.AperFunction*%
%TO.P,U1,1*%
%TO.N,+3V3*%
%TA.AperFunction,SMDPad,CuDef*%
G36*
G01*
X175050000Y-137225000D02*
X175050000Y-137075000D01*
G75*
G02*
X175125000Y-137000000I75000J0D01*
G01*
X176525000Y-137000000D01*
G75*
G02*
X176600000Y-137075000I0J-75000D01*
G01*
X176600000Y-137225000D01*
G75*
G02*
X176525000Y-137300000I-75000J0D01*
G01*
X175125000Y-137300000D01*
G75*
G02*
X175050000Y-137225000I0J75000D01*
G01*
G37*
%TD.AperFunction*%
%TD*%
D10*
%TO.P,J6,6*%
%TO.N,Net-(J6-Pad6)*%
X202262500Y-128750000D03*
X202262500Y-122950000D03*
D11*
X202262500Y-122350000D03*
X202262500Y-129350000D03*
D12*
X202262500Y-126850000D03*
D13*
X199562500Y-123350000D03*
D14*
%TO.P,J6,3*%
%TO.N,USB_CON_D+*%
X199562500Y-125850000D03*
%TO.P,J6,4*%
%TO.N,Net-(J6-Pad4)*%
X199562500Y-125200000D03*
%TO.P,J6,5*%
%TO.N,GND*%
X199562500Y-124550000D03*
%TO.P,J6,1*%
%TO.N,+5V*%
X199562500Y-127150000D03*
%TO.P,J6,2*%
%TO.N,USB_CON_D-*%
X199562500Y-126500000D03*
D13*
%TO.P,J6,6*%
%TO.N,Net-(J6-Pad6)*%
X199562500Y-128350000D03*
D12*
X202262500Y-124850000D03*
%TD*%
%TO.P,R17,2*%
%TO.N,Net-(J1-Pad10)*%
%TA.AperFunction,SMDPad,CuDef*%
G36*
G01*
X184665000Y-150635000D02*
X184665000Y-150265000D01*
G75*
G02*
X184800000Y-150130000I135000J0D01*
G01*
X185070000Y-150130000D01*
G75*
G02*
X185205000Y-150265000I0J-135000D01*
G01*
X185205000Y-150635000D01*
G75*
G02*
X185070000Y-150770000I-135000J0D01*
G01*
X184800000Y-150770000D01*
G75*
G02*
X184665000Y-150635000I0J135000D01*
G01*
G37*
%TD.AperFunction*%
%TO.P,R17,1*%
%TO.N,NRST*%
%TA.AperFunction,SMDPad,CuDef*%
G36*
G01*
X183645000Y-150635000D02*
X183645000Y-150265000D01*
G75*
G02*
X183780000Y-150130000I135000J0D01*
G01*
X184050000Y-150130000D01*
G75*
G02*
X184185000Y-150265000I0J-135000D01*
G01*
X184185000Y-150635000D01*
G75*
G02*
X184050000Y-150770000I-135000J0D01*
G01*
X183780000Y-150770000D01*
G75*
G02*
X183645000Y-150635000I0J135000D01*
G01*
G37*
%TD.AperFunction*%
%TD*%
%TO.P,C6,2*%
%TO.N,GND*%
%TA.AperFunction,SMDPad,CuDef*%
G36*
G01*
X187795000Y-135270000D02*
X187455000Y-135270000D01*
G75*
G02*
X187315000Y-135130000I0J140000D01*
G01*
X187315000Y-134850000D01*
G75*
G02*
X187455000Y-134710000I140000J0D01*
G01*
X187795000Y-134710000D01*
G75*
G02*
X187935000Y-134850000I0J-140000D01*
G01*
X187935000Y-135130000D01*
G75*
G02*
X187795000Y-135270000I-140000J0D01*
G01*
G37*
%TD.AperFunction*%
%TO.P,C6,1*%
%TO.N,+3V3*%
%TA.AperFunction,SMDPad,CuDef*%
G36*
G01*
X187795000Y-136230000D02*
X187455000Y-136230000D01*
G75*
G02*
X187315000Y-136090000I0J140000D01*
G01*
X187315000Y-135810000D01*
G75*
G02*
X187455000Y-135670000I140000J0D01*
G01*
X187795000Y-135670000D01*
G75*
G02*
X187935000Y-135810000I0J-140000D01*
G01*
X187935000Y-136090000D01*
G75*
G02*
X187795000Y-136230000I-140000J0D01*
G01*
G37*
%TD.AperFunction*%
%TD*%
D15*
%TO.P,H4,1*%
%TO.N,GND*%
X153122056Y-94927944D03*
X151425000Y-94225000D03*
X149727944Y-94927944D03*
X149025000Y-96625000D03*
X149727944Y-98322056D03*
X151425000Y-99025000D03*
X153122056Y-98322056D03*
X153825000Y-96625000D03*
D16*
X151425000Y-96625000D03*
%TD*%
D15*
%TO.P,H3,1*%
%TO.N,GND*%
X153122056Y-152952944D03*
X151425000Y-152250000D03*
X149727944Y-152952944D03*
X149025000Y-154650000D03*
X149727944Y-156347056D03*
X151425000Y-157050000D03*
X153122056Y-156347056D03*
X153825000Y-154650000D03*
D16*
X151425000Y-154650000D03*
%TD*%
D15*
%TO.P,H2,1*%
%TO.N,GND*%
X202122056Y-152952944D03*
X200425000Y-152250000D03*
X198727944Y-152952944D03*
X198025000Y-154650000D03*
X198727944Y-156347056D03*
X200425000Y-157050000D03*
X202122056Y-156347056D03*
X202825000Y-154650000D03*
D16*
X200425000Y-154650000D03*
%TD*%
D15*
%TO.P,H1,1*%
%TO.N,GND*%
X202122056Y-94927944D03*
X200425000Y-94225000D03*
X198727944Y-94927944D03*
X198025000Y-96625000D03*
X198727944Y-98322056D03*
X200425000Y-99025000D03*
X202122056Y-98322056D03*
X202825000Y-96625000D03*
D16*
X200425000Y-96625000D03*
%TD*%
D17*
%TO.P,Y1,4*%
%TO.N,GND*%
X172425000Y-138100000D03*
%TO.P,Y1,3*%
%TO.N,Net-(C12-Pad1)*%
X172425000Y-140300000D03*
%TO.P,Y1,2*%
%TO.N,GND*%
X170725000Y-140300000D03*
%TO.P,Y1,1*%
%TO.N,HSE_IN*%
X170725000Y-138100000D03*
%TD*%
D18*
%TO.P,USART1,4*%
%TO.N,GND*%
X197225000Y-133100000D03*
%TO.P,USART1,3*%
%TO.N,Net-(R13-Pad1)*%
X197225000Y-134350000D03*
%TO.P,USART1,2*%
%TO.N,Net-(R12-Pad1)*%
X197225000Y-135600000D03*
%TO.P,USART1,1*%
%TO.N,+3V3*%
%TA.AperFunction,ComponentPad*%
G36*
G01*
X197675000Y-137250000D02*
X196775000Y-137250000D01*
G75*
G02*
X196575000Y-137050000I0J200000D01*
G01*
X196575000Y-136650000D01*
G75*
G02*
X196775000Y-136450000I200000J0D01*
G01*
X197675000Y-136450000D01*
G75*
G02*
X197875000Y-136650000I0J-200000D01*
G01*
X197875000Y-137050000D01*
G75*
G02*
X197675000Y-137250000I-200000J0D01*
G01*
G37*
%TD.AperFunction*%
%TD*%
%TO.P,U5,8*%
%TO.N,+3V3*%
%TA.AperFunction,SMDPad,CuDef*%
G36*
G01*
X176987500Y-155850000D02*
X176987500Y-156050000D01*
G75*
G02*
X176887500Y-156150000I-100000J0D01*
G01*
X175462500Y-156150000D01*
G75*
G02*
X175362500Y-156050000I0J100000D01*
G01*
X175362500Y-155850000D01*
G75*
G02*
X175462500Y-155750000I100000J0D01*
G01*
X176887500Y-155750000D01*
G75*
G02*
X176987500Y-155850000I0J-100000D01*
G01*
G37*
%TD.AperFunction*%
%TO.P,U5,7*%
%TO.N,GND*%
%TA.AperFunction,SMDPad,CuDef*%
G36*
G01*
X176987500Y-155200000D02*
X176987500Y-155400000D01*
G75*
G02*
X176887500Y-155500000I-100000J0D01*
G01*
X175462500Y-155500000D01*
G75*
G02*
X175362500Y-155400000I0J100000D01*
G01*
X175362500Y-155200000D01*
G75*
G02*
X175462500Y-155100000I100000J0D01*
G01*
X176887500Y-155100000D01*
G75*
G02*
X176987500Y-155200000I0J-100000D01*
G01*
G37*
%TD.AperFunction*%
%TO.P,U5,6*%
%TA.AperFunction,SMDPad,CuDef*%
G36*
G01*
X176987500Y-154550000D02*
X176987500Y-154750000D01*
G75*
G02*
X176887500Y-154850000I-100000J0D01*
G01*
X175462500Y-154850000D01*
G75*
G02*
X175362500Y-154750000I0J100000D01*
G01*
X175362500Y-154550000D01*
G75*
G02*
X175462500Y-154450000I100000J0D01*
G01*
X176887500Y-154450000D01*
G75*
G02*
X176987500Y-154550000I0J-100000D01*
G01*
G37*
%TD.AperFunction*%
%TO.P,U5,5*%
%TA.AperFunction,SMDPad,CuDef*%
G36*
G01*
X176987500Y-153900000D02*
X176987500Y-154100000D01*
G75*
G02*
X176887500Y-154200000I-100000J0D01*
G01*
X175462500Y-154200000D01*
G75*
G02*
X175362500Y-154100000I0J100000D01*
G01*
X175362500Y-153900000D01*
G75*
G02*
X175462500Y-153800000I100000J0D01*
G01*
X176887500Y-153800000D01*
G75*
G02*
X176987500Y-153900000I0J-100000D01*
G01*
G37*
%TD.AperFunction*%
%TO.P,U5,4*%
%TA.AperFunction,SMDPad,CuDef*%
G36*
G01*
X181212500Y-153900000D02*
X181212500Y-154100000D01*
G75*
G02*
X181112500Y-154200000I-100000J0D01*
G01*
X179687500Y-154200000D01*
G75*
G02*
X179587500Y-154100000I0J100000D01*
G01*
X179587500Y-153900000D01*
G75*
G02*
X179687500Y-153800000I100000J0D01*
G01*
X181112500Y-153800000D01*
G75*
G02*
X181212500Y-153900000I0J-100000D01*
G01*
G37*
%TD.AperFunction*%
%TO.P,U5,3*%
%TO.N,TEMP_ALERT*%
%TA.AperFunction,SMDPad,CuDef*%
G36*
G01*
X181212500Y-154550000D02*
X181212500Y-154750000D01*
G75*
G02*
X181112500Y-154850000I-100000J0D01*
G01*
X179687500Y-154850000D01*
G75*
G02*
X179587500Y-154750000I0J100000D01*
G01*
X179587500Y-154550000D01*
G75*
G02*
X179687500Y-154450000I100000J0D01*
G01*
X181112500Y-154450000D01*
G75*
G02*
X181212500Y-154550000I0J-100000D01*
G01*
G37*
%TD.AperFunction*%
%TO.P,U5,2*%
%TO.N,I2C2_SCL*%
%TA.AperFunction,SMDPad,CuDef*%
G36*
G01*
X181212500Y-155200000D02*
X181212500Y-155400000D01*
G75*
G02*
X181112500Y-155500000I-100000J0D01*
G01*
X179687500Y-155500000D01*
G75*
G02*
X179587500Y-155400000I0J100000D01*
G01*
X179587500Y-155200000D01*
G75*
G02*
X179687500Y-155100000I100000J0D01*
G01*
X181112500Y-155100000D01*
G75*
G02*
X181212500Y-155200000I0J-100000D01*
G01*
G37*
%TD.AperFunction*%
%TO.P,U5,1*%
%TO.N,I2C2_SDA*%
%TA.AperFunction,SMDPad,CuDef*%
G36*
G01*
X181212500Y-155850000D02*
X181212500Y-156050000D01*
G75*
G02*
X181112500Y-156150000I-100000J0D01*
G01*
X179687500Y-156150000D01*
G75*
G02*
X179587500Y-156050000I0J100000D01*
G01*
X179587500Y-155850000D01*
G75*
G02*
X179687500Y-155750000I100000J0D01*
G01*
X181112500Y-155750000D01*
G75*
G02*
X181212500Y-155850000I0J-100000D01*
G01*
G37*
%TD.AperFunction*%
%TD*%
D19*
%TO.P,U4,1*%
%TO.N,GND*%
X165725000Y-137950000D03*
%TO.P,U4,3*%
%TO.N,+5V*%
X161125000Y-137950000D03*
%TO.P,U4,2*%
%TO.N,+3V3*%
X163425000Y-137950000D03*
D20*
%TO.P,U4,4*%
%TO.N,N/C*%
X163425000Y-144250000D03*
%TD*%
D21*
%TO.P,U3,5*%
%TO.N,+3V3*%
X192475000Y-131550000D03*
%TO.P,U3,6*%
%TO.N,USB_D-*%
X193425000Y-131550000D03*
%TO.P,U3,4*%
%TO.N,USB_D+*%
X191525000Y-131550000D03*
%TO.P,U3,3*%
%TO.N,USB_CON_D+*%
X191525000Y-129350000D03*
%TO.P,U3,2*%
%TO.N,GND*%
X192475000Y-129350000D03*
%TO.P,U3,1*%
%TO.N,USB_CON_D-*%
X193425000Y-129350000D03*
%TD*%
D22*
%TO.P,U2,9*%
%TO.N,GND*%
X163700000Y-126035000D03*
%TO.P,U2,8*%
%TO.N,Net-(C14-Pad1)*%
%TA.AperFunction,SMDPad,CuDef*%
G36*
G01*
X165200000Y-124280000D02*
X165200000Y-123980000D01*
G75*
G02*
X165350000Y-123830000I150000J0D01*
G01*
X167000000Y-123830000D01*
G75*
G02*
X167150000Y-123980000I0J-150000D01*
G01*
X167150000Y-124280000D01*
G75*
G02*
X167000000Y-124430000I-150000J0D01*
G01*
X165350000Y-124430000D01*
G75*
G02*
X165200000Y-124280000I0J150000D01*
G01*
G37*
%TD.AperFunction*%
%TO.P,U2,7*%
%TO.N,Net-(R6-Pad1)*%
%TA.AperFunction,SMDPad,CuDef*%
G36*
G01*
X165200000Y-125550000D02*
X165200000Y-125250000D01*
G75*
G02*
X165350000Y-125100000I150000J0D01*
G01*
X167000000Y-125100000D01*
G75*
G02*
X167150000Y-125250000I0J-150000D01*
G01*
X167150000Y-125550000D01*
G75*
G02*
X167000000Y-125700000I-150000J0D01*
G01*
X165350000Y-125700000D01*
G75*
G02*
X165200000Y-125550000I0J150000D01*
G01*
G37*
%TD.AperFunction*%
%TO.P,U2,6*%
%TO.N,Net-(C17-Pad2)*%
%TA.AperFunction,SMDPad,CuDef*%
G36*
G01*
X165200000Y-126820000D02*
X165200000Y-126520000D01*
G75*
G02*
X165350000Y-126370000I150000J0D01*
G01*
X167000000Y-126370000D01*
G75*
G02*
X167150000Y-126520000I0J-150000D01*
G01*
X167150000Y-126820000D01*
G75*
G02*
X167000000Y-126970000I-150000J0D01*
G01*
X165350000Y-126970000D01*
G75*
G02*
X165200000Y-126820000I0J150000D01*
G01*
G37*
%TD.AperFunction*%
%TO.P,U2,5*%
%TO.N,Net-(R8-Pad1)*%
%TA.AperFunction,SMDPad,CuDef*%
G36*
G01*
X165200000Y-128090000D02*
X165200000Y-127790000D01*
G75*
G02*
X165350000Y-127640000I150000J0D01*
G01*
X167000000Y-127640000D01*
G75*
G02*
X167150000Y-127790000I0J-150000D01*
G01*
X167150000Y-128090000D01*
G75*
G02*
X167000000Y-128240000I-150000J0D01*
G01*
X165350000Y-128240000D01*
G75*
G02*
X165200000Y-128090000I0J150000D01*
G01*
G37*
%TD.AperFunction*%
%TO.P,U2,4*%
%TO.N,GND*%
%TA.AperFunction,SMDPad,CuDef*%
G36*
G01*
X160250000Y-128090000D02*
X160250000Y-127790000D01*
G75*
G02*
X160400000Y-127640000I150000J0D01*
G01*
X162050000Y-127640000D01*
G75*
G02*
X162200000Y-127790000I0J-150000D01*
G01*
X162200000Y-128090000D01*
G75*
G02*
X162050000Y-128240000I-150000J0D01*
G01*
X160400000Y-128240000D01*
G75*
G02*
X160250000Y-128090000I0J150000D01*
G01*
G37*
%TD.AperFunction*%
%TO.P,U2,3*%
%TO.N,Net-(C16-Pad1)*%
%TA.AperFunction,SMDPad,CuDef*%
G36*
G01*
X160250000Y-126820000D02*
X160250000Y-126520000D01*
G75*
G02*
X160400000Y-126370000I150000J0D01*
G01*
X162050000Y-126370000D01*
G75*
G02*
X162200000Y-126520000I0J-150000D01*
G01*
X162200000Y-126820000D01*
G75*
G02*
X162050000Y-126970000I-150000J0D01*
G01*
X160400000Y-126970000D01*
G75*
G02*
X160250000Y-126820000I0J150000D01*
G01*
G37*
%TD.AperFunction*%
%TO.P,U2,2*%
%TO.N,BUCK_VIN*%
%TA.AperFunction,SMDPad,CuDef*%
G36*
G01*
X160250000Y-125550000D02*
X160250000Y-125250000D01*
G75*
G02*
X160400000Y-125100000I150000J0D01*
G01*
X162050000Y-125100000D01*
G75*
G02*
X162200000Y-125250000I0J-150000D01*
G01*
X162200000Y-125550000D01*
G75*
G02*
X162050000Y-125700000I-150000J0D01*
G01*
X160400000Y-125700000D01*
G75*
G02*
X160250000Y-125550000I0J150000D01*
G01*
G37*
%TD.AperFunction*%
%TO.P,U2,1*%
%TO.N,Net-(C16-Pad2)*%
%TA.AperFunction,SMDPad,CuDef*%
G36*
G01*
X160250000Y-124280000D02*
X160250000Y-123980000D01*
G75*
G02*
X160400000Y-123830000I150000J0D01*
G01*
X162050000Y-123830000D01*
G75*
G02*
X162200000Y-123980000I0J-150000D01*
G01*
X162200000Y-124280000D01*
G75*
G02*
X162050000Y-124430000I-150000J0D01*
G01*
X160400000Y-124430000D01*
G75*
G02*
X160250000Y-124280000I0J150000D01*
G01*
G37*
%TD.AperFunction*%
%TD*%
D23*
%TO.P,BOOT,*%
%TO.N,*%
X200745000Y-113550000D03*
X200745000Y-106250000D03*
X202955000Y-106250000D03*
X202955000Y-113550000D03*
D24*
%TO.P,BOOT,3*%
%TO.N,GND*%
X200095000Y-107650000D03*
%TO.P,BOOT,2*%
%TO.N,Net-(R1-Pad1)*%
X200095000Y-109150000D03*
%TO.P,BOOT,1*%
%TO.N,+3V3*%
X200095000Y-112150000D03*
%TD*%
%TO.P,R24,2*%
%TO.N,+5V*%
%TA.AperFunction,SMDPad,CuDef*%
G36*
G01*
X166975000Y-113725000D02*
X166975000Y-113175000D01*
G75*
G02*
X167175000Y-112975000I200000J0D01*
G01*
X167575000Y-112975000D01*
G75*
G02*
X167775000Y-113175000I0J-200000D01*
G01*
X167775000Y-113725000D01*
G75*
G02*
X167575000Y-113925000I-200000J0D01*
G01*
X167175000Y-113925000D01*
G75*
G02*
X166975000Y-113725000I0J200000D01*
G01*
G37*
%TD.AperFunction*%
%TO.P,R24,1*%
%TO.N,Net-(D5-Pad2)*%
%TA.AperFunction,SMDPad,CuDef*%
G36*
G01*
X165325000Y-113725000D02*
X165325000Y-113175000D01*
G75*
G02*
X165525000Y-112975000I200000J0D01*
G01*
X165925000Y-112975000D01*
G75*
G02*
X166125000Y-113175000I0J-200000D01*
G01*
X166125000Y-113725000D01*
G75*
G02*
X165925000Y-113925000I-200000J0D01*
G01*
X165525000Y-113925000D01*
G75*
G02*
X165325000Y-113725000I0J200000D01*
G01*
G37*
%TD.AperFunction*%
%TD*%
%TO.P,R23,2*%
%TO.N,PWM_B2*%
%TA.AperFunction,SMDPad,CuDef*%
G36*
G01*
X170050000Y-115500000D02*
X170600000Y-115500000D01*
G75*
G02*
X170800000Y-115700000I0J-200000D01*
G01*
X170800000Y-116100000D01*
G75*
G02*
X170600000Y-116300000I-200000J0D01*
G01*
X170050000Y-116300000D01*
G75*
G02*
X169850000Y-116100000I0J200000D01*
G01*
X169850000Y-115700000D01*
G75*
G02*
X170050000Y-115500000I200000J0D01*
G01*
G37*
%TD.AperFunction*%
%TO.P,R23,1*%
%TO.N,Net-(D4-Pad2)*%
%TA.AperFunction,SMDPad,CuDef*%
G36*
G01*
X170050000Y-113850000D02*
X170600000Y-113850000D01*
G75*
G02*
X170800000Y-114050000I0J-200000D01*
G01*
X170800000Y-114450000D01*
G75*
G02*
X170600000Y-114650000I-200000J0D01*
G01*
X170050000Y-114650000D01*
G75*
G02*
X169850000Y-114450000I0J200000D01*
G01*
X169850000Y-114050000D01*
G75*
G02*
X170050000Y-113850000I200000J0D01*
G01*
G37*
%TD.AperFunction*%
%TD*%
%TO.P,R22,2*%
%TO.N,PWM_A2*%
%TA.AperFunction,SMDPad,CuDef*%
G36*
G01*
X184750000Y-116000000D02*
X185300000Y-116000000D01*
G75*
G02*
X185500000Y-116200000I0J-200000D01*
G01*
X185500000Y-116600000D01*
G75*
G02*
X185300000Y-116800000I-200000J0D01*
G01*
X184750000Y-116800000D01*
G75*
G02*
X184550000Y-116600000I0J200000D01*
G01*
X184550000Y-116200000D01*
G75*
G02*
X184750000Y-116000000I200000J0D01*
G01*
G37*
%TD.AperFunction*%
%TO.P,R22,1*%
%TO.N,Net-(D3-Pad2)*%
%TA.AperFunction,SMDPad,CuDef*%
G36*
G01*
X184750000Y-114350000D02*
X185300000Y-114350000D01*
G75*
G02*
X185500000Y-114550000I0J-200000D01*
G01*
X185500000Y-114950000D01*
G75*
G02*
X185300000Y-115150000I-200000J0D01*
G01*
X184750000Y-115150000D01*
G75*
G02*
X184550000Y-114950000I0J200000D01*
G01*
X184550000Y-114550000D01*
G75*
G02*
X184750000Y-114350000I200000J0D01*
G01*
G37*
%TD.AperFunction*%
%TD*%
%TO.P,R21,2*%
%TO.N,I2C2_SCL*%
%TA.AperFunction,SMDPad,CuDef*%
G36*
G01*
X181412500Y-149700001D02*
X181412500Y-148799999D01*
G75*
G02*
X181662499Y-148550000I249999J0D01*
G01*
X182187501Y-148550000D01*
G75*
G02*
X182437500Y-148799999I0J-249999D01*
G01*
X182437500Y-149700001D01*
G75*
G02*
X182187501Y-149950000I-249999J0D01*
G01*
X181662499Y-149950000D01*
G75*
G02*
X181412500Y-149700001I0J249999D01*
G01*
G37*
%TD.AperFunction*%
%TO.P,R21,1*%
%TO.N,+3V3*%
%TA.AperFunction,SMDPad,CuDef*%
G36*
G01*
X179587500Y-149700001D02*
X179587500Y-148799999D01*
G75*
G02*
X179837499Y-148550000I249999J0D01*
G01*
X180362501Y-148550000D01*
G75*
G02*
X180612500Y-148799999I0J-249999D01*
G01*
X180612500Y-149700001D01*
G75*
G02*
X180362501Y-149950000I-249999J0D01*
G01*
X179837499Y-149950000D01*
G75*
G02*
X179587500Y-149700001I0J249999D01*
G01*
G37*
%TD.AperFunction*%
%TD*%
%TO.P,R20,2*%
%TO.N,I2C2_SDA*%
%TA.AperFunction,SMDPad,CuDef*%
G36*
G01*
X181437500Y-151900001D02*
X181437500Y-150999999D01*
G75*
G02*
X181687499Y-150750000I249999J0D01*
G01*
X182212501Y-150750000D01*
G75*
G02*
X182462500Y-150999999I0J-249999D01*
G01*
X182462500Y-151900001D01*
G75*
G02*
X182212501Y-152150000I-249999J0D01*
G01*
X181687499Y-152150000D01*
G75*
G02*
X181437500Y-151900001I0J249999D01*
G01*
G37*
%TD.AperFunction*%
%TO.P,R20,1*%
%TO.N,+3V3*%
%TA.AperFunction,SMDPad,CuDef*%
G36*
G01*
X179612500Y-151900001D02*
X179612500Y-150999999D01*
G75*
G02*
X179862499Y-150750000I249999J0D01*
G01*
X180387501Y-150750000D01*
G75*
G02*
X180637500Y-150999999I0J-249999D01*
G01*
X180637500Y-151900001D01*
G75*
G02*
X180387501Y-152150000I-249999J0D01*
G01*
X179862499Y-152150000D01*
G75*
G02*
X179612500Y-151900001I0J249999D01*
G01*
G37*
%TD.AperFunction*%
%TD*%
%TO.P,R19,2*%
%TO.N,Net-(Q3-Pad1)*%
%TA.AperFunction,SMDPad,CuDef*%
G36*
G01*
X175449000Y-121712500D02*
X174899000Y-121712500D01*
G75*
G02*
X174699000Y-121512500I0J200000D01*
G01*
X174699000Y-121112500D01*
G75*
G02*
X174899000Y-120912500I200000J0D01*
G01*
X175449000Y-120912500D01*
G75*
G02*
X175649000Y-121112500I0J-200000D01*
G01*
X175649000Y-121512500D01*
G75*
G02*
X175449000Y-121712500I-200000J0D01*
G01*
G37*
%TD.AperFunction*%
%TO.P,R19,1*%
%TO.N,GND*%
%TA.AperFunction,SMDPad,CuDef*%
G36*
G01*
X175449000Y-123362500D02*
X174899000Y-123362500D01*
G75*
G02*
X174699000Y-123162500I0J200000D01*
G01*
X174699000Y-122762500D01*
G75*
G02*
X174899000Y-122562500I200000J0D01*
G01*
X175449000Y-122562500D01*
G75*
G02*
X175649000Y-122762500I0J-200000D01*
G01*
X175649000Y-123162500D01*
G75*
G02*
X175449000Y-123362500I-200000J0D01*
G01*
G37*
%TD.AperFunction*%
%TD*%
%TO.P,R18,2*%
%TO.N,PWM_B2*%
%TA.AperFunction,SMDPad,CuDef*%
G36*
G01*
X170600000Y-118300000D02*
X170050000Y-118300000D01*
G75*
G02*
X169850000Y-118100000I0J200000D01*
G01*
X169850000Y-117700000D01*
G75*
G02*
X170050000Y-117500000I200000J0D01*
G01*
X170600000Y-117500000D01*
G75*
G02*
X170800000Y-117700000I0J-200000D01*
G01*
X170800000Y-118100000D01*
G75*
G02*
X170600000Y-118300000I-200000J0D01*
G01*
G37*
%TD.AperFunction*%
%TO.P,R18,1*%
%TO.N,Net-(Q3-Pad1)*%
%TA.AperFunction,SMDPad,CuDef*%
G36*
G01*
X170600000Y-119950000D02*
X170050000Y-119950000D01*
G75*
G02*
X169850000Y-119750000I0J200000D01*
G01*
X169850000Y-119350000D01*
G75*
G02*
X170050000Y-119150000I200000J0D01*
G01*
X170600000Y-119150000D01*
G75*
G02*
X170800000Y-119350000I0J-200000D01*
G01*
X170800000Y-119750000D01*
G75*
G02*
X170600000Y-119950000I-200000J0D01*
G01*
G37*
%TD.AperFunction*%
%TD*%
%TO.P,R16,2*%
%TO.N,Net-(J1-Pad6)*%
%TA.AperFunction,SMDPad,CuDef*%
G36*
G01*
X188641500Y-147712500D02*
X189011500Y-147712500D01*
G75*
G02*
X189146500Y-147847500I0J-135000D01*
G01*
X189146500Y-148117500D01*
G75*
G02*
X189011500Y-148252500I-135000J0D01*
G01*
X188641500Y-148252500D01*
G75*
G02*
X188506500Y-148117500I0J135000D01*
G01*
X188506500Y-147847500D01*
G75*
G02*
X188641500Y-147712500I135000J0D01*
G01*
G37*
%TD.AperFunction*%
%TO.P,R16,1*%
%TO.N,SWO*%
%TA.AperFunction,SMDPad,CuDef*%
G36*
G01*
X188641500Y-146692500D02*
X189011500Y-146692500D01*
G75*
G02*
X189146500Y-146827500I0J-135000D01*
G01*
X189146500Y-147097500D01*
G75*
G02*
X189011500Y-147232500I-135000J0D01*
G01*
X188641500Y-147232500D01*
G75*
G02*
X188506500Y-147097500I0J135000D01*
G01*
X188506500Y-146827500D01*
G75*
G02*
X188641500Y-146692500I135000J0D01*
G01*
G37*
%TD.AperFunction*%
%TD*%
%TO.P,R15,2*%
%TO.N,Net-(J1-Pad4)*%
%TA.AperFunction,SMDPad,CuDef*%
G36*
G01*
X184240000Y-153800000D02*
X184610000Y-153800000D01*
G75*
G02*
X184745000Y-153935000I0J-135000D01*
G01*
X184745000Y-154205000D01*
G75*
G02*
X184610000Y-154340000I-135000J0D01*
G01*
X184240000Y-154340000D01*
G75*
G02*
X184105000Y-154205000I0J135000D01*
G01*
X184105000Y-153935000D01*
G75*
G02*
X184240000Y-153800000I135000J0D01*
G01*
G37*
%TD.AperFunction*%
%TO.P,R15,1*%
%TO.N,SWCLCK*%
%TA.AperFunction,SMDPad,CuDef*%
G36*
G01*
X184240000Y-152780000D02*
X184610000Y-152780000D01*
G75*
G02*
X184745000Y-152915000I0J-135000D01*
G01*
X184745000Y-153185000D01*
G75*
G02*
X184610000Y-153320000I-135000J0D01*
G01*
X184240000Y-153320000D01*
G75*
G02*
X184105000Y-153185000I0J135000D01*
G01*
X184105000Y-152915000D01*
G75*
G02*
X184240000Y-152780000I135000J0D01*
G01*
G37*
%TD.AperFunction*%
%TD*%
%TO.P,R14,2*%
%TO.N,Net-(J1-Pad2)*%
%TA.AperFunction,SMDPad,CuDef*%
G36*
G01*
X184240000Y-156000000D02*
X184610000Y-156000000D01*
G75*
G02*
X184745000Y-156135000I0J-135000D01*
G01*
X184745000Y-156405000D01*
G75*
G02*
X184610000Y-156540000I-135000J0D01*
G01*
X184240000Y-156540000D01*
G75*
G02*
X184105000Y-156405000I0J135000D01*
G01*
X184105000Y-156135000D01*
G75*
G02*
X184240000Y-156000000I135000J0D01*
G01*
G37*
%TD.AperFunction*%
%TO.P,R14,1*%
%TO.N,SWDIO*%
%TA.AperFunction,SMDPad,CuDef*%
G36*
G01*
X184240000Y-154980000D02*
X184610000Y-154980000D01*
G75*
G02*
X184745000Y-155115000I0J-135000D01*
G01*
X184745000Y-155385000D01*
G75*
G02*
X184610000Y-155520000I-135000J0D01*
G01*
X184240000Y-155520000D01*
G75*
G02*
X184105000Y-155385000I0J135000D01*
G01*
X184105000Y-155115000D01*
G75*
G02*
X184240000Y-154980000I135000J0D01*
G01*
G37*
%TD.AperFunction*%
%TD*%
%TO.P,R13,2*%
%TO.N,USART1_RX*%
%TA.AperFunction,SMDPad,CuDef*%
G36*
G01*
X194575000Y-134215000D02*
X194575000Y-134585000D01*
G75*
G02*
X194440000Y-134720000I-135000J0D01*
G01*
X194170000Y-134720000D01*
G75*
G02*
X194035000Y-134585000I0J135000D01*
G01*
X194035000Y-134215000D01*
G75*
G02*
X194170000Y-134080000I135000J0D01*
G01*
X194440000Y-134080000D01*
G75*
G02*
X194575000Y-134215000I0J-135000D01*
G01*
G37*
%TD.AperFunction*%
%TO.P,R13,1*%
%TO.N,Net-(R13-Pad1)*%
%TA.AperFunction,SMDPad,CuDef*%
G36*
G01*
X195595000Y-134215000D02*
X195595000Y-134585000D01*
G75*
G02*
X195460000Y-134720000I-135000J0D01*
G01*
X195190000Y-134720000D01*
G75*
G02*
X195055000Y-134585000I0J135000D01*
G01*
X195055000Y-134215000D01*
G75*
G02*
X195190000Y-134080000I135000J0D01*
G01*
X195460000Y-134080000D01*
G75*
G02*
X195595000Y-134215000I0J-135000D01*
G01*
G37*
%TD.AperFunction*%
%TD*%
%TO.P,R12,2*%
%TO.N,USART1_TX*%
%TA.AperFunction,SMDPad,CuDef*%
G36*
G01*
X194575000Y-135465000D02*
X194575000Y-135835000D01*
G75*
G02*
X194440000Y-135970000I-135000J0D01*
G01*
X194170000Y-135970000D01*
G75*
G02*
X194035000Y-135835000I0J135000D01*
G01*
X194035000Y-135465000D01*
G75*
G02*
X194170000Y-135330000I135000J0D01*
G01*
X194440000Y-135330000D01*
G75*
G02*
X194575000Y-135465000I0J-135000D01*
G01*
G37*
%TD.AperFunction*%
%TO.P,R12,1*%
%TO.N,Net-(R12-Pad1)*%
%TA.AperFunction,SMDPad,CuDef*%
G36*
G01*
X195595000Y-135465000D02*
X195595000Y-135835000D01*
G75*
G02*
X195460000Y-135970000I-135000J0D01*
G01*
X195190000Y-135970000D01*
G75*
G02*
X195055000Y-135835000I0J135000D01*
G01*
X195055000Y-135465000D01*
G75*
G02*
X195190000Y-135330000I135000J0D01*
G01*
X195460000Y-135330000D01*
G75*
G02*
X195595000Y-135465000I0J-135000D01*
G01*
G37*
%TD.AperFunction*%
%TD*%
%TO.P,R11,2*%
%TO.N,Net-(Q2-Pad1)*%
%TA.AperFunction,SMDPad,CuDef*%
G36*
G01*
X184750000Y-119250000D02*
X185300000Y-119250000D01*
G75*
G02*
X185500000Y-119450000I0J-200000D01*
G01*
X185500000Y-119850000D01*
G75*
G02*
X185300000Y-120050000I-200000J0D01*
G01*
X184750000Y-120050000D01*
G75*
G02*
X184550000Y-119850000I0J200000D01*
G01*
X184550000Y-119450000D01*
G75*
G02*
X184750000Y-119250000I200000J0D01*
G01*
G37*
%TD.AperFunction*%
%TO.P,R11,1*%
%TO.N,GND*%
%TA.AperFunction,SMDPad,CuDef*%
G36*
G01*
X184750000Y-117600000D02*
X185300000Y-117600000D01*
G75*
G02*
X185500000Y-117800000I0J-200000D01*
G01*
X185500000Y-118200000D01*
G75*
G02*
X185300000Y-118400000I-200000J0D01*
G01*
X184750000Y-118400000D01*
G75*
G02*
X184550000Y-118200000I0J200000D01*
G01*
X184550000Y-117800000D01*
G75*
G02*
X184750000Y-117600000I200000J0D01*
G01*
G37*
%TD.AperFunction*%
%TD*%
%TO.P,R10,2*%
%TO.N,PWM_A2*%
%TA.AperFunction,SMDPad,CuDef*%
G36*
G01*
X184972500Y-121228000D02*
X184972500Y-121778000D01*
G75*
G02*
X184772500Y-121978000I-200000J0D01*
G01*
X184372500Y-121978000D01*
G75*
G02*
X184172500Y-121778000I0J200000D01*
G01*
X184172500Y-121228000D01*
G75*
G02*
X184372500Y-121028000I200000J0D01*
G01*
X184772500Y-121028000D01*
G75*
G02*
X184972500Y-121228000I0J-200000D01*
G01*
G37*
%TD.AperFunction*%
%TO.P,R10,1*%
%TO.N,Net-(Q2-Pad1)*%
%TA.AperFunction,SMDPad,CuDef*%
G36*
G01*
X186622500Y-121228000D02*
X186622500Y-121778000D01*
G75*
G02*
X186422500Y-121978000I-200000J0D01*
G01*
X186022500Y-121978000D01*
G75*
G02*
X185822500Y-121778000I0J200000D01*
G01*
X185822500Y-121228000D01*
G75*
G02*
X186022500Y-121028000I200000J0D01*
G01*
X186422500Y-121028000D01*
G75*
G02*
X186622500Y-121228000I0J-200000D01*
G01*
G37*
%TD.AperFunction*%
%TD*%
%TO.P,R9,2*%
%TO.N,Net-(R8-Pad1)*%
%TA.AperFunction,SMDPad,CuDef*%
G36*
G01*
X171258000Y-129078500D02*
X170708000Y-129078500D01*
G75*
G02*
X170508000Y-128878500I0J200000D01*
G01*
X170508000Y-128478500D01*
G75*
G02*
X170708000Y-128278500I200000J0D01*
G01*
X171258000Y-128278500D01*
G75*
G02*
X171458000Y-128478500I0J-200000D01*
G01*
X171458000Y-128878500D01*
G75*
G02*
X171258000Y-129078500I-200000J0D01*
G01*
G37*
%TD.AperFunction*%
%TO.P,R9,1*%
%TO.N,GND*%
%TA.AperFunction,SMDPad,CuDef*%
G36*
G01*
X171258000Y-130728500D02*
X170708000Y-130728500D01*
G75*
G02*
X170508000Y-130528500I0J200000D01*
G01*
X170508000Y-130128500D01*
G75*
G02*
X170708000Y-129928500I200000J0D01*
G01*
X171258000Y-129928500D01*
G75*
G02*
X171458000Y-130128500I0J-200000D01*
G01*
X171458000Y-130528500D01*
G75*
G02*
X171258000Y-130728500I-200000J0D01*
G01*
G37*
%TD.AperFunction*%
%TD*%
%TO.P,R8,2*%
%TO.N,+5V*%
%TA.AperFunction,SMDPad,CuDef*%
G36*
G01*
X165175000Y-129475000D02*
X165175000Y-130025000D01*
G75*
G02*
X164975000Y-130225000I-200000J0D01*
G01*
X164575000Y-130225000D01*
G75*
G02*
X164375000Y-130025000I0J200000D01*
G01*
X164375000Y-129475000D01*
G75*
G02*
X164575000Y-129275000I200000J0D01*
G01*
X164975000Y-129275000D01*
G75*
G02*
X165175000Y-129475000I0J-200000D01*
G01*
G37*
%TD.AperFunction*%
%TO.P,R8,1*%
%TO.N,Net-(R8-Pad1)*%
%TA.AperFunction,SMDPad,CuDef*%
G36*
G01*
X166825000Y-129475000D02*
X166825000Y-130025000D01*
G75*
G02*
X166625000Y-130225000I-200000J0D01*
G01*
X166225000Y-130225000D01*
G75*
G02*
X166025000Y-130025000I0J200000D01*
G01*
X166025000Y-129475000D01*
G75*
G02*
X166225000Y-129275000I200000J0D01*
G01*
X166625000Y-129275000D01*
G75*
G02*
X166825000Y-129475000I0J-200000D01*
G01*
G37*
%TD.AperFunction*%
%TD*%
%TO.P,R7,2*%
%TO.N,Net-(C17-Pad1)*%
%TA.AperFunction,SMDPad,CuDef*%
G36*
G01*
X169200000Y-132425000D02*
X168650000Y-132425000D01*
G75*
G02*
X168450000Y-132225000I0J200000D01*
G01*
X168450000Y-131825000D01*
G75*
G02*
X168650000Y-131625000I200000J0D01*
G01*
X169200000Y-131625000D01*
G75*
G02*
X169400000Y-131825000I0J-200000D01*
G01*
X169400000Y-132225000D01*
G75*
G02*
X169200000Y-132425000I-200000J0D01*
G01*
G37*
%TD.AperFunction*%
%TO.P,R7,1*%
%TO.N,GND*%
%TA.AperFunction,SMDPad,CuDef*%
G36*
G01*
X169200000Y-134075000D02*
X168650000Y-134075000D01*
G75*
G02*
X168450000Y-133875000I0J200000D01*
G01*
X168450000Y-133475000D01*
G75*
G02*
X168650000Y-133275000I200000J0D01*
G01*
X169200000Y-133275000D01*
G75*
G02*
X169400000Y-133475000I0J-200000D01*
G01*
X169400000Y-133875000D01*
G75*
G02*
X169200000Y-134075000I-200000J0D01*
G01*
G37*
%TD.AperFunction*%
%TD*%
%TO.P,R6,2*%
%TO.N,BUCK_VIN*%
%TA.AperFunction,SMDPad,CuDef*%
G36*
G01*
X168800000Y-124100000D02*
X168250000Y-124100000D01*
G75*
G02*
X168050000Y-123900000I0J200000D01*
G01*
X168050000Y-123500000D01*
G75*
G02*
X168250000Y-123300000I200000J0D01*
G01*
X168800000Y-123300000D01*
G75*
G02*
X169000000Y-123500000I0J-200000D01*
G01*
X169000000Y-123900000D01*
G75*
G02*
X168800000Y-124100000I-200000J0D01*
G01*
G37*
%TD.AperFunction*%
%TO.P,R6,1*%
%TO.N,Net-(R6-Pad1)*%
%TA.AperFunction,SMDPad,CuDef*%
G36*
G01*
X168800000Y-125750000D02*
X168250000Y-125750000D01*
G75*
G02*
X168050000Y-125550000I0J200000D01*
G01*
X168050000Y-125150000D01*
G75*
G02*
X168250000Y-124950000I200000J0D01*
G01*
X168800000Y-124950000D01*
G75*
G02*
X169000000Y-125150000I0J-200000D01*
G01*
X169000000Y-125550000D01*
G75*
G02*
X168800000Y-125750000I-200000J0D01*
G01*
G37*
%TD.AperFunction*%
%TD*%
%TO.P,R5,2*%
%TO.N,I2C1_SCL*%
%TA.AperFunction,SMDPad,CuDef*%
G36*
G01*
X175274999Y-129137500D02*
X176175001Y-129137500D01*
G75*
G02*
X176425000Y-129387499I0J-249999D01*
G01*
X176425000Y-129912501D01*
G75*
G02*
X176175001Y-130162500I-249999J0D01*
G01*
X175274999Y-130162500D01*
G75*
G02*
X175025000Y-129912501I0J249999D01*
G01*
X175025000Y-129387499D01*
G75*
G02*
X175274999Y-129137500I249999J0D01*
G01*
G37*
%TD.AperFunction*%
%TO.P,R5,1*%
%TO.N,+3V3*%
%TA.AperFunction,SMDPad,CuDef*%
G36*
G01*
X175274999Y-127312500D02*
X176175001Y-127312500D01*
G75*
G02*
X176425000Y-127562499I0J-249999D01*
G01*
X176425000Y-128087501D01*
G75*
G02*
X176175001Y-128337500I-249999J0D01*
G01*
X175274999Y-128337500D01*
G75*
G02*
X175025000Y-128087501I0J249999D01*
G01*
X175025000Y-127562499D01*
G75*
G02*
X175274999Y-127312500I249999J0D01*
G01*
G37*
%TD.AperFunction*%
%TD*%
%TO.P,R4,2*%
%TO.N,I2C1_SDA*%
%TA.AperFunction,SMDPad,CuDef*%
G36*
G01*
X172874999Y-129137500D02*
X173775001Y-129137500D01*
G75*
G02*
X174025000Y-129387499I0J-249999D01*
G01*
X174025000Y-129912501D01*
G75*
G02*
X173775001Y-130162500I-249999J0D01*
G01*
X172874999Y-130162500D01*
G75*
G02*
X172625000Y-129912501I0J249999D01*
G01*
X172625000Y-129387499D01*
G75*
G02*
X172874999Y-129137500I249999J0D01*
G01*
G37*
%TD.AperFunction*%
%TO.P,R4,1*%
%TO.N,+3V3*%
%TA.AperFunction,SMDPad,CuDef*%
G36*
G01*
X172874999Y-127312500D02*
X173775001Y-127312500D01*
G75*
G02*
X174025000Y-127562499I0J-249999D01*
G01*
X174025000Y-128087501D01*
G75*
G02*
X173775001Y-128337500I-249999J0D01*
G01*
X172874999Y-128337500D01*
G75*
G02*
X172625000Y-128087501I0J249999D01*
G01*
X172625000Y-127562499D01*
G75*
G02*
X172874999Y-127312500I249999J0D01*
G01*
G37*
%TD.AperFunction*%
%TD*%
%TO.P,R3,2*%
%TO.N,GND*%
%TA.AperFunction,SMDPad,CuDef*%
G36*
G01*
X175425000Y-149675000D02*
X175425000Y-149125000D01*
G75*
G02*
X175625000Y-148925000I200000J0D01*
G01*
X176025000Y-148925000D01*
G75*
G02*
X176225000Y-149125000I0J-200000D01*
G01*
X176225000Y-149675000D01*
G75*
G02*
X176025000Y-149875000I-200000J0D01*
G01*
X175625000Y-149875000D01*
G75*
G02*
X175425000Y-149675000I0J200000D01*
G01*
G37*
%TD.AperFunction*%
%TO.P,R3,1*%
%TO.N,Net-(D1-Pad1)*%
%TA.AperFunction,SMDPad,CuDef*%
G36*
G01*
X173775000Y-149675000D02*
X173775000Y-149125000D01*
G75*
G02*
X173975000Y-148925000I200000J0D01*
G01*
X174375000Y-148925000D01*
G75*
G02*
X174575000Y-149125000I0J-200000D01*
G01*
X174575000Y-149675000D01*
G75*
G02*
X174375000Y-149875000I-200000J0D01*
G01*
X173975000Y-149875000D01*
G75*
G02*
X173775000Y-149675000I0J200000D01*
G01*
G37*
%TD.AperFunction*%
%TD*%
%TO.P,R2,2*%
%TO.N,Net-(C12-Pad1)*%
%TA.AperFunction,SMDPad,CuDef*%
G36*
G01*
X173740000Y-140640000D02*
X174110000Y-140640000D01*
G75*
G02*
X174245000Y-140775000I0J-135000D01*
G01*
X174245000Y-141045000D01*
G75*
G02*
X174110000Y-141180000I-135000J0D01*
G01*
X173740000Y-141180000D01*
G75*
G02*
X173605000Y-141045000I0J135000D01*
G01*
X173605000Y-140775000D01*
G75*
G02*
X173740000Y-140640000I135000J0D01*
G01*
G37*
%TD.AperFunction*%
%TO.P,R2,1*%
%TO.N,HSE_OUT*%
%TA.AperFunction,SMDPad,CuDef*%
G36*
G01*
X173740000Y-139620000D02*
X174110000Y-139620000D01*
G75*
G02*
X174245000Y-139755000I0J-135000D01*
G01*
X174245000Y-140025000D01*
G75*
G02*
X174110000Y-140160000I-135000J0D01*
G01*
X173740000Y-140160000D01*
G75*
G02*
X173605000Y-140025000I0J135000D01*
G01*
X173605000Y-139755000D01*
G75*
G02*
X173740000Y-139620000I135000J0D01*
G01*
G37*
%TD.AperFunction*%
%TD*%
%TO.P,R1,2*%
%TO.N,BOOT0*%
%TA.AperFunction,SMDPad,CuDef*%
G36*
G01*
X199373000Y-116284000D02*
X199743000Y-116284000D01*
G75*
G02*
X199878000Y-116419000I0J-135000D01*
G01*
X199878000Y-116689000D01*
G75*
G02*
X199743000Y-116824000I-135000J0D01*
G01*
X199373000Y-116824000D01*
G75*
G02*
X199238000Y-116689000I0J135000D01*
G01*
X199238000Y-116419000D01*
G75*
G02*
X199373000Y-116284000I135000J0D01*
G01*
G37*
%TD.AperFunction*%
%TO.P,R1,1*%
%TO.N,Net-(R1-Pad1)*%
%TA.AperFunction,SMDPad,CuDef*%
G36*
G01*
X199373000Y-115264000D02*
X199743000Y-115264000D01*
G75*
G02*
X199878000Y-115399000I0J-135000D01*
G01*
X199878000Y-115669000D01*
G75*
G02*
X199743000Y-115804000I-135000J0D01*
G01*
X199373000Y-115804000D01*
G75*
G02*
X199238000Y-115669000I0J135000D01*
G01*
X199238000Y-115399000D01*
G75*
G02*
X199373000Y-115264000I135000J0D01*
G01*
G37*
%TD.AperFunction*%
%TD*%
D25*
%TO.P,Q3,2*%
%TO.N,Net-(Heater2-Pad2)*%
X177625000Y-108675000D03*
D26*
%TO.P,Q3,3*%
%TO.N,GND*%
X180165000Y-117825000D03*
%TO.P,Q3,1*%
%TO.N,Net-(Q3-Pad1)*%
X175085000Y-117825000D03*
%TD*%
D25*
%TO.P,Q2,2*%
%TO.N,Net-(Heater1-Pad2)*%
X192050000Y-108625000D03*
D26*
%TO.P,Q2,3*%
%TO.N,GND*%
X194590000Y-117775000D03*
%TO.P,Q2,1*%
%TO.N,Net-(Q2-Pad1)*%
X189510000Y-117775000D03*
%TD*%
D27*
%TO.P,Q1,2*%
%TO.N,Net-(F1-Pad2)*%
X161050000Y-106925000D03*
D28*
%TO.P,Q1,3*%
%TO.N,Net-(D2-Pad1)*%
X163330000Y-113225000D03*
%TO.P,Q1,1*%
%TO.N,GND*%
X158770000Y-113225000D03*
%TD*%
D29*
%TO.P,L2,2*%
%TO.N,+5V*%
X159225000Y-134450000D03*
%TO.P,L2,1*%
%TO.N,Net-(C16-Pad1)*%
X159225000Y-130350000D03*
%TD*%
%TO.P,L1,2*%
%TO.N,+3.3VA*%
%TA.AperFunction,SMDPad,CuDef*%
G36*
G01*
X166941500Y-146567500D02*
X166941500Y-146222500D01*
G75*
G02*
X167089000Y-146075000I147500J0D01*
G01*
X167384000Y-146075000D01*
G75*
G02*
X167531500Y-146222500I0J-147500D01*
G01*
X167531500Y-146567500D01*
G75*
G02*
X167384000Y-146715000I-147500J0D01*
G01*
X167089000Y-146715000D01*
G75*
G02*
X166941500Y-146567500I0J147500D01*
G01*
G37*
%TD.AperFunction*%
%TO.P,L1,1*%
%TO.N,+3V3*%
%TA.AperFunction,SMDPad,CuDef*%
G36*
G01*
X165971500Y-146567500D02*
X165971500Y-146222500D01*
G75*
G02*
X166119000Y-146075000I147500J0D01*
G01*
X166414000Y-146075000D01*
G75*
G02*
X166561500Y-146222500I0J-147500D01*
G01*
X166561500Y-146567500D01*
G75*
G02*
X166414000Y-146715000I-147500J0D01*
G01*
X166119000Y-146715000D01*
G75*
G02*
X165971500Y-146567500I0J147500D01*
G01*
G37*
%TD.AperFunction*%
%TD*%
D30*
%TO.P,ADC,5*%
%TO.N,GND*%
X170175000Y-151650000D03*
%TO.P,ADC,4*%
%TO.N,ADC1_IN2*%
X168925000Y-151650000D03*
%TO.P,ADC,3*%
%TO.N,ADC1_IN1*%
X167675000Y-151650000D03*
%TO.P,ADC,2*%
%TO.N,ADC1_IN0*%
X166425000Y-151650000D03*
%TO.P,ADC,1*%
%TO.N,+3.3VA*%
%TA.AperFunction,ComponentPad*%
G36*
G01*
X164775000Y-152100000D02*
X164775000Y-151200000D01*
G75*
G02*
X164975000Y-151000000I200000J0D01*
G01*
X165375000Y-151000000D01*
G75*
G02*
X165575000Y-151200000I0J-200000D01*
G01*
X165575000Y-152100000D01*
G75*
G02*
X165375000Y-152300000I-200000J0D01*
G01*
X164975000Y-152300000D01*
G75*
G02*
X164775000Y-152100000I0J200000D01*
G01*
G37*
%TD.AperFunction*%
%TD*%
D31*
%TO.P,J9,2*%
%TO.N,GND*%
X160345000Y-97650000D03*
D32*
%TO.P,J9,1*%
%TO.N,+12V*%
X165425000Y-97650000D03*
%TD*%
D33*
%TO.P,J8,40*%
%TO.N,Net-(J8-Pad40)*%
X150135000Y-101510000D03*
%TO.P,J8,39*%
%TO.N,GND*%
X152675000Y-101510000D03*
%TO.P,J8,38*%
%TO.N,Net-(J8-Pad38)*%
X150135000Y-104050000D03*
%TO.P,J8,37*%
%TO.N,Net-(J8-Pad37)*%
X152675000Y-104050000D03*
%TO.P,J8,36*%
%TO.N,Net-(J8-Pad36)*%
X150135000Y-106590000D03*
%TO.P,J8,35*%
%TO.N,Net-(J8-Pad35)*%
X152675000Y-106590000D03*
%TO.P,J8,34*%
%TO.N,GND*%
X150135000Y-109130000D03*
%TO.P,J8,33*%
%TO.N,Net-(J8-Pad33)*%
X152675000Y-109130000D03*
%TO.P,J8,32*%
%TO.N,Net-(J8-Pad32)*%
X150135000Y-111670000D03*
%TO.P,J8,31*%
%TO.N,Net-(J8-Pad31)*%
X152675000Y-111670000D03*
%TO.P,J8,30*%
%TO.N,GND*%
X150135000Y-114210000D03*
%TO.P,J8,29*%
%TO.N,Net-(J8-Pad29)*%
X152675000Y-114210000D03*
%TO.P,J8,28*%
%TO.N,Net-(J8-Pad28)*%
X150135000Y-116750000D03*
%TO.P,J8,27*%
%TO.N,Net-(J8-Pad27)*%
X152675000Y-116750000D03*
%TO.P,J8,26*%
%TO.N,Net-(J8-Pad26)*%
X150135000Y-119290000D03*
%TO.P,J8,25*%
%TO.N,GND*%
X152675000Y-119290000D03*
%TO.P,J8,24*%
%TO.N,Net-(J8-Pad24)*%
X150135000Y-121830000D03*
%TO.P,J8,23*%
%TO.N,Net-(J8-Pad23)*%
X152675000Y-121830000D03*
%TO.P,J8,22*%
%TO.N,Net-(J8-Pad22)*%
X150135000Y-124370000D03*
%TO.P,J8,21*%
%TO.N,Net-(J8-Pad21)*%
X152675000Y-124370000D03*
%TO.P,J8,20*%
%TO.N,GND*%
X150135000Y-126910000D03*
%TO.P,J8,19*%
%TO.N,Net-(J8-Pad19)*%
X152675000Y-126910000D03*
%TO.P,J8,18*%
%TO.N,Net-(J8-Pad18)*%
X150135000Y-129450000D03*
%TO.P,J8,17*%
%TO.N,+3V3*%
X152675000Y-129450000D03*
%TO.P,J8,16*%
%TO.N,Net-(J8-Pad16)*%
X150135000Y-131990000D03*
%TO.P,J8,15*%
%TO.N,Net-(J8-Pad15)*%
X152675000Y-131990000D03*
%TO.P,J8,14*%
%TO.N,GND*%
X150135000Y-134530000D03*
%TO.P,J8,13*%
%TO.N,Net-(J8-Pad13)*%
X152675000Y-134530000D03*
%TO.P,J8,12*%
%TO.N,Net-(J8-Pad12)*%
X150135000Y-137070000D03*
%TO.P,J8,11*%
%TO.N,Net-(J8-Pad11)*%
X152675000Y-137070000D03*
%TO.P,J8,10*%
%TO.N,Net-(J8-Pad10)*%
X150135000Y-139610000D03*
%TO.P,J8,9*%
%TO.N,GND*%
X152675000Y-139610000D03*
%TO.P,J8,8*%
%TO.N,Net-(J8-Pad8)*%
X150135000Y-142150000D03*
%TO.P,J8,7*%
%TO.N,Net-(J8-Pad7)*%
X152675000Y-142150000D03*
%TO.P,J8,6*%
%TO.N,GND*%
X150135000Y-144690000D03*
%TO.P,J8,5*%
%TO.N,I2C1_SCL*%
X152675000Y-144690000D03*
%TO.P,J8,4*%
%TO.N,+5V*%
X150135000Y-147230000D03*
%TO.P,J8,3*%
%TO.N,I2C1_SDA*%
X152675000Y-147230000D03*
%TO.P,J8,2*%
%TO.N,+5V*%
X150135000Y-149770000D03*
D34*
%TO.P,J8,1*%
%TO.N,+3V3*%
X152675000Y-149770000D03*
%TD*%
D35*
%TO.P,SWD,10*%
%TO.N,Net-(J1-Pad10)*%
X187775000Y-150820000D03*
%TO.P,SWD,9*%
%TO.N,GND*%
X191675000Y-150820000D03*
%TO.P,SWD,8*%
%TO.N,Net-(J1-Pad8)*%
X187775000Y-152090000D03*
%TO.P,SWD,7*%
%TO.N,Net-(J1-Pad7)*%
X191675000Y-152090000D03*
%TO.P,SWD,6*%
%TO.N,Net-(J1-Pad6)*%
X187775000Y-153360000D03*
%TO.P,SWD,5*%
%TO.N,GND*%
X191675000Y-153360000D03*
%TO.P,SWD,4*%
%TO.N,Net-(J1-Pad4)*%
X187775000Y-154630000D03*
%TO.P,SWD,3*%
%TO.N,GND*%
X191675000Y-154630000D03*
%TO.P,SWD,2*%
%TO.N,Net-(J1-Pad2)*%
X187775000Y-155900000D03*
%TO.P,SWD,1*%
%TO.N,+3V3*%
X191675000Y-155900000D03*
%TD*%
D31*
%TO.P,Heater2,2*%
%TO.N,Net-(Heater2-Pad2)*%
X174945000Y-97650000D03*
D32*
%TO.P,Heater2,1*%
%TO.N,+12V*%
X180025000Y-97650000D03*
%TD*%
D31*
%TO.P,Heater1,2*%
%TO.N,Net-(Heater1-Pad2)*%
X189095000Y-97640000D03*
D32*
%TO.P,Heater1,1*%
%TO.N,+12V*%
X194175000Y-97640000D03*
%TD*%
D36*
%TO.P,GPIO,10*%
%TO.N,GND*%
X196045000Y-146050000D03*
%TO.P,GPIO,9*%
%TO.N,GPIO_04*%
X196045000Y-142150000D03*
%TO.P,GPIO,8*%
%TO.N,GPIO_08*%
X197315000Y-146050000D03*
%TO.P,GPIO,7*%
%TO.N,GPIO_03*%
X197315000Y-142150000D03*
%TO.P,GPIO,6*%
%TO.N,GPIO_07*%
X198585000Y-146050000D03*
%TO.P,GPIO,5*%
%TO.N,GPIO_02*%
X198585000Y-142150000D03*
%TO.P,GPIO,4*%
%TO.N,GPIO_06*%
X199855000Y-146050000D03*
%TO.P,GPIO,3*%
%TO.N,GPIO_01*%
X199855000Y-142150000D03*
%TO.P,GPIO,2*%
%TO.N,GPIO_05*%
X201125000Y-146050000D03*
%TO.P,GPIO,1*%
%TO.N,+3V3*%
X201125000Y-142150000D03*
%TD*%
%TO.P,FB1,2*%
%TO.N,Net-(D2-Pad1)*%
%TA.AperFunction,SMDPad,CuDef*%
G36*
G01*
X160937500Y-117231250D02*
X160937500Y-116468750D01*
G75*
G02*
X161156250Y-116250000I218750J0D01*
G01*
X161593750Y-116250000D01*
G75*
G02*
X161812500Y-116468750I0J-218750D01*
G01*
X161812500Y-117231250D01*
G75*
G02*
X161593750Y-117450000I-218750J0D01*
G01*
X161156250Y-117450000D01*
G75*
G02*
X160937500Y-117231250I0J218750D01*
G01*
G37*
%TD.AperFunction*%
%TO.P,FB1,1*%
%TO.N,BUCK_VIN*%
%TA.AperFunction,SMDPad,CuDef*%
G36*
G01*
X158812500Y-117231250D02*
X158812500Y-116468750D01*
G75*
G02*
X159031250Y-116250000I218750J0D01*
G01*
X159468750Y-116250000D01*
G75*
G02*
X159687500Y-116468750I0J-218750D01*
G01*
X159687500Y-117231250D01*
G75*
G02*
X159468750Y-117450000I-218750J0D01*
G01*
X159031250Y-117450000D01*
G75*
G02*
X158812500Y-117231250I0J218750D01*
G01*
G37*
%TD.AperFunction*%
%TD*%
%TO.P,F1,2*%
%TO.N,Net-(F1-Pad2)*%
%TA.AperFunction,SMDPad,CuDef*%
G36*
G01*
X166150000Y-106625000D02*
X167400000Y-106625000D01*
G75*
G02*
X167650000Y-106875000I0J-250000D01*
G01*
X167650000Y-107625000D01*
G75*
G02*
X167400000Y-107875000I-250000J0D01*
G01*
X166150000Y-107875000D01*
G75*
G02*
X165900000Y-107625000I0J250000D01*
G01*
X165900000Y-106875000D01*
G75*
G02*
X166150000Y-106625000I250000J0D01*
G01*
G37*
%TD.AperFunction*%
%TO.P,F1,1*%
%TO.N,+12V*%
%TA.AperFunction,SMDPad,CuDef*%
G36*
G01*
X166150000Y-103825000D02*
X167400000Y-103825000D01*
G75*
G02*
X167650000Y-104075000I0J-250000D01*
G01*
X167650000Y-104825000D01*
G75*
G02*
X167400000Y-105075000I-250000J0D01*
G01*
X166150000Y-105075000D01*
G75*
G02*
X165900000Y-104825000I0J250000D01*
G01*
X165900000Y-104075000D01*
G75*
G02*
X166150000Y-103825000I250000J0D01*
G01*
G37*
%TD.AperFunction*%
%TD*%
%TO.P,D5,2*%
%TO.N,Net-(D5-Pad2)*%
%TA.AperFunction,SMDPad,CuDef*%
G36*
G01*
X166918750Y-110612500D02*
X167431250Y-110612500D01*
G75*
G02*
X167650000Y-110831250I0J-218750D01*
G01*
X167650000Y-111268750D01*
G75*
G02*
X167431250Y-111487500I-218750J0D01*
G01*
X166918750Y-111487500D01*
G75*
G02*
X166700000Y-111268750I0J218750D01*
G01*
X166700000Y-110831250D01*
G75*
G02*
X166918750Y-110612500I218750J0D01*
G01*
G37*
%TD.AperFunction*%
%TO.P,D5,1*%
%TO.N,GND*%
%TA.AperFunction,SMDPad,CuDef*%
G36*
G01*
X166918750Y-109037500D02*
X167431250Y-109037500D01*
G75*
G02*
X167650000Y-109256250I0J-218750D01*
G01*
X167650000Y-109693750D01*
G75*
G02*
X167431250Y-109912500I-218750J0D01*
G01*
X166918750Y-109912500D01*
G75*
G02*
X166700000Y-109693750I0J218750D01*
G01*
X166700000Y-109256250D01*
G75*
G02*
X166918750Y-109037500I218750J0D01*
G01*
G37*
%TD.AperFunction*%
%TD*%
%TO.P,D4,2*%
%TO.N,Net-(D4-Pad2)*%
%TA.AperFunction,SMDPad,CuDef*%
G36*
G01*
X170168750Y-112012500D02*
X170681250Y-112012500D01*
G75*
G02*
X170900000Y-112231250I0J-218750D01*
G01*
X170900000Y-112668750D01*
G75*
G02*
X170681250Y-112887500I-218750J0D01*
G01*
X170168750Y-112887500D01*
G75*
G02*
X169950000Y-112668750I0J218750D01*
G01*
X169950000Y-112231250D01*
G75*
G02*
X170168750Y-112012500I218750J0D01*
G01*
G37*
%TD.AperFunction*%
%TO.P,D4,1*%
%TO.N,GND*%
%TA.AperFunction,SMDPad,CuDef*%
G36*
G01*
X170168750Y-110437500D02*
X170681250Y-110437500D01*
G75*
G02*
X170900000Y-110656250I0J-218750D01*
G01*
X170900000Y-111093750D01*
G75*
G02*
X170681250Y-111312500I-218750J0D01*
G01*
X170168750Y-111312500D01*
G75*
G02*
X169950000Y-111093750I0J218750D01*
G01*
X169950000Y-110656250D01*
G75*
G02*
X170168750Y-110437500I218750J0D01*
G01*
G37*
%TD.AperFunction*%
%TD*%
%TO.P,D3,2*%
%TO.N,Net-(D3-Pad2)*%
%TA.AperFunction,SMDPad,CuDef*%
G36*
G01*
X184668750Y-112712500D02*
X185181250Y-112712500D01*
G75*
G02*
X185400000Y-112931250I0J-218750D01*
G01*
X185400000Y-113368750D01*
G75*
G02*
X185181250Y-113587500I-218750J0D01*
G01*
X184668750Y-113587500D01*
G75*
G02*
X184450000Y-113368750I0J218750D01*
G01*
X184450000Y-112931250D01*
G75*
G02*
X184668750Y-112712500I218750J0D01*
G01*
G37*
%TD.AperFunction*%
%TO.P,D3,1*%
%TO.N,GND*%
%TA.AperFunction,SMDPad,CuDef*%
G36*
G01*
X184668750Y-111137500D02*
X185181250Y-111137500D01*
G75*
G02*
X185400000Y-111356250I0J-218750D01*
G01*
X185400000Y-111793750D01*
G75*
G02*
X185181250Y-112012500I-218750J0D01*
G01*
X184668750Y-112012500D01*
G75*
G02*
X184450000Y-111793750I0J218750D01*
G01*
X184450000Y-111356250D01*
G75*
G02*
X184668750Y-111137500I218750J0D01*
G01*
G37*
%TD.AperFunction*%
%TD*%
D37*
%TO.P,D2,2*%
%TO.N,+5V*%
X166575000Y-116850000D03*
%TO.P,D2,1*%
%TO.N,Net-(D2-Pad1)*%
X163275000Y-116850000D03*
%TD*%
%TO.P,D1,2*%
%TO.N,LED_STATUS*%
%TA.AperFunction,SMDPad,CuDef*%
G36*
G01*
X175312500Y-147906250D02*
X175312500Y-147393750D01*
G75*
G02*
X175531250Y-147175000I218750J0D01*
G01*
X175968750Y-147175000D01*
G75*
G02*
X176187500Y-147393750I0J-218750D01*
G01*
X176187500Y-147906250D01*
G75*
G02*
X175968750Y-148125000I-218750J0D01*
G01*
X175531250Y-148125000D01*
G75*
G02*
X175312500Y-147906250I0J218750D01*
G01*
G37*
%TD.AperFunction*%
%TO.P,D1,1*%
%TO.N,Net-(D1-Pad1)*%
%TA.AperFunction,SMDPad,CuDef*%
G36*
G01*
X173737500Y-147906250D02*
X173737500Y-147393750D01*
G75*
G02*
X173956250Y-147175000I218750J0D01*
G01*
X174393750Y-147175000D01*
G75*
G02*
X174612500Y-147393750I0J-218750D01*
G01*
X174612500Y-147906250D01*
G75*
G02*
X174393750Y-148125000I-218750J0D01*
G01*
X173956250Y-148125000D01*
G75*
G02*
X173737500Y-147906250I0J218750D01*
G01*
G37*
%TD.AperFunction*%
%TD*%
%TO.P,C20,2*%
%TO.N,GND*%
%TA.AperFunction,SMDPad,CuDef*%
G36*
G01*
X167315001Y-133176000D02*
X166014999Y-133176000D01*
G75*
G02*
X165765000Y-132926001I0J249999D01*
G01*
X165765000Y-132275999D01*
G75*
G02*
X166014999Y-132026000I249999J0D01*
G01*
X167315001Y-132026000D01*
G75*
G02*
X167565000Y-132275999I0J-249999D01*
G01*
X167565000Y-132926001D01*
G75*
G02*
X167315001Y-133176000I-249999J0D01*
G01*
G37*
%TD.AperFunction*%
%TO.P,C20,1*%
%TO.N,+3V3*%
%TA.AperFunction,SMDPad,CuDef*%
G36*
G01*
X167315001Y-136126000D02*
X166014999Y-136126000D01*
G75*
G02*
X165765000Y-135876001I0J249999D01*
G01*
X165765000Y-135225999D01*
G75*
G02*
X166014999Y-134976000I249999J0D01*
G01*
X167315001Y-134976000D01*
G75*
G02*
X167565000Y-135225999I0J-249999D01*
G01*
X167565000Y-135876001D01*
G75*
G02*
X167315001Y-136126000I-249999J0D01*
G01*
G37*
%TD.AperFunction*%
%TD*%
%TO.P,C19,2*%
%TO.N,GND*%
%TA.AperFunction,SMDPad,CuDef*%
G36*
G01*
X157505999Y-144994500D02*
X158806001Y-144994500D01*
G75*
G02*
X159056000Y-145244499I0J-249999D01*
G01*
X159056000Y-145894501D01*
G75*
G02*
X158806001Y-146144500I-249999J0D01*
G01*
X157505999Y-146144500D01*
G75*
G02*
X157256000Y-145894501I0J249999D01*
G01*
X157256000Y-145244499D01*
G75*
G02*
X157505999Y-144994500I249999J0D01*
G01*
G37*
%TD.AperFunction*%
%TO.P,C19,1*%
%TO.N,+5V*%
%TA.AperFunction,SMDPad,CuDef*%
G36*
G01*
X157505999Y-142044500D02*
X158806001Y-142044500D01*
G75*
G02*
X159056000Y-142294499I0J-249999D01*
G01*
X159056000Y-142944501D01*
G75*
G02*
X158806001Y-143194500I-249999J0D01*
G01*
X157505999Y-143194500D01*
G75*
G02*
X157256000Y-142944501I0J249999D01*
G01*
X157256000Y-142294499D01*
G75*
G02*
X157505999Y-142044500I249999J0D01*
G01*
G37*
%TD.AperFunction*%
%TD*%
%TO.P,C18,2*%
%TO.N,GND*%
%TA.AperFunction,SMDPad,CuDef*%
G36*
G01*
X156150000Y-136699999D02*
X156150000Y-138000001D01*
G75*
G02*
X155900001Y-138250000I-249999J0D01*
G01*
X155249999Y-138250000D01*
G75*
G02*
X155000000Y-138000001I0J249999D01*
G01*
X155000000Y-136699999D01*
G75*
G02*
X155249999Y-136450000I249999J0D01*
G01*
X155900001Y-136450000D01*
G75*
G02*
X156150000Y-136699999I0J-249999D01*
G01*
G37*
%TD.AperFunction*%
%TO.P,C18,1*%
%TO.N,+5V*%
%TA.AperFunction,SMDPad,CuDef*%
G36*
G01*
X159100000Y-136699999D02*
X159100000Y-138000001D01*
G75*
G02*
X158850001Y-138250000I-249999J0D01*
G01*
X158199999Y-138250000D01*
G75*
G02*
X157950000Y-138000001I0J249999D01*
G01*
X157950000Y-136699999D01*
G75*
G02*
X158199999Y-136450000I249999J0D01*
G01*
X158850001Y-136450000D01*
G75*
G02*
X159100000Y-136699999I0J-249999D01*
G01*
G37*
%TD.AperFunction*%
%TD*%
%TO.P,C17,2*%
%TO.N,Net-(C17-Pad2)*%
%TA.AperFunction,SMDPad,CuDef*%
G36*
G01*
X169575001Y-127825000D02*
X168274999Y-127825000D01*
G75*
G02*
X168025000Y-127575001I0J249999D01*
G01*
X168025000Y-126924999D01*
G75*
G02*
X168274999Y-126675000I249999J0D01*
G01*
X169575001Y-126675000D01*
G75*
G02*
X169825000Y-126924999I0J-249999D01*
G01*
X169825000Y-127575001D01*
G75*
G02*
X169575001Y-127825000I-249999J0D01*
G01*
G37*
%TD.AperFunction*%
%TO.P,C17,1*%
%TO.N,Net-(C17-Pad1)*%
%TA.AperFunction,SMDPad,CuDef*%
G36*
G01*
X169575001Y-130775000D02*
X168274999Y-130775000D01*
G75*
G02*
X168025000Y-130525001I0J249999D01*
G01*
X168025000Y-129874999D01*
G75*
G02*
X168274999Y-129625000I249999J0D01*
G01*
X169575001Y-129625000D01*
G75*
G02*
X169825000Y-129874999I0J-249999D01*
G01*
X169825000Y-130525001D01*
G75*
G02*
X169575001Y-130775000I-249999J0D01*
G01*
G37*
%TD.AperFunction*%
%TD*%
%TO.P,C16,2*%
%TO.N,Net-(C16-Pad2)*%
%TA.AperFunction,SMDPad,CuDef*%
G36*
G01*
X159075001Y-124475000D02*
X157774999Y-124475000D01*
G75*
G02*
X157525000Y-124225001I0J249999D01*
G01*
X157525000Y-123574999D01*
G75*
G02*
X157774999Y-123325000I249999J0D01*
G01*
X159075001Y-123325000D01*
G75*
G02*
X159325000Y-123574999I0J-249999D01*
G01*
X159325000Y-124225001D01*
G75*
G02*
X159075001Y-124475000I-249999J0D01*
G01*
G37*
%TD.AperFunction*%
%TO.P,C16,1*%
%TO.N,Net-(C16-Pad1)*%
%TA.AperFunction,SMDPad,CuDef*%
G36*
G01*
X159075001Y-127425000D02*
X157774999Y-127425000D01*
G75*
G02*
X157525000Y-127175001I0J249999D01*
G01*
X157525000Y-126524999D01*
G75*
G02*
X157774999Y-126275000I249999J0D01*
G01*
X159075001Y-126275000D01*
G75*
G02*
X159325000Y-126524999I0J-249999D01*
G01*
X159325000Y-127175001D01*
G75*
G02*
X159075001Y-127425000I-249999J0D01*
G01*
G37*
%TD.AperFunction*%
%TD*%
%TO.P,C15,2*%
%TO.N,GND*%
%TA.AperFunction,SMDPad,CuDef*%
G36*
G01*
X156100000Y-139599999D02*
X156100000Y-140900001D01*
G75*
G02*
X155850001Y-141150000I-249999J0D01*
G01*
X155199999Y-141150000D01*
G75*
G02*
X154950000Y-140900001I0J249999D01*
G01*
X154950000Y-139599999D01*
G75*
G02*
X155199999Y-139350000I249999J0D01*
G01*
X155850001Y-139350000D01*
G75*
G02*
X156100000Y-139599999I0J-249999D01*
G01*
G37*
%TD.AperFunction*%
%TO.P,C15,1*%
%TO.N,+5V*%
%TA.AperFunction,SMDPad,CuDef*%
G36*
G01*
X159050000Y-139599999D02*
X159050000Y-140900001D01*
G75*
G02*
X158800001Y-141150000I-249999J0D01*
G01*
X158149999Y-141150000D01*
G75*
G02*
X157900000Y-140900001I0J249999D01*
G01*
X157900000Y-139599999D01*
G75*
G02*
X158149999Y-139350000I249999J0D01*
G01*
X158800001Y-139350000D01*
G75*
G02*
X159050000Y-139599999I0J-249999D01*
G01*
G37*
%TD.AperFunction*%
%TD*%
%TO.P,C14,2*%
%TO.N,GND*%
%TA.AperFunction,SMDPad,CuDef*%
G36*
G01*
X166825001Y-119725000D02*
X165524999Y-119725000D01*
G75*
G02*
X165275000Y-119475001I0J249999D01*
G01*
X165275000Y-118824999D01*
G75*
G02*
X165524999Y-118575000I249999J0D01*
G01*
X166825001Y-118575000D01*
G75*
G02*
X167075000Y-118824999I0J-249999D01*
G01*
X167075000Y-119475001D01*
G75*
G02*
X166825001Y-119725000I-249999J0D01*
G01*
G37*
%TD.AperFunction*%
%TO.P,C14,1*%
%TO.N,Net-(C14-Pad1)*%
%TA.AperFunction,SMDPad,CuDef*%
G36*
G01*
X166825001Y-122675000D02*
X165524999Y-122675000D01*
G75*
G02*
X165275000Y-122425001I0J249999D01*
G01*
X165275000Y-121774999D01*
G75*
G02*
X165524999Y-121525000I249999J0D01*
G01*
X166825001Y-121525000D01*
G75*
G02*
X167075000Y-121774999I0J-249999D01*
G01*
X167075000Y-122425001D01*
G75*
G02*
X166825001Y-122675000I-249999J0D01*
G01*
G37*
%TD.AperFunction*%
%TD*%
%TO.P,C13,2*%
%TO.N,GND*%
%TA.AperFunction,SMDPad,CuDef*%
G36*
G01*
X161600000Y-120300001D02*
X161600000Y-118999999D01*
G75*
G02*
X161849999Y-118750000I249999J0D01*
G01*
X162500001Y-118750000D01*
G75*
G02*
X162750000Y-118999999I0J-249999D01*
G01*
X162750000Y-120300001D01*
G75*
G02*
X162500001Y-120550000I-249999J0D01*
G01*
X161849999Y-120550000D01*
G75*
G02*
X161600000Y-120300001I0J249999D01*
G01*
G37*
%TD.AperFunction*%
%TO.P,C13,1*%
%TO.N,BUCK_VIN*%
%TA.AperFunction,SMDPad,CuDef*%
G36*
G01*
X158650000Y-120300001D02*
X158650000Y-118999999D01*
G75*
G02*
X158899999Y-118750000I249999J0D01*
G01*
X159550001Y-118750000D01*
G75*
G02*
X159800000Y-118999999I0J-249999D01*
G01*
X159800000Y-120300001D01*
G75*
G02*
X159550001Y-120550000I-249999J0D01*
G01*
X158899999Y-120550000D01*
G75*
G02*
X158650000Y-120300001I0J249999D01*
G01*
G37*
%TD.AperFunction*%
%TD*%
%TO.P,C12,2*%
%TO.N,GND*%
%TA.AperFunction,SMDPad,CuDef*%
G36*
G01*
X171128500Y-141907000D02*
X171128500Y-142247000D01*
G75*
G02*
X170988500Y-142387000I-140000J0D01*
G01*
X170708500Y-142387000D01*
G75*
G02*
X170568500Y-142247000I0J140000D01*
G01*
X170568500Y-141907000D01*
G75*
G02*
X170708500Y-141767000I140000J0D01*
G01*
X170988500Y-141767000D01*
G75*
G02*
X171128500Y-141907000I0J-140000D01*
G01*
G37*
%TD.AperFunction*%
%TO.P,C12,1*%
%TO.N,Net-(C12-Pad1)*%
%TA.AperFunction,SMDPad,CuDef*%
G36*
G01*
X172088500Y-141907000D02*
X172088500Y-142247000D01*
G75*
G02*
X171948500Y-142387000I-140000J0D01*
G01*
X171668500Y-142387000D01*
G75*
G02*
X171528500Y-142247000I0J140000D01*
G01*
X171528500Y-141907000D01*
G75*
G02*
X171668500Y-141767000I140000J0D01*
G01*
X171948500Y-141767000D01*
G75*
G02*
X172088500Y-141907000I0J-140000D01*
G01*
G37*
%TD.AperFunction*%
%TD*%
%TO.P,C11,2*%
%TO.N,GND*%
%TA.AperFunction,SMDPad,CuDef*%
G36*
G01*
X171895000Y-136470000D02*
X171895000Y-136130000D01*
G75*
G02*
X172035000Y-135990000I140000J0D01*
G01*
X172315000Y-135990000D01*
G75*
G02*
X172455000Y-136130000I0J-140000D01*
G01*
X172455000Y-136470000D01*
G75*
G02*
X172315000Y-136610000I-140000J0D01*
G01*
X172035000Y-136610000D01*
G75*
G02*
X171895000Y-136470000I0J140000D01*
G01*
G37*
%TD.AperFunction*%
%TO.P,C11,1*%
%TO.N,HSE_IN*%
%TA.AperFunction,SMDPad,CuDef*%
G36*
G01*
X170935000Y-136470000D02*
X170935000Y-136130000D01*
G75*
G02*
X171075000Y-135990000I140000J0D01*
G01*
X171355000Y-135990000D01*
G75*
G02*
X171495000Y-136130000I0J-140000D01*
G01*
X171495000Y-136470000D01*
G75*
G02*
X171355000Y-136610000I-140000J0D01*
G01*
X171075000Y-136610000D01*
G75*
G02*
X170935000Y-136470000I0J140000D01*
G01*
G37*
%TD.AperFunction*%
%TD*%
%TO.P,C10,2*%
%TO.N,GND*%
%TA.AperFunction,SMDPad,CuDef*%
G36*
G01*
X169132000Y-143685000D02*
X169132000Y-144025000D01*
G75*
G02*
X168992000Y-144165000I-140000J0D01*
G01*
X168712000Y-144165000D01*
G75*
G02*
X168572000Y-144025000I0J140000D01*
G01*
X168572000Y-143685000D01*
G75*
G02*
X168712000Y-143545000I140000J0D01*
G01*
X168992000Y-143545000D01*
G75*
G02*
X169132000Y-143685000I0J-140000D01*
G01*
G37*
%TD.AperFunction*%
%TO.P,C10,1*%
%TO.N,+3.3VA*%
%TA.AperFunction,SMDPad,CuDef*%
G36*
G01*
X170092000Y-143685000D02*
X170092000Y-144025000D01*
G75*
G02*
X169952000Y-144165000I-140000J0D01*
G01*
X169672000Y-144165000D01*
G75*
G02*
X169532000Y-144025000I0J140000D01*
G01*
X169532000Y-143685000D01*
G75*
G02*
X169672000Y-143545000I140000J0D01*
G01*
X169952000Y-143545000D01*
G75*
G02*
X170092000Y-143685000I0J-140000D01*
G01*
G37*
%TD.AperFunction*%
%TD*%
%TO.P,C9,2*%
%TO.N,GND*%
%TA.AperFunction,SMDPad,CuDef*%
G36*
G01*
X168080500Y-144764500D02*
X168080500Y-145104500D01*
G75*
G02*
X167940500Y-145244500I-140000J0D01*
G01*
X167660500Y-145244500D01*
G75*
G02*
X167520500Y-145104500I0J140000D01*
G01*
X167520500Y-144764500D01*
G75*
G02*
X167660500Y-144624500I140000J0D01*
G01*
X167940500Y-144624500D01*
G75*
G02*
X168080500Y-144764500I0J-140000D01*
G01*
G37*
%TD.AperFunction*%
%TO.P,C9,1*%
%TO.N,+3.3VA*%
%TA.AperFunction,SMDPad,CuDef*%
G36*
G01*
X169040500Y-144764500D02*
X169040500Y-145104500D01*
G75*
G02*
X168900500Y-145244500I-140000J0D01*
G01*
X168620500Y-145244500D01*
G75*
G02*
X168480500Y-145104500I0J140000D01*
G01*
X168480500Y-144764500D01*
G75*
G02*
X168620500Y-144624500I140000J0D01*
G01*
X168900500Y-144624500D01*
G75*
G02*
X169040500Y-144764500I0J-140000D01*
G01*
G37*
%TD.AperFunction*%
%TD*%
%TO.P,C8,2*%
%TO.N,GND*%
%TA.AperFunction,SMDPad,CuDef*%
G36*
G01*
X174195000Y-136270000D02*
X173855000Y-136270000D01*
G75*
G02*
X173715000Y-136130000I0J140000D01*
G01*
X173715000Y-135850000D01*
G75*
G02*
X173855000Y-135710000I140000J0D01*
G01*
X174195000Y-135710000D01*
G75*
G02*
X174335000Y-135850000I0J-140000D01*
G01*
X174335000Y-136130000D01*
G75*
G02*
X174195000Y-136270000I-140000J0D01*
G01*
G37*
%TD.AperFunction*%
%TO.P,C8,1*%
%TO.N,+3V3*%
%TA.AperFunction,SMDPad,CuDef*%
G36*
G01*
X174195000Y-137230000D02*
X173855000Y-137230000D01*
G75*
G02*
X173715000Y-137090000I0J140000D01*
G01*
X173715000Y-136810000D01*
G75*
G02*
X173855000Y-136670000I140000J0D01*
G01*
X174195000Y-136670000D01*
G75*
G02*
X174335000Y-136810000I0J-140000D01*
G01*
X174335000Y-137090000D01*
G75*
G02*
X174195000Y-137230000I-140000J0D01*
G01*
G37*
%TD.AperFunction*%
%TD*%
%TO.P,C7,2*%
%TO.N,GND*%
%TA.AperFunction,SMDPad,CuDef*%
G36*
G01*
X177695000Y-132670000D02*
X177355000Y-132670000D01*
G75*
G02*
X177215000Y-132530000I0J140000D01*
G01*
X177215000Y-132250000D01*
G75*
G02*
X177355000Y-132110000I140000J0D01*
G01*
X177695000Y-132110000D01*
G75*
G02*
X177835000Y-132250000I0J-140000D01*
G01*
X177835000Y-132530000D01*
G75*
G02*
X177695000Y-132670000I-140000J0D01*
G01*
G37*
%TD.AperFunction*%
%TO.P,C7,1*%
%TO.N,+3V3*%
%TA.AperFunction,SMDPad,CuDef*%
G36*
G01*
X177695000Y-133630000D02*
X177355000Y-133630000D01*
G75*
G02*
X177215000Y-133490000I0J140000D01*
G01*
X177215000Y-133210000D01*
G75*
G02*
X177355000Y-133070000I140000J0D01*
G01*
X177695000Y-133070000D01*
G75*
G02*
X177835000Y-133210000I0J-140000D01*
G01*
X177835000Y-133490000D01*
G75*
G02*
X177695000Y-133630000I-140000J0D01*
G01*
G37*
%TD.AperFunction*%
%TD*%
%TO.P,C5,2*%
%TO.N,GND*%
%TA.AperFunction,SMDPad,CuDef*%
G36*
G01*
X187125000Y-147220000D02*
X187125000Y-146880000D01*
G75*
G02*
X187265000Y-146740000I140000J0D01*
G01*
X187545000Y-146740000D01*
G75*
G02*
X187685000Y-146880000I0J-140000D01*
G01*
X187685000Y-147220000D01*
G75*
G02*
X187545000Y-147360000I-140000J0D01*
G01*
X187265000Y-147360000D01*
G75*
G02*
X187125000Y-147220000I0J140000D01*
G01*
G37*
%TD.AperFunction*%
%TO.P,C5,1*%
%TO.N,+3V3*%
%TA.AperFunction,SMDPad,CuDef*%
G36*
G01*
X186165000Y-147220000D02*
X186165000Y-146880000D01*
G75*
G02*
X186305000Y-146740000I140000J0D01*
G01*
X186585000Y-146740000D01*
G75*
G02*
X186725000Y-146880000I0J-140000D01*
G01*
X186725000Y-147220000D01*
G75*
G02*
X186585000Y-147360000I-140000J0D01*
G01*
X186305000Y-147360000D01*
G75*
G02*
X186165000Y-147220000I0J140000D01*
G01*
G37*
%TD.AperFunction*%
%TD*%
%TO.P,C4,2*%
%TO.N,GND*%
%TA.AperFunction,SMDPad,CuDef*%
G36*
G01*
X178355000Y-148970000D02*
X178695000Y-148970000D01*
G75*
G02*
X178835000Y-149110000I0J-140000D01*
G01*
X178835000Y-149390000D01*
G75*
G02*
X178695000Y-149530000I-140000J0D01*
G01*
X178355000Y-149530000D01*
G75*
G02*
X178215000Y-149390000I0J140000D01*
G01*
X178215000Y-149110000D01*
G75*
G02*
X178355000Y-148970000I140000J0D01*
G01*
G37*
%TD.AperFunction*%
%TO.P,C4,1*%
%TO.N,+3V3*%
%TA.AperFunction,SMDPad,CuDef*%
G36*
G01*
X178355000Y-148010000D02*
X178695000Y-148010000D01*
G75*
G02*
X178835000Y-148150000I0J-140000D01*
G01*
X178835000Y-148430000D01*
G75*
G02*
X178695000Y-148570000I-140000J0D01*
G01*
X178355000Y-148570000D01*
G75*
G02*
X178215000Y-148430000I0J140000D01*
G01*
X178215000Y-148150000D01*
G75*
G02*
X178355000Y-148010000I140000J0D01*
G01*
G37*
%TD.AperFunction*%
%TD*%
%TO.P,C3,2*%
%TO.N,GND*%
%TA.AperFunction,SMDPad,CuDef*%
G36*
G01*
X176595000Y-133270000D02*
X176255000Y-133270000D01*
G75*
G02*
X176115000Y-133130000I0J140000D01*
G01*
X176115000Y-132850000D01*
G75*
G02*
X176255000Y-132710000I140000J0D01*
G01*
X176595000Y-132710000D01*
G75*
G02*
X176735000Y-132850000I0J-140000D01*
G01*
X176735000Y-133130000D01*
G75*
G02*
X176595000Y-133270000I-140000J0D01*
G01*
G37*
%TD.AperFunction*%
%TO.P,C3,1*%
%TO.N,+3V3*%
%TA.AperFunction,SMDPad,CuDef*%
G36*
G01*
X176595000Y-134230000D02*
X176255000Y-134230000D01*
G75*
G02*
X176115000Y-134090000I0J140000D01*
G01*
X176115000Y-133810000D01*
G75*
G02*
X176255000Y-133670000I140000J0D01*
G01*
X176595000Y-133670000D01*
G75*
G02*
X176735000Y-133810000I0J-140000D01*
G01*
X176735000Y-134090000D01*
G75*
G02*
X176595000Y-134230000I-140000J0D01*
G01*
G37*
%TD.AperFunction*%
%TD*%
%TO.P,C2,2*%
%TO.N,GND*%
%TA.AperFunction,SMDPad,CuDef*%
G36*
G01*
X189475000Y-134650000D02*
X188975000Y-134650000D01*
G75*
G02*
X188750000Y-134425000I0J225000D01*
G01*
X188750000Y-133975000D01*
G75*
G02*
X188975000Y-133750000I225000J0D01*
G01*
X189475000Y-133750000D01*
G75*
G02*
X189700000Y-133975000I0J-225000D01*
G01*
X189700000Y-134425000D01*
G75*
G02*
X189475000Y-134650000I-225000J0D01*
G01*
G37*
%TD.AperFunction*%
%TO.P,C2,1*%
%TO.N,Net-(C2-Pad1)*%
%TA.AperFunction,SMDPad,CuDef*%
G36*
G01*
X189475000Y-136200000D02*
X188975000Y-136200000D01*
G75*
G02*
X188750000Y-135975000I0J225000D01*
G01*
X188750000Y-135525000D01*
G75*
G02*
X188975000Y-135300000I225000J0D01*
G01*
X189475000Y-135300000D01*
G75*
G02*
X189700000Y-135525000I0J-225000D01*
G01*
X189700000Y-135975000D01*
G75*
G02*
X189475000Y-136200000I-225000J0D01*
G01*
G37*
%TD.AperFunction*%
%TD*%
%TO.P,C1,2*%
%TO.N,GND*%
%TA.AperFunction,SMDPad,CuDef*%
G36*
G01*
X186475000Y-148900000D02*
X186475000Y-148400000D01*
G75*
G02*
X186700000Y-148175000I225000J0D01*
G01*
X187150000Y-148175000D01*
G75*
G02*
X187375000Y-148400000I0J-225000D01*
G01*
X187375000Y-148900000D01*
G75*
G02*
X187150000Y-149125000I-225000J0D01*
G01*
X186700000Y-149125000D01*
G75*
G02*
X186475000Y-148900000I0J225000D01*
G01*
G37*
%TD.AperFunction*%
%TO.P,C1,1*%
%TO.N,Net-(C1-Pad1)*%
%TA.AperFunction,SMDPad,CuDef*%
G36*
G01*
X184925000Y-148900000D02*
X184925000Y-148400000D01*
G75*
G02*
X185150000Y-148175000I225000J0D01*
G01*
X185600000Y-148175000D01*
G75*
G02*
X185825000Y-148400000I0J-225000D01*
G01*
X185825000Y-148900000D01*
G75*
G02*
X185600000Y-149125000I-225000J0D01*
G01*
X185150000Y-149125000D01*
G75*
G02*
X184925000Y-148900000I0J225000D01*
G01*
G37*
%TD.AperFunction*%
%TD*%
D38*
%TO.N,GPIO_01*%
X189095000Y-140900000D03*
D39*
%TO.N,Net-(R12-Pad1)*%
X198625000Y-135650000D03*
%TO.N,Net-(R13-Pad1)*%
X198525000Y-134350000D03*
%TO.N,+5V*%
X198045000Y-127200000D03*
%TO.N,GND*%
X197925000Y-123750000D03*
X164625000Y-119050000D03*
%TO.N,+3V3*%
X201225000Y-139850000D03*
X185025000Y-145050000D03*
%TO.N,GND*%
X193625000Y-154650000D03*
%TO.N,+3V3*%
X193625000Y-155850000D03*
%TO.N,SWDIO*%
X185025000Y-138250000D03*
%TO.N,GND*%
X187825000Y-133850000D03*
%TO.N,+3V3*%
X190025000Y-130550000D03*
%TO.N,+5V*%
X160025000Y-146450000D03*
X160025000Y-147450000D03*
%TO.N,+3V3*%
X178825000Y-151250000D03*
X179535000Y-144720000D03*
X174425000Y-156150000D03*
%TO.N,I2C1_SDA*%
X179675000Y-137150000D03*
%TO.N,I2C1_SCL*%
X180675000Y-137150000D03*
%TO.N,+3V3*%
X173175000Y-126400000D03*
%TO.N,GND*%
X170425000Y-109650000D03*
X186425000Y-117900000D03*
%TO.N,+3V3*%
X199925000Y-110900000D03*
%TO.N,GND*%
X198425000Y-107650000D03*
%TO.N,BOOT0*%
X179746000Y-132869500D03*
%TO.N,TEMP_ALERT*%
X185842000Y-132806000D03*
%TO.N,SWCLCK*%
X186921500Y-132806000D03*
%TO.N,NRST*%
X177333000Y-140235500D03*
%TO.N,+3V3*%
X165331500Y-146458500D03*
%TO.N,GND*%
X168887500Y-142902500D03*
%TO.N,PWM_B2*%
X183048000Y-144998000D03*
%TO.N,PWM_A2*%
X181905000Y-144998000D03*
%TO.N,GND*%
X163225000Y-129450000D03*
X163225000Y-130350000D03*
X168665000Y-135150000D03*
X168685000Y-136250000D03*
X169967000Y-142077000D03*
X169459000Y-140299000D03*
X173713500Y-138140000D03*
X167808000Y-143918500D03*
X158156000Y-146839500D03*
X155552500Y-142966000D03*
X155552500Y-135663500D03*
X172189500Y-135346000D03*
X174031000Y-135092000D03*
X170983000Y-131599500D03*
X170348000Y-132679000D03*
X180925000Y-120900000D03*
X181925000Y-120900000D03*
X181925000Y-119900000D03*
X181925000Y-118900000D03*
X182925000Y-120900000D03*
X182925000Y-119900000D03*
X182925000Y-118900000D03*
X195175000Y-120900000D03*
X196175000Y-119900000D03*
X197175000Y-120900000D03*
X196175000Y-120900000D03*
X197175000Y-119900000D03*
X196175000Y-118900000D03*
X197175000Y-118900000D03*
X168425000Y-109400000D03*
X159175000Y-115150000D03*
X158175000Y-115150000D03*
X176425000Y-131900000D03*
X177425000Y-131400000D03*
X176175000Y-135150000D03*
X177425000Y-148400000D03*
X178425000Y-150150000D03*
X176925000Y-149400000D03*
X180175000Y-152900000D03*
X173925000Y-151650000D03*
X174925000Y-151650000D03*
X175925000Y-151650000D03*
X176925000Y-151650000D03*
X173925000Y-152650000D03*
X174925000Y-152650000D03*
X175925000Y-152650000D03*
X176925000Y-152650000D03*
X173925000Y-153650000D03*
X173925000Y-154650000D03*
X195025000Y-130150000D03*
X189225000Y-133050000D03*
X193625000Y-153450000D03*
X193625000Y-150850000D03*
X188425000Y-149050000D03*
X194425000Y-144450000D03*
X184825000Y-110250000D03*
X174015000Y-142020000D03*
X163425000Y-119450000D03*
X176425000Y-123050000D03*
X178175000Y-157400000D03*
X179175000Y-157400000D03*
X180175000Y-157400000D03*
%TO.N,+3V3*%
X163025000Y-136250000D03*
X163925000Y-136250000D03*
X163025000Y-135350000D03*
X163925000Y-135350000D03*
X175110500Y-136108000D03*
X174425000Y-126400000D03*
X175425000Y-133900000D03*
X178675000Y-133400000D03*
X185025000Y-137050000D03*
X194825000Y-138150000D03*
X164795000Y-135760000D03*
%TO.N,+3.3VA*%
X165175000Y-149400000D03*
%TO.N,+5V*%
X164625000Y-131250000D03*
X164625000Y-132450000D03*
X163625000Y-132450000D03*
X167375000Y-114700000D03*
X167375000Y-115700000D03*
X155465000Y-149840000D03*
%TO.N,+12V*%
X169425000Y-94350000D03*
X170925000Y-94350000D03*
X183875000Y-94400000D03*
X185375000Y-94400000D03*
%TO.N,GPIO_01*%
X199825000Y-139850000D03*
%TO.N,Net-(Heater1-Pad2)*%
X188425000Y-102650000D03*
X188425000Y-101650000D03*
X189425000Y-101650000D03*
X190425000Y-101650000D03*
X190425000Y-102650000D03*
X189425000Y-102650000D03*
%TO.N,Net-(Heater2-Pad2)*%
X173925000Y-102650000D03*
X174925000Y-102650000D03*
X175925000Y-102650000D03*
X173925000Y-101650000D03*
X174925000Y-101650000D03*
X175925000Y-101650000D03*
%TO.N,I2C1_SCL*%
X155175000Y-145900000D03*
%TO.N,I2C1_SDA*%
X155175000Y-147150000D03*
%TO.N,ADC1_IN2*%
X168925000Y-149350000D03*
%TO.N,ADC1_IN1*%
X167675000Y-149350000D03*
%TO.N,ADC1_IN0*%
X166425000Y-149350000D03*
%TO.N,BOOT0*%
X185675000Y-127900000D03*
%TO.N,SWDIO*%
X184225000Y-149250000D03*
%TO.N,SWCLCK*%
X183365500Y-153062500D03*
D38*
%TO.N,NRST*%
X184005000Y-151250000D03*
D39*
%TO.N,TEMP_ALERT*%
X178603000Y-152554500D03*
%TO.N,PWM_B2*%
X182925000Y-132850000D03*
%TO.N,PWM_A2*%
X184191000Y-130202500D03*
%TD*%
D40*
%TO.N,GND*%
X155525000Y-137400000D02*
X155575000Y-137350000D01*
X155525000Y-140250000D02*
X155525000Y-138993000D01*
X163700000Y-126440000D02*
X163700000Y-126035000D01*
X162200000Y-127940000D02*
X163700000Y-126440000D01*
X161225000Y-127940000D02*
X161225000Y-127940000D01*
X161225000Y-127940000D02*
X162200000Y-127940000D01*
X161715000Y-127940000D02*
X163225000Y-129450000D01*
X161225000Y-127940000D02*
X161715000Y-127940000D01*
X163225000Y-129450000D02*
X163225000Y-130350000D01*
X163700000Y-126035000D02*
X163700000Y-127275000D01*
X163225000Y-127750000D02*
X163225000Y-130350000D01*
X163700000Y-127275000D02*
X163225000Y-127750000D01*
X163035000Y-127940000D02*
X163225000Y-127750000D01*
X161225000Y-127940000D02*
X163035000Y-127940000D01*
X168925000Y-136500000D02*
X168925000Y-136261000D01*
X167475000Y-137950000D02*
X168925000Y-136500000D01*
X167739000Y-133675000D02*
X168925000Y-133675000D01*
X166665000Y-132601000D02*
X167739000Y-133675000D01*
X167475000Y-137950000D02*
X165725000Y-137950000D01*
X168265010Y-137159990D02*
X167475000Y-137950000D01*
X168265010Y-134201010D02*
X168265010Y-137159990D01*
X166665000Y-132601000D02*
X168265010Y-134201010D01*
X168925000Y-135118000D02*
X168925000Y-133675000D01*
X168925000Y-136261000D02*
X168925000Y-135118000D01*
D41*
X172465000Y-138140000D02*
X172425000Y-138100000D01*
X173713500Y-138140000D02*
X172465000Y-138140000D01*
X170724000Y-140299000D02*
X170725000Y-140300000D01*
X169459000Y-140299000D02*
X170724000Y-140299000D01*
X170848500Y-142077000D02*
X169967000Y-142077000D01*
X167808000Y-144927000D02*
X167800500Y-144934500D01*
X167808000Y-143918500D02*
X167808000Y-144927000D01*
X168852000Y-142938000D02*
X168887500Y-142902500D01*
X168852000Y-143855000D02*
X168852000Y-142938000D01*
D40*
X155525000Y-142938500D02*
X155552500Y-142966000D01*
X155525000Y-140250000D02*
X155525000Y-142938500D01*
X158156000Y-145569500D02*
X158156000Y-145569500D01*
X155552500Y-142966000D02*
X158156000Y-145569500D01*
X155525000Y-138993000D02*
X155525000Y-137400000D01*
X158156000Y-146839500D02*
X158156000Y-145569500D01*
X155575000Y-135686000D02*
X155552500Y-135663500D01*
X155575000Y-137350000D02*
X155575000Y-135686000D01*
D41*
X172175000Y-137850000D02*
X172425000Y-138100000D01*
X172175000Y-136300000D02*
X172175000Y-137850000D01*
X172485000Y-135990000D02*
X172175000Y-136300000D01*
X174025000Y-135990000D02*
X174025000Y-135990000D01*
X173006000Y-135990000D02*
X172485000Y-135990000D01*
X174025000Y-135990000D02*
X173006000Y-135990000D01*
X172189500Y-136285500D02*
X172175000Y-136300000D01*
X172189500Y-135346000D02*
X172189500Y-136285500D01*
X174025000Y-135098000D02*
X174031000Y-135092000D01*
X174025000Y-135990000D02*
X174025000Y-135098000D01*
D40*
X169400000Y-133675000D02*
X168925000Y-133675000D01*
X170983000Y-132092000D02*
X169400000Y-133675000D01*
X170983000Y-130328500D02*
X170983000Y-132092000D01*
X200095000Y-107650000D02*
X198425000Y-107650000D01*
X185141010Y-117900000D02*
X185041010Y-118000000D01*
X186425000Y-117900000D02*
X185141010Y-117900000D01*
X158770000Y-114555000D02*
X158175000Y-115150000D01*
X158770000Y-113225000D02*
X158770000Y-114555000D01*
X158770000Y-114745000D02*
X158770000Y-114555000D01*
X159175000Y-115150000D02*
X158770000Y-114745000D01*
X158175000Y-115150000D02*
X159175000Y-115150000D01*
X158175000Y-113820000D02*
X158770000Y-113225000D01*
X158175000Y-115150000D02*
X158175000Y-113820000D01*
X159175000Y-113630000D02*
X158770000Y-113225000D01*
X159175000Y-115150000D02*
X159175000Y-113630000D01*
D41*
X176425000Y-131900000D02*
X176425000Y-132990000D01*
X177425000Y-132290000D02*
X177525000Y-132390000D01*
X177425000Y-131400000D02*
X177425000Y-132290000D01*
D42*
X178250000Y-135225000D02*
X178250000Y-136575000D01*
X177600000Y-136575000D02*
X176175000Y-135150000D01*
X178250000Y-136575000D02*
X177600000Y-136575000D01*
X177425000Y-148387020D02*
X177425000Y-148400000D01*
X178250000Y-147562020D02*
X177425000Y-148387020D01*
X178250000Y-146575000D02*
X178250000Y-147562020D01*
D41*
X178525000Y-150050000D02*
X178425000Y-150150000D01*
X178525000Y-149250000D02*
X178525000Y-150050000D01*
X176925000Y-149400000D02*
X175825000Y-149400000D01*
D42*
X194744999Y-130230001D02*
X192819999Y-130230001D01*
X195025000Y-129950000D02*
X194744999Y-130230001D01*
X192475000Y-129885002D02*
X192475000Y-129350000D01*
X192819999Y-130230001D02*
X192475000Y-129885002D01*
X187625000Y-134050000D02*
X187825000Y-133850000D01*
X187625000Y-134990000D02*
X187625000Y-134050000D01*
X189225000Y-134200000D02*
X189225000Y-133050000D01*
D41*
X191765000Y-153450000D02*
X191675000Y-153360000D01*
X193625000Y-153450000D02*
X191765000Y-153450000D01*
X191695000Y-154650000D02*
X191675000Y-154630000D01*
X193625000Y-154650000D02*
X191695000Y-154650000D01*
X191705000Y-150850000D02*
X191675000Y-150820000D01*
X193625000Y-150850000D02*
X191705000Y-150850000D01*
X188025000Y-148650000D02*
X188425000Y-149050000D01*
X186925000Y-148650000D02*
X188025000Y-148650000D01*
X187405000Y-148170000D02*
X187405000Y-147050000D01*
X186925000Y-148650000D02*
X187405000Y-148170000D01*
D42*
X196045000Y-146050000D02*
X196045000Y-144870000D01*
X195625000Y-144450000D02*
X194425000Y-144450000D01*
X196045000Y-144870000D02*
X195625000Y-144450000D01*
X194590000Y-117775000D02*
X194590000Y-118815000D01*
X194675000Y-118900000D02*
X196175000Y-118900000D01*
X194590000Y-118815000D02*
X194675000Y-118900000D01*
D40*
X162375000Y-119450000D02*
X162175000Y-119650000D01*
X163425000Y-119450000D02*
X162375000Y-119450000D01*
X175261500Y-123050000D02*
X175174000Y-122962500D01*
X176425000Y-123050000D02*
X175261500Y-123050000D01*
D41*
X198725000Y-124550000D02*
X197925000Y-123750000D01*
X199562500Y-124550000D02*
X198725000Y-124550000D01*
X197175000Y-120900000D02*
X197175000Y-119900000D01*
X197175000Y-120900000D02*
X196175000Y-120900000D01*
X181240000Y-118900000D02*
X180165000Y-117825000D01*
X181925000Y-118900000D02*
X181240000Y-118900000D01*
D40*
X164225000Y-119450000D02*
X164625000Y-119050000D01*
X163425000Y-119450000D02*
X164225000Y-119450000D01*
X166075000Y-119050000D02*
X166175000Y-119150000D01*
X164625000Y-119050000D02*
X166075000Y-119050000D01*
X162775000Y-119050000D02*
X162175000Y-119650000D01*
X164625000Y-119050000D02*
X162775000Y-119050000D01*
X165875000Y-119450000D02*
X166175000Y-119150000D01*
X163425000Y-119450000D02*
X165875000Y-119450000D01*
D43*
X168350000Y-109475000D02*
X168425000Y-109400000D01*
X167175000Y-109475000D02*
X168350000Y-109475000D01*
X170425000Y-110875000D02*
X170425000Y-109650000D01*
X184925000Y-110350000D02*
X184825000Y-110250000D01*
X184925000Y-111575000D02*
X184925000Y-110350000D01*
D42*
X176175000Y-154650000D02*
X176175000Y-155300000D01*
X174645000Y-142650000D02*
X174015000Y-142020000D01*
X175825000Y-142650000D02*
X174645000Y-142650000D01*
%TO.N,Net-(C1-Pad1)*%
X184750000Y-148025000D02*
X185375000Y-148650000D01*
X184750000Y-146575000D02*
X184750000Y-148025000D01*
%TO.N,Net-(C2-Pad1)*%
X188232110Y-137650000D02*
X187175000Y-137650000D01*
X189225000Y-136657110D02*
X188232110Y-137650000D01*
X189225000Y-135750000D02*
X189225000Y-136657110D01*
D41*
%TO.N,+3V3*%
X163925000Y-136250000D02*
X163925000Y-137450000D01*
X163025000Y-136250000D02*
X163025000Y-137550000D01*
X163025000Y-135350000D02*
X163025000Y-136250000D01*
X163925000Y-135350000D02*
X163925000Y-136250000D01*
D40*
X163025000Y-137550000D02*
X163425000Y-137950000D01*
X163025000Y-135350000D02*
X163025000Y-137550000D01*
X163925000Y-137450000D02*
X163425000Y-137950000D01*
X163925000Y-135350000D02*
X163925000Y-137450000D01*
X163025000Y-135350000D02*
X163925000Y-135350000D01*
D42*
X178750000Y-148065000D02*
X178525000Y-148290000D01*
X178750000Y-146575000D02*
X178750000Y-148065000D01*
X185725000Y-147050000D02*
X185825000Y-147050000D01*
X185250000Y-146575000D02*
X185725000Y-147050000D01*
D41*
X185825000Y-147050000D02*
X185425000Y-147050000D01*
X186445000Y-147050000D02*
X185825000Y-147050000D01*
D42*
X174225000Y-137150000D02*
X174051500Y-136976500D01*
X175825000Y-137150000D02*
X174225000Y-137150000D01*
X177750000Y-133575000D02*
X177525000Y-133350000D01*
X177750000Y-135225000D02*
X177750000Y-133575000D01*
X176475000Y-133950000D02*
X177750000Y-135225000D01*
X176425000Y-133950000D02*
X176475000Y-133950000D01*
X188025000Y-136750000D02*
X187625000Y-136350000D01*
X188025000Y-137149990D02*
X188025000Y-136750000D01*
X187625000Y-136350000D02*
X187625000Y-135950000D01*
X188024990Y-137150000D02*
X188025000Y-137149990D01*
X187175000Y-137150000D02*
X188024990Y-137150000D01*
D41*
X165395000Y-146395000D02*
X165331500Y-146458500D01*
X166266500Y-146395000D02*
X165395000Y-146395000D01*
D42*
X174051500Y-136976500D02*
X174025000Y-136950000D01*
X174268500Y-136950000D02*
X175110500Y-136108000D01*
X174025000Y-136950000D02*
X174268500Y-136950000D01*
D40*
X199925000Y-110900000D02*
X199925000Y-111650000D01*
X175725000Y-127700000D02*
X174425000Y-126400000D01*
X175725000Y-127825000D02*
X175725000Y-127700000D01*
X173325000Y-126550000D02*
X173175000Y-126400000D01*
X173325000Y-127825000D02*
X173325000Y-126550000D01*
X174425000Y-126400000D02*
X173175000Y-126400000D01*
D41*
X175475000Y-133950000D02*
X175425000Y-133900000D01*
X176425000Y-133950000D02*
X175475000Y-133950000D01*
X178625000Y-133350000D02*
X178675000Y-133400000D01*
X177525000Y-133350000D02*
X178625000Y-133350000D01*
X177925000Y-133400000D02*
X177750000Y-133575000D01*
X178675000Y-133400000D02*
X177925000Y-133400000D01*
X174625000Y-155950000D02*
X174425000Y-156150000D01*
X176175000Y-155950000D02*
X174625000Y-155950000D01*
D40*
X180100000Y-151425000D02*
X180125000Y-151450000D01*
X180100000Y-149250000D02*
X180100000Y-151425000D01*
D42*
X178750000Y-145475000D02*
X178750000Y-145698942D01*
X178750000Y-146575000D02*
X178750000Y-145475000D01*
D41*
X179140000Y-148290000D02*
X180100000Y-149250000D01*
X178525000Y-148290000D02*
X179140000Y-148290000D01*
D40*
X179925000Y-151250000D02*
X180125000Y-151450000D01*
X178825000Y-151250000D02*
X179925000Y-151250000D01*
D42*
X192305000Y-130550000D02*
X190025000Y-130550000D01*
X192475000Y-130720000D02*
X192305000Y-130550000D01*
X192475000Y-131550000D02*
X192475000Y-130720000D01*
D41*
X191725000Y-155850000D02*
X191675000Y-155900000D01*
X193625000Y-155850000D02*
X191725000Y-155850000D01*
D42*
X185250000Y-145275000D02*
X185250000Y-146575000D01*
X185025000Y-145050000D02*
X185250000Y-145275000D01*
X185125000Y-137150000D02*
X185025000Y-137050000D01*
X187175000Y-137150000D02*
X185125000Y-137150000D01*
X201225000Y-142050000D02*
X201125000Y-142150000D01*
X201225000Y-139850000D02*
X201225000Y-142050000D01*
D43*
X165966000Y-136250000D02*
X166665000Y-135551000D01*
X163925000Y-136250000D02*
X165966000Y-136250000D01*
X163925000Y-135350000D02*
X164375000Y-135800000D01*
X164375000Y-135800000D02*
X165525000Y-135800000D01*
X166464000Y-135350000D02*
X166665000Y-135551000D01*
X163925000Y-135350000D02*
X166464000Y-135350000D01*
D42*
X199925000Y-111980000D02*
X200095000Y-112150000D01*
X199925000Y-110900000D02*
X199925000Y-111980000D01*
X178780000Y-145475000D02*
X179535000Y-144720000D01*
X178750000Y-145475000D02*
X178780000Y-145475000D01*
%TO.N,+3.3VA*%
X175825000Y-143150000D02*
X170825000Y-143150000D01*
X165175000Y-148800000D02*
X165175000Y-149400000D01*
D41*
X169812000Y-144114500D02*
X169812000Y-143855000D01*
X167531500Y-146395000D02*
X169812000Y-144114500D01*
X167236500Y-146395000D02*
X167531500Y-146395000D01*
D42*
X170517000Y-143150000D02*
X169812000Y-143855000D01*
X170825000Y-143150000D02*
X170517000Y-143150000D01*
X167236500Y-146395000D02*
X167180000Y-146395000D01*
X170825000Y-143150000D02*
X165175000Y-148800000D01*
%TO.N,HSE_IN*%
X170725000Y-138330002D02*
X170725000Y-138100000D01*
X171544998Y-139150000D02*
X170725000Y-138330002D01*
X175825000Y-139150000D02*
X171544998Y-139150000D01*
D41*
X171215000Y-137610000D02*
X170725000Y-138100000D01*
X171215000Y-136300000D02*
X171215000Y-137610000D01*
%TO.N,Net-(C12-Pad1)*%
X172135000Y-140590000D02*
X172425000Y-140300000D01*
X173035000Y-140910000D02*
X172425000Y-140300000D01*
X173925000Y-140910000D02*
X173035000Y-140910000D01*
X171808500Y-140916500D02*
X172425000Y-140300000D01*
X171808500Y-142077000D02*
X171808500Y-140916500D01*
D40*
%TO.N,BUCK_VIN*%
X160825010Y-121250010D02*
X159225000Y-119650000D01*
X162893510Y-121250010D02*
X160825010Y-121250010D01*
X163393520Y-120750000D02*
X162893510Y-121250010D01*
X167143520Y-120750000D02*
X163393520Y-120750000D01*
X168525000Y-122131480D02*
X167143520Y-120750000D01*
X168525000Y-123700000D02*
X168525000Y-122131480D01*
X159250000Y-119625000D02*
X159225000Y-119650000D01*
X159250000Y-116850000D02*
X159250000Y-119625000D01*
D43*
X156445000Y-122430000D02*
X157505000Y-121370000D01*
X156445000Y-125240000D02*
X156445000Y-122430000D01*
X156605000Y-125400000D02*
X156445000Y-125240000D01*
X161225000Y-125400000D02*
X156605000Y-125400000D01*
X157505000Y-121370000D02*
X159225000Y-119650000D01*
X156824990Y-122050010D02*
X157505000Y-121370000D01*
X161713520Y-122430000D02*
X163393520Y-120750000D01*
X156445000Y-122430000D02*
X161713520Y-122430000D01*
D40*
%TO.N,+5V*%
X158525000Y-135150000D02*
X159225000Y-134450000D01*
X158525000Y-137350000D02*
X158525000Y-135150000D01*
X158525000Y-140200000D02*
X158475000Y-140250000D01*
X158525000Y-137350000D02*
X158525000Y-140200000D01*
X159125000Y-137950000D02*
X158525000Y-137350000D01*
X161125000Y-137950000D02*
X159125000Y-137950000D01*
X167375000Y-116050000D02*
X167375000Y-115700000D01*
X166575000Y-116850000D02*
X167375000Y-116050000D01*
X158156000Y-140569000D02*
X158475000Y-140250000D01*
X158156000Y-142619500D02*
X158156000Y-140569000D01*
X160025000Y-144488500D02*
X160025000Y-147250000D01*
X158156000Y-142619500D02*
X160025000Y-144488500D01*
X160025000Y-147250000D02*
X160025000Y-147450000D01*
X160025000Y-146450000D02*
X160025000Y-147250000D01*
X167375000Y-114700000D02*
X167375000Y-113450000D01*
D41*
X198095000Y-127150000D02*
X198045000Y-127200000D01*
X199562500Y-127150000D02*
X198095000Y-127150000D01*
D40*
X157635000Y-149840000D02*
X155465000Y-149840000D01*
X160025000Y-147450000D02*
X157635000Y-149840000D01*
D42*
X151474999Y-148569999D02*
X150135000Y-147230000D01*
X154194999Y-148569999D02*
X151474999Y-148569999D01*
X155465000Y-149840000D02*
X154194999Y-148569999D01*
X151335001Y-150970001D02*
X150135000Y-149770000D01*
X154334999Y-150970001D02*
X151335001Y-150970001D01*
X155465000Y-149840000D02*
X154334999Y-150970001D01*
D40*
X167375000Y-114700000D02*
X167375000Y-115700000D01*
%TO.N,Net-(C16-Pad1)*%
X158605000Y-126670000D02*
X158425000Y-126850000D01*
X161225000Y-126670000D02*
X158605000Y-126670000D01*
%TO.N,Net-(C17-Pad2)*%
X168345000Y-126670000D02*
X166175000Y-126670000D01*
X168925000Y-127250000D02*
X168345000Y-126670000D01*
%TO.N,Net-(C17-Pad1)*%
X168925000Y-130200000D02*
X168925000Y-132025000D01*
D42*
%TO.N,LED_STATUS*%
X177750000Y-146575000D02*
X177750000Y-147354900D01*
X177454900Y-147650000D02*
X175750000Y-147650000D01*
X177750000Y-147354900D02*
X177454900Y-147650000D01*
D41*
%TO.N,Net-(D1-Pad1)*%
X174175000Y-147650000D02*
X174175000Y-149400000D01*
D40*
%TO.N,Net-(D2-Pad1)*%
X163330000Y-116795000D02*
X163275000Y-116850000D01*
X163330000Y-113225000D02*
X163330000Y-116795000D01*
X161375000Y-116850000D02*
X163275000Y-116850000D01*
X161375000Y-116850000D02*
X162125000Y-116850000D01*
X163330000Y-115645000D02*
X163330000Y-113225000D01*
X162125000Y-116850000D02*
X163330000Y-115645000D01*
D43*
%TO.N,Net-(D3-Pad2)*%
X184925000Y-114650000D02*
X185025000Y-114750000D01*
X184925000Y-113150000D02*
X184925000Y-114650000D01*
%TO.N,Net-(D4-Pad2)*%
X170425000Y-114150000D02*
X170325000Y-114250000D01*
X170425000Y-112450000D02*
X170425000Y-114150000D01*
D40*
%TO.N,Net-(F1-Pad2)*%
X161375000Y-107250000D02*
X161050000Y-106925000D01*
X166775000Y-107250000D02*
X161375000Y-107250000D01*
D44*
%TO.N,+12V*%
X166775000Y-99000000D02*
X165425000Y-97650000D01*
X166775000Y-104450000D02*
X166775000Y-102700000D01*
D40*
X194325000Y-97650000D02*
X194325000Y-95750000D01*
X194325000Y-95750000D02*
X192925000Y-94350000D01*
X168725000Y-94350000D02*
X165425000Y-97650000D01*
X180025000Y-96750000D02*
X182425000Y-94350000D01*
X180025000Y-97650000D02*
X180025000Y-96750000D01*
X182425000Y-94350000D02*
X170925000Y-94350000D01*
X192925000Y-94350000D02*
X182425000Y-94350000D01*
X169425000Y-94350000D02*
X168725000Y-94350000D01*
X170925000Y-94350000D02*
X169425000Y-94350000D01*
D44*
X166775000Y-102700000D02*
X166775000Y-99000000D01*
D42*
%TO.N,GPIO_04*%
X187175000Y-142650000D02*
X190925000Y-142650000D01*
X190925000Y-142650000D02*
X192925000Y-140650000D01*
X192925000Y-140650000D02*
X195725000Y-140650000D01*
X196045000Y-140970000D02*
X196045000Y-142150000D01*
X195725000Y-140650000D02*
X196045000Y-140970000D01*
%TO.N,GPIO_08*%
X197315000Y-147550000D02*
X197315000Y-146050000D01*
X197264999Y-147600001D02*
X197315000Y-147550000D01*
X190944998Y-143150000D02*
X195394999Y-147600001D01*
X195394999Y-147600001D02*
X197264999Y-147600001D01*
X187175000Y-143150000D02*
X190944998Y-143150000D01*
%TO.N,GPIO_03*%
X187175000Y-142150000D02*
X190425000Y-142150000D01*
X190425000Y-142150000D02*
X192525000Y-140050000D01*
X197315000Y-140650000D02*
X197315000Y-142150000D01*
X196715000Y-140050000D02*
X197315000Y-140650000D01*
X192525000Y-140050000D02*
X196715000Y-140050000D01*
%TO.N,GPIO_07*%
X198585000Y-147550000D02*
X198585000Y-146050000D01*
X197985000Y-148150000D02*
X198585000Y-147550000D01*
X195025000Y-148150000D02*
X197985000Y-148150000D01*
X190525000Y-143650000D02*
X195025000Y-148150000D01*
X187175000Y-143650000D02*
X190525000Y-143650000D01*
%TO.N,GPIO_02*%
X197285000Y-139350000D02*
X198585000Y-140650000D01*
X198585000Y-140650000D02*
X198585000Y-142150000D01*
X192517880Y-139350000D02*
X197285000Y-139350000D01*
X190217880Y-141650000D02*
X192517880Y-139350000D01*
X187175000Y-141650000D02*
X190217880Y-141650000D01*
%TO.N,GPIO_06*%
X187175000Y-144150000D02*
X190025000Y-144150000D01*
X190025000Y-144150000D02*
X194625000Y-148750000D01*
X194625000Y-148750000D02*
X198625000Y-148750000D01*
X199855000Y-147520000D02*
X199855000Y-146050000D01*
X198625000Y-148750000D02*
X199855000Y-147520000D01*
%TO.N,GPIO_01*%
X199825000Y-142120000D02*
X199855000Y-142150000D01*
X199825000Y-139850000D02*
X199825000Y-142120000D01*
X188845000Y-141150000D02*
X189095000Y-140900000D01*
X187175000Y-141150000D02*
X188845000Y-141150000D01*
%TO.N,GPIO_05*%
X187175000Y-144650000D02*
X189525000Y-144650000D01*
X189525000Y-144650000D02*
X194325000Y-149450000D01*
X201125000Y-147550000D02*
X201125000Y-146050000D01*
X199225000Y-149450000D02*
X201125000Y-147550000D01*
X194325000Y-149450000D02*
X199225000Y-149450000D01*
%TO.N,Net-(J1-Pad10)*%
X187405000Y-150450000D02*
X187775000Y-150820000D01*
X184935000Y-150450000D02*
X187405000Y-150450000D01*
%TO.N,Net-(J1-Pad6)*%
X189275000Y-153360000D02*
X187775000Y-153360000D01*
X189325001Y-153309999D02*
X189275000Y-153360000D01*
X189325001Y-148481001D02*
X189325001Y-153309999D01*
X188826500Y-147982500D02*
X189325001Y-148481001D01*
%TO.N,Net-(J1-Pad4)*%
X189275000Y-154630000D02*
X187775000Y-154630000D01*
X189325001Y-154680001D02*
X189275000Y-154630000D01*
X188984992Y-156890010D02*
X189325001Y-156550001D01*
X184039102Y-156890010D02*
X188984992Y-156890010D01*
X189325001Y-156550001D02*
X189325001Y-154680001D01*
X183754990Y-154740010D02*
X183754990Y-156605898D01*
X183754990Y-156605898D02*
X184039102Y-156890010D01*
X184425000Y-154070000D02*
X183754990Y-154740010D01*
%TO.N,Net-(J1-Pad2)*%
X187405000Y-156270000D02*
X187775000Y-155900000D01*
X184425000Y-156270000D02*
X187405000Y-156270000D01*
D40*
%TO.N,Net-(J6-Pad6)*%
X201862500Y-123350000D02*
X202262500Y-122950000D01*
X199562500Y-123350000D02*
X201862500Y-123350000D01*
X202262500Y-122950000D02*
X202262500Y-129350000D01*
X199962500Y-128750000D02*
X199562500Y-128350000D01*
X202262500Y-128750000D02*
X199962500Y-128750000D01*
D45*
%TO.N,USB_CON_D-*%
X192707156Y-127837155D02*
X192707156Y-127326164D01*
X193425000Y-128554999D02*
X192707156Y-127837155D01*
X193425000Y-129350000D02*
X193425000Y-128554999D01*
X198549999Y-126500000D02*
X199562500Y-126500000D01*
X198457155Y-126407156D02*
X198549999Y-126500000D01*
X193626164Y-126407156D02*
X198457155Y-126407156D01*
X192707156Y-127326164D02*
X193626164Y-126407156D01*
%TO.N,USB_CON_D+*%
X192242844Y-127837155D02*
X192242844Y-127133836D01*
X191525000Y-128554999D02*
X192242844Y-127837155D01*
X191525000Y-129350000D02*
X191525000Y-128554999D01*
X198549999Y-125850000D02*
X199562500Y-125850000D01*
X193433836Y-125942844D02*
X198457155Y-125942844D01*
X198457155Y-125942844D02*
X198549999Y-125850000D01*
X192242844Y-127133836D02*
X193433836Y-125942844D01*
D42*
%TO.N,I2C1_SCL*%
X180996011Y-132302389D02*
X180996011Y-133436611D01*
X178343622Y-129650000D02*
X180996011Y-132302389D01*
X180996011Y-133436611D02*
X180750020Y-133682602D01*
X175725000Y-129650000D02*
X178343622Y-129650000D01*
X180750020Y-133682602D02*
X180750020Y-134400000D01*
X180750000Y-137075000D02*
X180675000Y-137150000D01*
X180750000Y-135225000D02*
X180750000Y-137075000D01*
%TO.N,I2C1_SDA*%
X180250010Y-133475492D02*
X180250010Y-134400000D01*
X180496001Y-133229501D02*
X180250010Y-133475492D01*
X178499012Y-130512510D02*
X180496001Y-132509499D01*
X174187510Y-130512510D02*
X178499012Y-130512510D01*
X180496001Y-132509499D02*
X180496001Y-133229501D01*
X173325000Y-129650000D02*
X174187510Y-130512510D01*
X179675000Y-137039998D02*
X179675000Y-137150000D01*
X180250000Y-136464998D02*
X179675000Y-137039998D01*
X180250000Y-135225000D02*
X180250000Y-136464998D01*
%TO.N,ADC1_IN2*%
X172125000Y-144650000D02*
X175825000Y-144650000D01*
X168925000Y-147850000D02*
X172125000Y-144650000D01*
X168925000Y-149350000D02*
X168925000Y-147850000D01*
%TO.N,ADC1_IN1*%
X175825000Y-144150000D02*
X171725000Y-144150000D01*
X167675000Y-148200000D02*
X171725000Y-144150000D01*
X167675000Y-151650000D02*
X167675000Y-149300000D01*
X167675000Y-149300000D02*
X167675000Y-148200000D01*
%TO.N,ADC1_IN0*%
X175825000Y-143650000D02*
X171225000Y-143650000D01*
X171225000Y-143650000D02*
X166425000Y-148450000D01*
X166425000Y-148450000D02*
X166425000Y-149350000D01*
D41*
%TO.N,Net-(Q2-Pad1)*%
X185025000Y-120305500D02*
X186222500Y-121503000D01*
X185025000Y-119650000D02*
X185025000Y-120305500D01*
X186222500Y-121503000D02*
X188826500Y-121503000D01*
X189510000Y-120819500D02*
X189510000Y-117775000D01*
X188826500Y-121503000D02*
X189510000Y-120819500D01*
D40*
%TO.N,Net-(Q3-Pad1)*%
X175085000Y-121223500D02*
X175174000Y-121312500D01*
X175085000Y-117825000D02*
X175085000Y-121223500D01*
X173411500Y-119550000D02*
X175174000Y-121312500D01*
X170325000Y-119550000D02*
X173411500Y-119550000D01*
D42*
%TO.N,BOOT0*%
X179750000Y-132873500D02*
X179746000Y-132869500D01*
X179750000Y-135225000D02*
X179750000Y-132873500D01*
X185675000Y-127900000D02*
X187945002Y-127900000D01*
X199558000Y-116554000D02*
X199558000Y-121017000D01*
X199558000Y-121017000D02*
X198175000Y-122400000D01*
X193445002Y-122400000D02*
X187945002Y-127900000D01*
X198175000Y-122400000D02*
X193445002Y-122400000D01*
%TO.N,Net-(R1-Pad1)*%
X200095000Y-109150000D02*
X199274500Y-109150000D01*
X199274500Y-109150000D02*
X198288000Y-110136500D01*
X198288000Y-114264000D02*
X199558000Y-115534000D01*
X198288000Y-110136500D02*
X198288000Y-114264000D01*
%TO.N,HSE_OUT*%
X174165000Y-139650000D02*
X173925000Y-139890000D01*
X175825000Y-139650000D02*
X174165000Y-139650000D01*
D43*
%TO.N,Net-(R6-Pad1)*%
X168475000Y-125400000D02*
X168525000Y-125350000D01*
X166175000Y-125400000D02*
X168475000Y-125400000D01*
D40*
%TO.N,Net-(R8-Pad1)*%
X170983000Y-128678500D02*
X166601500Y-128678500D01*
D42*
%TO.N,USART1_TX*%
X194185000Y-135770000D02*
X194305000Y-135650000D01*
X190822120Y-140150000D02*
X194185000Y-136787120D01*
X190335000Y-140150000D02*
X190822120Y-140150000D01*
X187175000Y-140150000D02*
X190335000Y-140150000D01*
X194185000Y-136787120D02*
X194185000Y-135770000D01*
X190335000Y-140150000D02*
X190617880Y-140150000D01*
%TO.N,Net-(R12-Pad1)*%
X197175000Y-135650000D02*
X197225000Y-135600000D01*
X195375000Y-135600000D02*
X195325000Y-135650000D01*
X197225000Y-135600000D02*
X195375000Y-135600000D01*
%TO.N,USART1_RX*%
X193684990Y-135020010D02*
X194305000Y-134400000D01*
X193684990Y-136580010D02*
X193684990Y-135020010D01*
X190615000Y-139650000D02*
X193684990Y-136580010D01*
X187175000Y-139650000D02*
X190615000Y-139650000D01*
%TO.N,Net-(R13-Pad1)*%
X197175000Y-134400000D02*
X197225000Y-134350000D01*
X195325000Y-134400000D02*
X197175000Y-134400000D01*
%TO.N,SWDIO*%
X185125000Y-138150000D02*
X185025000Y-138250000D01*
X187175000Y-138150000D02*
X185125000Y-138150000D01*
X185095010Y-154579990D02*
X184425000Y-155250000D01*
X184039102Y-152429990D02*
X184810898Y-152429990D01*
X183274999Y-150889999D02*
X183274999Y-151665887D01*
X183274999Y-151665887D02*
X184039102Y-152429990D01*
X183287520Y-150877478D02*
X183274999Y-150889999D01*
X184810898Y-152429990D02*
X185095010Y-152714102D01*
X183287520Y-149987480D02*
X183287520Y-150877478D01*
X185095010Y-152714102D02*
X185095010Y-154579990D01*
X184025000Y-149250000D02*
X183287520Y-149987480D01*
X184225000Y-149250000D02*
X184025000Y-149250000D01*
%TO.N,SWCLCK*%
X185250000Y-135225000D02*
X185250000Y-134105120D01*
X186171499Y-133556001D02*
X186921500Y-132806000D01*
X185799119Y-133556001D02*
X186171499Y-133556001D01*
X185250000Y-134105120D02*
X185799119Y-133556001D01*
X184412500Y-153062500D02*
X184425000Y-153050000D01*
X183365500Y-153062500D02*
X184412500Y-153062500D01*
%TO.N,SWO*%
X188253990Y-146389990D02*
X188826500Y-146962500D01*
X187538932Y-146389990D02*
X188253990Y-146389990D01*
X182250000Y-141101058D02*
X187538932Y-146389990D01*
X182250000Y-135225000D02*
X182250000Y-141101058D01*
%TO.N,NRST*%
X177247500Y-140150000D02*
X177333000Y-140235500D01*
X175825000Y-140150000D02*
X177247500Y-140150000D01*
X183915000Y-151140000D02*
X184025000Y-151250000D01*
X183915000Y-150450000D02*
X183915000Y-151140000D01*
D40*
%TO.N,PWM_B2*%
X170325000Y-117900000D02*
X170325000Y-115900000D01*
D42*
%TO.N,I2C2_SDA*%
X181269620Y-155950000D02*
X180400000Y-155950000D01*
X182062520Y-155157100D02*
X181269620Y-155950000D01*
X182062520Y-152416446D02*
X182062520Y-155157100D01*
X181950000Y-152303926D02*
X182062520Y-152416446D01*
X181950000Y-151450000D02*
X181950000Y-152303926D01*
X181950000Y-151450000D02*
X182787510Y-150612490D01*
X182787510Y-149607110D02*
X184250008Y-148144612D01*
X182787510Y-150612490D02*
X182787510Y-149607110D01*
X184250000Y-148144604D02*
X184250008Y-148144612D01*
X184250000Y-146575000D02*
X184250000Y-148144604D01*
%TO.N,I2C2_SCL*%
X183750000Y-147937500D02*
X183750000Y-146575000D01*
X182437500Y-149250000D02*
X183750000Y-147937500D01*
X181925000Y-149250000D02*
X182437500Y-149250000D01*
X181087490Y-152148536D02*
X181087490Y-150087510D01*
X181562510Y-152623556D02*
X181087490Y-152148536D01*
X181562510Y-154949990D02*
X181562510Y-152623556D01*
X181212500Y-155300000D02*
X181562510Y-154949990D01*
X181087490Y-150087510D02*
X181925000Y-149250000D01*
X180400000Y-155300000D02*
X181212500Y-155300000D01*
%TO.N,TEMP_ALERT*%
X184750000Y-133898000D02*
X185842000Y-132806000D01*
X184750000Y-135225000D02*
X184750000Y-133898000D01*
X178603000Y-153651914D02*
X178603000Y-152554500D01*
X179601086Y-154650000D02*
X178603000Y-153651914D01*
X180400000Y-154650000D02*
X179601086Y-154650000D01*
D45*
%TO.N,USB_D+*%
X192242844Y-133062845D02*
X192242844Y-136533836D01*
X191525000Y-132345001D02*
X192242844Y-133062845D01*
X191525000Y-131550000D02*
X191525000Y-132345001D01*
X187192844Y-138667844D02*
X187175000Y-138650000D01*
X190108836Y-138667844D02*
X187192844Y-138667844D01*
X192242844Y-136533836D02*
X190108836Y-138667844D01*
%TO.N,USB_D-*%
X192707156Y-133062845D02*
X192707156Y-136726164D01*
X193425000Y-131550000D02*
X193425000Y-132345001D01*
X193425000Y-132345001D02*
X192707156Y-133062845D01*
X187192844Y-139132156D02*
X187175000Y-139150000D01*
X190301164Y-139132156D02*
X187192844Y-139132156D01*
X192707156Y-136726164D02*
X190301164Y-139132156D01*
D42*
%TO.N,PWM_B2*%
X182750000Y-145296000D02*
X183048000Y-144998000D01*
X182750000Y-146575000D02*
X182750000Y-145296000D01*
X169474990Y-118750010D02*
X170325000Y-117900000D01*
X169474990Y-119952822D02*
X169474990Y-118750010D01*
X182328168Y-132806000D02*
X169474990Y-119952822D01*
X182881000Y-132806000D02*
X182925000Y-132850000D01*
X182328168Y-132806000D02*
X182881000Y-132806000D01*
%TO.N,PWM_A2*%
X182250000Y-145343000D02*
X181905000Y-144998000D01*
X182250000Y-146575000D02*
X182250000Y-145343000D01*
X184191000Y-117234000D02*
X185025000Y-116400000D01*
X184262000Y-121503000D02*
X184191000Y-121574000D01*
X184191000Y-121574000D02*
X184191000Y-117234000D01*
X184572500Y-121503000D02*
X184262000Y-121503000D01*
X184191000Y-130202500D02*
X184191000Y-121574000D01*
%TD*%
D46*
%TO.N,+5V*%
X161391008Y-133482542D02*
X161466580Y-133520669D01*
X161526734Y-133580222D01*
X161565617Y-133655407D01*
X161581099Y-133748869D01*
X161634945Y-140847652D01*
X161621090Y-140940683D01*
X161583881Y-141016034D01*
X161525405Y-141076396D01*
X161451271Y-141115978D01*
X161358733Y-141132776D01*
X158041742Y-141212897D01*
X157946141Y-141199878D01*
X157868693Y-141162051D01*
X157807011Y-141101842D01*
X157767322Y-141025323D01*
X157752000Y-140930072D01*
X157752000Y-133758999D01*
X157766821Y-133665273D01*
X157805258Y-133589699D01*
X157865139Y-133529671D01*
X157940622Y-133491047D01*
X158034307Y-133475998D01*
X161297399Y-133467999D01*
X161391008Y-133482542D01*
%TA.AperFunction,Conductor*%
D47*
G36*
X161391008Y-133482542D02*
G01*
X161466580Y-133520669D01*
X161526734Y-133580222D01*
X161565617Y-133655407D01*
X161581099Y-133748869D01*
X161634945Y-140847652D01*
X161621090Y-140940683D01*
X161583881Y-141016034D01*
X161525405Y-141076396D01*
X161451271Y-141115978D01*
X161358733Y-141132776D01*
X158041742Y-141212897D01*
X157946141Y-141199878D01*
X157868693Y-141162051D01*
X157807011Y-141101842D01*
X157767322Y-141025323D01*
X157752000Y-140930072D01*
X157752000Y-133758999D01*
X157766821Y-133665273D01*
X157805258Y-133589699D01*
X157865139Y-133529671D01*
X157940622Y-133491047D01*
X158034307Y-133475998D01*
X161297399Y-133467999D01*
X161391008Y-133482542D01*
G37*
%TD.AperFunction*%
%TD*%
D46*
%TO.N,Net-(C16-Pad1)*%
X159598000Y-128542963D02*
X159601814Y-128573853D01*
X159625479Y-128668225D01*
X159633872Y-128691664D01*
X159646677Y-128713015D01*
X159654632Y-128722697D01*
X159720027Y-128794735D01*
X159743613Y-128815043D01*
X160452447Y-129287600D01*
X160485895Y-129324446D01*
X160498000Y-129372717D01*
X160498000Y-131137491D01*
X160490144Y-131176984D01*
X160474859Y-131199859D01*
X160451984Y-131215144D01*
X160412491Y-131223000D01*
X157637509Y-131223000D01*
X157598016Y-131215144D01*
X157575141Y-131199859D01*
X157559856Y-131176984D01*
X157552000Y-131137491D01*
X157552000Y-126410000D01*
X159598000Y-126410000D01*
X159598000Y-128542963D01*
%TA.AperFunction,Conductor*%
D47*
G36*
X159598000Y-128542963D02*
G01*
X159601814Y-128573853D01*
X159625479Y-128668225D01*
X159633872Y-128691664D01*
X159646677Y-128713015D01*
X159654632Y-128722697D01*
X159720027Y-128794735D01*
X159743613Y-128815043D01*
X160452447Y-129287600D01*
X160485895Y-129324446D01*
X160498000Y-129372717D01*
X160498000Y-131137491D01*
X160490144Y-131176984D01*
X160474859Y-131199859D01*
X160451984Y-131215144D01*
X160412491Y-131223000D01*
X157637509Y-131223000D01*
X157598016Y-131215144D01*
X157575141Y-131199859D01*
X157559856Y-131176984D01*
X157552000Y-131137491D01*
X157552000Y-126410000D01*
X159598000Y-126410000D01*
X159598000Y-128542963D01*
G37*
%TD.AperFunction*%
%TD*%
D46*
%TO.N,Net-(C16-Pad2)*%
X159759088Y-123487138D02*
X159794805Y-123515554D01*
X160065781Y-123854275D01*
X160085882Y-123874323D01*
X160155418Y-123929645D01*
X160176327Y-123943161D01*
X160206275Y-123954088D01*
X160292913Y-123973827D01*
X160321125Y-123977000D01*
X162012491Y-123977000D01*
X162051984Y-123984856D01*
X162074859Y-124000141D01*
X162090144Y-124023016D01*
X162098000Y-124062509D01*
X162098000Y-124090901D01*
X162024463Y-124180506D01*
X161965498Y-124290820D01*
X161955736Y-124323000D01*
X157737509Y-124323000D01*
X157698016Y-124315144D01*
X157675141Y-124299859D01*
X157659856Y-124276984D01*
X157652000Y-124237491D01*
X157652000Y-123562509D01*
X157659856Y-123523016D01*
X157675141Y-123500141D01*
X157698016Y-123484856D01*
X157737509Y-123477000D01*
X159714590Y-123477000D01*
X159759088Y-123487138D01*
%TA.AperFunction,Conductor*%
D47*
G36*
X159759088Y-123487138D02*
G01*
X159794805Y-123515554D01*
X160065781Y-123854275D01*
X160085882Y-123874323D01*
X160155418Y-123929645D01*
X160176327Y-123943161D01*
X160206275Y-123954088D01*
X160292913Y-123973827D01*
X160321125Y-123977000D01*
X162012491Y-123977000D01*
X162051984Y-123984856D01*
X162074859Y-124000141D01*
X162090144Y-124023016D01*
X162098000Y-124062509D01*
X162098000Y-124090901D01*
X162024463Y-124180506D01*
X161965498Y-124290820D01*
X161955736Y-124323000D01*
X157737509Y-124323000D01*
X157698016Y-124315144D01*
X157675141Y-124299859D01*
X157659856Y-124276984D01*
X157652000Y-124237491D01*
X157652000Y-123562509D01*
X157659856Y-123523016D01*
X157675141Y-123500141D01*
X157698016Y-123484856D01*
X157737509Y-123477000D01*
X159714590Y-123477000D01*
X159759088Y-123487138D01*
G37*
%TD.AperFunction*%
%TD*%
D46*
%TO.N,BUCK_VIN*%
X159551984Y-116384856D02*
X159574859Y-116400141D01*
X159590144Y-116423016D01*
X159598000Y-116462509D01*
X159598000Y-120237491D01*
X159590144Y-120276984D01*
X159574859Y-120299859D01*
X159551984Y-120315144D01*
X159512491Y-120323000D01*
X158737509Y-120323000D01*
X158698016Y-120315144D01*
X158675141Y-120299859D01*
X158659856Y-120276984D01*
X158652000Y-120237491D01*
X158652000Y-116462509D01*
X158659856Y-116423016D01*
X158675141Y-116400141D01*
X158698016Y-116384856D01*
X158737509Y-116377000D01*
X159512491Y-116377000D01*
X159551984Y-116384856D01*
%TA.AperFunction,Conductor*%
D47*
G36*
X159551984Y-116384856D02*
G01*
X159574859Y-116400141D01*
X159590144Y-116423016D01*
X159598000Y-116462509D01*
X159598000Y-120237491D01*
X159590144Y-120276984D01*
X159574859Y-120299859D01*
X159551984Y-120315144D01*
X159512491Y-120323000D01*
X158737509Y-120323000D01*
X158698016Y-120315144D01*
X158675141Y-120299859D01*
X158659856Y-120276984D01*
X158652000Y-120237491D01*
X158652000Y-116462509D01*
X158659856Y-116423016D01*
X158675141Y-116400141D01*
X158698016Y-116384856D01*
X158737509Y-116377000D01*
X159512491Y-116377000D01*
X159551984Y-116384856D01*
G37*
%TD.AperFunction*%
%TD*%
D46*
%TO.N,Net-(D5-Pad2)*%
X167451984Y-110784856D02*
X167474859Y-110800141D01*
X167490144Y-110823016D01*
X167498000Y-110862509D01*
X167498000Y-111345023D01*
X167488703Y-111387763D01*
X167462494Y-111422779D01*
X166110838Y-112594215D01*
X166092340Y-112614087D01*
X166041396Y-112682150D01*
X166028503Y-112703448D01*
X166018972Y-112731258D01*
X166000902Y-112814333D01*
X165998000Y-112841326D01*
X165998000Y-113737491D01*
X165990144Y-113776984D01*
X165974859Y-113799859D01*
X165951984Y-113815144D01*
X165912491Y-113823000D01*
X165537509Y-113823000D01*
X165498016Y-113815144D01*
X165475141Y-113799859D01*
X165459856Y-113776984D01*
X165452000Y-113737491D01*
X165452000Y-110862509D01*
X165459856Y-110823016D01*
X165475141Y-110800141D01*
X165498016Y-110784856D01*
X165537509Y-110777000D01*
X167412491Y-110777000D01*
X167451984Y-110784856D01*
%TA.AperFunction,Conductor*%
D47*
G36*
X167451984Y-110784856D02*
G01*
X167474859Y-110800141D01*
X167490144Y-110823016D01*
X167498000Y-110862509D01*
X167498000Y-111345023D01*
X167488703Y-111387763D01*
X167462494Y-111422779D01*
X166110838Y-112594215D01*
X166092340Y-112614087D01*
X166041396Y-112682150D01*
X166028503Y-112703448D01*
X166018972Y-112731258D01*
X166000902Y-112814333D01*
X165998000Y-112841326D01*
X165998000Y-113737491D01*
X165990144Y-113776984D01*
X165974859Y-113799859D01*
X165951984Y-113815144D01*
X165912491Y-113823000D01*
X165537509Y-113823000D01*
X165498016Y-113815144D01*
X165475141Y-113799859D01*
X165459856Y-113776984D01*
X165452000Y-113737491D01*
X165452000Y-110862509D01*
X165459856Y-110823016D01*
X165475141Y-110800141D01*
X165498016Y-110784856D01*
X165537509Y-110777000D01*
X167412491Y-110777000D01*
X167451984Y-110784856D01*
G37*
%TD.AperFunction*%
%TD*%
D46*
%TO.N,Net-(C14-Pad1)*%
X166998000Y-122209611D02*
X166998000Y-124040008D01*
X166983134Y-124133871D01*
X166944582Y-124209533D01*
X166884533Y-124269582D01*
X166808871Y-124308134D01*
X166715008Y-124323000D01*
X165634992Y-124323000D01*
X165541129Y-124308134D01*
X165465467Y-124269582D01*
X165405418Y-124209533D01*
X165366866Y-124133871D01*
X165352000Y-124040008D01*
X165352000Y-121885000D01*
X166673389Y-121885000D01*
X166998000Y-122209611D01*
%TA.AperFunction,Conductor*%
D47*
G36*
X166998000Y-122209611D02*
G01*
X166998000Y-124040008D01*
X166983134Y-124133871D01*
X166944582Y-124209533D01*
X166884533Y-124269582D01*
X166808871Y-124308134D01*
X166715008Y-124323000D01*
X165634992Y-124323000D01*
X165541129Y-124308134D01*
X165465467Y-124269582D01*
X165405418Y-124209533D01*
X165366866Y-124133871D01*
X165352000Y-124040008D01*
X165352000Y-121885000D01*
X166673389Y-121885000D01*
X166998000Y-122209611D01*
G37*
%TD.AperFunction*%
%TD*%
D46*
%TO.N,+5V*%
X164901190Y-129392276D02*
X164977622Y-129431851D01*
X165037816Y-129493367D01*
X165075719Y-129570641D01*
X165088925Y-129666065D01*
X165006783Y-133444628D01*
X164990237Y-133537121D01*
X164950906Y-133611299D01*
X164890793Y-133669906D01*
X164815640Y-133707344D01*
X164722757Y-133721537D01*
X162558840Y-133713668D01*
X162540700Y-133714903D01*
X162427575Y-133730804D01*
X162392747Y-133740930D01*
X162288731Y-133788159D01*
X162258186Y-133807716D01*
X162171761Y-133882421D01*
X162158892Y-133895265D01*
X161354639Y-134822071D01*
X161289279Y-134878637D01*
X161218983Y-134910709D01*
X161133428Y-134923000D01*
X158651895Y-134923000D01*
X158562374Y-134909514D01*
X158489471Y-134874425D01*
X158430140Y-134819416D01*
X158389648Y-134749367D01*
X158371590Y-134670498D01*
X158377570Y-134589810D01*
X158407056Y-134514463D01*
X158463418Y-134443624D01*
X159563015Y-133420880D01*
X159575616Y-133409735D01*
X162351851Y-131075173D01*
X162418552Y-131156449D01*
X162591378Y-131298284D01*
X162788554Y-131403676D01*
X163002502Y-131468577D01*
X163225000Y-131490491D01*
X163447499Y-131468577D01*
X163661447Y-131403676D01*
X163858623Y-131298284D01*
X164031449Y-131156449D01*
X164173284Y-130983623D01*
X164278676Y-130786447D01*
X164343577Y-130572499D01*
X164343963Y-130568576D01*
X164360000Y-130405752D01*
X164360000Y-129505741D01*
X164365490Y-129449999D01*
X164361073Y-129405148D01*
X164377993Y-129395361D01*
X164481958Y-129377000D01*
X164806076Y-129377000D01*
X164901190Y-129392276D01*
%TA.AperFunction,Conductor*%
D47*
G36*
X164901190Y-129392276D02*
G01*
X164977622Y-129431851D01*
X165037816Y-129493367D01*
X165075719Y-129570641D01*
X165088925Y-129666065D01*
X165006783Y-133444628D01*
X164990237Y-133537121D01*
X164950906Y-133611299D01*
X164890793Y-133669906D01*
X164815640Y-133707344D01*
X164722757Y-133721537D01*
X162558840Y-133713668D01*
X162540700Y-133714903D01*
X162427575Y-133730804D01*
X162392747Y-133740930D01*
X162288731Y-133788159D01*
X162258186Y-133807716D01*
X162171761Y-133882421D01*
X162158892Y-133895265D01*
X161354639Y-134822071D01*
X161289279Y-134878637D01*
X161218983Y-134910709D01*
X161133428Y-134923000D01*
X158651895Y-134923000D01*
X158562374Y-134909514D01*
X158489471Y-134874425D01*
X158430140Y-134819416D01*
X158389648Y-134749367D01*
X158371590Y-134670498D01*
X158377570Y-134589810D01*
X158407056Y-134514463D01*
X158463418Y-134443624D01*
X159563015Y-133420880D01*
X159575616Y-133409735D01*
X162351851Y-131075173D01*
X162418552Y-131156449D01*
X162591378Y-131298284D01*
X162788554Y-131403676D01*
X163002502Y-131468577D01*
X163225000Y-131490491D01*
X163447499Y-131468577D01*
X163661447Y-131403676D01*
X163858623Y-131298284D01*
X164031449Y-131156449D01*
X164173284Y-130983623D01*
X164278676Y-130786447D01*
X164343577Y-130572499D01*
X164343963Y-130568576D01*
X164360000Y-130405752D01*
X164360000Y-129505741D01*
X164365490Y-129449999D01*
X164361073Y-129405148D01*
X164377993Y-129395361D01*
X164481958Y-129377000D01*
X164806076Y-129377000D01*
X164901190Y-129392276D01*
G37*
%TD.AperFunction*%
%TD*%
D46*
%TO.N,Net-(R8-Pad1)*%
X165952501Y-127788577D02*
X166119248Y-127805000D01*
X166834648Y-127805000D01*
X166884533Y-127830418D01*
X166944582Y-127890467D01*
X166983134Y-127966129D01*
X166998000Y-128059992D01*
X166998000Y-129840008D01*
X166983134Y-129933871D01*
X166944582Y-130009533D01*
X166884533Y-130069582D01*
X166808871Y-130108134D01*
X166715008Y-130123000D01*
X166434992Y-130123000D01*
X166341129Y-130108134D01*
X166265467Y-130069582D01*
X166205418Y-130009533D01*
X166166866Y-129933871D01*
X166152000Y-129840008D01*
X166152000Y-129050000D01*
X166150486Y-129030450D01*
X166131529Y-128908770D01*
X166125304Y-128884665D01*
X166119635Y-128871524D01*
X166064562Y-128761377D01*
X166051300Y-128740308D01*
X166041901Y-128729514D01*
X165955931Y-128641341D01*
X165941200Y-128628400D01*
X165469064Y-128274298D01*
X165403774Y-128207335D01*
X165366397Y-128132581D01*
X165352000Y-128040168D01*
X165352000Y-127962509D01*
X165363640Y-127903991D01*
X165375537Y-127889494D01*
X165409427Y-127826091D01*
X165459749Y-127792467D01*
X165537509Y-127777000D01*
X165914337Y-127777000D01*
X165952501Y-127788577D01*
%TA.AperFunction,Conductor*%
D47*
G36*
X165952501Y-127788577D02*
G01*
X166119248Y-127805000D01*
X166834648Y-127805000D01*
X166884533Y-127830418D01*
X166944582Y-127890467D01*
X166983134Y-127966129D01*
X166998000Y-128059992D01*
X166998000Y-129840008D01*
X166983134Y-129933871D01*
X166944582Y-130009533D01*
X166884533Y-130069582D01*
X166808871Y-130108134D01*
X166715008Y-130123000D01*
X166434992Y-130123000D01*
X166341129Y-130108134D01*
X166265467Y-130069582D01*
X166205418Y-130009533D01*
X166166866Y-129933871D01*
X166152000Y-129840008D01*
X166152000Y-129050000D01*
X166150486Y-129030450D01*
X166131529Y-128908770D01*
X166125304Y-128884665D01*
X166119635Y-128871524D01*
X166064562Y-128761377D01*
X166051300Y-128740308D01*
X166041901Y-128729514D01*
X165955931Y-128641341D01*
X165941200Y-128628400D01*
X165469064Y-128274298D01*
X165403774Y-128207335D01*
X165366397Y-128132581D01*
X165352000Y-128040168D01*
X165352000Y-127962509D01*
X165363640Y-127903991D01*
X165375537Y-127889494D01*
X165409427Y-127826091D01*
X165459749Y-127792467D01*
X165537509Y-127777000D01*
X165914337Y-127777000D01*
X165952501Y-127788577D01*
G37*
%TD.AperFunction*%
%TD*%
D46*
%TO.N,GND*%
X183358871Y-118541866D02*
X183434533Y-118580418D01*
X183494582Y-118640467D01*
X183533134Y-118716129D01*
X183548000Y-118809992D01*
X183548000Y-120990008D01*
X183533134Y-121083871D01*
X183494582Y-121159533D01*
X183434533Y-121219582D01*
X183358871Y-121258134D01*
X183265008Y-121273000D01*
X180084992Y-121273000D01*
X179991129Y-121258134D01*
X179915467Y-121219582D01*
X179855418Y-121159533D01*
X179816866Y-121083871D01*
X179802000Y-120990008D01*
X179802000Y-118809992D01*
X179816866Y-118716129D01*
X179855418Y-118640467D01*
X179915467Y-118580418D01*
X179991129Y-118541866D01*
X180084992Y-118527000D01*
X183265008Y-118527000D01*
X183358871Y-118541866D01*
%TA.AperFunction,Conductor*%
D47*
G36*
X183358871Y-118541866D02*
G01*
X183434533Y-118580418D01*
X183494582Y-118640467D01*
X183533134Y-118716129D01*
X183548000Y-118809992D01*
X183548000Y-120990008D01*
X183533134Y-121083871D01*
X183494582Y-121159533D01*
X183434533Y-121219582D01*
X183358871Y-121258134D01*
X183265008Y-121273000D01*
X180084992Y-121273000D01*
X179991129Y-121258134D01*
X179915467Y-121219582D01*
X179855418Y-121159533D01*
X179816866Y-121083871D01*
X179802000Y-120990008D01*
X179802000Y-118809992D01*
X179816866Y-118716129D01*
X179855418Y-118640467D01*
X179915467Y-118580418D01*
X179991129Y-118541866D01*
X180084992Y-118527000D01*
X183265008Y-118527000D01*
X183358871Y-118541866D01*
G37*
%TD.AperFunction*%
%TD*%
D46*
%TO.N,GND*%
X197638908Y-118541866D02*
X197714570Y-118580418D01*
X197774619Y-118640467D01*
X197813171Y-118716129D01*
X197828037Y-118809992D01*
X197828037Y-120990008D01*
X197813171Y-121083871D01*
X197774619Y-121159533D01*
X197714570Y-121219582D01*
X197638908Y-121258134D01*
X197545045Y-121273000D01*
X194365029Y-121273000D01*
X194271166Y-121258134D01*
X194195504Y-121219582D01*
X194135455Y-121159533D01*
X194096903Y-121083871D01*
X194082037Y-120990008D01*
X194082037Y-118809992D01*
X194096903Y-118716129D01*
X194135455Y-118640467D01*
X194195504Y-118580418D01*
X194271166Y-118541866D01*
X194365029Y-118527000D01*
X197545045Y-118527000D01*
X197638908Y-118541866D01*
%TA.AperFunction,Conductor*%
D47*
G36*
X197638908Y-118541866D02*
G01*
X197714570Y-118580418D01*
X197774619Y-118640467D01*
X197813171Y-118716129D01*
X197828037Y-118809992D01*
X197828037Y-120990008D01*
X197813171Y-121083871D01*
X197774619Y-121159533D01*
X197714570Y-121219582D01*
X197638908Y-121258134D01*
X197545045Y-121273000D01*
X194365029Y-121273000D01*
X194271166Y-121258134D01*
X194195504Y-121219582D01*
X194135455Y-121159533D01*
X194096903Y-121083871D01*
X194082037Y-120990008D01*
X194082037Y-118809992D01*
X194096903Y-118716129D01*
X194135455Y-118640467D01*
X194195504Y-118580418D01*
X194271166Y-118541866D01*
X194365029Y-118527000D01*
X197545045Y-118527000D01*
X197638908Y-118541866D01*
G37*
%TD.AperFunction*%
%TD*%
D46*
%TO.N,Net-(Heater2-Pad2)*%
X177108871Y-96041866D02*
X177184533Y-96080418D01*
X177244582Y-96140467D01*
X177283134Y-96216129D01*
X177298000Y-96309992D01*
X177298000Y-100657526D01*
X177300090Y-100680469D01*
X177326199Y-100822615D01*
X177333075Y-100846543D01*
X177342505Y-100865506D01*
X177417423Y-100989095D01*
X177432353Y-101009018D01*
X177447907Y-101023392D01*
X177561854Y-101112291D01*
X177581228Y-101124756D01*
X182891025Y-103895086D01*
X182977461Y-103962521D01*
X183028195Y-104046215D01*
X183048000Y-104154038D01*
X183048000Y-109490008D01*
X183033134Y-109583871D01*
X182994582Y-109659533D01*
X182934533Y-109719582D01*
X182858871Y-109758134D01*
X182765008Y-109773000D01*
X172584992Y-109773000D01*
X172491129Y-109758134D01*
X172415467Y-109719582D01*
X172355418Y-109659533D01*
X172316866Y-109583871D01*
X172302000Y-109490008D01*
X172302000Y-96309992D01*
X172316866Y-96216129D01*
X172355418Y-96140467D01*
X172415467Y-96080418D01*
X172491129Y-96041866D01*
X172584992Y-96027000D01*
X177015008Y-96027000D01*
X177108871Y-96041866D01*
%TA.AperFunction,Conductor*%
D47*
G36*
X177108871Y-96041866D02*
G01*
X177184533Y-96080418D01*
X177244582Y-96140467D01*
X177283134Y-96216129D01*
X177298000Y-96309992D01*
X177298000Y-100657526D01*
X177300090Y-100680469D01*
X177326199Y-100822615D01*
X177333075Y-100846543D01*
X177342505Y-100865506D01*
X177417423Y-100989095D01*
X177432353Y-101009018D01*
X177447907Y-101023392D01*
X177561854Y-101112291D01*
X177581228Y-101124756D01*
X182891025Y-103895086D01*
X182977461Y-103962521D01*
X183028195Y-104046215D01*
X183048000Y-104154038D01*
X183048000Y-109490008D01*
X183033134Y-109583871D01*
X182994582Y-109659533D01*
X182934533Y-109719582D01*
X182858871Y-109758134D01*
X182765008Y-109773000D01*
X172584992Y-109773000D01*
X172491129Y-109758134D01*
X172415467Y-109719582D01*
X172355418Y-109659533D01*
X172316866Y-109583871D01*
X172302000Y-109490008D01*
X172302000Y-96309992D01*
X172316866Y-96216129D01*
X172355418Y-96140467D01*
X172415467Y-96080418D01*
X172491129Y-96041866D01*
X172584992Y-96027000D01*
X177015008Y-96027000D01*
X177108871Y-96041866D01*
G37*
%TD.AperFunction*%
%TD*%
D46*
%TO.N,Net-(Heater1-Pad2)*%
X191608871Y-96041866D02*
X191684533Y-96080418D01*
X191744582Y-96140467D01*
X191783134Y-96216129D01*
X191798000Y-96309992D01*
X191798000Y-100657526D01*
X191800090Y-100680469D01*
X191826199Y-100822615D01*
X191833075Y-100846543D01*
X191842505Y-100865506D01*
X191917423Y-100989095D01*
X191932353Y-101009018D01*
X191947907Y-101023392D01*
X192061854Y-101112291D01*
X192081228Y-101124756D01*
X197391025Y-103895086D01*
X197477461Y-103962521D01*
X197528195Y-104046215D01*
X197548000Y-104154038D01*
X197548000Y-107112120D01*
X197471585Y-107255083D01*
X197412860Y-107448673D01*
X197393031Y-107650000D01*
X197412860Y-107851327D01*
X197471585Y-108044917D01*
X197548000Y-108187880D01*
X197548000Y-109490008D01*
X197533134Y-109583871D01*
X197494582Y-109659533D01*
X197434533Y-109719582D01*
X197358871Y-109758134D01*
X197265008Y-109773000D01*
X187084992Y-109773000D01*
X186991129Y-109758134D01*
X186915467Y-109719582D01*
X186855418Y-109659533D01*
X186816866Y-109583871D01*
X186802000Y-109490008D01*
X186802000Y-96309992D01*
X186816866Y-96216129D01*
X186855418Y-96140467D01*
X186915467Y-96080418D01*
X186991129Y-96041866D01*
X187084992Y-96027000D01*
X191515008Y-96027000D01*
X191608871Y-96041866D01*
%TA.AperFunction,Conductor*%
D47*
G36*
X191608871Y-96041866D02*
G01*
X191684533Y-96080418D01*
X191744582Y-96140467D01*
X191783134Y-96216129D01*
X191798000Y-96309992D01*
X191798000Y-100657526D01*
X191800090Y-100680469D01*
X191826199Y-100822615D01*
X191833075Y-100846543D01*
X191842505Y-100865506D01*
X191917423Y-100989095D01*
X191932353Y-101009018D01*
X191947907Y-101023392D01*
X192061854Y-101112291D01*
X192081228Y-101124756D01*
X197391025Y-103895086D01*
X197477461Y-103962521D01*
X197528195Y-104046215D01*
X197548000Y-104154038D01*
X197548000Y-107112120D01*
X197471585Y-107255083D01*
X197412860Y-107448673D01*
X197393031Y-107650000D01*
X197412860Y-107851327D01*
X197471585Y-108044917D01*
X197548000Y-108187880D01*
X197548000Y-109490008D01*
X197533134Y-109583871D01*
X197494582Y-109659533D01*
X197434533Y-109719582D01*
X197358871Y-109758134D01*
X197265008Y-109773000D01*
X187084992Y-109773000D01*
X186991129Y-109758134D01*
X186915467Y-109719582D01*
X186855418Y-109659533D01*
X186816866Y-109583871D01*
X186802000Y-109490008D01*
X186802000Y-96309992D01*
X186816866Y-96216129D01*
X186855418Y-96140467D01*
X186915467Y-96080418D01*
X186991129Y-96041866D01*
X187084992Y-96027000D01*
X191515008Y-96027000D01*
X191608871Y-96041866D01*
G37*
%TD.AperFunction*%
%TD*%
D46*
%TO.N,GND*%
X177108871Y-151041866D02*
X177184533Y-151080418D01*
X177244582Y-151140467D01*
X177283134Y-151216129D01*
X177298000Y-151309992D01*
X177298000Y-152525000D01*
X177299564Y-152544867D01*
X177317918Y-152660748D01*
X177324204Y-152684838D01*
X177330196Y-152698538D01*
X177383461Y-152803076D01*
X177396884Y-152824044D01*
X177406816Y-152835222D01*
X177489778Y-152918184D01*
X177509024Y-152933978D01*
X177521924Y-152941539D01*
X177626462Y-152994804D01*
X177649646Y-153003878D01*
X177664252Y-153007082D01*
X177876144Y-153040643D01*
X177944838Y-153075644D01*
X177999356Y-153130162D01*
X178034357Y-153198856D01*
X178048000Y-153284992D01*
X178048000Y-154990008D01*
X178033134Y-155083871D01*
X177994582Y-155159533D01*
X177934533Y-155219582D01*
X177858871Y-155258134D01*
X177765008Y-155273000D01*
X173584992Y-155273000D01*
X173491129Y-155258134D01*
X173415467Y-155219582D01*
X173355418Y-155159533D01*
X173316866Y-155083871D01*
X173302000Y-154990008D01*
X173302000Y-151309992D01*
X173316866Y-151216129D01*
X173355418Y-151140467D01*
X173415467Y-151080418D01*
X173491129Y-151041866D01*
X173584992Y-151027000D01*
X177015008Y-151027000D01*
X177108871Y-151041866D01*
%TA.AperFunction,Conductor*%
D47*
G36*
X177108871Y-151041866D02*
G01*
X177184533Y-151080418D01*
X177244582Y-151140467D01*
X177283134Y-151216129D01*
X177298000Y-151309992D01*
X177298000Y-152525000D01*
X177299564Y-152544867D01*
X177317918Y-152660748D01*
X177324204Y-152684838D01*
X177330196Y-152698538D01*
X177383461Y-152803076D01*
X177396884Y-152824044D01*
X177406816Y-152835222D01*
X177489778Y-152918184D01*
X177509024Y-152933978D01*
X177521924Y-152941539D01*
X177626462Y-152994804D01*
X177649646Y-153003878D01*
X177664252Y-153007082D01*
X177876144Y-153040643D01*
X177944838Y-153075644D01*
X177999356Y-153130162D01*
X178034357Y-153198856D01*
X178048000Y-153284992D01*
X178048000Y-154990008D01*
X178033134Y-155083871D01*
X177994582Y-155159533D01*
X177934533Y-155219582D01*
X177858871Y-155258134D01*
X177765008Y-155273000D01*
X173584992Y-155273000D01*
X173491129Y-155258134D01*
X173415467Y-155219582D01*
X173355418Y-155159533D01*
X173316866Y-155083871D01*
X173302000Y-154990008D01*
X173302000Y-151309992D01*
X173316866Y-151216129D01*
X173355418Y-151140467D01*
X173415467Y-151080418D01*
X173491129Y-151041866D01*
X173584992Y-151027000D01*
X177015008Y-151027000D01*
X177108871Y-151041866D01*
G37*
%TD.AperFunction*%
%TD*%
D46*
%TO.N,GND*%
X179048000Y-154952606D02*
X179048000Y-156650000D01*
X179050440Y-156674776D01*
X179057667Y-156698601D01*
X179069403Y-156720557D01*
X179085197Y-156739803D01*
X179104443Y-156755597D01*
X179126399Y-156767333D01*
X179150224Y-156774560D01*
X179175000Y-156777000D01*
X180798000Y-156777000D01*
X180798000Y-157773000D01*
X177802000Y-157773000D01*
X177802000Y-153706606D01*
X179048000Y-154952606D01*
%TA.AperFunction,Conductor*%
D47*
G36*
X179048000Y-154952606D02*
G01*
X179048000Y-156650000D01*
X179050440Y-156674776D01*
X179057667Y-156698601D01*
X179069403Y-156720557D01*
X179085197Y-156739803D01*
X179104443Y-156755597D01*
X179126399Y-156767333D01*
X179150224Y-156774560D01*
X179175000Y-156777000D01*
X180798000Y-156777000D01*
X180798000Y-157773000D01*
X177802000Y-157773000D01*
X177802000Y-153706606D01*
X179048000Y-154952606D01*
G37*
%TD.AperFunction*%
%TD*%
D46*
%TO.N,GND*%
X181085511Y-152821137D02*
X181085510Y-154068605D01*
X181084533Y-154069582D01*
X181008871Y-154108134D01*
X180924997Y-154121418D01*
X179825003Y-154121418D01*
X179741129Y-154108134D01*
X179726186Y-154100520D01*
X179574480Y-153948814D01*
X179566866Y-153933871D01*
X179552000Y-153840008D01*
X179552000Y-152859992D01*
X179566866Y-152766129D01*
X179605418Y-152690467D01*
X179665467Y-152630418D01*
X179741129Y-152591866D01*
X179834992Y-152577000D01*
X180841375Y-152577000D01*
X181085511Y-152821137D01*
%TA.AperFunction,Conductor*%
D47*
G36*
X181085511Y-152821137D02*
G01*
X181085510Y-154068605D01*
X181084533Y-154069582D01*
X181008871Y-154108134D01*
X180924997Y-154121418D01*
X179825003Y-154121418D01*
X179741129Y-154108134D01*
X179726186Y-154100520D01*
X179574480Y-153948814D01*
X179566866Y-153933871D01*
X179552000Y-153840008D01*
X179552000Y-152859992D01*
X179566866Y-152766129D01*
X179605418Y-152690467D01*
X179665467Y-152630418D01*
X179741129Y-152591866D01*
X179834992Y-152577000D01*
X180841375Y-152577000D01*
X181085511Y-152821137D01*
G37*
%TD.AperFunction*%
%TD*%
D46*
%TO.N,BUCK_VIN*%
X159254541Y-119670538D02*
X159288493Y-119693099D01*
X160577954Y-120982560D01*
X160596774Y-120998068D01*
X160660167Y-121040797D01*
X160682076Y-121052622D01*
X160704864Y-121059736D01*
X160779658Y-121075559D01*
X160803890Y-121078292D01*
X161450810Y-121088754D01*
X161510149Y-121120472D01*
X161676745Y-121171008D01*
X161849999Y-121188072D01*
X162500001Y-121188072D01*
X162673255Y-121171008D01*
X162839851Y-121120472D01*
X162856654Y-121111491D01*
X164220953Y-121133555D01*
X164271089Y-121147658D01*
X164295743Y-121172555D01*
X164309353Y-121222824D01*
X164316636Y-122366148D01*
X164308933Y-122405929D01*
X164293613Y-122428981D01*
X164270600Y-122444355D01*
X164230840Y-122452154D01*
X157047918Y-122423838D01*
X156997561Y-122410318D01*
X156972602Y-122385675D01*
X156958442Y-122335493D01*
X156953562Y-122042724D01*
X156960689Y-122003283D01*
X156982307Y-121969524D01*
X159166479Y-119694345D01*
X159199964Y-119671095D01*
X159227197Y-119665316D01*
X159254541Y-119670538D01*
%TA.AperFunction,Conductor*%
D47*
G36*
X159254541Y-119670538D02*
G01*
X159288493Y-119693099D01*
X160577954Y-120982560D01*
X160596774Y-120998068D01*
X160660167Y-121040797D01*
X160682076Y-121052622D01*
X160704864Y-121059736D01*
X160779658Y-121075559D01*
X160803890Y-121078292D01*
X161450810Y-121088754D01*
X161510149Y-121120472D01*
X161676745Y-121171008D01*
X161849999Y-121188072D01*
X162500001Y-121188072D01*
X162673255Y-121171008D01*
X162839851Y-121120472D01*
X162856654Y-121111491D01*
X164220953Y-121133555D01*
X164271089Y-121147658D01*
X164295743Y-121172555D01*
X164309353Y-121222824D01*
X164316636Y-122366148D01*
X164308933Y-122405929D01*
X164293613Y-122428981D01*
X164270600Y-122444355D01*
X164230840Y-122452154D01*
X157047918Y-122423838D01*
X156997561Y-122410318D01*
X156972602Y-122385675D01*
X156958442Y-122335493D01*
X156953562Y-122042724D01*
X156960689Y-122003283D01*
X156982307Y-121969524D01*
X159166479Y-119694345D01*
X159199964Y-119671095D01*
X159227197Y-119665316D01*
X159254541Y-119670538D01*
G37*
%TD.AperFunction*%
%TD*%
M02*
