%TF.GenerationSoftware,KiCad,Pcbnew,(5.1.7)-1*%
%TF.CreationDate,2020-11-23T19:12:34+01:00*%
%TF.ProjectId,astro_compute_board,61737472-6f5f-4636-9f6d-707574655f62,1*%
%TF.SameCoordinates,Original*%
%TF.FileFunction,Legend,Bot*%
%TF.FilePolarity,Positive*%
%FSLAX46Y46*%
G04 Gerber Fmt 4.6, Leading zero omitted, Abs format (unit mm)*
G04 Created by KiCad (PCBNEW (5.1.7)-1) date 2020-11-23 19:12:34*
%MOMM*%
%LPD*%
G01*
G04 APERTURE LIST*
%ADD10C,0.150000*%
%ADD11C,0.010000*%
G04 APERTURE END LIST*
D10*
X173282142Y-156516666D02*
X172805952Y-156516666D01*
X173377380Y-156802380D02*
X173044047Y-155802380D01*
X172710714Y-156802380D01*
X172425000Y-156754761D02*
X172329761Y-156802380D01*
X172139285Y-156802380D01*
X172044047Y-156754761D01*
X171996428Y-156659523D01*
X171996428Y-156611904D01*
X172044047Y-156516666D01*
X172139285Y-156469047D01*
X172282142Y-156469047D01*
X172377380Y-156421428D01*
X172425000Y-156326190D01*
X172425000Y-156278571D01*
X172377380Y-156183333D01*
X172282142Y-156135714D01*
X172139285Y-156135714D01*
X172044047Y-156183333D01*
X171710714Y-156135714D02*
X171329761Y-156135714D01*
X171567857Y-155802380D02*
X171567857Y-156659523D01*
X171520238Y-156754761D01*
X171425000Y-156802380D01*
X171329761Y-156802380D01*
X170996428Y-156802380D02*
X170996428Y-156135714D01*
X170996428Y-156326190D02*
X170948809Y-156230952D01*
X170901190Y-156183333D01*
X170805952Y-156135714D01*
X170710714Y-156135714D01*
X170234523Y-156802380D02*
X170329761Y-156754761D01*
X170377380Y-156707142D01*
X170425000Y-156611904D01*
X170425000Y-156326190D01*
X170377380Y-156230952D01*
X170329761Y-156183333D01*
X170234523Y-156135714D01*
X170091666Y-156135714D01*
X169996428Y-156183333D01*
X169948809Y-156230952D01*
X169901190Y-156326190D01*
X169901190Y-156611904D01*
X169948809Y-156707142D01*
X169996428Y-156754761D01*
X170091666Y-156802380D01*
X170234523Y-156802380D01*
X168901190Y-156707142D02*
X168948809Y-156754761D01*
X169091666Y-156802380D01*
X169186904Y-156802380D01*
X169329761Y-156754761D01*
X169425000Y-156659523D01*
X169472619Y-156564285D01*
X169520238Y-156373809D01*
X169520238Y-156230952D01*
X169472619Y-156040476D01*
X169425000Y-155945238D01*
X169329761Y-155850000D01*
X169186904Y-155802380D01*
X169091666Y-155802380D01*
X168948809Y-155850000D01*
X168901190Y-155897619D01*
X168329761Y-156802380D02*
X168425000Y-156754761D01*
X168472619Y-156707142D01*
X168520238Y-156611904D01*
X168520238Y-156326190D01*
X168472619Y-156230952D01*
X168425000Y-156183333D01*
X168329761Y-156135714D01*
X168186904Y-156135714D01*
X168091666Y-156183333D01*
X168044047Y-156230952D01*
X167996428Y-156326190D01*
X167996428Y-156611904D01*
X168044047Y-156707142D01*
X168091666Y-156754761D01*
X168186904Y-156802380D01*
X168329761Y-156802380D01*
X167567857Y-156802380D02*
X167567857Y-156135714D01*
X167567857Y-156230952D02*
X167520238Y-156183333D01*
X167425000Y-156135714D01*
X167282142Y-156135714D01*
X167186904Y-156183333D01*
X167139285Y-156278571D01*
X167139285Y-156802380D01*
X167139285Y-156278571D02*
X167091666Y-156183333D01*
X166996428Y-156135714D01*
X166853571Y-156135714D01*
X166758333Y-156183333D01*
X166710714Y-156278571D01*
X166710714Y-156802380D01*
X166234523Y-156135714D02*
X166234523Y-157135714D01*
X166234523Y-156183333D02*
X166139285Y-156135714D01*
X165948809Y-156135714D01*
X165853571Y-156183333D01*
X165805952Y-156230952D01*
X165758333Y-156326190D01*
X165758333Y-156611904D01*
X165805952Y-156707142D01*
X165853571Y-156754761D01*
X165948809Y-156802380D01*
X166139285Y-156802380D01*
X166234523Y-156754761D01*
X164901190Y-156135714D02*
X164901190Y-156802380D01*
X165329761Y-156135714D02*
X165329761Y-156659523D01*
X165282142Y-156754761D01*
X165186904Y-156802380D01*
X165044047Y-156802380D01*
X164948809Y-156754761D01*
X164901190Y-156707142D01*
X164567857Y-156135714D02*
X164186904Y-156135714D01*
X164425000Y-155802380D02*
X164425000Y-156659523D01*
X164377380Y-156754761D01*
X164282142Y-156802380D01*
X164186904Y-156802380D01*
X163472619Y-156754761D02*
X163567857Y-156802380D01*
X163758333Y-156802380D01*
X163853571Y-156754761D01*
X163901190Y-156659523D01*
X163901190Y-156278571D01*
X163853571Y-156183333D01*
X163758333Y-156135714D01*
X163567857Y-156135714D01*
X163472619Y-156183333D01*
X163425000Y-156278571D01*
X163425000Y-156373809D01*
X163901190Y-156469047D01*
X161948809Y-157183333D02*
X161996428Y-157135714D01*
X162091666Y-156992857D01*
X162139285Y-156897619D01*
X162186904Y-156754761D01*
X162234523Y-156516666D01*
X162234523Y-156326190D01*
X162186904Y-156088095D01*
X162139285Y-155945238D01*
X162091666Y-155850000D01*
X161996428Y-155707142D01*
X161948809Y-155659523D01*
X160996428Y-156802380D02*
X161329761Y-156326190D01*
X161567857Y-156802380D02*
X161567857Y-155802380D01*
X161186904Y-155802380D01*
X161091666Y-155850000D01*
X161044047Y-155897619D01*
X160996428Y-155992857D01*
X160996428Y-156135714D01*
X161044047Y-156230952D01*
X161091666Y-156278571D01*
X161186904Y-156326190D01*
X161567857Y-156326190D01*
X160186904Y-156754761D02*
X160282142Y-156802380D01*
X160472619Y-156802380D01*
X160567857Y-156754761D01*
X160615476Y-156659523D01*
X160615476Y-156278571D01*
X160567857Y-156183333D01*
X160472619Y-156135714D01*
X160282142Y-156135714D01*
X160186904Y-156183333D01*
X160139285Y-156278571D01*
X160139285Y-156373809D01*
X160615476Y-156469047D01*
X159805952Y-156135714D02*
X159567857Y-156802380D01*
X159329761Y-156135714D01*
X158948809Y-156707142D02*
X158901190Y-156754761D01*
X158948809Y-156802380D01*
X158996428Y-156754761D01*
X158948809Y-156707142D01*
X158948809Y-156802380D01*
X157520238Y-155802380D02*
X157425000Y-155802380D01*
X157329761Y-155850000D01*
X157282142Y-155897619D01*
X157234523Y-155992857D01*
X157186904Y-156183333D01*
X157186904Y-156421428D01*
X157234523Y-156611904D01*
X157282142Y-156707142D01*
X157329761Y-156754761D01*
X157425000Y-156802380D01*
X157520238Y-156802380D01*
X157615476Y-156754761D01*
X157663095Y-156707142D01*
X157710714Y-156611904D01*
X157758333Y-156421428D01*
X157758333Y-156183333D01*
X157710714Y-155992857D01*
X157663095Y-155897619D01*
X157615476Y-155850000D01*
X157520238Y-155802380D01*
X156234523Y-156802380D02*
X156805952Y-156802380D01*
X156520238Y-156802380D02*
X156520238Y-155802380D01*
X156615476Y-155945238D01*
X156710714Y-156040476D01*
X156805952Y-156088095D01*
X155901190Y-157183333D02*
X155853571Y-157135714D01*
X155758333Y-156992857D01*
X155710714Y-156897619D01*
X155663095Y-156754761D01*
X155615476Y-156516666D01*
X155615476Y-156326190D01*
X155663095Y-156088095D01*
X155710714Y-155945238D01*
X155758333Y-155850000D01*
X155853571Y-155707142D01*
X155901190Y-155659523D01*
D11*
%TO.C,REF\u002A\u002A*%
G36*
X194534560Y-106669909D02*
G01*
X194560499Y-106722412D01*
X194605700Y-106787158D01*
X194654991Y-106834347D01*
X194716885Y-106866665D01*
X194799896Y-106886797D01*
X194912538Y-106897430D01*
X195063324Y-106901247D01*
X195128149Y-106901470D01*
X195270221Y-106900818D01*
X195371757Y-106898112D01*
X195442015Y-106892224D01*
X195490256Y-106882027D01*
X195525738Y-106866394D01*
X195549943Y-106850128D01*
X195652929Y-106746295D01*
X195714874Y-106624021D01*
X195733506Y-106492114D01*
X195706549Y-106359384D01*
X195687486Y-106317333D01*
X195635015Y-106216666D01*
X196457259Y-106216666D01*
X196419267Y-106290135D01*
X196389872Y-106386941D01*
X196382342Y-106505928D01*
X196396245Y-106624745D01*
X196427476Y-106714473D01*
X196486954Y-106788899D01*
X196572066Y-106852490D01*
X196580805Y-106857271D01*
X196621966Y-106877437D01*
X196663454Y-106892165D01*
X196713713Y-106902303D01*
X196781184Y-106908699D01*
X196874309Y-106912201D01*
X197001531Y-106913658D01*
X197144701Y-106913921D01*
X197601471Y-106913921D01*
X197601471Y-106640000D01*
X196759231Y-106640000D01*
X196694763Y-106563383D01*
X196643194Y-106483793D01*
X196633818Y-106408422D01*
X196657947Y-106332633D01*
X196681574Y-106292241D01*
X196715227Y-106262179D01*
X196766087Y-106240797D01*
X196841334Y-106226450D01*
X196948146Y-106217490D01*
X197093704Y-106212270D01*
X197190588Y-106210431D01*
X197589020Y-106204215D01*
X197596547Y-106073480D01*
X197604073Y-105942745D01*
X195131582Y-105942745D01*
X195131582Y-106216666D01*
X195269423Y-106223650D01*
X195365107Y-106247182D01*
X195424641Y-106291135D01*
X195454029Y-106359382D01*
X195459902Y-106428333D01*
X195453154Y-106506386D01*
X195426594Y-106558189D01*
X195391499Y-106590583D01*
X195353752Y-106616084D01*
X195311700Y-106631265D01*
X195252779Y-106638019D01*
X195164428Y-106638241D01*
X195090448Y-106635968D01*
X194979000Y-106630749D01*
X194905833Y-106622979D01*
X194859422Y-106609895D01*
X194828244Y-106588732D01*
X194810223Y-106568760D01*
X194770925Y-106485314D01*
X194764579Y-106386551D01*
X194778116Y-106329841D01*
X194826233Y-106273692D01*
X194919833Y-106236499D01*
X195058254Y-106218472D01*
X195131582Y-106216666D01*
X195131582Y-105942745D01*
X194513628Y-105942745D01*
X194513628Y-106079705D01*
X194516879Y-106161935D01*
X194528426Y-106204360D01*
X194550952Y-106216661D01*
X194551620Y-106216666D01*
X194573681Y-106222374D01*
X194571176Y-106247547D01*
X194546935Y-106297598D01*
X194509851Y-106414219D01*
X194505953Y-106545429D01*
X194534560Y-106669909D01*
G37*
X194534560Y-106669909D02*
X194560499Y-106722412D01*
X194605700Y-106787158D01*
X194654991Y-106834347D01*
X194716885Y-106866665D01*
X194799896Y-106886797D01*
X194912538Y-106897430D01*
X195063324Y-106901247D01*
X195128149Y-106901470D01*
X195270221Y-106900818D01*
X195371757Y-106898112D01*
X195442015Y-106892224D01*
X195490256Y-106882027D01*
X195525738Y-106866394D01*
X195549943Y-106850128D01*
X195652929Y-106746295D01*
X195714874Y-106624021D01*
X195733506Y-106492114D01*
X195706549Y-106359384D01*
X195687486Y-106317333D01*
X195635015Y-106216666D01*
X196457259Y-106216666D01*
X196419267Y-106290135D01*
X196389872Y-106386941D01*
X196382342Y-106505928D01*
X196396245Y-106624745D01*
X196427476Y-106714473D01*
X196486954Y-106788899D01*
X196572066Y-106852490D01*
X196580805Y-106857271D01*
X196621966Y-106877437D01*
X196663454Y-106892165D01*
X196713713Y-106902303D01*
X196781184Y-106908699D01*
X196874309Y-106912201D01*
X197001531Y-106913658D01*
X197144701Y-106913921D01*
X197601471Y-106913921D01*
X197601471Y-106640000D01*
X196759231Y-106640000D01*
X196694763Y-106563383D01*
X196643194Y-106483793D01*
X196633818Y-106408422D01*
X196657947Y-106332633D01*
X196681574Y-106292241D01*
X196715227Y-106262179D01*
X196766087Y-106240797D01*
X196841334Y-106226450D01*
X196948146Y-106217490D01*
X197093704Y-106212270D01*
X197190588Y-106210431D01*
X197589020Y-106204215D01*
X197596547Y-106073480D01*
X197604073Y-105942745D01*
X195131582Y-105942745D01*
X195131582Y-106216666D01*
X195269423Y-106223650D01*
X195365107Y-106247182D01*
X195424641Y-106291135D01*
X195454029Y-106359382D01*
X195459902Y-106428333D01*
X195453154Y-106506386D01*
X195426594Y-106558189D01*
X195391499Y-106590583D01*
X195353752Y-106616084D01*
X195311700Y-106631265D01*
X195252779Y-106638019D01*
X195164428Y-106638241D01*
X195090448Y-106635968D01*
X194979000Y-106630749D01*
X194905833Y-106622979D01*
X194859422Y-106609895D01*
X194828244Y-106588732D01*
X194810223Y-106568760D01*
X194770925Y-106485314D01*
X194764579Y-106386551D01*
X194778116Y-106329841D01*
X194826233Y-106273692D01*
X194919833Y-106236499D01*
X195058254Y-106218472D01*
X195131582Y-106216666D01*
X195131582Y-105942745D01*
X194513628Y-105942745D01*
X194513628Y-106079705D01*
X194516879Y-106161935D01*
X194528426Y-106204360D01*
X194550952Y-106216661D01*
X194551620Y-106216666D01*
X194573681Y-106222374D01*
X194571176Y-106247547D01*
X194546935Y-106297598D01*
X194509851Y-106414219D01*
X194505953Y-106545429D01*
X194534560Y-106669909D01*
G36*
X196390922Y-107708720D02*
G01*
X196422180Y-107825870D01*
X196478837Y-107915051D01*
X196553045Y-107977984D01*
X196584716Y-107997548D01*
X196617891Y-108011992D01*
X196660329Y-108022089D01*
X196719788Y-108028615D01*
X196804029Y-108032342D01*
X196920810Y-108034046D01*
X197077890Y-108034500D01*
X197119565Y-108034509D01*
X197601471Y-108034509D01*
X197601471Y-107914980D01*
X197596131Y-107838739D01*
X197582604Y-107782366D01*
X197574262Y-107768242D01*
X197559864Y-107729630D01*
X197574262Y-107690192D01*
X197592237Y-107625262D01*
X197599472Y-107530945D01*
X197596333Y-107426407D01*
X197583186Y-107330811D01*
X197566318Y-107275000D01*
X197496986Y-107166998D01*
X197400772Y-107099503D01*
X197272844Y-107069159D01*
X197269559Y-107068877D01*
X197212808Y-107071540D01*
X197212808Y-107312353D01*
X197277358Y-107333405D01*
X197313686Y-107367697D01*
X197341162Y-107436532D01*
X197352129Y-107527390D01*
X197346731Y-107620042D01*
X197325110Y-107694256D01*
X197311239Y-107715049D01*
X197247143Y-107751381D01*
X197174278Y-107760588D01*
X197078530Y-107760588D01*
X197078530Y-107622827D01*
X197088605Y-107491953D01*
X197117148Y-107392741D01*
X197161639Y-107331023D01*
X197212808Y-107312353D01*
X197212808Y-107071540D01*
X197129790Y-107075436D01*
X197019282Y-107121534D01*
X196935712Y-107208200D01*
X196928110Y-107220179D01*
X196903357Y-107271655D01*
X196888368Y-107335368D01*
X196881082Y-107424435D01*
X196879407Y-107530245D01*
X196879314Y-107760588D01*
X196782755Y-107760588D01*
X196707836Y-107750817D01*
X196657644Y-107725884D01*
X196654972Y-107722965D01*
X196633015Y-107667481D01*
X196624505Y-107583727D01*
X196628687Y-107491167D01*
X196644809Y-107409270D01*
X196668990Y-107360673D01*
X196688359Y-107334341D01*
X196692057Y-107306535D01*
X196676188Y-107268161D01*
X196636855Y-107210125D01*
X196570164Y-107123331D01*
X196563916Y-107115365D01*
X196540800Y-107119447D01*
X196502352Y-107153501D01*
X196459627Y-107205260D01*
X196423679Y-107262455D01*
X196415191Y-107280425D01*
X196398252Y-107345972D01*
X196386170Y-107442020D01*
X196381323Y-107549329D01*
X196381313Y-107554347D01*
X196390922Y-107708720D01*
G37*
X196390922Y-107708720D02*
X196422180Y-107825870D01*
X196478837Y-107915051D01*
X196553045Y-107977984D01*
X196584716Y-107997548D01*
X196617891Y-108011992D01*
X196660329Y-108022089D01*
X196719788Y-108028615D01*
X196804029Y-108032342D01*
X196920810Y-108034046D01*
X197077890Y-108034500D01*
X197119565Y-108034509D01*
X197601471Y-108034509D01*
X197601471Y-107914980D01*
X197596131Y-107838739D01*
X197582604Y-107782366D01*
X197574262Y-107768242D01*
X197559864Y-107729630D01*
X197574262Y-107690192D01*
X197592237Y-107625262D01*
X197599472Y-107530945D01*
X197596333Y-107426407D01*
X197583186Y-107330811D01*
X197566318Y-107275000D01*
X197496986Y-107166998D01*
X197400772Y-107099503D01*
X197272844Y-107069159D01*
X197269559Y-107068877D01*
X197212808Y-107071540D01*
X197212808Y-107312353D01*
X197277358Y-107333405D01*
X197313686Y-107367697D01*
X197341162Y-107436532D01*
X197352129Y-107527390D01*
X197346731Y-107620042D01*
X197325110Y-107694256D01*
X197311239Y-107715049D01*
X197247143Y-107751381D01*
X197174278Y-107760588D01*
X197078530Y-107760588D01*
X197078530Y-107622827D01*
X197088605Y-107491953D01*
X197117148Y-107392741D01*
X197161639Y-107331023D01*
X197212808Y-107312353D01*
X197212808Y-107071540D01*
X197129790Y-107075436D01*
X197019282Y-107121534D01*
X196935712Y-107208200D01*
X196928110Y-107220179D01*
X196903357Y-107271655D01*
X196888368Y-107335368D01*
X196881082Y-107424435D01*
X196879407Y-107530245D01*
X196879314Y-107760588D01*
X196782755Y-107760588D01*
X196707836Y-107750817D01*
X196657644Y-107725884D01*
X196654972Y-107722965D01*
X196633015Y-107667481D01*
X196624505Y-107583727D01*
X196628687Y-107491167D01*
X196644809Y-107409270D01*
X196668990Y-107360673D01*
X196688359Y-107334341D01*
X196692057Y-107306535D01*
X196676188Y-107268161D01*
X196636855Y-107210125D01*
X196570164Y-107123331D01*
X196563916Y-107115365D01*
X196540800Y-107119447D01*
X196502352Y-107153501D01*
X196459627Y-107205260D01*
X196423679Y-107262455D01*
X196415191Y-107280425D01*
X196398252Y-107345972D01*
X196386170Y-107442020D01*
X196381323Y-107549329D01*
X196381313Y-107554347D01*
X196390922Y-107708720D01*
G36*
X196383921Y-108482764D02*
G01*
X196395091Y-108520030D01*
X196419633Y-108532043D01*
X196430712Y-108532549D01*
X196461572Y-108534704D01*
X196466417Y-108549551D01*
X196445260Y-108589657D01*
X196430806Y-108613480D01*
X196399850Y-108688638D01*
X196384544Y-108778406D01*
X196383367Y-108872529D01*
X196394799Y-108960754D01*
X196417320Y-109032826D01*
X196449409Y-109078492D01*
X196489545Y-109087498D01*
X196500415Y-109082953D01*
X196545534Y-109049821D01*
X196601026Y-108998445D01*
X196609996Y-108989152D01*
X196651245Y-108940182D01*
X196664572Y-108897931D01*
X196655271Y-108838841D01*
X196649090Y-108815169D01*
X196634246Y-108741504D01*
X196640921Y-108689710D01*
X196664465Y-108645969D01*
X196696061Y-108605902D01*
X196735798Y-108576392D01*
X196791252Y-108555884D01*
X196870003Y-108542824D01*
X196979629Y-108535656D01*
X197127706Y-108532824D01*
X197217111Y-108532549D01*
X197601471Y-108532549D01*
X197601471Y-108283529D01*
X196381275Y-108283529D01*
X196381275Y-108408039D01*
X196383921Y-108482764D01*
G37*
X196383921Y-108482764D02*
X196395091Y-108520030D01*
X196419633Y-108532043D01*
X196430712Y-108532549D01*
X196461572Y-108534704D01*
X196466417Y-108549551D01*
X196445260Y-108589657D01*
X196430806Y-108613480D01*
X196399850Y-108688638D01*
X196384544Y-108778406D01*
X196383367Y-108872529D01*
X196394799Y-108960754D01*
X196417320Y-109032826D01*
X196449409Y-109078492D01*
X196489545Y-109087498D01*
X196500415Y-109082953D01*
X196545534Y-109049821D01*
X196601026Y-108998445D01*
X196609996Y-108989152D01*
X196651245Y-108940182D01*
X196664572Y-108897931D01*
X196655271Y-108838841D01*
X196649090Y-108815169D01*
X196634246Y-108741504D01*
X196640921Y-108689710D01*
X196664465Y-108645969D01*
X196696061Y-108605902D01*
X196735798Y-108576392D01*
X196791252Y-108555884D01*
X196870003Y-108542824D01*
X196979629Y-108535656D01*
X197127706Y-108532824D01*
X197217111Y-108532549D01*
X197601471Y-108532549D01*
X197601471Y-108283529D01*
X196381275Y-108283529D01*
X196381275Y-108408039D01*
X196383921Y-108482764D01*
G36*
X197601471Y-110051568D02*
G01*
X197601471Y-109914607D01*
X197599140Y-109835111D01*
X197589488Y-109793708D01*
X197568525Y-109778801D01*
X197554351Y-109777647D01*
X197525927Y-109775133D01*
X197520475Y-109759280D01*
X197537998Y-109717621D01*
X197554351Y-109685224D01*
X197593103Y-109560849D01*
X197595346Y-109425646D01*
X197566444Y-109315726D01*
X197496619Y-109213366D01*
X197393555Y-109135340D01*
X197271989Y-109092614D01*
X197265192Y-109091526D01*
X197191032Y-109085178D01*
X197084570Y-109082021D01*
X197004052Y-109082275D01*
X197004052Y-109354289D01*
X197111070Y-109360590D01*
X197199278Y-109374925D01*
X197249090Y-109394331D01*
X197317162Y-109467746D01*
X197341564Y-109554914D01*
X197321831Y-109644804D01*
X197262968Y-109721617D01*
X197223379Y-109750708D01*
X197176138Y-109767717D01*
X197107181Y-109775684D01*
X197003607Y-109777647D01*
X196901039Y-109774134D01*
X196810921Y-109764857D01*
X196750613Y-109751706D01*
X196745208Y-109749514D01*
X196680940Y-109696478D01*
X196645656Y-109619067D01*
X196639959Y-109532454D01*
X196664453Y-109451807D01*
X196719742Y-109392297D01*
X196730743Y-109386124D01*
X196797827Y-109366801D01*
X196894284Y-109356274D01*
X197004052Y-109354289D01*
X197004052Y-109082275D01*
X196963225Y-109082404D01*
X196897918Y-109084194D01*
X196736355Y-109096373D01*
X196615053Y-109121685D01*
X196525379Y-109163793D01*
X196458699Y-109226359D01*
X196419557Y-109287100D01*
X196392040Y-109371964D01*
X196382603Y-109477515D01*
X196390290Y-109585598D01*
X196414146Y-109678058D01*
X196442685Y-109726910D01*
X196488601Y-109777647D01*
X195908137Y-109777647D01*
X195908137Y-110051568D01*
X197601471Y-110051568D01*
G37*
X197601471Y-110051568D02*
X197601471Y-109914607D01*
X197599140Y-109835111D01*
X197589488Y-109793708D01*
X197568525Y-109778801D01*
X197554351Y-109777647D01*
X197525927Y-109775133D01*
X197520475Y-109759280D01*
X197537998Y-109717621D01*
X197554351Y-109685224D01*
X197593103Y-109560849D01*
X197595346Y-109425646D01*
X197566444Y-109315726D01*
X197496619Y-109213366D01*
X197393555Y-109135340D01*
X197271989Y-109092614D01*
X197265192Y-109091526D01*
X197191032Y-109085178D01*
X197084570Y-109082021D01*
X197004052Y-109082275D01*
X197004052Y-109354289D01*
X197111070Y-109360590D01*
X197199278Y-109374925D01*
X197249090Y-109394331D01*
X197317162Y-109467746D01*
X197341564Y-109554914D01*
X197321831Y-109644804D01*
X197262968Y-109721617D01*
X197223379Y-109750708D01*
X197176138Y-109767717D01*
X197107181Y-109775684D01*
X197003607Y-109777647D01*
X196901039Y-109774134D01*
X196810921Y-109764857D01*
X196750613Y-109751706D01*
X196745208Y-109749514D01*
X196680940Y-109696478D01*
X196645656Y-109619067D01*
X196639959Y-109532454D01*
X196664453Y-109451807D01*
X196719742Y-109392297D01*
X196730743Y-109386124D01*
X196797827Y-109366801D01*
X196894284Y-109356274D01*
X197004052Y-109354289D01*
X197004052Y-109082275D01*
X196963225Y-109082404D01*
X196897918Y-109084194D01*
X196736355Y-109096373D01*
X196615053Y-109121685D01*
X196525379Y-109163793D01*
X196458699Y-109226359D01*
X196419557Y-109287100D01*
X196392040Y-109371964D01*
X196382603Y-109477515D01*
X196390290Y-109585598D01*
X196414146Y-109678058D01*
X196442685Y-109726910D01*
X196488601Y-109777647D01*
X195908137Y-109777647D01*
X195908137Y-110051568D01*
X197601471Y-110051568D01*
G36*
X196386332Y-111007528D02*
G01*
X196393726Y-111106014D01*
X196779706Y-111234776D01*
X197165686Y-111363537D01*
X197028726Y-111403911D01*
X196944083Y-111428207D01*
X196829697Y-111460167D01*
X196703963Y-111494679D01*
X196636520Y-111512928D01*
X196381275Y-111581571D01*
X196381275Y-111864773D01*
X196648971Y-111780122D01*
X196780638Y-111738435D01*
X196939458Y-111688074D01*
X197105128Y-111635481D01*
X197252843Y-111588530D01*
X197589020Y-111481589D01*
X197604044Y-111250661D01*
X197397316Y-111188050D01*
X197268896Y-111149438D01*
X197127322Y-111107300D01*
X197002285Y-111070472D01*
X196997309Y-111069018D01*
X196912586Y-111041511D01*
X196854778Y-111017242D01*
X196832918Y-111000243D01*
X196835446Y-110996750D01*
X196869336Y-110984490D01*
X196941930Y-110961195D01*
X197044101Y-110929700D01*
X197166720Y-110892842D01*
X197234167Y-110872899D01*
X197601471Y-110764895D01*
X197601471Y-110535679D01*
X197022500Y-110352439D01*
X196860091Y-110300963D01*
X196712602Y-110254070D01*
X196586960Y-110213977D01*
X196490095Y-110182897D01*
X196428934Y-110163045D01*
X196411065Y-110157011D01*
X196392768Y-110161788D01*
X196384755Y-110199297D01*
X196385557Y-110277355D01*
X196386163Y-110289574D01*
X196393726Y-110434326D01*
X196742353Y-110529130D01*
X196869497Y-110563977D01*
X196981265Y-110595117D01*
X197067953Y-110619809D01*
X197119856Y-110635312D01*
X197128318Y-110638176D01*
X197118587Y-110650046D01*
X197068172Y-110673983D01*
X196983935Y-110707239D01*
X196872741Y-110747064D01*
X196772297Y-110780730D01*
X196378939Y-110909041D01*
X196386332Y-111007528D01*
G37*
X196386332Y-111007528D02*
X196393726Y-111106014D01*
X196779706Y-111234776D01*
X197165686Y-111363537D01*
X197028726Y-111403911D01*
X196944083Y-111428207D01*
X196829697Y-111460167D01*
X196703963Y-111494679D01*
X196636520Y-111512928D01*
X196381275Y-111581571D01*
X196381275Y-111864773D01*
X196648971Y-111780122D01*
X196780638Y-111738435D01*
X196939458Y-111688074D01*
X197105128Y-111635481D01*
X197252843Y-111588530D01*
X197589020Y-111481589D01*
X197604044Y-111250661D01*
X197397316Y-111188050D01*
X197268896Y-111149438D01*
X197127322Y-111107300D01*
X197002285Y-111070472D01*
X196997309Y-111069018D01*
X196912586Y-111041511D01*
X196854778Y-111017242D01*
X196832918Y-111000243D01*
X196835446Y-110996750D01*
X196869336Y-110984490D01*
X196941930Y-110961195D01*
X197044101Y-110929700D01*
X197166720Y-110892842D01*
X197234167Y-110872899D01*
X197601471Y-110764895D01*
X197601471Y-110535679D01*
X197022500Y-110352439D01*
X196860091Y-110300963D01*
X196712602Y-110254070D01*
X196586960Y-110213977D01*
X196490095Y-110182897D01*
X196428934Y-110163045D01*
X196411065Y-110157011D01*
X196392768Y-110161788D01*
X196384755Y-110199297D01*
X196385557Y-110277355D01*
X196386163Y-110289574D01*
X196393726Y-110434326D01*
X196742353Y-110529130D01*
X196869497Y-110563977D01*
X196981265Y-110595117D01*
X197067953Y-110619809D01*
X197119856Y-110635312D01*
X197128318Y-110638176D01*
X197118587Y-110650046D01*
X197068172Y-110673983D01*
X196983935Y-110707239D01*
X196872741Y-110747064D01*
X196772297Y-110780730D01*
X196378939Y-110909041D01*
X196386332Y-111007528D01*
G36*
X196388669Y-112506459D02*
G01*
X196414163Y-112611420D01*
X196427669Y-112641761D01*
X196463046Y-112700573D01*
X196502890Y-112745709D01*
X196554120Y-112779106D01*
X196623654Y-112802701D01*
X196718409Y-112818433D01*
X196845305Y-112828239D01*
X197011258Y-112834057D01*
X197122108Y-112836266D01*
X197601471Y-112844396D01*
X197601471Y-112705531D01*
X197597938Y-112621287D01*
X197585866Y-112577884D01*
X197565594Y-112566666D01*
X197543674Y-112560744D01*
X197547865Y-112534266D01*
X197565441Y-112498186D01*
X197592382Y-112407862D01*
X197599642Y-112291777D01*
X197587767Y-112169680D01*
X197557305Y-112061321D01*
X197553077Y-112051602D01*
X197483505Y-111952568D01*
X197386789Y-111887281D01*
X197273738Y-111857240D01*
X197233122Y-111859535D01*
X197233122Y-112104633D01*
X197287782Y-112126229D01*
X197326952Y-112190259D01*
X197347974Y-112293565D01*
X197350766Y-112348774D01*
X197343620Y-112440782D01*
X197315848Y-112501941D01*
X197302647Y-112516862D01*
X197230829Y-112557287D01*
X197165686Y-112566666D01*
X197078530Y-112566666D01*
X197078530Y-112445269D01*
X197085722Y-112304153D01*
X197108345Y-112205173D01*
X197147964Y-112142633D01*
X197165628Y-112128631D01*
X197233122Y-112104633D01*
X197233122Y-111859535D01*
X197155157Y-111863941D01*
X197041855Y-111908880D01*
X196965285Y-111970196D01*
X196932181Y-112007332D01*
X196910425Y-112043687D01*
X196897161Y-112090990D01*
X196889528Y-112160973D01*
X196884670Y-112265364D01*
X196883273Y-112306770D01*
X196874780Y-112566666D01*
X196796116Y-112566285D01*
X196713428Y-112556219D01*
X196663431Y-112519829D01*
X196631489Y-112446311D01*
X196630920Y-112444339D01*
X196618361Y-112340105D01*
X196634766Y-112238108D01*
X196674657Y-112162305D01*
X196694354Y-112131890D01*
X196691629Y-112099132D01*
X196663091Y-112048721D01*
X196642950Y-112019119D01*
X196599919Y-111961218D01*
X196567662Y-111925352D01*
X196558427Y-111919597D01*
X196510636Y-111943295D01*
X196453562Y-112013313D01*
X196434305Y-112043725D01*
X196401140Y-112131155D01*
X196382350Y-112248983D01*
X196378129Y-112379866D01*
X196388669Y-112506459D01*
G37*
X196388669Y-112506459D02*
X196414163Y-112611420D01*
X196427669Y-112641761D01*
X196463046Y-112700573D01*
X196502890Y-112745709D01*
X196554120Y-112779106D01*
X196623654Y-112802701D01*
X196718409Y-112818433D01*
X196845305Y-112828239D01*
X197011258Y-112834057D01*
X197122108Y-112836266D01*
X197601471Y-112844396D01*
X197601471Y-112705531D01*
X197597938Y-112621287D01*
X197585866Y-112577884D01*
X197565594Y-112566666D01*
X197543674Y-112560744D01*
X197547865Y-112534266D01*
X197565441Y-112498186D01*
X197592382Y-112407862D01*
X197599642Y-112291777D01*
X197587767Y-112169680D01*
X197557305Y-112061321D01*
X197553077Y-112051602D01*
X197483505Y-111952568D01*
X197386789Y-111887281D01*
X197273738Y-111857240D01*
X197233122Y-111859535D01*
X197233122Y-112104633D01*
X197287782Y-112126229D01*
X197326952Y-112190259D01*
X197347974Y-112293565D01*
X197350766Y-112348774D01*
X197343620Y-112440782D01*
X197315848Y-112501941D01*
X197302647Y-112516862D01*
X197230829Y-112557287D01*
X197165686Y-112566666D01*
X197078530Y-112566666D01*
X197078530Y-112445269D01*
X197085722Y-112304153D01*
X197108345Y-112205173D01*
X197147964Y-112142633D01*
X197165628Y-112128631D01*
X197233122Y-112104633D01*
X197233122Y-111859535D01*
X197155157Y-111863941D01*
X197041855Y-111908880D01*
X196965285Y-111970196D01*
X196932181Y-112007332D01*
X196910425Y-112043687D01*
X196897161Y-112090990D01*
X196889528Y-112160973D01*
X196884670Y-112265364D01*
X196883273Y-112306770D01*
X196874780Y-112566666D01*
X196796116Y-112566285D01*
X196713428Y-112556219D01*
X196663431Y-112519829D01*
X196631489Y-112446311D01*
X196630920Y-112444339D01*
X196618361Y-112340105D01*
X196634766Y-112238108D01*
X196674657Y-112162305D01*
X196694354Y-112131890D01*
X196691629Y-112099132D01*
X196663091Y-112048721D01*
X196642950Y-112019119D01*
X196599919Y-111961218D01*
X196567662Y-111925352D01*
X196558427Y-111919597D01*
X196510636Y-111943295D01*
X196453562Y-112013313D01*
X196434305Y-112043725D01*
X196401140Y-112131155D01*
X196382350Y-112248983D01*
X196378129Y-112379866D01*
X196388669Y-112506459D01*
G36*
X196380883Y-113688446D02*
G01*
X196399755Y-113784177D01*
X196427699Y-113838677D01*
X196474123Y-113896008D01*
X196577111Y-113814441D01*
X196639479Y-113764150D01*
X196669907Y-113730001D01*
X196674555Y-113696063D01*
X196659586Y-113646406D01*
X196651117Y-113623096D01*
X196638622Y-113528063D01*
X196665406Y-113441032D01*
X196725915Y-113377138D01*
X196745208Y-113366759D01*
X196796314Y-113355456D01*
X196890500Y-113346732D01*
X197021089Y-113340997D01*
X197181405Y-113338660D01*
X197204211Y-113338627D01*
X197601471Y-113338627D01*
X197601471Y-113064705D01*
X196381275Y-113064705D01*
X196381275Y-113201666D01*
X196383337Y-113280638D01*
X196392513Y-113321779D01*
X196413290Y-113336992D01*
X196432886Y-113338627D01*
X196484497Y-113338627D01*
X196432886Y-113404240D01*
X196397675Y-113479475D01*
X196380265Y-113580544D01*
X196380883Y-113688446D01*
G37*
X196380883Y-113688446D02*
X196399755Y-113784177D01*
X196427699Y-113838677D01*
X196474123Y-113896008D01*
X196577111Y-113814441D01*
X196639479Y-113764150D01*
X196669907Y-113730001D01*
X196674555Y-113696063D01*
X196659586Y-113646406D01*
X196651117Y-113623096D01*
X196638622Y-113528063D01*
X196665406Y-113441032D01*
X196725915Y-113377138D01*
X196745208Y-113366759D01*
X196796314Y-113355456D01*
X196890500Y-113346732D01*
X197021089Y-113340997D01*
X197181405Y-113338660D01*
X197204211Y-113338627D01*
X197601471Y-113338627D01*
X197601471Y-113064705D01*
X196381275Y-113064705D01*
X196381275Y-113201666D01*
X196383337Y-113280638D01*
X196392513Y-113321779D01*
X196413290Y-113336992D01*
X196432886Y-113338627D01*
X196484497Y-113338627D01*
X196432886Y-113404240D01*
X196397675Y-113479475D01*
X196380265Y-113580544D01*
X196380883Y-113688446D01*
G36*
X196387784Y-114475307D02*
G01*
X196418731Y-114594337D01*
X196482600Y-114694021D01*
X196530313Y-114742288D01*
X196643106Y-114821408D01*
X196773950Y-114866752D01*
X196934792Y-114882330D01*
X196947794Y-114882410D01*
X197078530Y-114882549D01*
X197078530Y-114130091D01*
X197147010Y-114146130D01*
X197209031Y-114175091D01*
X197273654Y-114225778D01*
X197283971Y-114236379D01*
X197339805Y-114327494D01*
X197349275Y-114431400D01*
X197312540Y-114551000D01*
X197302647Y-114571274D01*
X197272574Y-114633456D01*
X197255440Y-114675106D01*
X197253855Y-114682373D01*
X197269242Y-114707740D01*
X197306887Y-114756120D01*
X197327459Y-114780679D01*
X197374714Y-114831570D01*
X197405917Y-114848281D01*
X197434620Y-114836683D01*
X197442468Y-114830483D01*
X197476819Y-114788493D01*
X197518565Y-114719206D01*
X197542935Y-114670882D01*
X197585873Y-114533711D01*
X197599786Y-114381847D01*
X197583300Y-114238024D01*
X197571496Y-114197745D01*
X197504689Y-114073078D01*
X197401892Y-113980671D01*
X197262105Y-113919990D01*
X197084330Y-113890498D01*
X196991373Y-113887260D01*
X196856033Y-113896714D01*
X196856033Y-114135490D01*
X196866038Y-114158584D01*
X196873888Y-114220662D01*
X196878521Y-114310914D01*
X196879314Y-114372058D01*
X196878549Y-114482040D01*
X196874970Y-114551457D01*
X196866649Y-114589538D01*
X196851657Y-114605515D01*
X196829903Y-114608627D01*
X196762892Y-114587278D01*
X196696664Y-114533529D01*
X196645832Y-114462822D01*
X196625038Y-114392089D01*
X196643484Y-114296016D01*
X196696811Y-114212849D01*
X196773677Y-114155186D01*
X196856033Y-114135490D01*
X196856033Y-113896714D01*
X196794291Y-113901028D01*
X196637271Y-113943520D01*
X196519069Y-114015635D01*
X196438440Y-114118273D01*
X196394139Y-114252332D01*
X196385607Y-114324957D01*
X196387784Y-114475307D01*
G37*
X196387784Y-114475307D02*
X196418731Y-114594337D01*
X196482600Y-114694021D01*
X196530313Y-114742288D01*
X196643106Y-114821408D01*
X196773950Y-114866752D01*
X196934792Y-114882330D01*
X196947794Y-114882410D01*
X197078530Y-114882549D01*
X197078530Y-114130091D01*
X197147010Y-114146130D01*
X197209031Y-114175091D01*
X197273654Y-114225778D01*
X197283971Y-114236379D01*
X197339805Y-114327494D01*
X197349275Y-114431400D01*
X197312540Y-114551000D01*
X197302647Y-114571274D01*
X197272574Y-114633456D01*
X197255440Y-114675106D01*
X197253855Y-114682373D01*
X197269242Y-114707740D01*
X197306887Y-114756120D01*
X197327459Y-114780679D01*
X197374714Y-114831570D01*
X197405917Y-114848281D01*
X197434620Y-114836683D01*
X197442468Y-114830483D01*
X197476819Y-114788493D01*
X197518565Y-114719206D01*
X197542935Y-114670882D01*
X197585873Y-114533711D01*
X197599786Y-114381847D01*
X197583300Y-114238024D01*
X197571496Y-114197745D01*
X197504689Y-114073078D01*
X197401892Y-113980671D01*
X197262105Y-113919990D01*
X197084330Y-113890498D01*
X196991373Y-113887260D01*
X196856033Y-113896714D01*
X196856033Y-114135490D01*
X196866038Y-114158584D01*
X196873888Y-114220662D01*
X196878521Y-114310914D01*
X196879314Y-114372058D01*
X196878549Y-114482040D01*
X196874970Y-114551457D01*
X196866649Y-114589538D01*
X196851657Y-114605515D01*
X196829903Y-114608627D01*
X196762892Y-114587278D01*
X196696664Y-114533529D01*
X196645832Y-114462822D01*
X196625038Y-114392089D01*
X196643484Y-114296016D01*
X196696811Y-114212849D01*
X196773677Y-114155186D01*
X196856033Y-114135490D01*
X196856033Y-113896714D01*
X196794291Y-113901028D01*
X196637271Y-113943520D01*
X196519069Y-114015635D01*
X196438440Y-114118273D01*
X196394139Y-114252332D01*
X196385607Y-114324957D01*
X196387784Y-114475307D01*
G36*
X194526568Y-105423247D02*
G01*
X194584163Y-105553522D01*
X194680334Y-105652419D01*
X194815229Y-105720082D01*
X194988996Y-105756655D01*
X195016126Y-105759276D01*
X195207408Y-105761330D01*
X195375073Y-105734699D01*
X195510967Y-105681001D01*
X195554681Y-105652247D01*
X195647198Y-105552091D01*
X195707119Y-105424537D01*
X195731985Y-105281837D01*
X195719339Y-105136240D01*
X195680391Y-105025562D01*
X195614755Y-104930384D01*
X195528699Y-104852594D01*
X195526685Y-104851249D01*
X195473570Y-104819657D01*
X195420160Y-104799127D01*
X195352754Y-104786695D01*
X195257653Y-104779397D01*
X195179666Y-104776182D01*
X195108944Y-104774844D01*
X195108944Y-105023814D01*
X195179348Y-105026247D01*
X195273068Y-105035080D01*
X195333214Y-105050664D01*
X195376006Y-105078766D01*
X195401002Y-105105086D01*
X195453338Y-105198392D01*
X195460333Y-105296020D01*
X195422676Y-105386942D01*
X195380479Y-105432402D01*
X195337956Y-105465162D01*
X195297267Y-105484323D01*
X195244314Y-105492733D01*
X195164997Y-105493237D01*
X195091950Y-105490645D01*
X194987601Y-105485071D01*
X194919920Y-105476234D01*
X194875774Y-105460307D01*
X194842031Y-105433462D01*
X194822746Y-105412189D01*
X194772086Y-105323206D01*
X194769560Y-105227211D01*
X194799567Y-105146719D01*
X194862231Y-105078053D01*
X194965168Y-105037144D01*
X195108944Y-105023814D01*
X195108944Y-104774844D01*
X195024582Y-104773246D01*
X194908600Y-104778260D01*
X194821367Y-104793283D01*
X194752530Y-104820376D01*
X194691737Y-104861600D01*
X194673686Y-104876885D01*
X194583746Y-104972454D01*
X194531211Y-105074961D01*
X194509201Y-105200321D01*
X194507402Y-105261450D01*
X194526568Y-105423247D01*
G37*
X194526568Y-105423247D02*
X194584163Y-105553522D01*
X194680334Y-105652419D01*
X194815229Y-105720082D01*
X194988996Y-105756655D01*
X195016126Y-105759276D01*
X195207408Y-105761330D01*
X195375073Y-105734699D01*
X195510967Y-105681001D01*
X195554681Y-105652247D01*
X195647198Y-105552091D01*
X195707119Y-105424537D01*
X195731985Y-105281837D01*
X195719339Y-105136240D01*
X195680391Y-105025562D01*
X195614755Y-104930384D01*
X195528699Y-104852594D01*
X195526685Y-104851249D01*
X195473570Y-104819657D01*
X195420160Y-104799127D01*
X195352754Y-104786695D01*
X195257653Y-104779397D01*
X195179666Y-104776182D01*
X195108944Y-104774844D01*
X195108944Y-105023814D01*
X195179348Y-105026247D01*
X195273068Y-105035080D01*
X195333214Y-105050664D01*
X195376006Y-105078766D01*
X195401002Y-105105086D01*
X195453338Y-105198392D01*
X195460333Y-105296020D01*
X195422676Y-105386942D01*
X195380479Y-105432402D01*
X195337956Y-105465162D01*
X195297267Y-105484323D01*
X195244314Y-105492733D01*
X195164997Y-105493237D01*
X195091950Y-105490645D01*
X194987601Y-105485071D01*
X194919920Y-105476234D01*
X194875774Y-105460307D01*
X194842031Y-105433462D01*
X194822746Y-105412189D01*
X194772086Y-105323206D01*
X194769560Y-105227211D01*
X194799567Y-105146719D01*
X194862231Y-105078053D01*
X194965168Y-105037144D01*
X195108944Y-105023814D01*
X195108944Y-104774844D01*
X195024582Y-104773246D01*
X194908600Y-104778260D01*
X194821367Y-104793283D01*
X194752530Y-104820376D01*
X194691737Y-104861600D01*
X194673686Y-104876885D01*
X194583746Y-104972454D01*
X194531211Y-105074961D01*
X194509201Y-105200321D01*
X194507402Y-105261450D01*
X194526568Y-105423247D01*
G36*
X194541354Y-107763204D02*
G01*
X194553037Y-107788019D01*
X194615951Y-107873906D01*
X194707769Y-107955121D01*
X194808868Y-108015764D01*
X194855349Y-108033012D01*
X194938376Y-108048749D01*
X195038713Y-108058133D01*
X195080147Y-108059272D01*
X195210882Y-108059411D01*
X195210882Y-107306953D01*
X195279363Y-107322993D01*
X195360355Y-107362363D01*
X195430351Y-107431194D01*
X195475441Y-107513081D01*
X195484804Y-107565263D01*
X195473441Y-107636029D01*
X195444943Y-107720460D01*
X195431831Y-107749142D01*
X195378858Y-107855209D01*
X195447901Y-107945728D01*
X195494597Y-107997961D01*
X195533140Y-108025753D01*
X195544452Y-108027160D01*
X195571868Y-108002332D01*
X195613532Y-107947917D01*
X195646037Y-107898528D01*
X195704468Y-107765252D01*
X195730915Y-107615839D01*
X195724039Y-107467751D01*
X195688096Y-107349705D01*
X195611101Y-107228018D01*
X195509728Y-107141540D01*
X195378570Y-107087441D01*
X195212224Y-107062891D01*
X195136108Y-107060714D01*
X194961685Y-107069427D01*
X194956611Y-107070497D01*
X194956611Y-107319827D01*
X194972968Y-107326694D01*
X194981988Y-107354917D01*
X194985854Y-107413127D01*
X194986749Y-107509958D01*
X194986765Y-107547243D01*
X194985413Y-107660683D01*
X194980505Y-107732622D01*
X194970760Y-107771313D01*
X194954899Y-107785005D01*
X194949805Y-107785490D01*
X194909326Y-107769863D01*
X194852621Y-107730753D01*
X194832766Y-107713939D01*
X194776611Y-107651519D01*
X194754532Y-107586453D01*
X194752686Y-107551397D01*
X194775766Y-107456558D01*
X194837759Y-107377027D01*
X194927802Y-107326577D01*
X194930735Y-107325683D01*
X194956611Y-107319827D01*
X194956611Y-107070497D01*
X194824343Y-107098399D01*
X194714461Y-107150590D01*
X194636461Y-107214421D01*
X194551882Y-107332433D01*
X194506686Y-107471158D01*
X194502600Y-107618710D01*
X194541354Y-107763204D01*
G37*
X194541354Y-107763204D02*
X194553037Y-107788019D01*
X194615951Y-107873906D01*
X194707769Y-107955121D01*
X194808868Y-108015764D01*
X194855349Y-108033012D01*
X194938376Y-108048749D01*
X195038713Y-108058133D01*
X195080147Y-108059272D01*
X195210882Y-108059411D01*
X195210882Y-107306953D01*
X195279363Y-107322993D01*
X195360355Y-107362363D01*
X195430351Y-107431194D01*
X195475441Y-107513081D01*
X195484804Y-107565263D01*
X195473441Y-107636029D01*
X195444943Y-107720460D01*
X195431831Y-107749142D01*
X195378858Y-107855209D01*
X195447901Y-107945728D01*
X195494597Y-107997961D01*
X195533140Y-108025753D01*
X195544452Y-108027160D01*
X195571868Y-108002332D01*
X195613532Y-107947917D01*
X195646037Y-107898528D01*
X195704468Y-107765252D01*
X195730915Y-107615839D01*
X195724039Y-107467751D01*
X195688096Y-107349705D01*
X195611101Y-107228018D01*
X195509728Y-107141540D01*
X195378570Y-107087441D01*
X195212224Y-107062891D01*
X195136108Y-107060714D01*
X194961685Y-107069427D01*
X194956611Y-107070497D01*
X194956611Y-107319827D01*
X194972968Y-107326694D01*
X194981988Y-107354917D01*
X194985854Y-107413127D01*
X194986749Y-107509958D01*
X194986765Y-107547243D01*
X194985413Y-107660683D01*
X194980505Y-107732622D01*
X194970760Y-107771313D01*
X194954899Y-107785005D01*
X194949805Y-107785490D01*
X194909326Y-107769863D01*
X194852621Y-107730753D01*
X194832766Y-107713939D01*
X194776611Y-107651519D01*
X194754532Y-107586453D01*
X194752686Y-107551397D01*
X194775766Y-107456558D01*
X194837759Y-107377027D01*
X194927802Y-107326577D01*
X194930735Y-107325683D01*
X194956611Y-107319827D01*
X194956611Y-107070497D01*
X194824343Y-107098399D01*
X194714461Y-107150590D01*
X194636461Y-107214421D01*
X194551882Y-107332433D01*
X194506686Y-107471158D01*
X194502600Y-107618710D01*
X194541354Y-107763204D01*
G36*
X194509345Y-110477759D02*
G01*
X194527229Y-110572059D01*
X194564633Y-110669890D01*
X194569402Y-110680343D01*
X194608412Y-110754531D01*
X194644664Y-110805910D01*
X194667887Y-110822517D01*
X194705761Y-110806702D01*
X194761644Y-110768288D01*
X194782505Y-110751237D01*
X194864618Y-110680969D01*
X194811168Y-110590379D01*
X194775561Y-110504164D01*
X194756529Y-110404549D01*
X194755326Y-110309019D01*
X194773210Y-110235061D01*
X194784373Y-110217312D01*
X194835553Y-110183512D01*
X194894509Y-110179404D01*
X194940567Y-110204696D01*
X194949499Y-110219656D01*
X194960592Y-110264486D01*
X194973630Y-110343286D01*
X194986088Y-110440426D01*
X194988042Y-110458346D01*
X195015030Y-110614365D01*
X195060873Y-110727523D01*
X195129803Y-110802569D01*
X195226054Y-110844253D01*
X195343617Y-110857238D01*
X195477254Y-110839299D01*
X195582195Y-110781050D01*
X195658630Y-110682255D01*
X195706748Y-110542682D01*
X195725732Y-110387745D01*
X195725504Y-110261398D01*
X195708262Y-110158913D01*
X195684457Y-110088921D01*
X195642978Y-110000483D01*
X195594842Y-109918754D01*
X195573655Y-109889705D01*
X195512676Y-109815000D01*
X195421508Y-109905098D01*
X195330339Y-109995196D01*
X195398128Y-110097632D01*
X195449042Y-110200374D01*
X195475673Y-110310087D01*
X195478483Y-110415551D01*
X195457935Y-110505546D01*
X195414493Y-110568854D01*
X195377838Y-110589296D01*
X195319053Y-110586229D01*
X195274099Y-110535434D01*
X195243057Y-110437048D01*
X195228710Y-110329256D01*
X195201337Y-110163365D01*
X195149693Y-110040124D01*
X195072266Y-109957886D01*
X194967544Y-109915001D01*
X194843387Y-109909060D01*
X194713702Y-109938406D01*
X194615677Y-110005309D01*
X194548866Y-110110371D01*
X194512820Y-110254190D01*
X194505754Y-110360738D01*
X194509345Y-110477759D01*
G37*
X194509345Y-110477759D02*
X194527229Y-110572059D01*
X194564633Y-110669890D01*
X194569402Y-110680343D01*
X194608412Y-110754531D01*
X194644664Y-110805910D01*
X194667887Y-110822517D01*
X194705761Y-110806702D01*
X194761644Y-110768288D01*
X194782505Y-110751237D01*
X194864618Y-110680969D01*
X194811168Y-110590379D01*
X194775561Y-110504164D01*
X194756529Y-110404549D01*
X194755326Y-110309019D01*
X194773210Y-110235061D01*
X194784373Y-110217312D01*
X194835553Y-110183512D01*
X194894509Y-110179404D01*
X194940567Y-110204696D01*
X194949499Y-110219656D01*
X194960592Y-110264486D01*
X194973630Y-110343286D01*
X194986088Y-110440426D01*
X194988042Y-110458346D01*
X195015030Y-110614365D01*
X195060873Y-110727523D01*
X195129803Y-110802569D01*
X195226054Y-110844253D01*
X195343617Y-110857238D01*
X195477254Y-110839299D01*
X195582195Y-110781050D01*
X195658630Y-110682255D01*
X195706748Y-110542682D01*
X195725732Y-110387745D01*
X195725504Y-110261398D01*
X195708262Y-110158913D01*
X195684457Y-110088921D01*
X195642978Y-110000483D01*
X195594842Y-109918754D01*
X195573655Y-109889705D01*
X195512676Y-109815000D01*
X195421508Y-109905098D01*
X195330339Y-109995196D01*
X195398128Y-110097632D01*
X195449042Y-110200374D01*
X195475673Y-110310087D01*
X195478483Y-110415551D01*
X195457935Y-110505546D01*
X195414493Y-110568854D01*
X195377838Y-110589296D01*
X195319053Y-110586229D01*
X195274099Y-110535434D01*
X195243057Y-110437048D01*
X195228710Y-110329256D01*
X195201337Y-110163365D01*
X195149693Y-110040124D01*
X195072266Y-109957886D01*
X194967544Y-109915001D01*
X194843387Y-109909060D01*
X194713702Y-109938406D01*
X194615677Y-110005309D01*
X194548866Y-110110371D01*
X194512820Y-110254190D01*
X194505754Y-110360738D01*
X194509345Y-110477759D01*
G36*
X194528364Y-111659547D02*
G01*
X194596959Y-111785502D01*
X194705245Y-111884047D01*
X194793315Y-111930478D01*
X194871101Y-111950412D01*
X194981993Y-111963328D01*
X195109738Y-111968863D01*
X195238084Y-111966654D01*
X195350779Y-111956337D01*
X195410969Y-111944286D01*
X195493311Y-111903634D01*
X195580770Y-111833230D01*
X195657251Y-111748382D01*
X195706655Y-111664397D01*
X195707439Y-111662349D01*
X195729027Y-111558134D01*
X195729562Y-111434627D01*
X195709908Y-111317261D01*
X195694155Y-111271942D01*
X195627966Y-111155220D01*
X195541246Y-111071624D01*
X195426438Y-111016701D01*
X195275982Y-110985995D01*
X195197173Y-110979047D01*
X195098145Y-110979933D01*
X195098145Y-111246862D01*
X195242645Y-111255854D01*
X195352760Y-111281736D01*
X195423116Y-111322868D01*
X195443235Y-111352172D01*
X195457265Y-111427251D01*
X195453111Y-111516494D01*
X195432922Y-111593650D01*
X195421815Y-111613883D01*
X195357123Y-111667265D01*
X195258119Y-111702500D01*
X195137632Y-111717498D01*
X195008494Y-111710172D01*
X194930775Y-111693799D01*
X194840771Y-111646790D01*
X194784509Y-111572582D01*
X194765057Y-111483209D01*
X194785481Y-111390707D01*
X194835437Y-111319653D01*
X194876655Y-111282312D01*
X194917281Y-111260518D01*
X194972264Y-111250130D01*
X195056549Y-111247006D01*
X195098145Y-111246862D01*
X195098145Y-110979933D01*
X194986874Y-110980930D01*
X194814423Y-111015180D01*
X194679814Y-111081802D01*
X194583040Y-111180799D01*
X194524094Y-111312175D01*
X194517259Y-111340385D01*
X194501213Y-111509926D01*
X194528364Y-111659547D01*
G37*
X194528364Y-111659547D02*
X194596959Y-111785502D01*
X194705245Y-111884047D01*
X194793315Y-111930478D01*
X194871101Y-111950412D01*
X194981993Y-111963328D01*
X195109738Y-111968863D01*
X195238084Y-111966654D01*
X195350779Y-111956337D01*
X195410969Y-111944286D01*
X195493311Y-111903634D01*
X195580770Y-111833230D01*
X195657251Y-111748382D01*
X195706655Y-111664397D01*
X195707439Y-111662349D01*
X195729027Y-111558134D01*
X195729562Y-111434627D01*
X195709908Y-111317261D01*
X195694155Y-111271942D01*
X195627966Y-111155220D01*
X195541246Y-111071624D01*
X195426438Y-111016701D01*
X195275982Y-110985995D01*
X195197173Y-110979047D01*
X195098145Y-110979933D01*
X195098145Y-111246862D01*
X195242645Y-111255854D01*
X195352760Y-111281736D01*
X195423116Y-111322868D01*
X195443235Y-111352172D01*
X195457265Y-111427251D01*
X195453111Y-111516494D01*
X195432922Y-111593650D01*
X195421815Y-111613883D01*
X195357123Y-111667265D01*
X195258119Y-111702500D01*
X195137632Y-111717498D01*
X195008494Y-111710172D01*
X194930775Y-111693799D01*
X194840771Y-111646790D01*
X194784509Y-111572582D01*
X194765057Y-111483209D01*
X194785481Y-111390707D01*
X194835437Y-111319653D01*
X194876655Y-111282312D01*
X194917281Y-111260518D01*
X194972264Y-111250130D01*
X195056549Y-111247006D01*
X195098145Y-111246862D01*
X195098145Y-110979933D01*
X194986874Y-110980930D01*
X194814423Y-111015180D01*
X194679814Y-111081802D01*
X194583040Y-111180799D01*
X194524094Y-111312175D01*
X194517259Y-111340385D01*
X194501213Y-111509926D01*
X194528364Y-111659547D01*
G36*
X194901245Y-112417254D02*
G01*
X195083879Y-112419608D01*
X195222600Y-112428207D01*
X195323147Y-112445360D01*
X195391254Y-112473374D01*
X195432659Y-112514557D01*
X195453097Y-112571217D01*
X195458318Y-112641372D01*
X195452468Y-112714848D01*
X195431093Y-112770657D01*
X195388458Y-112811109D01*
X195318825Y-112838509D01*
X195216460Y-112855167D01*
X195075624Y-112863389D01*
X194901245Y-112865490D01*
X194513628Y-112865490D01*
X194513628Y-113139411D01*
X195708922Y-113139411D01*
X195708922Y-113002451D01*
X195705576Y-112919884D01*
X195693826Y-112877368D01*
X195671520Y-112865490D01*
X195651654Y-112858336D01*
X195655857Y-112829865D01*
X195683971Y-112772476D01*
X195727342Y-112640945D01*
X195724270Y-112501438D01*
X195677174Y-112367765D01*
X195639971Y-112304108D01*
X195599691Y-112255553D01*
X195549291Y-112220081D01*
X195481729Y-112195674D01*
X195389965Y-112180313D01*
X195266955Y-112171982D01*
X195105659Y-112168662D01*
X194980928Y-112168235D01*
X194513628Y-112168235D01*
X194513628Y-112417254D01*
X194901245Y-112417254D01*
G37*
X194901245Y-112417254D02*
X195083879Y-112419608D01*
X195222600Y-112428207D01*
X195323147Y-112445360D01*
X195391254Y-112473374D01*
X195432659Y-112514557D01*
X195453097Y-112571217D01*
X195458318Y-112641372D01*
X195452468Y-112714848D01*
X195431093Y-112770657D01*
X195388458Y-112811109D01*
X195318825Y-112838509D01*
X195216460Y-112855167D01*
X195075624Y-112863389D01*
X194901245Y-112865490D01*
X194513628Y-112865490D01*
X194513628Y-113139411D01*
X195708922Y-113139411D01*
X195708922Y-113002451D01*
X195705576Y-112919884D01*
X195693826Y-112877368D01*
X195671520Y-112865490D01*
X195651654Y-112858336D01*
X195655857Y-112829865D01*
X195683971Y-112772476D01*
X195727342Y-112640945D01*
X195724270Y-112501438D01*
X195677174Y-112367765D01*
X195639971Y-112304108D01*
X195599691Y-112255553D01*
X195549291Y-112220081D01*
X195481729Y-112195674D01*
X195389965Y-112180313D01*
X195266955Y-112171982D01*
X195105659Y-112168662D01*
X194980928Y-112168235D01*
X194513628Y-112168235D01*
X194513628Y-112417254D01*
X194901245Y-112417254D01*
G36*
X194524056Y-114840976D02*
G01*
X194585348Y-114985256D01*
X194615185Y-115030699D01*
X194661036Y-115088779D01*
X194697089Y-115125238D01*
X194708832Y-115131568D01*
X194734889Y-115113693D01*
X194779105Y-115067950D01*
X194809965Y-115031328D01*
X194890520Y-114931088D01*
X194823918Y-114851935D01*
X194780921Y-114790769D01*
X194766079Y-114731129D01*
X194769704Y-114662872D01*
X194796652Y-114554482D01*
X194852587Y-114479872D01*
X194943014Y-114434530D01*
X195073435Y-114413947D01*
X195073517Y-114413942D01*
X195219290Y-114415722D01*
X195326245Y-114443387D01*
X195399064Y-114498571D01*
X195423723Y-114536192D01*
X195454431Y-114636105D01*
X195454449Y-114742822D01*
X195424655Y-114835669D01*
X195410098Y-114857647D01*
X195372914Y-114912765D01*
X195366820Y-114955859D01*
X195394496Y-115002335D01*
X195444205Y-115053716D01*
X195528116Y-115135046D01*
X195602546Y-115044749D01*
X195686549Y-114905236D01*
X195727947Y-114747912D01*
X195724950Y-114583503D01*
X195697500Y-114475531D01*
X195629620Y-114349331D01*
X195522831Y-114248401D01*
X195447451Y-114202548D01*
X195339297Y-114165410D01*
X195202318Y-114146827D01*
X195053864Y-114146684D01*
X194911281Y-114164865D01*
X194791918Y-114201255D01*
X194779680Y-114206987D01*
X194659655Y-114291865D01*
X194572267Y-114406782D01*
X194519329Y-114542659D01*
X194502654Y-114690417D01*
X194524056Y-114840976D01*
G37*
X194524056Y-114840976D02*
X194585348Y-114985256D01*
X194615185Y-115030699D01*
X194661036Y-115088779D01*
X194697089Y-115125238D01*
X194708832Y-115131568D01*
X194734889Y-115113693D01*
X194779105Y-115067950D01*
X194809965Y-115031328D01*
X194890520Y-114931088D01*
X194823918Y-114851935D01*
X194780921Y-114790769D01*
X194766079Y-114731129D01*
X194769704Y-114662872D01*
X194796652Y-114554482D01*
X194852587Y-114479872D01*
X194943014Y-114434530D01*
X195073435Y-114413947D01*
X195073517Y-114413942D01*
X195219290Y-114415722D01*
X195326245Y-114443387D01*
X195399064Y-114498571D01*
X195423723Y-114536192D01*
X195454431Y-114636105D01*
X195454449Y-114742822D01*
X195424655Y-114835669D01*
X195410098Y-114857647D01*
X195372914Y-114912765D01*
X195366820Y-114955859D01*
X195394496Y-115002335D01*
X195444205Y-115053716D01*
X195528116Y-115135046D01*
X195602546Y-115044749D01*
X195686549Y-114905236D01*
X195727947Y-114747912D01*
X195724950Y-114583503D01*
X195697500Y-114475531D01*
X195629620Y-114349331D01*
X195522831Y-114248401D01*
X195447451Y-114202548D01*
X195339297Y-114165410D01*
X195202318Y-114146827D01*
X195053864Y-114146684D01*
X194911281Y-114164865D01*
X194791918Y-114201255D01*
X194779680Y-114206987D01*
X194659655Y-114291865D01*
X194572267Y-114406782D01*
X194519329Y-114542659D01*
X194502654Y-114690417D01*
X194524056Y-114840976D01*
G36*
X194509355Y-115753287D02*
G01*
X194524845Y-115817051D01*
X194581569Y-115939300D01*
X194668202Y-116043834D01*
X194772074Y-116116180D01*
X194795396Y-116126119D01*
X194856484Y-116139754D01*
X194946853Y-116149298D01*
X195038190Y-116152549D01*
X195210882Y-116152549D01*
X195210882Y-115791470D01*
X195211445Y-115642546D01*
X195214864Y-115537632D01*
X195223731Y-115470937D01*
X195240641Y-115436666D01*
X195268189Y-115429028D01*
X195308968Y-115442229D01*
X195356683Y-115465877D01*
X195436314Y-115531843D01*
X195475987Y-115623512D01*
X195474695Y-115735555D01*
X195431514Y-115862472D01*
X195378224Y-115972158D01*
X195450191Y-116063173D01*
X195522157Y-116154188D01*
X195601269Y-116068563D01*
X195676017Y-115954250D01*
X195721084Y-115813666D01*
X195733696Y-115662449D01*
X195711079Y-115516236D01*
X195703405Y-115492647D01*
X195636296Y-115364141D01*
X195536247Y-115268551D01*
X195400271Y-115203861D01*
X195225380Y-115168057D01*
X195221632Y-115167640D01*
X195031032Y-115164434D01*
X194963035Y-115177393D01*
X194963035Y-115430392D01*
X194973491Y-115453627D01*
X194981500Y-115516710D01*
X194986073Y-115609706D01*
X194986765Y-115668638D01*
X194986332Y-115778537D01*
X194983578Y-115847252D01*
X194976321Y-115883405D01*
X194962376Y-115895615D01*
X194939562Y-115892504D01*
X194930735Y-115889894D01*
X194847800Y-115845344D01*
X194780960Y-115775279D01*
X194751589Y-115713446D01*
X194753362Y-115631301D01*
X194789990Y-115548062D01*
X194850634Y-115478238D01*
X194924456Y-115436337D01*
X194963035Y-115430392D01*
X194963035Y-115177393D01*
X194863395Y-115196385D01*
X194722711Y-115259773D01*
X194612974Y-115350878D01*
X194538174Y-115465978D01*
X194502304Y-115601355D01*
X194509355Y-115753287D01*
G37*
X194509355Y-115753287D02*
X194524845Y-115817051D01*
X194581569Y-115939300D01*
X194668202Y-116043834D01*
X194772074Y-116116180D01*
X194795396Y-116126119D01*
X194856484Y-116139754D01*
X194946853Y-116149298D01*
X195038190Y-116152549D01*
X195210882Y-116152549D01*
X195210882Y-115791470D01*
X195211445Y-115642546D01*
X195214864Y-115537632D01*
X195223731Y-115470937D01*
X195240641Y-115436666D01*
X195268189Y-115429028D01*
X195308968Y-115442229D01*
X195356683Y-115465877D01*
X195436314Y-115531843D01*
X195475987Y-115623512D01*
X195474695Y-115735555D01*
X195431514Y-115862472D01*
X195378224Y-115972158D01*
X195450191Y-116063173D01*
X195522157Y-116154188D01*
X195601269Y-116068563D01*
X195676017Y-115954250D01*
X195721084Y-115813666D01*
X195733696Y-115662449D01*
X195711079Y-115516236D01*
X195703405Y-115492647D01*
X195636296Y-115364141D01*
X195536247Y-115268551D01*
X195400271Y-115203861D01*
X195225380Y-115168057D01*
X195221632Y-115167640D01*
X195031032Y-115164434D01*
X194963035Y-115177393D01*
X194963035Y-115430392D01*
X194973491Y-115453627D01*
X194981500Y-115516710D01*
X194986073Y-115609706D01*
X194986765Y-115668638D01*
X194986332Y-115778537D01*
X194983578Y-115847252D01*
X194976321Y-115883405D01*
X194962376Y-115895615D01*
X194939562Y-115892504D01*
X194930735Y-115889894D01*
X194847800Y-115845344D01*
X194780960Y-115775279D01*
X194751589Y-115713446D01*
X194753362Y-115631301D01*
X194789990Y-115548062D01*
X194850634Y-115478238D01*
X194924456Y-115436337D01*
X194963035Y-115430392D01*
X194963035Y-115177393D01*
X194863395Y-115196385D01*
X194722711Y-115259773D01*
X194612974Y-115350878D01*
X194538174Y-115465978D01*
X194502304Y-115601355D01*
X194509355Y-115753287D01*
G36*
X194534199Y-108956760D02*
G01*
X194563802Y-109018736D01*
X194606561Y-109078759D01*
X194655775Y-109124486D01*
X194718544Y-109157793D01*
X194801971Y-109180555D01*
X194913159Y-109194647D01*
X195059209Y-109201942D01*
X195247223Y-109204318D01*
X195266912Y-109204355D01*
X195708922Y-109204902D01*
X195708922Y-108930980D01*
X195301435Y-108930980D01*
X195150471Y-108930785D01*
X195041056Y-108929436D01*
X194964933Y-108925788D01*
X194913848Y-108918696D01*
X194879545Y-108907013D01*
X194853768Y-108889594D01*
X194828298Y-108865329D01*
X194773571Y-108780435D01*
X194763416Y-108687761D01*
X194798017Y-108599473D01*
X194823770Y-108568770D01*
X194847982Y-108546229D01*
X194873912Y-108530046D01*
X194909708Y-108519168D01*
X194963519Y-108512542D01*
X195043493Y-108509115D01*
X195157779Y-108507834D01*
X195296907Y-108507647D01*
X195708922Y-108507647D01*
X195708922Y-108233725D01*
X194513628Y-108233725D01*
X194513628Y-108370686D01*
X194516879Y-108452916D01*
X194528426Y-108495340D01*
X194550952Y-108507641D01*
X194551620Y-108507647D01*
X194573681Y-108513354D01*
X194571177Y-108538527D01*
X194546937Y-108588578D01*
X194511271Y-108702094D01*
X194507305Y-108831945D01*
X194534199Y-108956760D01*
G37*
X194534199Y-108956760D02*
X194563802Y-109018736D01*
X194606561Y-109078759D01*
X194655775Y-109124486D01*
X194718544Y-109157793D01*
X194801971Y-109180555D01*
X194913159Y-109194647D01*
X195059209Y-109201942D01*
X195247223Y-109204318D01*
X195266912Y-109204355D01*
X195708922Y-109204902D01*
X195708922Y-108930980D01*
X195301435Y-108930980D01*
X195150471Y-108930785D01*
X195041056Y-108929436D01*
X194964933Y-108925788D01*
X194913848Y-108918696D01*
X194879545Y-108907013D01*
X194853768Y-108889594D01*
X194828298Y-108865329D01*
X194773571Y-108780435D01*
X194763416Y-108687761D01*
X194798017Y-108599473D01*
X194823770Y-108568770D01*
X194847982Y-108546229D01*
X194873912Y-108530046D01*
X194909708Y-108519168D01*
X194963519Y-108512542D01*
X195043493Y-108509115D01*
X195157779Y-108507834D01*
X195296907Y-108507647D01*
X195708922Y-108507647D01*
X195708922Y-108233725D01*
X194513628Y-108233725D01*
X194513628Y-108370686D01*
X194516879Y-108452916D01*
X194528426Y-108495340D01*
X194550952Y-108507641D01*
X194551620Y-108507647D01*
X194573681Y-108513354D01*
X194571177Y-108538527D01*
X194546937Y-108588578D01*
X194511271Y-108702094D01*
X194507305Y-108831945D01*
X194534199Y-108956760D01*
G36*
X194512472Y-114013637D02*
G01*
X194538641Y-114099290D01*
X194571707Y-114154437D01*
X194597855Y-114172401D01*
X194628852Y-114167457D01*
X194677547Y-114135372D01*
X194712035Y-114108243D01*
X194774383Y-114052317D01*
X194800615Y-114010299D01*
X194798903Y-113974480D01*
X194771863Y-113868224D01*
X194773091Y-113790189D01*
X194803735Y-113726820D01*
X194821670Y-113705546D01*
X194884779Y-113637451D01*
X195708922Y-113637451D01*
X195708922Y-113363529D01*
X194513628Y-113363529D01*
X194513628Y-113500490D01*
X194516879Y-113582719D01*
X194528426Y-113625144D01*
X194550952Y-113637445D01*
X194551620Y-113637451D01*
X194575215Y-113643260D01*
X194572138Y-113669531D01*
X194555115Y-113705931D01*
X194523439Y-113781111D01*
X194504381Y-113842158D01*
X194499496Y-113920708D01*
X194512472Y-114013637D01*
G37*
X194512472Y-114013637D02*
X194538641Y-114099290D01*
X194571707Y-114154437D01*
X194597855Y-114172401D01*
X194628852Y-114167457D01*
X194677547Y-114135372D01*
X194712035Y-114108243D01*
X194774383Y-114052317D01*
X194800615Y-114010299D01*
X194798903Y-113974480D01*
X194771863Y-113868224D01*
X194773091Y-113790189D01*
X194803735Y-113726820D01*
X194821670Y-113705546D01*
X194884779Y-113637451D01*
X195708922Y-113637451D01*
X195708922Y-113363529D01*
X194513628Y-113363529D01*
X194513628Y-113500490D01*
X194516879Y-113582719D01*
X194528426Y-113625144D01*
X194550952Y-113637445D01*
X194551620Y-113637451D01*
X194575215Y-113643260D01*
X194572138Y-113669531D01*
X194555115Y-113705931D01*
X194523439Y-113781111D01*
X194504381Y-113842158D01*
X194499496Y-113920708D01*
X194512472Y-114013637D01*
G36*
X186258172Y-111196535D02*
G01*
X186855363Y-111309117D01*
X187026610Y-111724531D01*
X187197857Y-112139944D01*
X186858978Y-112638302D01*
X186764622Y-112777868D01*
X186680375Y-112904028D01*
X186610083Y-113010895D01*
X186557592Y-113092582D01*
X186526749Y-113143201D01*
X186520098Y-113156986D01*
X186537203Y-113181820D01*
X186584489Y-113234888D01*
X186655917Y-113310240D01*
X186745445Y-113401929D01*
X186847034Y-113504007D01*
X186954643Y-113610526D01*
X187062232Y-113715536D01*
X187163760Y-113813091D01*
X187253186Y-113897242D01*
X187324471Y-113962040D01*
X187371573Y-114001538D01*
X187387337Y-114010980D01*
X187416398Y-113997391D01*
X187480066Y-113959293D01*
X187572112Y-113900694D01*
X187686309Y-113825597D01*
X187816429Y-113738009D01*
X187890646Y-113687254D01*
X188026167Y-113594745D01*
X188148461Y-113512540D01*
X188251440Y-113444630D01*
X188329018Y-113395000D01*
X188375106Y-113367640D01*
X188384792Y-113363529D01*
X188412319Y-113372849D01*
X188476473Y-113398254D01*
X188568235Y-113435911D01*
X188678584Y-113481986D01*
X188798500Y-113532646D01*
X188918964Y-113584059D01*
X189030954Y-113632389D01*
X189125452Y-113673806D01*
X189193437Y-113704474D01*
X189225888Y-113720562D01*
X189227165Y-113721511D01*
X189233362Y-113746772D01*
X189247185Y-113814046D01*
X189267277Y-113916360D01*
X189292279Y-114046741D01*
X189320831Y-114198216D01*
X189337296Y-114286594D01*
X189368114Y-114448452D01*
X189397439Y-114594649D01*
X189423666Y-114717787D01*
X189445191Y-114810469D01*
X189460410Y-114865301D01*
X189465238Y-114876323D01*
X189497919Y-114887119D01*
X189571730Y-114895829D01*
X189678037Y-114902460D01*
X189808212Y-114907018D01*
X189953621Y-114909509D01*
X190105635Y-114909938D01*
X190255622Y-114908311D01*
X190394951Y-114904635D01*
X190514990Y-114898915D01*
X190607110Y-114891158D01*
X190662677Y-114881368D01*
X190674245Y-114875496D01*
X190688110Y-114840399D01*
X190707933Y-114766028D01*
X190731384Y-114662223D01*
X190756136Y-114538819D01*
X190764143Y-114495741D01*
X190802186Y-114288047D01*
X190832824Y-114123984D01*
X190857274Y-113998130D01*
X190876754Y-113905065D01*
X190892481Y-113839367D01*
X190905673Y-113795617D01*
X190917549Y-113768392D01*
X190929325Y-113752272D01*
X190931653Y-113750017D01*
X190969145Y-113727503D01*
X191042110Y-113693158D01*
X191141612Y-113650411D01*
X191258718Y-113602692D01*
X191384493Y-113553430D01*
X191510002Y-113506055D01*
X191626310Y-113463995D01*
X191724484Y-113430680D01*
X191795588Y-113409541D01*
X191830687Y-113404005D01*
X191831917Y-113404466D01*
X191860606Y-113423223D01*
X191923730Y-113465776D01*
X192014718Y-113527653D01*
X192127000Y-113604382D01*
X192254005Y-113691491D01*
X192290098Y-113716299D01*
X192420948Y-113804753D01*
X192540336Y-113882588D01*
X192641407Y-113945566D01*
X192717304Y-113989445D01*
X192761172Y-114009985D01*
X192766562Y-114010980D01*
X192794889Y-113993722D01*
X192851006Y-113946036D01*
X192928882Y-113874050D01*
X193022485Y-113783897D01*
X193125786Y-113681705D01*
X193232751Y-113573606D01*
X193337351Y-113465728D01*
X193433554Y-113364204D01*
X193515329Y-113275162D01*
X193576645Y-113204733D01*
X193611471Y-113159047D01*
X193617157Y-113146409D01*
X193603765Y-113116991D01*
X193567644Y-113056761D01*
X193514881Y-112975530D01*
X193472412Y-112913030D01*
X193394485Y-112799785D01*
X193302729Y-112665674D01*
X193211120Y-112531155D01*
X193162091Y-112458833D01*
X192996515Y-112214038D01*
X193107620Y-112008551D01*
X193156293Y-111914936D01*
X193194126Y-111835330D01*
X193215703Y-111781467D01*
X193218706Y-111767757D01*
X193196538Y-111751270D01*
X193133894Y-111718745D01*
X193036554Y-111672609D01*
X192910294Y-111615290D01*
X192760895Y-111549216D01*
X192594133Y-111476815D01*
X192415787Y-111400516D01*
X192231636Y-111322746D01*
X192047457Y-111245934D01*
X191869030Y-111172506D01*
X191702132Y-111104892D01*
X191552542Y-111045520D01*
X191426038Y-110996816D01*
X191328399Y-110961210D01*
X191265402Y-110941130D01*
X191243766Y-110937900D01*
X191216169Y-110963496D01*
X191171370Y-111019539D01*
X191118679Y-111094311D01*
X191114510Y-111100587D01*
X190959814Y-111293845D01*
X190779336Y-111449674D01*
X190578847Y-111566724D01*
X190364119Y-111643645D01*
X190140922Y-111679086D01*
X189915026Y-111671697D01*
X189692204Y-111620127D01*
X189478224Y-111523026D01*
X189431409Y-111494458D01*
X189242363Y-111345868D01*
X189090557Y-111170327D01*
X188976779Y-110973910D01*
X188901820Y-110762693D01*
X188866467Y-110542753D01*
X188871512Y-110320163D01*
X188917744Y-110101001D01*
X189005951Y-109891342D01*
X189136924Y-109697261D01*
X189190082Y-109637226D01*
X189356484Y-109484435D01*
X189531657Y-109373097D01*
X189728011Y-109296723D01*
X189922462Y-109254187D01*
X190141087Y-109243686D01*
X190360797Y-109278701D01*
X190574165Y-109355673D01*
X190773767Y-109471047D01*
X190952174Y-109621266D01*
X191101962Y-109802773D01*
X191117751Y-109826627D01*
X191169457Y-109902201D01*
X191214257Y-109959651D01*
X191242862Y-109987117D01*
X191243766Y-109987517D01*
X191274709Y-109981620D01*
X191344936Y-109958245D01*
X191448670Y-109919821D01*
X191580135Y-109868777D01*
X191733552Y-109807542D01*
X191903146Y-109738544D01*
X192083138Y-109664214D01*
X192267753Y-109586978D01*
X192451213Y-109509268D01*
X192627741Y-109433511D01*
X192791559Y-109362137D01*
X192936892Y-109297574D01*
X193057962Y-109242252D01*
X193148992Y-109198600D01*
X193204205Y-109169046D01*
X193218706Y-109157144D01*
X193207414Y-109120777D01*
X193177130Y-109052730D01*
X193133265Y-108964737D01*
X193107620Y-108916351D01*
X192996515Y-108710863D01*
X193162091Y-108466068D01*
X193246915Y-108341106D01*
X193340261Y-108204295D01*
X193428153Y-108076089D01*
X193472412Y-108011871D01*
X193533063Y-107921551D01*
X193581126Y-107845071D01*
X193610515Y-107792407D01*
X193616727Y-107775302D01*
X193599968Y-107750405D01*
X193553181Y-107695305D01*
X193481225Y-107615343D01*
X193388957Y-107515861D01*
X193281235Y-107402200D01*
X193212071Y-107330315D01*
X193088502Y-107204551D01*
X192977979Y-107095863D01*
X192885230Y-107008645D01*
X192814982Y-106947289D01*
X192771965Y-106916191D01*
X192763235Y-106913208D01*
X192730029Y-106927053D01*
X192662887Y-106965312D01*
X192568608Y-107023742D01*
X192453990Y-107098097D01*
X192325828Y-107184135D01*
X192290098Y-107208603D01*
X192160234Y-107297755D01*
X192043314Y-107377738D01*
X191945907Y-107444080D01*
X191874584Y-107492311D01*
X191835915Y-107517957D01*
X191831917Y-107520435D01*
X191801100Y-107516729D01*
X191733344Y-107497061D01*
X191637584Y-107464860D01*
X191522754Y-107423555D01*
X191397789Y-107376575D01*
X191271624Y-107327349D01*
X191153193Y-107279308D01*
X191051430Y-107235881D01*
X190975271Y-107200496D01*
X190933649Y-107176584D01*
X190931653Y-107174884D01*
X190919758Y-107160262D01*
X190907995Y-107135565D01*
X190895146Y-107095372D01*
X190879994Y-107034263D01*
X190861321Y-106946817D01*
X190837910Y-106827612D01*
X190808542Y-106671227D01*
X190772000Y-106472243D01*
X190764143Y-106429160D01*
X190739472Y-106301471D01*
X190715338Y-106190153D01*
X190694069Y-106105045D01*
X190677993Y-106055983D01*
X190674245Y-106049405D01*
X190641018Y-106038564D01*
X190566766Y-106029753D01*
X190460121Y-106022976D01*
X190329712Y-106018240D01*
X190184172Y-106015550D01*
X190032131Y-106014913D01*
X189882221Y-106016334D01*
X189743073Y-106019820D01*
X189623317Y-106025376D01*
X189531586Y-106033008D01*
X189476511Y-106042722D01*
X189465238Y-106048578D01*
X189453868Y-106081180D01*
X189435369Y-106155418D01*
X189411347Y-106263896D01*
X189383407Y-106399217D01*
X189353153Y-106553985D01*
X189337296Y-106638308D01*
X189307389Y-106798296D01*
X189280295Y-106940967D01*
X189257376Y-107059348D01*
X189239988Y-107146465D01*
X189229492Y-107195345D01*
X189227165Y-107203390D01*
X189200931Y-107216987D01*
X189137740Y-107245729D01*
X189046622Y-107285785D01*
X188936602Y-107333324D01*
X188816710Y-107384515D01*
X188695972Y-107435526D01*
X188583416Y-107482526D01*
X188488071Y-107521684D01*
X188418962Y-107549169D01*
X188385119Y-107561149D01*
X188383640Y-107561372D01*
X188356942Y-107547791D01*
X188295505Y-107509715D01*
X188205434Y-107451147D01*
X188092835Y-107376088D01*
X187963815Y-107288540D01*
X187889706Y-107237647D01*
X187753822Y-107144909D01*
X187630454Y-107062541D01*
X187525842Y-106994561D01*
X187446228Y-106944988D01*
X187397852Y-106917842D01*
X187387007Y-106913921D01*
X187361765Y-106930775D01*
X187307869Y-106977368D01*
X187231358Y-107047749D01*
X187138268Y-107135965D01*
X187034640Y-107236065D01*
X186926509Y-107342098D01*
X186819915Y-107448111D01*
X186720895Y-107548152D01*
X186635487Y-107636270D01*
X186569730Y-107706513D01*
X186529661Y-107752928D01*
X186520098Y-107768456D01*
X186533545Y-107793739D01*
X186571320Y-107854211D01*
X186629580Y-107943992D01*
X186704479Y-108057203D01*
X186792170Y-108187964D01*
X186858978Y-108286600D01*
X187197857Y-108784957D01*
X187026610Y-109200371D01*
X186855363Y-109615784D01*
X186258172Y-109728366D01*
X185660980Y-109840949D01*
X185660980Y-111083952D01*
X186258172Y-111196535D01*
G37*
X186258172Y-111196535D02*
X186855363Y-111309117D01*
X187026610Y-111724531D01*
X187197857Y-112139944D01*
X186858978Y-112638302D01*
X186764622Y-112777868D01*
X186680375Y-112904028D01*
X186610083Y-113010895D01*
X186557592Y-113092582D01*
X186526749Y-113143201D01*
X186520098Y-113156986D01*
X186537203Y-113181820D01*
X186584489Y-113234888D01*
X186655917Y-113310240D01*
X186745445Y-113401929D01*
X186847034Y-113504007D01*
X186954643Y-113610526D01*
X187062232Y-113715536D01*
X187163760Y-113813091D01*
X187253186Y-113897242D01*
X187324471Y-113962040D01*
X187371573Y-114001538D01*
X187387337Y-114010980D01*
X187416398Y-113997391D01*
X187480066Y-113959293D01*
X187572112Y-113900694D01*
X187686309Y-113825597D01*
X187816429Y-113738009D01*
X187890646Y-113687254D01*
X188026167Y-113594745D01*
X188148461Y-113512540D01*
X188251440Y-113444630D01*
X188329018Y-113395000D01*
X188375106Y-113367640D01*
X188384792Y-113363529D01*
X188412319Y-113372849D01*
X188476473Y-113398254D01*
X188568235Y-113435911D01*
X188678584Y-113481986D01*
X188798500Y-113532646D01*
X188918964Y-113584059D01*
X189030954Y-113632389D01*
X189125452Y-113673806D01*
X189193437Y-113704474D01*
X189225888Y-113720562D01*
X189227165Y-113721511D01*
X189233362Y-113746772D01*
X189247185Y-113814046D01*
X189267277Y-113916360D01*
X189292279Y-114046741D01*
X189320831Y-114198216D01*
X189337296Y-114286594D01*
X189368114Y-114448452D01*
X189397439Y-114594649D01*
X189423666Y-114717787D01*
X189445191Y-114810469D01*
X189460410Y-114865301D01*
X189465238Y-114876323D01*
X189497919Y-114887119D01*
X189571730Y-114895829D01*
X189678037Y-114902460D01*
X189808212Y-114907018D01*
X189953621Y-114909509D01*
X190105635Y-114909938D01*
X190255622Y-114908311D01*
X190394951Y-114904635D01*
X190514990Y-114898915D01*
X190607110Y-114891158D01*
X190662677Y-114881368D01*
X190674245Y-114875496D01*
X190688110Y-114840399D01*
X190707933Y-114766028D01*
X190731384Y-114662223D01*
X190756136Y-114538819D01*
X190764143Y-114495741D01*
X190802186Y-114288047D01*
X190832824Y-114123984D01*
X190857274Y-113998130D01*
X190876754Y-113905065D01*
X190892481Y-113839367D01*
X190905673Y-113795617D01*
X190917549Y-113768392D01*
X190929325Y-113752272D01*
X190931653Y-113750017D01*
X190969145Y-113727503D01*
X191042110Y-113693158D01*
X191141612Y-113650411D01*
X191258718Y-113602692D01*
X191384493Y-113553430D01*
X191510002Y-113506055D01*
X191626310Y-113463995D01*
X191724484Y-113430680D01*
X191795588Y-113409541D01*
X191830687Y-113404005D01*
X191831917Y-113404466D01*
X191860606Y-113423223D01*
X191923730Y-113465776D01*
X192014718Y-113527653D01*
X192127000Y-113604382D01*
X192254005Y-113691491D01*
X192290098Y-113716299D01*
X192420948Y-113804753D01*
X192540336Y-113882588D01*
X192641407Y-113945566D01*
X192717304Y-113989445D01*
X192761172Y-114009985D01*
X192766562Y-114010980D01*
X192794889Y-113993722D01*
X192851006Y-113946036D01*
X192928882Y-113874050D01*
X193022485Y-113783897D01*
X193125786Y-113681705D01*
X193232751Y-113573606D01*
X193337351Y-113465728D01*
X193433554Y-113364204D01*
X193515329Y-113275162D01*
X193576645Y-113204733D01*
X193611471Y-113159047D01*
X193617157Y-113146409D01*
X193603765Y-113116991D01*
X193567644Y-113056761D01*
X193514881Y-112975530D01*
X193472412Y-112913030D01*
X193394485Y-112799785D01*
X193302729Y-112665674D01*
X193211120Y-112531155D01*
X193162091Y-112458833D01*
X192996515Y-112214038D01*
X193107620Y-112008551D01*
X193156293Y-111914936D01*
X193194126Y-111835330D01*
X193215703Y-111781467D01*
X193218706Y-111767757D01*
X193196538Y-111751270D01*
X193133894Y-111718745D01*
X193036554Y-111672609D01*
X192910294Y-111615290D01*
X192760895Y-111549216D01*
X192594133Y-111476815D01*
X192415787Y-111400516D01*
X192231636Y-111322746D01*
X192047457Y-111245934D01*
X191869030Y-111172506D01*
X191702132Y-111104892D01*
X191552542Y-111045520D01*
X191426038Y-110996816D01*
X191328399Y-110961210D01*
X191265402Y-110941130D01*
X191243766Y-110937900D01*
X191216169Y-110963496D01*
X191171370Y-111019539D01*
X191118679Y-111094311D01*
X191114510Y-111100587D01*
X190959814Y-111293845D01*
X190779336Y-111449674D01*
X190578847Y-111566724D01*
X190364119Y-111643645D01*
X190140922Y-111679086D01*
X189915026Y-111671697D01*
X189692204Y-111620127D01*
X189478224Y-111523026D01*
X189431409Y-111494458D01*
X189242363Y-111345868D01*
X189090557Y-111170327D01*
X188976779Y-110973910D01*
X188901820Y-110762693D01*
X188866467Y-110542753D01*
X188871512Y-110320163D01*
X188917744Y-110101001D01*
X189005951Y-109891342D01*
X189136924Y-109697261D01*
X189190082Y-109637226D01*
X189356484Y-109484435D01*
X189531657Y-109373097D01*
X189728011Y-109296723D01*
X189922462Y-109254187D01*
X190141087Y-109243686D01*
X190360797Y-109278701D01*
X190574165Y-109355673D01*
X190773767Y-109471047D01*
X190952174Y-109621266D01*
X191101962Y-109802773D01*
X191117751Y-109826627D01*
X191169457Y-109902201D01*
X191214257Y-109959651D01*
X191242862Y-109987117D01*
X191243766Y-109987517D01*
X191274709Y-109981620D01*
X191344936Y-109958245D01*
X191448670Y-109919821D01*
X191580135Y-109868777D01*
X191733552Y-109807542D01*
X191903146Y-109738544D01*
X192083138Y-109664214D01*
X192267753Y-109586978D01*
X192451213Y-109509268D01*
X192627741Y-109433511D01*
X192791559Y-109362137D01*
X192936892Y-109297574D01*
X193057962Y-109242252D01*
X193148992Y-109198600D01*
X193204205Y-109169046D01*
X193218706Y-109157144D01*
X193207414Y-109120777D01*
X193177130Y-109052730D01*
X193133265Y-108964737D01*
X193107620Y-108916351D01*
X192996515Y-108710863D01*
X193162091Y-108466068D01*
X193246915Y-108341106D01*
X193340261Y-108204295D01*
X193428153Y-108076089D01*
X193472412Y-108011871D01*
X193533063Y-107921551D01*
X193581126Y-107845071D01*
X193610515Y-107792407D01*
X193616727Y-107775302D01*
X193599968Y-107750405D01*
X193553181Y-107695305D01*
X193481225Y-107615343D01*
X193388957Y-107515861D01*
X193281235Y-107402200D01*
X193212071Y-107330315D01*
X193088502Y-107204551D01*
X192977979Y-107095863D01*
X192885230Y-107008645D01*
X192814982Y-106947289D01*
X192771965Y-106916191D01*
X192763235Y-106913208D01*
X192730029Y-106927053D01*
X192662887Y-106965312D01*
X192568608Y-107023742D01*
X192453990Y-107098097D01*
X192325828Y-107184135D01*
X192290098Y-107208603D01*
X192160234Y-107297755D01*
X192043314Y-107377738D01*
X191945907Y-107444080D01*
X191874584Y-107492311D01*
X191835915Y-107517957D01*
X191831917Y-107520435D01*
X191801100Y-107516729D01*
X191733344Y-107497061D01*
X191637584Y-107464860D01*
X191522754Y-107423555D01*
X191397789Y-107376575D01*
X191271624Y-107327349D01*
X191153193Y-107279308D01*
X191051430Y-107235881D01*
X190975271Y-107200496D01*
X190933649Y-107176584D01*
X190931653Y-107174884D01*
X190919758Y-107160262D01*
X190907995Y-107135565D01*
X190895146Y-107095372D01*
X190879994Y-107034263D01*
X190861321Y-106946817D01*
X190837910Y-106827612D01*
X190808542Y-106671227D01*
X190772000Y-106472243D01*
X190764143Y-106429160D01*
X190739472Y-106301471D01*
X190715338Y-106190153D01*
X190694069Y-106105045D01*
X190677993Y-106055983D01*
X190674245Y-106049405D01*
X190641018Y-106038564D01*
X190566766Y-106029753D01*
X190460121Y-106022976D01*
X190329712Y-106018240D01*
X190184172Y-106015550D01*
X190032131Y-106014913D01*
X189882221Y-106016334D01*
X189743073Y-106019820D01*
X189623317Y-106025376D01*
X189531586Y-106033008D01*
X189476511Y-106042722D01*
X189465238Y-106048578D01*
X189453868Y-106081180D01*
X189435369Y-106155418D01*
X189411347Y-106263896D01*
X189383407Y-106399217D01*
X189353153Y-106553985D01*
X189337296Y-106638308D01*
X189307389Y-106798296D01*
X189280295Y-106940967D01*
X189257376Y-107059348D01*
X189239988Y-107146465D01*
X189229492Y-107195345D01*
X189227165Y-107203390D01*
X189200931Y-107216987D01*
X189137740Y-107245729D01*
X189046622Y-107285785D01*
X188936602Y-107333324D01*
X188816710Y-107384515D01*
X188695972Y-107435526D01*
X188583416Y-107482526D01*
X188488071Y-107521684D01*
X188418962Y-107549169D01*
X188385119Y-107561149D01*
X188383640Y-107561372D01*
X188356942Y-107547791D01*
X188295505Y-107509715D01*
X188205434Y-107451147D01*
X188092835Y-107376088D01*
X187963815Y-107288540D01*
X187889706Y-107237647D01*
X187753822Y-107144909D01*
X187630454Y-107062541D01*
X187525842Y-106994561D01*
X187446228Y-106944988D01*
X187397852Y-106917842D01*
X187387007Y-106913921D01*
X187361765Y-106930775D01*
X187307869Y-106977368D01*
X187231358Y-107047749D01*
X187138268Y-107135965D01*
X187034640Y-107236065D01*
X186926509Y-107342098D01*
X186819915Y-107448111D01*
X186720895Y-107548152D01*
X186635487Y-107636270D01*
X186569730Y-107706513D01*
X186529661Y-107752928D01*
X186520098Y-107768456D01*
X186533545Y-107793739D01*
X186571320Y-107854211D01*
X186629580Y-107943992D01*
X186704479Y-108057203D01*
X186792170Y-108187964D01*
X186858978Y-108286600D01*
X187197857Y-108784957D01*
X187026610Y-109200371D01*
X186855363Y-109615784D01*
X186258172Y-109728366D01*
X185660980Y-109840949D01*
X185660980Y-111083952D01*
X186258172Y-111196535D01*
%TD*%
M02*
