%TF.GenerationSoftware,KiCad,Pcbnew,(5.1.7)-1*%
%TF.CreationDate,2020-11-23T19:12:34+01:00*%
%TF.ProjectId,astro_compute_board,61737472-6f5f-4636-9f6d-707574655f62,1*%
%TF.SameCoordinates,Original*%
%TF.FileFunction,Legend,Top*%
%TF.FilePolarity,Positive*%
%FSLAX46Y46*%
G04 Gerber Fmt 4.6, Leading zero omitted, Abs format (unit mm)*
G04 Created by KiCad (PCBNEW (5.1.7)-1) date 2020-11-23 19:12:34*
%MOMM*%
%LPD*%
G01*
G04 APERTURE LIST*
%ADD10C,0.150000*%
%ADD11C,0.120000*%
%ADD12C,0.125000*%
G04 APERTURE END LIST*
D10*
X154977380Y-111329047D02*
X155691666Y-111329047D01*
X155834523Y-111376666D01*
X155929761Y-111471904D01*
X155977380Y-111614761D01*
X155977380Y-111710000D01*
X155977380Y-110376666D02*
X155977380Y-110852857D01*
X154977380Y-110852857D01*
X155882142Y-109471904D02*
X155929761Y-109519523D01*
X155977380Y-109662380D01*
X155977380Y-109757619D01*
X155929761Y-109900476D01*
X155834523Y-109995714D01*
X155739285Y-110043333D01*
X155548809Y-110090952D01*
X155405952Y-110090952D01*
X155215476Y-110043333D01*
X155120238Y-109995714D01*
X155025000Y-109900476D01*
X154977380Y-109757619D01*
X154977380Y-109662380D01*
X155025000Y-109519523D01*
X155072619Y-109471904D01*
X154977380Y-108757619D02*
X155691666Y-108757619D01*
X155834523Y-108805238D01*
X155929761Y-108900476D01*
X155977380Y-109043333D01*
X155977380Y-109138571D01*
X155977380Y-107805238D02*
X155977380Y-108281428D01*
X154977380Y-108281428D01*
X155882142Y-106900476D02*
X155929761Y-106948095D01*
X155977380Y-107090952D01*
X155977380Y-107186190D01*
X155929761Y-107329047D01*
X155834523Y-107424285D01*
X155739285Y-107471904D01*
X155548809Y-107519523D01*
X155405952Y-107519523D01*
X155215476Y-107471904D01*
X155120238Y-107424285D01*
X155025000Y-107329047D01*
X154977380Y-107186190D01*
X154977380Y-107090952D01*
X155025000Y-106948095D01*
X155072619Y-106900476D01*
X154977380Y-106186190D02*
X155691666Y-106186190D01*
X155834523Y-106233809D01*
X155929761Y-106329047D01*
X155977380Y-106471904D01*
X155977380Y-106567142D01*
X155977380Y-105233809D02*
X155977380Y-105710000D01*
X154977380Y-105710000D01*
X155882142Y-104329047D02*
X155929761Y-104376666D01*
X155977380Y-104519523D01*
X155977380Y-104614761D01*
X155929761Y-104757619D01*
X155834523Y-104852857D01*
X155739285Y-104900476D01*
X155548809Y-104948095D01*
X155405952Y-104948095D01*
X155215476Y-104900476D01*
X155120238Y-104852857D01*
X155025000Y-104757619D01*
X154977380Y-104614761D01*
X154977380Y-104519523D01*
X155025000Y-104376666D01*
X155072619Y-104329047D01*
X154977380Y-103614761D02*
X155691666Y-103614761D01*
X155834523Y-103662380D01*
X155929761Y-103757619D01*
X155977380Y-103900476D01*
X155977380Y-103995714D01*
X155977380Y-102662380D02*
X155977380Y-103138571D01*
X154977380Y-103138571D01*
X155882142Y-101757619D02*
X155929761Y-101805238D01*
X155977380Y-101948095D01*
X155977380Y-102043333D01*
X155929761Y-102186190D01*
X155834523Y-102281428D01*
X155739285Y-102329047D01*
X155548809Y-102376666D01*
X155405952Y-102376666D01*
X155215476Y-102329047D01*
X155120238Y-102281428D01*
X155025000Y-102186190D01*
X154977380Y-102043333D01*
X154977380Y-101948095D01*
X155025000Y-101805238D01*
X155072619Y-101757619D01*
D11*
X200589721Y-127160000D02*
G75*
G03*
X200589721Y-127160000I-44721J0D01*
G01*
X193549721Y-128270000D02*
G75*
G03*
X193549721Y-128270000I-44721J0D01*
G01*
X181807426Y-155950000D02*
G75*
G03*
X181807426Y-155950000I-42426J0D01*
G01*
X160121569Y-122820000D02*
G75*
G03*
X160121569Y-122820000I-56569J0D01*
G01*
X175831569Y-136460000D02*
G75*
G03*
X175831569Y-136460000I-56569J0D01*
G01*
D10*
X157177380Y-98859523D02*
X156177380Y-98859523D01*
X156177380Y-98478571D01*
X156225000Y-98383333D01*
X156272619Y-98335714D01*
X156367857Y-98288095D01*
X156510714Y-98288095D01*
X156605952Y-98335714D01*
X156653571Y-98383333D01*
X156701190Y-98478571D01*
X156701190Y-98859523D01*
X156177380Y-97669047D02*
X156177380Y-97478571D01*
X156225000Y-97383333D01*
X156320238Y-97288095D01*
X156510714Y-97240476D01*
X156844047Y-97240476D01*
X157034523Y-97288095D01*
X157129761Y-97383333D01*
X157177380Y-97478571D01*
X157177380Y-97669047D01*
X157129761Y-97764285D01*
X157034523Y-97859523D01*
X156844047Y-97907142D01*
X156510714Y-97907142D01*
X156320238Y-97859523D01*
X156225000Y-97764285D01*
X156177380Y-97669047D01*
X156177380Y-96907142D02*
X157177380Y-96669047D01*
X156463095Y-96478571D01*
X157177380Y-96288095D01*
X156177380Y-96050000D01*
X156653571Y-95669047D02*
X156653571Y-95335714D01*
X157177380Y-95192857D02*
X157177380Y-95669047D01*
X156177380Y-95669047D01*
X156177380Y-95192857D01*
X157177380Y-94192857D02*
X156701190Y-94526190D01*
X157177380Y-94764285D02*
X156177380Y-94764285D01*
X156177380Y-94383333D01*
X156225000Y-94288095D01*
X156272619Y-94240476D01*
X156367857Y-94192857D01*
X156510714Y-94192857D01*
X156605952Y-94240476D01*
X156653571Y-94288095D01*
X156701190Y-94383333D01*
X156701190Y-94764285D01*
X197163095Y-100692857D02*
X198686904Y-100692857D01*
X197925000Y-101454761D02*
X197925000Y-99930952D01*
X183063095Y-97692857D02*
X184586904Y-97692857D01*
X183825000Y-98454761D02*
X183825000Y-96930952D01*
X168363095Y-97792857D02*
X169886904Y-97792857D01*
X169125000Y-98554761D02*
X169125000Y-97030952D01*
D12*
X164667857Y-149676190D02*
X164382142Y-149676190D01*
X164525000Y-149676190D02*
X164525000Y-149176190D01*
X164477380Y-149247619D01*
X164429761Y-149295238D01*
X164382142Y-149319047D01*
X194467857Y-156076190D02*
X194182142Y-156076190D01*
X194325000Y-156076190D02*
X194325000Y-155576190D01*
X194277380Y-155647619D01*
X194229761Y-155695238D01*
X194182142Y-155719047D01*
X195929761Y-148176190D02*
X195644047Y-148176190D01*
X195786904Y-148176190D02*
X195786904Y-147676190D01*
X195739285Y-147747619D01*
X195691666Y-147795238D01*
X195644047Y-147819047D01*
X196239285Y-147676190D02*
X196286904Y-147676190D01*
X196334523Y-147700000D01*
X196358333Y-147723809D01*
X196382142Y-147771428D01*
X196405952Y-147866666D01*
X196405952Y-147985714D01*
X196382142Y-148080952D01*
X196358333Y-148128571D01*
X196334523Y-148152380D01*
X196286904Y-148176190D01*
X196239285Y-148176190D01*
X196191666Y-148152380D01*
X196167857Y-148128571D01*
X196144047Y-148080952D01*
X196120238Y-147985714D01*
X196120238Y-147866666D01*
X196144047Y-147771428D01*
X196167857Y-147723809D01*
X196191666Y-147700000D01*
X196239285Y-147676190D01*
X202167857Y-140576190D02*
X201882142Y-140576190D01*
X202025000Y-140576190D02*
X202025000Y-140076190D01*
X201977380Y-140147619D01*
X201929761Y-140195238D01*
X201882142Y-140219047D01*
D10*
X203377380Y-104188095D02*
X202901190Y-104521428D01*
X203377380Y-104759523D02*
X202377380Y-104759523D01*
X202377380Y-104378571D01*
X202425000Y-104283333D01*
X202472619Y-104235714D01*
X202567857Y-104188095D01*
X202710714Y-104188095D01*
X202805952Y-104235714D01*
X202853571Y-104283333D01*
X202901190Y-104378571D01*
X202901190Y-104759523D01*
X202377380Y-103759523D02*
X203186904Y-103759523D01*
X203282142Y-103711904D01*
X203329761Y-103664285D01*
X203377380Y-103569047D01*
X203377380Y-103378571D01*
X203329761Y-103283333D01*
X203282142Y-103235714D01*
X203186904Y-103188095D01*
X202377380Y-103188095D01*
X203377380Y-102711904D02*
X202377380Y-102711904D01*
X203377380Y-102140476D01*
X202377380Y-102140476D01*
D11*
%TO.C,U1*%
X176390000Y-136740000D02*
X175050000Y-136740000D01*
X176390000Y-135790000D02*
X176390000Y-136740000D01*
X177340000Y-135790000D02*
X176390000Y-135790000D01*
X186610000Y-135790000D02*
X186610000Y-136740000D01*
X185660000Y-135790000D02*
X186610000Y-135790000D01*
X176390000Y-146010000D02*
X176390000Y-145060000D01*
X177340000Y-146010000D02*
X176390000Y-146010000D01*
X186610000Y-146010000D02*
X186610000Y-145060000D01*
X185660000Y-146010000D02*
X186610000Y-146010000D01*
%TO.C,J6*%
X199262500Y-129750000D02*
X199262500Y-129300000D01*
X201112500Y-129750000D02*
X199262500Y-129750000D01*
X203662500Y-121950000D02*
X203412500Y-121950000D01*
X203662500Y-129750000D02*
X203412500Y-129750000D01*
X201112500Y-121950000D02*
X199262500Y-121950000D01*
X199262500Y-121950000D02*
X199262500Y-122400000D01*
X198712500Y-127550000D02*
X198712500Y-127100000D01*
X198712500Y-127550000D02*
X199162500Y-127550000D01*
%TO.C,R17*%
X184271359Y-150830000D02*
X184578641Y-150830000D01*
X184271359Y-150070000D02*
X184578641Y-150070000D01*
%TO.C,C6*%
X187985000Y-135577836D02*
X187985000Y-135362164D01*
X187265000Y-135577836D02*
X187265000Y-135362164D01*
%TO.C,Y1*%
X169925000Y-137200000D02*
X169925000Y-141200000D01*
X173225000Y-137200000D02*
X169925000Y-137200000D01*
%TO.C,USART1*%
X201785000Y-131490000D02*
X201785000Y-134975000D01*
X196065000Y-131490000D02*
X201785000Y-131490000D01*
X196065000Y-132560000D02*
X196065000Y-131490000D01*
X196365000Y-132560000D02*
X196065000Y-132560000D01*
X196365000Y-134975000D02*
X196365000Y-132560000D01*
X201785000Y-138460000D02*
X201785000Y-134975000D01*
X196065000Y-138460000D02*
X201785000Y-138460000D01*
X196065000Y-137390000D02*
X196065000Y-138460000D01*
X196365000Y-137390000D02*
X196065000Y-137390000D01*
X196365000Y-134975000D02*
X196365000Y-137390000D01*
X195775000Y-137100000D02*
X195775000Y-137600000D01*
X196075000Y-137100000D02*
X195775000Y-137100000D01*
%TO.C,U5*%
X178287500Y-156585000D02*
X181212500Y-156585000D01*
X178287500Y-156585000D02*
X176787500Y-156585000D01*
X178287500Y-153365000D02*
X179787500Y-153365000D01*
X178287500Y-153365000D02*
X176787500Y-153365000D01*
%TO.C,U4*%
X166835000Y-137000000D02*
X166835000Y-143010000D01*
X160015000Y-139250000D02*
X160015000Y-143010000D01*
X166835000Y-143010000D02*
X165575000Y-143010000D01*
X160015000Y-143010000D02*
X161275000Y-143010000D01*
%TO.C,U3*%
X194085000Y-131350000D02*
X194085000Y-128900000D01*
X190865000Y-129550000D02*
X190865000Y-131350000D01*
%TO.C,U2*%
X163700000Y-123475000D02*
X160250000Y-123475000D01*
X163700000Y-123475000D02*
X165650000Y-123475000D01*
X163700000Y-128595000D02*
X161750000Y-128595000D01*
X163700000Y-128595000D02*
X165650000Y-128595000D01*
%TO.C,BOOT*%
X202245000Y-106450000D02*
X201455000Y-106450000D01*
X201455000Y-113350000D02*
X202245000Y-113350000D01*
X200405000Y-111500000D02*
X200405000Y-109800000D01*
X203255000Y-112750000D02*
X203255000Y-107050000D01*
X204545000Y-110000000D02*
X203255000Y-110000000D01*
X204755000Y-111100000D02*
X204755000Y-110200000D01*
X203255000Y-111300000D02*
X204545000Y-111300000D01*
X204545000Y-110000000D02*
X204755000Y-110200000D01*
X204545000Y-111300000D02*
X204755000Y-111100000D01*
X200405000Y-108500000D02*
X200405000Y-108300000D01*
%TO.C,R24*%
X166312742Y-113972500D02*
X166787258Y-113972500D01*
X166312742Y-112927500D02*
X166787258Y-112927500D01*
%TO.C,R23*%
X169802500Y-114837742D02*
X169802500Y-115312258D01*
X170847500Y-114837742D02*
X170847500Y-115312258D01*
%TO.C,R22*%
X184502500Y-115337742D02*
X184502500Y-115812258D01*
X185547500Y-115337742D02*
X185547500Y-115812258D01*
%TO.C,R21*%
X180785436Y-149985000D02*
X181239564Y-149985000D01*
X180785436Y-148515000D02*
X181239564Y-148515000D01*
%TO.C,R20*%
X180810436Y-152185000D02*
X181264564Y-152185000D01*
X180810436Y-150715000D02*
X181264564Y-150715000D01*
%TO.C,R19*%
X175696500Y-122374758D02*
X175696500Y-121900242D01*
X174651500Y-122374758D02*
X174651500Y-121900242D01*
%TO.C,R18*%
X170847500Y-118962258D02*
X170847500Y-118487742D01*
X169802500Y-118962258D02*
X169802500Y-118487742D01*
%TO.C,R16*%
X188446500Y-147318859D02*
X188446500Y-147626141D01*
X189206500Y-147318859D02*
X189206500Y-147626141D01*
%TO.C,R15*%
X184045000Y-153406359D02*
X184045000Y-153713641D01*
X184805000Y-153406359D02*
X184805000Y-153713641D01*
%TO.C,R14*%
X184045000Y-155606359D02*
X184045000Y-155913641D01*
X184805000Y-155606359D02*
X184805000Y-155913641D01*
%TO.C,R13*%
X194968641Y-134020000D02*
X194661359Y-134020000D01*
X194968641Y-134780000D02*
X194661359Y-134780000D01*
%TO.C,R12*%
X194968641Y-135270000D02*
X194661359Y-135270000D01*
X194968641Y-136030000D02*
X194661359Y-136030000D01*
%TO.C,R11*%
X184502500Y-118587742D02*
X184502500Y-119062258D01*
X185547500Y-118587742D02*
X185547500Y-119062258D01*
%TO.C,R10*%
X185634758Y-120980500D02*
X185160242Y-120980500D01*
X185634758Y-122025500D02*
X185160242Y-122025500D01*
%TO.C,R9*%
X171505500Y-129740758D02*
X171505500Y-129266242D01*
X170460500Y-129740758D02*
X170460500Y-129266242D01*
%TO.C,R8*%
X165837258Y-129227500D02*
X165362742Y-129227500D01*
X165837258Y-130272500D02*
X165362742Y-130272500D01*
%TO.C,R7*%
X169447500Y-133087258D02*
X169447500Y-132612742D01*
X168402500Y-133087258D02*
X168402500Y-132612742D01*
%TO.C,R6*%
X169047500Y-124762258D02*
X169047500Y-124287742D01*
X168002500Y-124762258D02*
X168002500Y-124287742D01*
%TO.C,R5*%
X174990000Y-128510436D02*
X174990000Y-128964564D01*
X176460000Y-128510436D02*
X176460000Y-128964564D01*
%TO.C,R4*%
X172590000Y-128510436D02*
X172590000Y-128964564D01*
X174060000Y-128510436D02*
X174060000Y-128964564D01*
%TO.C,R3*%
X174762742Y-149922500D02*
X175237258Y-149922500D01*
X174762742Y-148877500D02*
X175237258Y-148877500D01*
%TO.C,R2*%
X173545000Y-140246359D02*
X173545000Y-140553641D01*
X174305000Y-140246359D02*
X174305000Y-140553641D01*
%TO.C,R1*%
X199178000Y-115890359D02*
X199178000Y-116197641D01*
X199938000Y-115890359D02*
X199938000Y-116197641D01*
%TO.C,Q3*%
X181015000Y-115000000D02*
X181015000Y-116100000D01*
X182825000Y-115000000D02*
X181015000Y-115000000D01*
X182825000Y-113500000D02*
X182825000Y-115000000D01*
X174235000Y-115000000D02*
X174235000Y-120125000D01*
X172425000Y-115000000D02*
X174235000Y-115000000D01*
X172425000Y-113500000D02*
X172425000Y-115000000D01*
%TO.C,Q2*%
X195440000Y-114950000D02*
X195440000Y-116050000D01*
X197250000Y-114950000D02*
X195440000Y-114950000D01*
X197250000Y-113450000D02*
X197250000Y-114950000D01*
X188660000Y-114950000D02*
X188660000Y-120075000D01*
X186850000Y-114950000D02*
X188660000Y-114950000D01*
X186850000Y-113450000D02*
X186850000Y-114950000D01*
%TO.C,Q1*%
X164230000Y-111495000D02*
X164230000Y-112595000D01*
X164500000Y-111495000D02*
X164230000Y-111495000D01*
X164500000Y-109995000D02*
X164500000Y-111495000D01*
X157870000Y-111495000D02*
X157870000Y-114325000D01*
X157600000Y-111495000D02*
X157870000Y-111495000D01*
X157600000Y-109995000D02*
X157600000Y-111495000D01*
%TO.C,L2*%
X156525000Y-135200000D02*
X157675000Y-135200000D01*
X161925000Y-135200000D02*
X160775000Y-135200000D01*
X156525000Y-129600000D02*
X157675000Y-129600000D01*
X161925000Y-129600000D02*
X160775000Y-129600000D01*
X156525000Y-129600000D02*
X156525000Y-135200000D01*
X161925000Y-129600000D02*
X161925000Y-135200000D01*
%TO.C,ADC*%
X171785000Y-156210000D02*
X167675000Y-156210000D01*
X171785000Y-150490000D02*
X171785000Y-156210000D01*
X170715000Y-150490000D02*
X171785000Y-150490000D01*
X170715000Y-150790000D02*
X170715000Y-150490000D01*
X167675000Y-150790000D02*
X170715000Y-150790000D01*
X163565000Y-156210000D02*
X167675000Y-156210000D01*
X163565000Y-150490000D02*
X163565000Y-156210000D01*
X164635000Y-150490000D02*
X163565000Y-150490000D01*
X164635000Y-150790000D02*
X164635000Y-150490000D01*
X167675000Y-150790000D02*
X164635000Y-150790000D01*
X164925000Y-150200000D02*
X164425000Y-150200000D01*
X164925000Y-150500000D02*
X164925000Y-150200000D01*
%TO.C,J9*%
X167965000Y-93840000D02*
X157805000Y-93840000D01*
X167965000Y-101460000D02*
X167965000Y-93840000D01*
X157805000Y-101460000D02*
X167965000Y-101460000D01*
X157805000Y-93840000D02*
X157805000Y-101460000D01*
X157805000Y-95110000D02*
X167965000Y-95110000D01*
%TO.C,J8*%
X154005000Y-151100000D02*
X152675000Y-151100000D01*
X154005000Y-149770000D02*
X154005000Y-151100000D01*
X151405000Y-151100000D02*
X148805000Y-151100000D01*
X151405000Y-148500000D02*
X151405000Y-151100000D01*
X154005000Y-148500000D02*
X151405000Y-148500000D01*
X148805000Y-151100000D02*
X148805000Y-100180000D01*
X154005000Y-148500000D02*
X154005000Y-100180000D01*
X154005000Y-100180000D02*
X148805000Y-100180000D01*
%TO.C,SWD*%
X187960000Y-150190000D02*
X187960000Y-150125000D01*
X191490000Y-150190000D02*
X191490000Y-150125000D01*
X187960000Y-156595000D02*
X187960000Y-156530000D01*
X191490000Y-156595000D02*
X191490000Y-156530000D01*
X192815000Y-156530000D02*
X191490000Y-156530000D01*
X191490000Y-150125000D02*
X187960000Y-150125000D01*
X191490000Y-156595000D02*
X187960000Y-156595000D01*
%TO.C,Heater2*%
X182565000Y-93840000D02*
X172405000Y-93840000D01*
X182565000Y-101460000D02*
X182565000Y-93840000D01*
X172405000Y-101460000D02*
X182565000Y-101460000D01*
X172405000Y-93840000D02*
X172405000Y-101460000D01*
X172405000Y-95110000D02*
X182565000Y-95110000D01*
%TO.C,Heater1*%
X196715000Y-93830000D02*
X186555000Y-93830000D01*
X196715000Y-101450000D02*
X196715000Y-93830000D01*
X186555000Y-101450000D02*
X196715000Y-101450000D01*
X186555000Y-93830000D02*
X186555000Y-101450000D01*
X186555000Y-95100000D02*
X196715000Y-95100000D01*
%TO.C,GPIO*%
X195415000Y-145865000D02*
X195350000Y-145865000D01*
X195415000Y-142335000D02*
X195350000Y-142335000D01*
X201820000Y-145865000D02*
X201755000Y-145865000D01*
X201820000Y-142335000D02*
X201755000Y-142335000D01*
X201755000Y-141010000D02*
X201755000Y-142335000D01*
X195350000Y-142335000D02*
X195350000Y-145865000D01*
X201820000Y-142335000D02*
X201820000Y-145865000D01*
%TO.C,FB1*%
X159912878Y-117410000D02*
X160712122Y-117410000D01*
X159912878Y-116290000D02*
X160712122Y-116290000D01*
%TO.C,F1*%
X165865000Y-105247936D02*
X165865000Y-106452064D01*
X167685000Y-105247936D02*
X167685000Y-106452064D01*
%TO.C,D5*%
X166440000Y-108777500D02*
X166440000Y-111062500D01*
X167910000Y-108777500D02*
X166440000Y-108777500D01*
X167910000Y-111062500D02*
X167910000Y-108777500D01*
%TO.C,D4*%
X169690000Y-110177500D02*
X169690000Y-112462500D01*
X171160000Y-110177500D02*
X169690000Y-110177500D01*
X171160000Y-112462500D02*
X171160000Y-110177500D01*
%TO.C,D3*%
X184190000Y-110877500D02*
X184190000Y-113162500D01*
X185660000Y-110877500D02*
X184190000Y-110877500D01*
X185660000Y-113162500D02*
X185660000Y-110877500D01*
%TO.C,D2*%
X162675000Y-115850000D02*
X166575000Y-115850000D01*
X162675000Y-117850000D02*
X166575000Y-117850000D01*
X162675000Y-115850000D02*
X162675000Y-117850000D01*
%TO.C,D1*%
X173477500Y-148385000D02*
X175762500Y-148385000D01*
X173477500Y-146915000D02*
X173477500Y-148385000D01*
X175762500Y-146915000D02*
X173477500Y-146915000D01*
%TO.C,C20*%
X167575000Y-134787252D02*
X167575000Y-133364748D01*
X165755000Y-134787252D02*
X165755000Y-133364748D01*
%TO.C,C19*%
X157246000Y-143383248D02*
X157246000Y-144805752D01*
X159066000Y-143383248D02*
X159066000Y-144805752D01*
%TO.C,C18*%
X157761252Y-136440000D02*
X156338748Y-136440000D01*
X157761252Y-138260000D02*
X156338748Y-138260000D01*
%TO.C,C17*%
X169835000Y-129436252D02*
X169835000Y-128013748D01*
X168015000Y-129436252D02*
X168015000Y-128013748D01*
%TO.C,C16*%
X159335000Y-126086252D02*
X159335000Y-124663748D01*
X157515000Y-126086252D02*
X157515000Y-124663748D01*
%TO.C,C15*%
X157711252Y-139340000D02*
X156288748Y-139340000D01*
X157711252Y-141160000D02*
X156288748Y-141160000D01*
%TO.C,C14*%
X167085000Y-121336252D02*
X167085000Y-119913748D01*
X165265000Y-121336252D02*
X165265000Y-119913748D01*
%TO.C,C13*%
X159988748Y-120560000D02*
X161411252Y-120560000D01*
X159988748Y-118740000D02*
X161411252Y-118740000D01*
%TO.C,C12*%
X171436336Y-141717000D02*
X171220664Y-141717000D01*
X171436336Y-142437000D02*
X171220664Y-142437000D01*
%TO.C,C11*%
X171587164Y-136660000D02*
X171802836Y-136660000D01*
X171587164Y-135940000D02*
X171802836Y-135940000D01*
%TO.C,C10*%
X169439836Y-143495000D02*
X169224164Y-143495000D01*
X169439836Y-144215000D02*
X169224164Y-144215000D01*
%TO.C,C9*%
X168388336Y-144574500D02*
X168172664Y-144574500D01*
X168388336Y-145294500D02*
X168172664Y-145294500D01*
%TO.C,C8*%
X174385000Y-136577836D02*
X174385000Y-136362164D01*
X173665000Y-136577836D02*
X173665000Y-136362164D01*
%TO.C,C7*%
X177885000Y-132977836D02*
X177885000Y-132762164D01*
X177165000Y-132977836D02*
X177165000Y-132762164D01*
%TO.C,C5*%
X186817164Y-147410000D02*
X187032836Y-147410000D01*
X186817164Y-146690000D02*
X187032836Y-146690000D01*
%TO.C,C4*%
X178165000Y-148662164D02*
X178165000Y-148877836D01*
X178885000Y-148662164D02*
X178885000Y-148877836D01*
%TO.C,C3*%
X176785000Y-133577836D02*
X176785000Y-133362164D01*
X176065000Y-133577836D02*
X176065000Y-133362164D01*
%TO.C,C2*%
X189735000Y-135115580D02*
X189735000Y-134834420D01*
X188715000Y-135115580D02*
X188715000Y-134834420D01*
%TO.C,C1*%
X186009420Y-149160000D02*
X186290580Y-149160000D01*
X186009420Y-148140000D02*
X186290580Y-148140000D01*
%TO.C,U1*%
D10*
X180993095Y-132912380D02*
X180993095Y-133721904D01*
X181040714Y-133817142D01*
X181088333Y-133864761D01*
X181183571Y-133912380D01*
X181374047Y-133912380D01*
X181469285Y-133864761D01*
X181516904Y-133817142D01*
X181564523Y-133721904D01*
X181564523Y-132912380D01*
X182564523Y-133912380D02*
X181993095Y-133912380D01*
X182278809Y-133912380D02*
X182278809Y-132912380D01*
X182183571Y-133055238D01*
X182088333Y-133150476D01*
X181993095Y-133198095D01*
%TO.C,J6*%
X191891666Y-129102380D02*
X191891666Y-129816666D01*
X191844047Y-129959523D01*
X191748809Y-130054761D01*
X191605952Y-130102380D01*
X191510714Y-130102380D01*
X192796428Y-129102380D02*
X192605952Y-129102380D01*
X192510714Y-129150000D01*
X192463095Y-129197619D01*
X192367857Y-129340476D01*
X192320238Y-129530952D01*
X192320238Y-129911904D01*
X192367857Y-130007142D01*
X192415476Y-130054761D01*
X192510714Y-130102380D01*
X192701190Y-130102380D01*
X192796428Y-130054761D01*
X192844047Y-130007142D01*
X192891666Y-129911904D01*
X192891666Y-129673809D01*
X192844047Y-129578571D01*
X192796428Y-129530952D01*
X192701190Y-129483333D01*
X192510714Y-129483333D01*
X192415476Y-129530952D01*
X192367857Y-129578571D01*
X192320238Y-129673809D01*
%TO.C,R17*%
D12*
X184903571Y-151576190D02*
X184736904Y-151338095D01*
X184617857Y-151576190D02*
X184617857Y-151076190D01*
X184808333Y-151076190D01*
X184855952Y-151100000D01*
X184879761Y-151123809D01*
X184903571Y-151171428D01*
X184903571Y-151242857D01*
X184879761Y-151290476D01*
X184855952Y-151314285D01*
X184808333Y-151338095D01*
X184617857Y-151338095D01*
X185379761Y-151576190D02*
X185094047Y-151576190D01*
X185236904Y-151576190D02*
X185236904Y-151076190D01*
X185189285Y-151147619D01*
X185141666Y-151195238D01*
X185094047Y-151219047D01*
X185546428Y-151076190D02*
X185879761Y-151076190D01*
X185665476Y-151576190D01*
%TO.C,C6*%
D10*
X186852142Y-134726666D02*
X186899761Y-134774285D01*
X186947380Y-134917142D01*
X186947380Y-135012380D01*
X186899761Y-135155238D01*
X186804523Y-135250476D01*
X186709285Y-135298095D01*
X186518809Y-135345714D01*
X186375952Y-135345714D01*
X186185476Y-135298095D01*
X186090238Y-135250476D01*
X185995000Y-135155238D01*
X185947380Y-135012380D01*
X185947380Y-134917142D01*
X185995000Y-134774285D01*
X186042619Y-134726666D01*
X185947380Y-133869523D02*
X185947380Y-134060000D01*
X185995000Y-134155238D01*
X186042619Y-134202857D01*
X186185476Y-134298095D01*
X186375952Y-134345714D01*
X186756904Y-134345714D01*
X186852142Y-134298095D01*
X186899761Y-134250476D01*
X186947380Y-134155238D01*
X186947380Y-133964761D01*
X186899761Y-133869523D01*
X186852142Y-133821904D01*
X186756904Y-133774285D01*
X186518809Y-133774285D01*
X186423571Y-133821904D01*
X186375952Y-133869523D01*
X186328333Y-133964761D01*
X186328333Y-134155238D01*
X186375952Y-134250476D01*
X186423571Y-134298095D01*
X186518809Y-134345714D01*
%TO.C,Y1*%
X169191190Y-139286190D02*
X169667380Y-139286190D01*
X168667380Y-139619523D02*
X169191190Y-139286190D01*
X168667380Y-138952857D01*
X169667380Y-138095714D02*
X169667380Y-138667142D01*
X169667380Y-138381428D02*
X168667380Y-138381428D01*
X168810238Y-138476666D01*
X168905476Y-138571904D01*
X168953095Y-138667142D01*
%TO.C,USART1*%
X202377380Y-137447619D02*
X203186904Y-137447619D01*
X203282142Y-137400000D01*
X203329761Y-137352380D01*
X203377380Y-137257142D01*
X203377380Y-137066666D01*
X203329761Y-136971428D01*
X203282142Y-136923809D01*
X203186904Y-136876190D01*
X202377380Y-136876190D01*
X203329761Y-136447619D02*
X203377380Y-136304761D01*
X203377380Y-136066666D01*
X203329761Y-135971428D01*
X203282142Y-135923809D01*
X203186904Y-135876190D01*
X203091666Y-135876190D01*
X202996428Y-135923809D01*
X202948809Y-135971428D01*
X202901190Y-136066666D01*
X202853571Y-136257142D01*
X202805952Y-136352380D01*
X202758333Y-136400000D01*
X202663095Y-136447619D01*
X202567857Y-136447619D01*
X202472619Y-136400000D01*
X202425000Y-136352380D01*
X202377380Y-136257142D01*
X202377380Y-136019047D01*
X202425000Y-135876190D01*
X203091666Y-135495238D02*
X203091666Y-135019047D01*
X203377380Y-135590476D02*
X202377380Y-135257142D01*
X203377380Y-134923809D01*
X203377380Y-134019047D02*
X202901190Y-134352380D01*
X203377380Y-134590476D02*
X202377380Y-134590476D01*
X202377380Y-134209523D01*
X202425000Y-134114285D01*
X202472619Y-134066666D01*
X202567857Y-134019047D01*
X202710714Y-134019047D01*
X202805952Y-134066666D01*
X202853571Y-134114285D01*
X202901190Y-134209523D01*
X202901190Y-134590476D01*
X202377380Y-133733333D02*
X202377380Y-133161904D01*
X203377380Y-133447619D02*
X202377380Y-133447619D01*
X203377380Y-132304761D02*
X203377380Y-132876190D01*
X203377380Y-132590476D02*
X202377380Y-132590476D01*
X202520238Y-132685714D01*
X202615476Y-132780952D01*
X202663095Y-132876190D01*
%TO.C,U5*%
X175413095Y-156877380D02*
X175413095Y-157686904D01*
X175460714Y-157782142D01*
X175508333Y-157829761D01*
X175603571Y-157877380D01*
X175794047Y-157877380D01*
X175889285Y-157829761D01*
X175936904Y-157782142D01*
X175984523Y-157686904D01*
X175984523Y-156877380D01*
X176936904Y-156877380D02*
X176460714Y-156877380D01*
X176413095Y-157353571D01*
X176460714Y-157305952D01*
X176555952Y-157258333D01*
X176794047Y-157258333D01*
X176889285Y-157305952D01*
X176936904Y-157353571D01*
X176984523Y-157448809D01*
X176984523Y-157686904D01*
X176936904Y-157782142D01*
X176889285Y-157829761D01*
X176794047Y-157877380D01*
X176555952Y-157877380D01*
X176460714Y-157829761D01*
X176413095Y-157782142D01*
%TO.C,U4*%
X162433095Y-145752380D02*
X162433095Y-146561904D01*
X162480714Y-146657142D01*
X162528333Y-146704761D01*
X162623571Y-146752380D01*
X162814047Y-146752380D01*
X162909285Y-146704761D01*
X162956904Y-146657142D01*
X163004523Y-146561904D01*
X163004523Y-145752380D01*
X163909285Y-146085714D02*
X163909285Y-146752380D01*
X163671190Y-145704761D02*
X163433095Y-146419047D01*
X164052142Y-146419047D01*
%TO.C,U3*%
X189437380Y-129711904D02*
X190246904Y-129711904D01*
X190342142Y-129664285D01*
X190389761Y-129616666D01*
X190437380Y-129521428D01*
X190437380Y-129330952D01*
X190389761Y-129235714D01*
X190342142Y-129188095D01*
X190246904Y-129140476D01*
X189437380Y-129140476D01*
X189437380Y-128759523D02*
X189437380Y-128140476D01*
X189818333Y-128473809D01*
X189818333Y-128330952D01*
X189865952Y-128235714D01*
X189913571Y-128188095D01*
X190008809Y-128140476D01*
X190246904Y-128140476D01*
X190342142Y-128188095D01*
X190389761Y-128235714D01*
X190437380Y-128330952D01*
X190437380Y-128616666D01*
X190389761Y-128711904D01*
X190342142Y-128759523D01*
%TO.C,U2*%
X160863095Y-121972380D02*
X160863095Y-122781904D01*
X160910714Y-122877142D01*
X160958333Y-122924761D01*
X161053571Y-122972380D01*
X161244047Y-122972380D01*
X161339285Y-122924761D01*
X161386904Y-122877142D01*
X161434523Y-122781904D01*
X161434523Y-121972380D01*
X161863095Y-122067619D02*
X161910714Y-122020000D01*
X162005952Y-121972380D01*
X162244047Y-121972380D01*
X162339285Y-122020000D01*
X162386904Y-122067619D01*
X162434523Y-122162857D01*
X162434523Y-122258095D01*
X162386904Y-122400952D01*
X161815476Y-122972380D01*
X162434523Y-122972380D01*
%TO.C,BOOT*%
X202853571Y-118007142D02*
X202901190Y-117864285D01*
X202948809Y-117816666D01*
X203044047Y-117769047D01*
X203186904Y-117769047D01*
X203282142Y-117816666D01*
X203329761Y-117864285D01*
X203377380Y-117959523D01*
X203377380Y-118340476D01*
X202377380Y-118340476D01*
X202377380Y-118007142D01*
X202425000Y-117911904D01*
X202472619Y-117864285D01*
X202567857Y-117816666D01*
X202663095Y-117816666D01*
X202758333Y-117864285D01*
X202805952Y-117911904D01*
X202853571Y-118007142D01*
X202853571Y-118340476D01*
X202377380Y-117150000D02*
X202377380Y-116959523D01*
X202425000Y-116864285D01*
X202520238Y-116769047D01*
X202710714Y-116721428D01*
X203044047Y-116721428D01*
X203234523Y-116769047D01*
X203329761Y-116864285D01*
X203377380Y-116959523D01*
X203377380Y-117150000D01*
X203329761Y-117245238D01*
X203234523Y-117340476D01*
X203044047Y-117388095D01*
X202710714Y-117388095D01*
X202520238Y-117340476D01*
X202425000Y-117245238D01*
X202377380Y-117150000D01*
X202377380Y-116102380D02*
X202377380Y-115911904D01*
X202425000Y-115816666D01*
X202520238Y-115721428D01*
X202710714Y-115673809D01*
X203044047Y-115673809D01*
X203234523Y-115721428D01*
X203329761Y-115816666D01*
X203377380Y-115911904D01*
X203377380Y-116102380D01*
X203329761Y-116197619D01*
X203234523Y-116292857D01*
X203044047Y-116340476D01*
X202710714Y-116340476D01*
X202520238Y-116292857D01*
X202425000Y-116197619D01*
X202377380Y-116102380D01*
X202377380Y-115388095D02*
X202377380Y-114816666D01*
X203377380Y-115102380D02*
X202377380Y-115102380D01*
%TO.C,R24*%
X166127380Y-111952857D02*
X165651190Y-112286190D01*
X166127380Y-112524285D02*
X165127380Y-112524285D01*
X165127380Y-112143333D01*
X165175000Y-112048095D01*
X165222619Y-112000476D01*
X165317857Y-111952857D01*
X165460714Y-111952857D01*
X165555952Y-112000476D01*
X165603571Y-112048095D01*
X165651190Y-112143333D01*
X165651190Y-112524285D01*
X165222619Y-111571904D02*
X165175000Y-111524285D01*
X165127380Y-111429047D01*
X165127380Y-111190952D01*
X165175000Y-111095714D01*
X165222619Y-111048095D01*
X165317857Y-111000476D01*
X165413095Y-111000476D01*
X165555952Y-111048095D01*
X166127380Y-111619523D01*
X166127380Y-111000476D01*
X165460714Y-110143333D02*
X166127380Y-110143333D01*
X165079761Y-110381428D02*
X165794047Y-110619523D01*
X165794047Y-110000476D01*
%TO.C,R23*%
X169237380Y-115742857D02*
X168761190Y-116076190D01*
X169237380Y-116314285D02*
X168237380Y-116314285D01*
X168237380Y-115933333D01*
X168285000Y-115838095D01*
X168332619Y-115790476D01*
X168427857Y-115742857D01*
X168570714Y-115742857D01*
X168665952Y-115790476D01*
X168713571Y-115838095D01*
X168761190Y-115933333D01*
X168761190Y-116314285D01*
X168332619Y-115361904D02*
X168285000Y-115314285D01*
X168237380Y-115219047D01*
X168237380Y-114980952D01*
X168285000Y-114885714D01*
X168332619Y-114838095D01*
X168427857Y-114790476D01*
X168523095Y-114790476D01*
X168665952Y-114838095D01*
X169237380Y-115409523D01*
X169237380Y-114790476D01*
X168237380Y-114457142D02*
X168237380Y-113838095D01*
X168618333Y-114171428D01*
X168618333Y-114028571D01*
X168665952Y-113933333D01*
X168713571Y-113885714D01*
X168808809Y-113838095D01*
X169046904Y-113838095D01*
X169142142Y-113885714D01*
X169189761Y-113933333D01*
X169237380Y-114028571D01*
X169237380Y-114314285D01*
X169189761Y-114409523D01*
X169142142Y-114457142D01*
%TO.C,R22*%
X182182142Y-116702380D02*
X181848809Y-116226190D01*
X181610714Y-116702380D02*
X181610714Y-115702380D01*
X181991666Y-115702380D01*
X182086904Y-115750000D01*
X182134523Y-115797619D01*
X182182142Y-115892857D01*
X182182142Y-116035714D01*
X182134523Y-116130952D01*
X182086904Y-116178571D01*
X181991666Y-116226190D01*
X181610714Y-116226190D01*
X182563095Y-115797619D02*
X182610714Y-115750000D01*
X182705952Y-115702380D01*
X182944047Y-115702380D01*
X183039285Y-115750000D01*
X183086904Y-115797619D01*
X183134523Y-115892857D01*
X183134523Y-115988095D01*
X183086904Y-116130952D01*
X182515476Y-116702380D01*
X183134523Y-116702380D01*
X183515476Y-115797619D02*
X183563095Y-115750000D01*
X183658333Y-115702380D01*
X183896428Y-115702380D01*
X183991666Y-115750000D01*
X184039285Y-115797619D01*
X184086904Y-115892857D01*
X184086904Y-115988095D01*
X184039285Y-116130952D01*
X183467857Y-116702380D01*
X184086904Y-116702380D01*
%TO.C,R21*%
D12*
X183351190Y-149371428D02*
X183113095Y-149538095D01*
X183351190Y-149657142D02*
X182851190Y-149657142D01*
X182851190Y-149466666D01*
X182875000Y-149419047D01*
X182898809Y-149395238D01*
X182946428Y-149371428D01*
X183017857Y-149371428D01*
X183065476Y-149395238D01*
X183089285Y-149419047D01*
X183113095Y-149466666D01*
X183113095Y-149657142D01*
X182898809Y-149180952D02*
X182875000Y-149157142D01*
X182851190Y-149109523D01*
X182851190Y-148990476D01*
X182875000Y-148942857D01*
X182898809Y-148919047D01*
X182946428Y-148895238D01*
X182994047Y-148895238D01*
X183065476Y-148919047D01*
X183351190Y-149204761D01*
X183351190Y-148895238D01*
X183351190Y-148419047D02*
X183351190Y-148704761D01*
X183351190Y-148561904D02*
X182851190Y-148561904D01*
X182922619Y-148609523D01*
X182970238Y-148657142D01*
X182994047Y-148704761D01*
%TO.C,R20*%
X181803571Y-153076190D02*
X181636904Y-152838095D01*
X181517857Y-153076190D02*
X181517857Y-152576190D01*
X181708333Y-152576190D01*
X181755952Y-152600000D01*
X181779761Y-152623809D01*
X181803571Y-152671428D01*
X181803571Y-152742857D01*
X181779761Y-152790476D01*
X181755952Y-152814285D01*
X181708333Y-152838095D01*
X181517857Y-152838095D01*
X181994047Y-152623809D02*
X182017857Y-152600000D01*
X182065476Y-152576190D01*
X182184523Y-152576190D01*
X182232142Y-152600000D01*
X182255952Y-152623809D01*
X182279761Y-152671428D01*
X182279761Y-152719047D01*
X182255952Y-152790476D01*
X181970238Y-153076190D01*
X182279761Y-153076190D01*
X182589285Y-152576190D02*
X182636904Y-152576190D01*
X182684523Y-152600000D01*
X182708333Y-152623809D01*
X182732142Y-152671428D01*
X182755952Y-152766666D01*
X182755952Y-152885714D01*
X182732142Y-152980952D01*
X182708333Y-153028571D01*
X182684523Y-153052380D01*
X182636904Y-153076190D01*
X182589285Y-153076190D01*
X182541666Y-153052380D01*
X182517857Y-153028571D01*
X182494047Y-152980952D01*
X182470238Y-152885714D01*
X182470238Y-152766666D01*
X182494047Y-152671428D01*
X182517857Y-152623809D01*
X182541666Y-152600000D01*
X182589285Y-152576190D01*
%TO.C,R19*%
D10*
X174196380Y-122780357D02*
X173720190Y-123113690D01*
X174196380Y-123351785D02*
X173196380Y-123351785D01*
X173196380Y-122970833D01*
X173244000Y-122875595D01*
X173291619Y-122827976D01*
X173386857Y-122780357D01*
X173529714Y-122780357D01*
X173624952Y-122827976D01*
X173672571Y-122875595D01*
X173720190Y-122970833D01*
X173720190Y-123351785D01*
X174196380Y-121827976D02*
X174196380Y-122399404D01*
X174196380Y-122113690D02*
X173196380Y-122113690D01*
X173339238Y-122208928D01*
X173434476Y-122304166D01*
X173482095Y-122399404D01*
X174196380Y-121351785D02*
X174196380Y-121161309D01*
X174148761Y-121066071D01*
X174101142Y-121018452D01*
X173958285Y-120923214D01*
X173767809Y-120875595D01*
X173386857Y-120875595D01*
X173291619Y-120923214D01*
X173244000Y-120970833D01*
X173196380Y-121066071D01*
X173196380Y-121256547D01*
X173244000Y-121351785D01*
X173291619Y-121399404D01*
X173386857Y-121447023D01*
X173624952Y-121447023D01*
X173720190Y-121399404D01*
X173767809Y-121351785D01*
X173815428Y-121256547D01*
X173815428Y-121066071D01*
X173767809Y-120970833D01*
X173720190Y-120923214D01*
X173624952Y-120875595D01*
%TO.C,R18*%
X169347380Y-119367857D02*
X168871190Y-119701190D01*
X169347380Y-119939285D02*
X168347380Y-119939285D01*
X168347380Y-119558333D01*
X168395000Y-119463095D01*
X168442619Y-119415476D01*
X168537857Y-119367857D01*
X168680714Y-119367857D01*
X168775952Y-119415476D01*
X168823571Y-119463095D01*
X168871190Y-119558333D01*
X168871190Y-119939285D01*
X169347380Y-118415476D02*
X169347380Y-118986904D01*
X169347380Y-118701190D02*
X168347380Y-118701190D01*
X168490238Y-118796428D01*
X168585476Y-118891666D01*
X168633095Y-118986904D01*
X168775952Y-117844047D02*
X168728333Y-117939285D01*
X168680714Y-117986904D01*
X168585476Y-118034523D01*
X168537857Y-118034523D01*
X168442619Y-117986904D01*
X168395000Y-117939285D01*
X168347380Y-117844047D01*
X168347380Y-117653571D01*
X168395000Y-117558333D01*
X168442619Y-117510714D01*
X168537857Y-117463095D01*
X168585476Y-117463095D01*
X168680714Y-117510714D01*
X168728333Y-117558333D01*
X168775952Y-117653571D01*
X168775952Y-117844047D01*
X168823571Y-117939285D01*
X168871190Y-117986904D01*
X168966428Y-118034523D01*
X169156904Y-118034523D01*
X169252142Y-117986904D01*
X169299761Y-117939285D01*
X169347380Y-117844047D01*
X169347380Y-117653571D01*
X169299761Y-117558333D01*
X169252142Y-117510714D01*
X169156904Y-117463095D01*
X168966428Y-117463095D01*
X168871190Y-117510714D01*
X168823571Y-117558333D01*
X168775952Y-117653571D01*
%TO.C,R16*%
X190241666Y-147900000D02*
X189908333Y-148133333D01*
X190241666Y-148300000D02*
X189541666Y-148300000D01*
X189541666Y-148033333D01*
X189575000Y-147966666D01*
X189608333Y-147933333D01*
X189675000Y-147900000D01*
X189775000Y-147900000D01*
X189841666Y-147933333D01*
X189875000Y-147966666D01*
X189908333Y-148033333D01*
X189908333Y-148300000D01*
X190241666Y-147233333D02*
X190241666Y-147633333D01*
X190241666Y-147433333D02*
X189541666Y-147433333D01*
X189641666Y-147500000D01*
X189708333Y-147566666D01*
X189741666Y-147633333D01*
X189541666Y-146633333D02*
X189541666Y-146766666D01*
X189575000Y-146833333D01*
X189608333Y-146866666D01*
X189708333Y-146933333D01*
X189841666Y-146966666D01*
X190108333Y-146966666D01*
X190175000Y-146933333D01*
X190208333Y-146900000D01*
X190241666Y-146833333D01*
X190241666Y-146700000D01*
X190208333Y-146633333D01*
X190175000Y-146600000D01*
X190108333Y-146566666D01*
X189941666Y-146566666D01*
X189875000Y-146600000D01*
X189841666Y-146633333D01*
X189808333Y-146700000D01*
X189808333Y-146833333D01*
X189841666Y-146900000D01*
X189875000Y-146933333D01*
X189941666Y-146966666D01*
%TO.C,R15*%
D12*
X183751190Y-154571428D02*
X183513095Y-154738095D01*
X183751190Y-154857142D02*
X183251190Y-154857142D01*
X183251190Y-154666666D01*
X183275000Y-154619047D01*
X183298809Y-154595238D01*
X183346428Y-154571428D01*
X183417857Y-154571428D01*
X183465476Y-154595238D01*
X183489285Y-154619047D01*
X183513095Y-154666666D01*
X183513095Y-154857142D01*
X183751190Y-154095238D02*
X183751190Y-154380952D01*
X183751190Y-154238095D02*
X183251190Y-154238095D01*
X183322619Y-154285714D01*
X183370238Y-154333333D01*
X183394047Y-154380952D01*
X183251190Y-153642857D02*
X183251190Y-153880952D01*
X183489285Y-153904761D01*
X183465476Y-153880952D01*
X183441666Y-153833333D01*
X183441666Y-153714285D01*
X183465476Y-153666666D01*
X183489285Y-153642857D01*
X183536904Y-153619047D01*
X183655952Y-153619047D01*
X183703571Y-153642857D01*
X183727380Y-153666666D01*
X183751190Y-153714285D01*
X183751190Y-153833333D01*
X183727380Y-153880952D01*
X183703571Y-153904761D01*
%TO.C,R14*%
X183751190Y-156371428D02*
X183513095Y-156538095D01*
X183751190Y-156657142D02*
X183251190Y-156657142D01*
X183251190Y-156466666D01*
X183275000Y-156419047D01*
X183298809Y-156395238D01*
X183346428Y-156371428D01*
X183417857Y-156371428D01*
X183465476Y-156395238D01*
X183489285Y-156419047D01*
X183513095Y-156466666D01*
X183513095Y-156657142D01*
X183751190Y-155895238D02*
X183751190Y-156180952D01*
X183751190Y-156038095D02*
X183251190Y-156038095D01*
X183322619Y-156085714D01*
X183370238Y-156133333D01*
X183394047Y-156180952D01*
X183417857Y-155466666D02*
X183751190Y-155466666D01*
X183227380Y-155585714D02*
X183584523Y-155704761D01*
X183584523Y-155395238D01*
%TO.C,R13*%
D10*
X193482142Y-133562380D02*
X193148809Y-133086190D01*
X192910714Y-133562380D02*
X192910714Y-132562380D01*
X193291666Y-132562380D01*
X193386904Y-132610000D01*
X193434523Y-132657619D01*
X193482142Y-132752857D01*
X193482142Y-132895714D01*
X193434523Y-132990952D01*
X193386904Y-133038571D01*
X193291666Y-133086190D01*
X192910714Y-133086190D01*
X194434523Y-133562380D02*
X193863095Y-133562380D01*
X194148809Y-133562380D02*
X194148809Y-132562380D01*
X194053571Y-132705238D01*
X193958333Y-132800476D01*
X193863095Y-132848095D01*
X194767857Y-132562380D02*
X195386904Y-132562380D01*
X195053571Y-132943333D01*
X195196428Y-132943333D01*
X195291666Y-132990952D01*
X195339285Y-133038571D01*
X195386904Y-133133809D01*
X195386904Y-133371904D01*
X195339285Y-133467142D01*
X195291666Y-133514761D01*
X195196428Y-133562380D01*
X194910714Y-133562380D01*
X194815476Y-133514761D01*
X194767857Y-133467142D01*
%TO.C,R12*%
X193432142Y-137482380D02*
X193098809Y-137006190D01*
X192860714Y-137482380D02*
X192860714Y-136482380D01*
X193241666Y-136482380D01*
X193336904Y-136530000D01*
X193384523Y-136577619D01*
X193432142Y-136672857D01*
X193432142Y-136815714D01*
X193384523Y-136910952D01*
X193336904Y-136958571D01*
X193241666Y-137006190D01*
X192860714Y-137006190D01*
X194384523Y-137482380D02*
X193813095Y-137482380D01*
X194098809Y-137482380D02*
X194098809Y-136482380D01*
X194003571Y-136625238D01*
X193908333Y-136720476D01*
X193813095Y-136768095D01*
X194765476Y-136577619D02*
X194813095Y-136530000D01*
X194908333Y-136482380D01*
X195146428Y-136482380D01*
X195241666Y-136530000D01*
X195289285Y-136577619D01*
X195336904Y-136672857D01*
X195336904Y-136768095D01*
X195289285Y-136910952D01*
X194717857Y-137482380D01*
X195336904Y-137482380D01*
%TO.C,R11*%
X186582142Y-120102380D02*
X186248809Y-119626190D01*
X186010714Y-120102380D02*
X186010714Y-119102380D01*
X186391666Y-119102380D01*
X186486904Y-119150000D01*
X186534523Y-119197619D01*
X186582142Y-119292857D01*
X186582142Y-119435714D01*
X186534523Y-119530952D01*
X186486904Y-119578571D01*
X186391666Y-119626190D01*
X186010714Y-119626190D01*
X187534523Y-120102380D02*
X186963095Y-120102380D01*
X187248809Y-120102380D02*
X187248809Y-119102380D01*
X187153571Y-119245238D01*
X187058333Y-119340476D01*
X186963095Y-119388095D01*
X188486904Y-120102380D02*
X187915476Y-120102380D01*
X188201190Y-120102380D02*
X188201190Y-119102380D01*
X188105952Y-119245238D01*
X188010714Y-119340476D01*
X187915476Y-119388095D01*
%TO.C,R10*%
X184742142Y-123602380D02*
X184408809Y-123126190D01*
X184170714Y-123602380D02*
X184170714Y-122602380D01*
X184551666Y-122602380D01*
X184646904Y-122650000D01*
X184694523Y-122697619D01*
X184742142Y-122792857D01*
X184742142Y-122935714D01*
X184694523Y-123030952D01*
X184646904Y-123078571D01*
X184551666Y-123126190D01*
X184170714Y-123126190D01*
X185694523Y-123602380D02*
X185123095Y-123602380D01*
X185408809Y-123602380D02*
X185408809Y-122602380D01*
X185313571Y-122745238D01*
X185218333Y-122840476D01*
X185123095Y-122888095D01*
X186313571Y-122602380D02*
X186408809Y-122602380D01*
X186504047Y-122650000D01*
X186551666Y-122697619D01*
X186599285Y-122792857D01*
X186646904Y-122983333D01*
X186646904Y-123221428D01*
X186599285Y-123411904D01*
X186551666Y-123507142D01*
X186504047Y-123554761D01*
X186408809Y-123602380D01*
X186313571Y-123602380D01*
X186218333Y-123554761D01*
X186170714Y-123507142D01*
X186123095Y-123411904D01*
X186075476Y-123221428D01*
X186075476Y-122983333D01*
X186123095Y-122792857D01*
X186170714Y-122697619D01*
X186218333Y-122650000D01*
X186313571Y-122602380D01*
%TO.C,R9*%
X172627380Y-132106666D02*
X172151190Y-132440000D01*
X172627380Y-132678095D02*
X171627380Y-132678095D01*
X171627380Y-132297142D01*
X171675000Y-132201904D01*
X171722619Y-132154285D01*
X171817857Y-132106666D01*
X171960714Y-132106666D01*
X172055952Y-132154285D01*
X172103571Y-132201904D01*
X172151190Y-132297142D01*
X172151190Y-132678095D01*
X172627380Y-131630476D02*
X172627380Y-131440000D01*
X172579761Y-131344761D01*
X172532142Y-131297142D01*
X172389285Y-131201904D01*
X172198809Y-131154285D01*
X171817857Y-131154285D01*
X171722619Y-131201904D01*
X171675000Y-131249523D01*
X171627380Y-131344761D01*
X171627380Y-131535238D01*
X171675000Y-131630476D01*
X171722619Y-131678095D01*
X171817857Y-131725714D01*
X172055952Y-131725714D01*
X172151190Y-131678095D01*
X172198809Y-131630476D01*
X172246428Y-131535238D01*
X172246428Y-131344761D01*
X172198809Y-131249523D01*
X172151190Y-131201904D01*
X172055952Y-131154285D01*
%TO.C,R8*%
X166178333Y-131612380D02*
X165845000Y-131136190D01*
X165606904Y-131612380D02*
X165606904Y-130612380D01*
X165987857Y-130612380D01*
X166083095Y-130660000D01*
X166130714Y-130707619D01*
X166178333Y-130802857D01*
X166178333Y-130945714D01*
X166130714Y-131040952D01*
X166083095Y-131088571D01*
X165987857Y-131136190D01*
X165606904Y-131136190D01*
X166749761Y-131040952D02*
X166654523Y-130993333D01*
X166606904Y-130945714D01*
X166559285Y-130850476D01*
X166559285Y-130802857D01*
X166606904Y-130707619D01*
X166654523Y-130660000D01*
X166749761Y-130612380D01*
X166940238Y-130612380D01*
X167035476Y-130660000D01*
X167083095Y-130707619D01*
X167130714Y-130802857D01*
X167130714Y-130850476D01*
X167083095Y-130945714D01*
X167035476Y-130993333D01*
X166940238Y-131040952D01*
X166749761Y-131040952D01*
X166654523Y-131088571D01*
X166606904Y-131136190D01*
X166559285Y-131231428D01*
X166559285Y-131421904D01*
X166606904Y-131517142D01*
X166654523Y-131564761D01*
X166749761Y-131612380D01*
X166940238Y-131612380D01*
X167035476Y-131564761D01*
X167083095Y-131517142D01*
X167130714Y-131421904D01*
X167130714Y-131231428D01*
X167083095Y-131136190D01*
X167035476Y-131088571D01*
X166940238Y-131040952D01*
%TO.C,R7*%
X170488333Y-134292380D02*
X170155000Y-133816190D01*
X169916904Y-134292380D02*
X169916904Y-133292380D01*
X170297857Y-133292380D01*
X170393095Y-133340000D01*
X170440714Y-133387619D01*
X170488333Y-133482857D01*
X170488333Y-133625714D01*
X170440714Y-133720952D01*
X170393095Y-133768571D01*
X170297857Y-133816190D01*
X169916904Y-133816190D01*
X170821666Y-133292380D02*
X171488333Y-133292380D01*
X171059761Y-134292380D01*
%TO.C,R6*%
X170497380Y-124096666D02*
X170021190Y-124430000D01*
X170497380Y-124668095D02*
X169497380Y-124668095D01*
X169497380Y-124287142D01*
X169545000Y-124191904D01*
X169592619Y-124144285D01*
X169687857Y-124096666D01*
X169830714Y-124096666D01*
X169925952Y-124144285D01*
X169973571Y-124191904D01*
X170021190Y-124287142D01*
X170021190Y-124668095D01*
X169497380Y-123239523D02*
X169497380Y-123430000D01*
X169545000Y-123525238D01*
X169592619Y-123572857D01*
X169735476Y-123668095D01*
X169925952Y-123715714D01*
X170306904Y-123715714D01*
X170402142Y-123668095D01*
X170449761Y-123620476D01*
X170497380Y-123525238D01*
X170497380Y-123334761D01*
X170449761Y-123239523D01*
X170402142Y-123191904D01*
X170306904Y-123144285D01*
X170068809Y-123144285D01*
X169973571Y-123191904D01*
X169925952Y-123239523D01*
X169878333Y-123334761D01*
X169878333Y-123525238D01*
X169925952Y-123620476D01*
X169973571Y-123668095D01*
X170068809Y-123715714D01*
%TO.C,R5*%
X177827380Y-128904166D02*
X177351190Y-129237500D01*
X177827380Y-129475595D02*
X176827380Y-129475595D01*
X176827380Y-129094642D01*
X176875000Y-128999404D01*
X176922619Y-128951785D01*
X177017857Y-128904166D01*
X177160714Y-128904166D01*
X177255952Y-128951785D01*
X177303571Y-128999404D01*
X177351190Y-129094642D01*
X177351190Y-129475595D01*
X176827380Y-127999404D02*
X176827380Y-128475595D01*
X177303571Y-128523214D01*
X177255952Y-128475595D01*
X177208333Y-128380357D01*
X177208333Y-128142261D01*
X177255952Y-128047023D01*
X177303571Y-127999404D01*
X177398809Y-127951785D01*
X177636904Y-127951785D01*
X177732142Y-127999404D01*
X177779761Y-128047023D01*
X177827380Y-128142261D01*
X177827380Y-128380357D01*
X177779761Y-128475595D01*
X177732142Y-128523214D01*
%TO.C,R4*%
X174377380Y-131566666D02*
X173901190Y-131900000D01*
X174377380Y-132138095D02*
X173377380Y-132138095D01*
X173377380Y-131757142D01*
X173425000Y-131661904D01*
X173472619Y-131614285D01*
X173567857Y-131566666D01*
X173710714Y-131566666D01*
X173805952Y-131614285D01*
X173853571Y-131661904D01*
X173901190Y-131757142D01*
X173901190Y-132138095D01*
X173710714Y-130709523D02*
X174377380Y-130709523D01*
X173329761Y-130947619D02*
X174044047Y-131185714D01*
X174044047Y-130566666D01*
%TO.C,R3*%
X173341666Y-149466666D02*
X173008333Y-149700000D01*
X173341666Y-149866666D02*
X172641666Y-149866666D01*
X172641666Y-149600000D01*
X172675000Y-149533333D01*
X172708333Y-149500000D01*
X172775000Y-149466666D01*
X172875000Y-149466666D01*
X172941666Y-149500000D01*
X172975000Y-149533333D01*
X173008333Y-149600000D01*
X173008333Y-149866666D01*
X172641666Y-149233333D02*
X172641666Y-148800000D01*
X172908333Y-149033333D01*
X172908333Y-148933333D01*
X172941666Y-148866666D01*
X172975000Y-148833333D01*
X173041666Y-148800000D01*
X173208333Y-148800000D01*
X173275000Y-148833333D01*
X173308333Y-148866666D01*
X173341666Y-148933333D01*
X173341666Y-149133333D01*
X173308333Y-149200000D01*
X173275000Y-149233333D01*
%TO.C,R2*%
D12*
X173871666Y-139276190D02*
X173705000Y-139038095D01*
X173585952Y-139276190D02*
X173585952Y-138776190D01*
X173776428Y-138776190D01*
X173824047Y-138800000D01*
X173847857Y-138823809D01*
X173871666Y-138871428D01*
X173871666Y-138942857D01*
X173847857Y-138990476D01*
X173824047Y-139014285D01*
X173776428Y-139038095D01*
X173585952Y-139038095D01*
X174062142Y-138823809D02*
X174085952Y-138800000D01*
X174133571Y-138776190D01*
X174252619Y-138776190D01*
X174300238Y-138800000D01*
X174324047Y-138823809D01*
X174347857Y-138871428D01*
X174347857Y-138919047D01*
X174324047Y-138990476D01*
X174038333Y-139276190D01*
X174347857Y-139276190D01*
%TO.C,R1*%
D10*
X199977380Y-118216666D02*
X199501190Y-118550000D01*
X199977380Y-118788095D02*
X198977380Y-118788095D01*
X198977380Y-118407142D01*
X199025000Y-118311904D01*
X199072619Y-118264285D01*
X199167857Y-118216666D01*
X199310714Y-118216666D01*
X199405952Y-118264285D01*
X199453571Y-118311904D01*
X199501190Y-118407142D01*
X199501190Y-118788095D01*
X199977380Y-117264285D02*
X199977380Y-117835714D01*
X199977380Y-117550000D02*
X198977380Y-117550000D01*
X199120238Y-117645238D01*
X199215476Y-117740476D01*
X199263095Y-117835714D01*
%TO.C,Q3*%
X177689761Y-115057619D02*
X177594523Y-115010000D01*
X177499285Y-114914761D01*
X177356428Y-114771904D01*
X177261190Y-114724285D01*
X177165952Y-114724285D01*
X177213571Y-114962380D02*
X177118333Y-114914761D01*
X177023095Y-114819523D01*
X176975476Y-114629047D01*
X176975476Y-114295714D01*
X177023095Y-114105238D01*
X177118333Y-114010000D01*
X177213571Y-113962380D01*
X177404047Y-113962380D01*
X177499285Y-114010000D01*
X177594523Y-114105238D01*
X177642142Y-114295714D01*
X177642142Y-114629047D01*
X177594523Y-114819523D01*
X177499285Y-114914761D01*
X177404047Y-114962380D01*
X177213571Y-114962380D01*
X177975476Y-113962380D02*
X178594523Y-113962380D01*
X178261190Y-114343333D01*
X178404047Y-114343333D01*
X178499285Y-114390952D01*
X178546904Y-114438571D01*
X178594523Y-114533809D01*
X178594523Y-114771904D01*
X178546904Y-114867142D01*
X178499285Y-114914761D01*
X178404047Y-114962380D01*
X178118333Y-114962380D01*
X178023095Y-114914761D01*
X177975476Y-114867142D01*
%TO.C,Q2*%
X192279761Y-114917619D02*
X192184523Y-114870000D01*
X192089285Y-114774761D01*
X191946428Y-114631904D01*
X191851190Y-114584285D01*
X191755952Y-114584285D01*
X191803571Y-114822380D02*
X191708333Y-114774761D01*
X191613095Y-114679523D01*
X191565476Y-114489047D01*
X191565476Y-114155714D01*
X191613095Y-113965238D01*
X191708333Y-113870000D01*
X191803571Y-113822380D01*
X191994047Y-113822380D01*
X192089285Y-113870000D01*
X192184523Y-113965238D01*
X192232142Y-114155714D01*
X192232142Y-114489047D01*
X192184523Y-114679523D01*
X192089285Y-114774761D01*
X191994047Y-114822380D01*
X191803571Y-114822380D01*
X192613095Y-113917619D02*
X192660714Y-113870000D01*
X192755952Y-113822380D01*
X192994047Y-113822380D01*
X193089285Y-113870000D01*
X193136904Y-113917619D01*
X193184523Y-114012857D01*
X193184523Y-114108095D01*
X193136904Y-114250952D01*
X192565476Y-114822380D01*
X193184523Y-114822380D01*
%TO.C,Q1*%
X161059761Y-114307619D02*
X160964523Y-114260000D01*
X160869285Y-114164761D01*
X160726428Y-114021904D01*
X160631190Y-113974285D01*
X160535952Y-113974285D01*
X160583571Y-114212380D02*
X160488333Y-114164761D01*
X160393095Y-114069523D01*
X160345476Y-113879047D01*
X160345476Y-113545714D01*
X160393095Y-113355238D01*
X160488333Y-113260000D01*
X160583571Y-113212380D01*
X160774047Y-113212380D01*
X160869285Y-113260000D01*
X160964523Y-113355238D01*
X161012142Y-113545714D01*
X161012142Y-113879047D01*
X160964523Y-114069523D01*
X160869285Y-114164761D01*
X160774047Y-114212380D01*
X160583571Y-114212380D01*
X161964523Y-114212380D02*
X161393095Y-114212380D01*
X161678809Y-114212380D02*
X161678809Y-113212380D01*
X161583571Y-113355238D01*
X161488333Y-113450476D01*
X161393095Y-113498095D01*
%TO.C,L2*%
X156137380Y-130206666D02*
X156137380Y-130682857D01*
X155137380Y-130682857D01*
X155232619Y-129920952D02*
X155185000Y-129873333D01*
X155137380Y-129778095D01*
X155137380Y-129540000D01*
X155185000Y-129444761D01*
X155232619Y-129397142D01*
X155327857Y-129349523D01*
X155423095Y-129349523D01*
X155565952Y-129397142D01*
X156137380Y-129968571D01*
X156137380Y-129349523D01*
%TO.C,L1*%
X166568333Y-148212380D02*
X166092142Y-148212380D01*
X166092142Y-147212380D01*
X167425476Y-148212380D02*
X166854047Y-148212380D01*
X167139761Y-148212380D02*
X167139761Y-147212380D01*
X167044523Y-147355238D01*
X166949285Y-147450476D01*
X166854047Y-147498095D01*
%TO.C,ADC*%
X162591666Y-152588095D02*
X162591666Y-152111904D01*
X162877380Y-152683333D02*
X161877380Y-152350000D01*
X162877380Y-152016666D01*
X162877380Y-151683333D02*
X161877380Y-151683333D01*
X161877380Y-151445238D01*
X161925000Y-151302380D01*
X162020238Y-151207142D01*
X162115476Y-151159523D01*
X162305952Y-151111904D01*
X162448809Y-151111904D01*
X162639285Y-151159523D01*
X162734523Y-151207142D01*
X162829761Y-151302380D01*
X162877380Y-151445238D01*
X162877380Y-151683333D01*
X162782142Y-150111904D02*
X162829761Y-150159523D01*
X162877380Y-150302380D01*
X162877380Y-150397619D01*
X162829761Y-150540476D01*
X162734523Y-150635714D01*
X162639285Y-150683333D01*
X162448809Y-150730952D01*
X162305952Y-150730952D01*
X162115476Y-150683333D01*
X162020238Y-150635714D01*
X161925000Y-150540476D01*
X161877380Y-150397619D01*
X161877380Y-150302380D01*
X161925000Y-150159523D01*
X161972619Y-150111904D01*
%TO.C,J9*%
X162551666Y-102182380D02*
X162551666Y-102896666D01*
X162504047Y-103039523D01*
X162408809Y-103134761D01*
X162265952Y-103182380D01*
X162170714Y-103182380D01*
X163075476Y-103182380D02*
X163265952Y-103182380D01*
X163361190Y-103134761D01*
X163408809Y-103087142D01*
X163504047Y-102944285D01*
X163551666Y-102753809D01*
X163551666Y-102372857D01*
X163504047Y-102277619D01*
X163456428Y-102230000D01*
X163361190Y-102182380D01*
X163170714Y-102182380D01*
X163075476Y-102230000D01*
X163027857Y-102277619D01*
X162980238Y-102372857D01*
X162980238Y-102610952D01*
X163027857Y-102706190D01*
X163075476Y-102753809D01*
X163170714Y-102801428D01*
X163361190Y-102801428D01*
X163456428Y-102753809D01*
X163504047Y-102706190D01*
X163551666Y-102610952D01*
%TO.C,J8*%
X151071666Y-151552380D02*
X151071666Y-152266666D01*
X151024047Y-152409523D01*
X150928809Y-152504761D01*
X150785952Y-152552380D01*
X150690714Y-152552380D01*
X151690714Y-151980952D02*
X151595476Y-151933333D01*
X151547857Y-151885714D01*
X151500238Y-151790476D01*
X151500238Y-151742857D01*
X151547857Y-151647619D01*
X151595476Y-151600000D01*
X151690714Y-151552380D01*
X151881190Y-151552380D01*
X151976428Y-151600000D01*
X152024047Y-151647619D01*
X152071666Y-151742857D01*
X152071666Y-151790476D01*
X152024047Y-151885714D01*
X151976428Y-151933333D01*
X151881190Y-151980952D01*
X151690714Y-151980952D01*
X151595476Y-152028571D01*
X151547857Y-152076190D01*
X151500238Y-152171428D01*
X151500238Y-152361904D01*
X151547857Y-152457142D01*
X151595476Y-152504761D01*
X151690714Y-152552380D01*
X151881190Y-152552380D01*
X151976428Y-152504761D01*
X152024047Y-152457142D01*
X152071666Y-152361904D01*
X152071666Y-152171428D01*
X152024047Y-152076190D01*
X151976428Y-152028571D01*
X151881190Y-151980952D01*
%TO.C,SWD*%
X195229761Y-153007142D02*
X195277380Y-152864285D01*
X195277380Y-152626190D01*
X195229761Y-152530952D01*
X195182142Y-152483333D01*
X195086904Y-152435714D01*
X194991666Y-152435714D01*
X194896428Y-152483333D01*
X194848809Y-152530952D01*
X194801190Y-152626190D01*
X194753571Y-152816666D01*
X194705952Y-152911904D01*
X194658333Y-152959523D01*
X194563095Y-153007142D01*
X194467857Y-153007142D01*
X194372619Y-152959523D01*
X194325000Y-152911904D01*
X194277380Y-152816666D01*
X194277380Y-152578571D01*
X194325000Y-152435714D01*
X194277380Y-152102380D02*
X195277380Y-151864285D01*
X194563095Y-151673809D01*
X195277380Y-151483333D01*
X194277380Y-151245238D01*
X195277380Y-150864285D02*
X194277380Y-150864285D01*
X194277380Y-150626190D01*
X194325000Y-150483333D01*
X194420238Y-150388095D01*
X194515476Y-150340476D01*
X194705952Y-150292857D01*
X194848809Y-150292857D01*
X195039285Y-150340476D01*
X195134523Y-150388095D01*
X195229761Y-150483333D01*
X195277380Y-150626190D01*
X195277380Y-150864285D01*
%TO.C,Heater2*%
X177758333Y-103302380D02*
X177758333Y-102302380D01*
X177758333Y-102778571D02*
X178329761Y-102778571D01*
X178329761Y-103302380D02*
X178329761Y-102302380D01*
X179186904Y-103254761D02*
X179091666Y-103302380D01*
X178901190Y-103302380D01*
X178805952Y-103254761D01*
X178758333Y-103159523D01*
X178758333Y-102778571D01*
X178805952Y-102683333D01*
X178901190Y-102635714D01*
X179091666Y-102635714D01*
X179186904Y-102683333D01*
X179234523Y-102778571D01*
X179234523Y-102873809D01*
X178758333Y-102969047D01*
X180091666Y-103302380D02*
X180091666Y-102778571D01*
X180044047Y-102683333D01*
X179948809Y-102635714D01*
X179758333Y-102635714D01*
X179663095Y-102683333D01*
X180091666Y-103254761D02*
X179996428Y-103302380D01*
X179758333Y-103302380D01*
X179663095Y-103254761D01*
X179615476Y-103159523D01*
X179615476Y-103064285D01*
X179663095Y-102969047D01*
X179758333Y-102921428D01*
X179996428Y-102921428D01*
X180091666Y-102873809D01*
X180425000Y-102635714D02*
X180805952Y-102635714D01*
X180567857Y-102302380D02*
X180567857Y-103159523D01*
X180615476Y-103254761D01*
X180710714Y-103302380D01*
X180805952Y-103302380D01*
X181520238Y-103254761D02*
X181425000Y-103302380D01*
X181234523Y-103302380D01*
X181139285Y-103254761D01*
X181091666Y-103159523D01*
X181091666Y-102778571D01*
X181139285Y-102683333D01*
X181234523Y-102635714D01*
X181425000Y-102635714D01*
X181520238Y-102683333D01*
X181567857Y-102778571D01*
X181567857Y-102873809D01*
X181091666Y-102969047D01*
X181996428Y-103302380D02*
X181996428Y-102635714D01*
X181996428Y-102826190D02*
X182044047Y-102730952D01*
X182091666Y-102683333D01*
X182186904Y-102635714D01*
X182282142Y-102635714D01*
X182567857Y-102397619D02*
X182615476Y-102350000D01*
X182710714Y-102302380D01*
X182948809Y-102302380D01*
X183044047Y-102350000D01*
X183091666Y-102397619D01*
X183139285Y-102492857D01*
X183139285Y-102588095D01*
X183091666Y-102730952D01*
X182520238Y-103302380D01*
X183139285Y-103302380D01*
%TO.C,Heater1*%
X192108333Y-103092380D02*
X192108333Y-102092380D01*
X192108333Y-102568571D02*
X192679761Y-102568571D01*
X192679761Y-103092380D02*
X192679761Y-102092380D01*
X193536904Y-103044761D02*
X193441666Y-103092380D01*
X193251190Y-103092380D01*
X193155952Y-103044761D01*
X193108333Y-102949523D01*
X193108333Y-102568571D01*
X193155952Y-102473333D01*
X193251190Y-102425714D01*
X193441666Y-102425714D01*
X193536904Y-102473333D01*
X193584523Y-102568571D01*
X193584523Y-102663809D01*
X193108333Y-102759047D01*
X194441666Y-103092380D02*
X194441666Y-102568571D01*
X194394047Y-102473333D01*
X194298809Y-102425714D01*
X194108333Y-102425714D01*
X194013095Y-102473333D01*
X194441666Y-103044761D02*
X194346428Y-103092380D01*
X194108333Y-103092380D01*
X194013095Y-103044761D01*
X193965476Y-102949523D01*
X193965476Y-102854285D01*
X194013095Y-102759047D01*
X194108333Y-102711428D01*
X194346428Y-102711428D01*
X194441666Y-102663809D01*
X194775000Y-102425714D02*
X195155952Y-102425714D01*
X194917857Y-102092380D02*
X194917857Y-102949523D01*
X194965476Y-103044761D01*
X195060714Y-103092380D01*
X195155952Y-103092380D01*
X195870238Y-103044761D02*
X195775000Y-103092380D01*
X195584523Y-103092380D01*
X195489285Y-103044761D01*
X195441666Y-102949523D01*
X195441666Y-102568571D01*
X195489285Y-102473333D01*
X195584523Y-102425714D01*
X195775000Y-102425714D01*
X195870238Y-102473333D01*
X195917857Y-102568571D01*
X195917857Y-102663809D01*
X195441666Y-102759047D01*
X196346428Y-103092380D02*
X196346428Y-102425714D01*
X196346428Y-102616190D02*
X196394047Y-102520952D01*
X196441666Y-102473333D01*
X196536904Y-102425714D01*
X196632142Y-102425714D01*
X197489285Y-103092380D02*
X196917857Y-103092380D01*
X197203571Y-103092380D02*
X197203571Y-102092380D01*
X197108333Y-102235238D01*
X197013095Y-102330476D01*
X196917857Y-102378095D01*
%TO.C,GPIO*%
X202625000Y-145100000D02*
X202577380Y-145195238D01*
X202577380Y-145338095D01*
X202625000Y-145480952D01*
X202720238Y-145576190D01*
X202815476Y-145623809D01*
X203005952Y-145671428D01*
X203148809Y-145671428D01*
X203339285Y-145623809D01*
X203434523Y-145576190D01*
X203529761Y-145480952D01*
X203577380Y-145338095D01*
X203577380Y-145242857D01*
X203529761Y-145100000D01*
X203482142Y-145052380D01*
X203148809Y-145052380D01*
X203148809Y-145242857D01*
X203577380Y-144623809D02*
X202577380Y-144623809D01*
X202577380Y-144242857D01*
X202625000Y-144147619D01*
X202672619Y-144100000D01*
X202767857Y-144052380D01*
X202910714Y-144052380D01*
X203005952Y-144100000D01*
X203053571Y-144147619D01*
X203101190Y-144242857D01*
X203101190Y-144623809D01*
X203577380Y-143623809D02*
X202577380Y-143623809D01*
X202577380Y-142957142D02*
X202577380Y-142766666D01*
X202625000Y-142671428D01*
X202720238Y-142576190D01*
X202910714Y-142528571D01*
X203244047Y-142528571D01*
X203434523Y-142576190D01*
X203529761Y-142671428D01*
X203577380Y-142766666D01*
X203577380Y-142957142D01*
X203529761Y-143052380D01*
X203434523Y-143147619D01*
X203244047Y-143195238D01*
X202910714Y-143195238D01*
X202720238Y-143147619D01*
X202625000Y-143052380D01*
X202577380Y-142957142D01*
%TO.C,FB1*%
X156341666Y-116578571D02*
X156008333Y-116578571D01*
X156008333Y-117102380D02*
X156008333Y-116102380D01*
X156484523Y-116102380D01*
X157198809Y-116578571D02*
X157341666Y-116626190D01*
X157389285Y-116673809D01*
X157436904Y-116769047D01*
X157436904Y-116911904D01*
X157389285Y-117007142D01*
X157341666Y-117054761D01*
X157246428Y-117102380D01*
X156865476Y-117102380D01*
X156865476Y-116102380D01*
X157198809Y-116102380D01*
X157294047Y-116150000D01*
X157341666Y-116197619D01*
X157389285Y-116292857D01*
X157389285Y-116388095D01*
X157341666Y-116483333D01*
X157294047Y-116530952D01*
X157198809Y-116578571D01*
X156865476Y-116578571D01*
X158389285Y-117102380D02*
X157817857Y-117102380D01*
X158103571Y-117102380D02*
X158103571Y-116102380D01*
X158008333Y-116245238D01*
X157913095Y-116340476D01*
X157817857Y-116388095D01*
%TO.C,F1*%
X168653571Y-104493333D02*
X168653571Y-104826666D01*
X169177380Y-104826666D02*
X168177380Y-104826666D01*
X168177380Y-104350476D01*
X169177380Y-103445714D02*
X169177380Y-104017142D01*
X169177380Y-103731428D02*
X168177380Y-103731428D01*
X168320238Y-103826666D01*
X168415476Y-103921904D01*
X168463095Y-104017142D01*
%TO.C,D5*%
X169297380Y-108788095D02*
X168297380Y-108788095D01*
X168297380Y-108550000D01*
X168345000Y-108407142D01*
X168440238Y-108311904D01*
X168535476Y-108264285D01*
X168725952Y-108216666D01*
X168868809Y-108216666D01*
X169059285Y-108264285D01*
X169154523Y-108311904D01*
X169249761Y-108407142D01*
X169297380Y-108550000D01*
X169297380Y-108788095D01*
X168297380Y-107311904D02*
X168297380Y-107788095D01*
X168773571Y-107835714D01*
X168725952Y-107788095D01*
X168678333Y-107692857D01*
X168678333Y-107454761D01*
X168725952Y-107359523D01*
X168773571Y-107311904D01*
X168868809Y-107264285D01*
X169106904Y-107264285D01*
X169202142Y-107311904D01*
X169249761Y-107359523D01*
X169297380Y-107454761D01*
X169297380Y-107692857D01*
X169249761Y-107788095D01*
X169202142Y-107835714D01*
%TO.C,D4*%
X169277380Y-112988095D02*
X168277380Y-112988095D01*
X168277380Y-112750000D01*
X168325000Y-112607142D01*
X168420238Y-112511904D01*
X168515476Y-112464285D01*
X168705952Y-112416666D01*
X168848809Y-112416666D01*
X169039285Y-112464285D01*
X169134523Y-112511904D01*
X169229761Y-112607142D01*
X169277380Y-112750000D01*
X169277380Y-112988095D01*
X168610714Y-111559523D02*
X169277380Y-111559523D01*
X168229761Y-111797619D02*
X168944047Y-112035714D01*
X168944047Y-111416666D01*
%TO.C,D3*%
X185307380Y-109638095D02*
X184307380Y-109638095D01*
X184307380Y-109400000D01*
X184355000Y-109257142D01*
X184450238Y-109161904D01*
X184545476Y-109114285D01*
X184735952Y-109066666D01*
X184878809Y-109066666D01*
X185069285Y-109114285D01*
X185164523Y-109161904D01*
X185259761Y-109257142D01*
X185307380Y-109400000D01*
X185307380Y-109638095D01*
X184307380Y-108733333D02*
X184307380Y-108114285D01*
X184688333Y-108447619D01*
X184688333Y-108304761D01*
X184735952Y-108209523D01*
X184783571Y-108161904D01*
X184878809Y-108114285D01*
X185116904Y-108114285D01*
X185212142Y-108161904D01*
X185259761Y-108209523D01*
X185307380Y-108304761D01*
X185307380Y-108590476D01*
X185259761Y-108685714D01*
X185212142Y-108733333D01*
%TO.C,D2*%
X164996904Y-115432380D02*
X164996904Y-114432380D01*
X165235000Y-114432380D01*
X165377857Y-114480000D01*
X165473095Y-114575238D01*
X165520714Y-114670476D01*
X165568333Y-114860952D01*
X165568333Y-115003809D01*
X165520714Y-115194285D01*
X165473095Y-115289523D01*
X165377857Y-115384761D01*
X165235000Y-115432380D01*
X164996904Y-115432380D01*
X165949285Y-114527619D02*
X165996904Y-114480000D01*
X166092142Y-114432380D01*
X166330238Y-114432380D01*
X166425476Y-114480000D01*
X166473095Y-114527619D01*
X166520714Y-114622857D01*
X166520714Y-114718095D01*
X166473095Y-114860952D01*
X165901666Y-115432380D01*
X166520714Y-115432380D01*
%TO.C,D1*%
X174224404Y-146672380D02*
X174224404Y-145672380D01*
X174462500Y-145672380D01*
X174605357Y-145720000D01*
X174700595Y-145815238D01*
X174748214Y-145910476D01*
X174795833Y-146100952D01*
X174795833Y-146243809D01*
X174748214Y-146434285D01*
X174700595Y-146529523D01*
X174605357Y-146624761D01*
X174462500Y-146672380D01*
X174224404Y-146672380D01*
X175748214Y-146672380D02*
X175176785Y-146672380D01*
X175462500Y-146672380D02*
X175462500Y-145672380D01*
X175367261Y-145815238D01*
X175272023Y-145910476D01*
X175176785Y-145958095D01*
%TO.C,C20*%
X165100714Y-134590285D02*
X165138809Y-134628380D01*
X165176904Y-134742666D01*
X165176904Y-134818857D01*
X165138809Y-134933142D01*
X165062619Y-135009333D01*
X164986428Y-135047428D01*
X164834047Y-135085523D01*
X164719761Y-135085523D01*
X164567380Y-135047428D01*
X164491190Y-135009333D01*
X164415000Y-134933142D01*
X164376904Y-134818857D01*
X164376904Y-134742666D01*
X164415000Y-134628380D01*
X164453095Y-134590285D01*
X164453095Y-134285523D02*
X164415000Y-134247428D01*
X164376904Y-134171238D01*
X164376904Y-133980761D01*
X164415000Y-133904571D01*
X164453095Y-133866476D01*
X164529285Y-133828380D01*
X164605476Y-133828380D01*
X164719761Y-133866476D01*
X165176904Y-134323619D01*
X165176904Y-133828380D01*
X164376904Y-133333142D02*
X164376904Y-133256952D01*
X164415000Y-133180761D01*
X164453095Y-133142666D01*
X164529285Y-133104571D01*
X164681666Y-133066476D01*
X164872142Y-133066476D01*
X165024523Y-133104571D01*
X165100714Y-133142666D01*
X165138809Y-133180761D01*
X165176904Y-133256952D01*
X165176904Y-133333142D01*
X165138809Y-133409333D01*
X165100714Y-133447428D01*
X165024523Y-133485523D01*
X164872142Y-133523619D01*
X164681666Y-133523619D01*
X164529285Y-133485523D01*
X164453095Y-133447428D01*
X164415000Y-133409333D01*
X164376904Y-133333142D01*
%TO.C,C19*%
X156660714Y-145834285D02*
X156698809Y-145872380D01*
X156736904Y-145986666D01*
X156736904Y-146062857D01*
X156698809Y-146177142D01*
X156622619Y-146253333D01*
X156546428Y-146291428D01*
X156394047Y-146329523D01*
X156279761Y-146329523D01*
X156127380Y-146291428D01*
X156051190Y-146253333D01*
X155975000Y-146177142D01*
X155936904Y-146062857D01*
X155936904Y-145986666D01*
X155975000Y-145872380D01*
X156013095Y-145834285D01*
X156736904Y-145072380D02*
X156736904Y-145529523D01*
X156736904Y-145300952D02*
X155936904Y-145300952D01*
X156051190Y-145377142D01*
X156127380Y-145453333D01*
X156165476Y-145529523D01*
X156736904Y-144691428D02*
X156736904Y-144539047D01*
X156698809Y-144462857D01*
X156660714Y-144424761D01*
X156546428Y-144348571D01*
X156394047Y-144310476D01*
X156089285Y-144310476D01*
X156013095Y-144348571D01*
X155975000Y-144386666D01*
X155936904Y-144462857D01*
X155936904Y-144615238D01*
X155975000Y-144691428D01*
X156013095Y-144729523D01*
X156089285Y-144767619D01*
X156279761Y-144767619D01*
X156355952Y-144729523D01*
X156394047Y-144691428D01*
X156432142Y-144615238D01*
X156432142Y-144462857D01*
X156394047Y-144386666D01*
X156355952Y-144348571D01*
X156279761Y-144310476D01*
%TO.C,C18*%
X155420714Y-134574285D02*
X155458809Y-134612380D01*
X155496904Y-134726666D01*
X155496904Y-134802857D01*
X155458809Y-134917142D01*
X155382619Y-134993333D01*
X155306428Y-135031428D01*
X155154047Y-135069523D01*
X155039761Y-135069523D01*
X154887380Y-135031428D01*
X154811190Y-134993333D01*
X154735000Y-134917142D01*
X154696904Y-134802857D01*
X154696904Y-134726666D01*
X154735000Y-134612380D01*
X154773095Y-134574285D01*
X155496904Y-133812380D02*
X155496904Y-134269523D01*
X155496904Y-134040952D02*
X154696904Y-134040952D01*
X154811190Y-134117142D01*
X154887380Y-134193333D01*
X154925476Y-134269523D01*
X155039761Y-133355238D02*
X155001666Y-133431428D01*
X154963571Y-133469523D01*
X154887380Y-133507619D01*
X154849285Y-133507619D01*
X154773095Y-133469523D01*
X154735000Y-133431428D01*
X154696904Y-133355238D01*
X154696904Y-133202857D01*
X154735000Y-133126666D01*
X154773095Y-133088571D01*
X154849285Y-133050476D01*
X154887380Y-133050476D01*
X154963571Y-133088571D01*
X155001666Y-133126666D01*
X155039761Y-133202857D01*
X155039761Y-133355238D01*
X155077857Y-133431428D01*
X155115952Y-133469523D01*
X155192142Y-133507619D01*
X155344523Y-133507619D01*
X155420714Y-133469523D01*
X155458809Y-133431428D01*
X155496904Y-133355238D01*
X155496904Y-133202857D01*
X155458809Y-133126666D01*
X155420714Y-133088571D01*
X155344523Y-133050476D01*
X155192142Y-133050476D01*
X155115952Y-133088571D01*
X155077857Y-133126666D01*
X155039761Y-133202857D01*
%TO.C,C17*%
X171142142Y-127212857D02*
X171189761Y-127260476D01*
X171237380Y-127403333D01*
X171237380Y-127498571D01*
X171189761Y-127641428D01*
X171094523Y-127736666D01*
X170999285Y-127784285D01*
X170808809Y-127831904D01*
X170665952Y-127831904D01*
X170475476Y-127784285D01*
X170380238Y-127736666D01*
X170285000Y-127641428D01*
X170237380Y-127498571D01*
X170237380Y-127403333D01*
X170285000Y-127260476D01*
X170332619Y-127212857D01*
X171237380Y-126260476D02*
X171237380Y-126831904D01*
X171237380Y-126546190D02*
X170237380Y-126546190D01*
X170380238Y-126641428D01*
X170475476Y-126736666D01*
X170523095Y-126831904D01*
X170237380Y-125927142D02*
X170237380Y-125260476D01*
X171237380Y-125689047D01*
%TO.C,C16*%
X156932142Y-126017857D02*
X156979761Y-126065476D01*
X157027380Y-126208333D01*
X157027380Y-126303571D01*
X156979761Y-126446428D01*
X156884523Y-126541666D01*
X156789285Y-126589285D01*
X156598809Y-126636904D01*
X156455952Y-126636904D01*
X156265476Y-126589285D01*
X156170238Y-126541666D01*
X156075000Y-126446428D01*
X156027380Y-126303571D01*
X156027380Y-126208333D01*
X156075000Y-126065476D01*
X156122619Y-126017857D01*
X157027380Y-125065476D02*
X157027380Y-125636904D01*
X157027380Y-125351190D02*
X156027380Y-125351190D01*
X156170238Y-125446428D01*
X156265476Y-125541666D01*
X156313095Y-125636904D01*
X156027380Y-124208333D02*
X156027380Y-124398809D01*
X156075000Y-124494047D01*
X156122619Y-124541666D01*
X156265476Y-124636904D01*
X156455952Y-124684523D01*
X156836904Y-124684523D01*
X156932142Y-124636904D01*
X156979761Y-124589285D01*
X157027380Y-124494047D01*
X157027380Y-124303571D01*
X156979761Y-124208333D01*
X156932142Y-124160714D01*
X156836904Y-124113095D01*
X156598809Y-124113095D01*
X156503571Y-124160714D01*
X156455952Y-124208333D01*
X156408333Y-124303571D01*
X156408333Y-124494047D01*
X156455952Y-124589285D01*
X156503571Y-124636904D01*
X156598809Y-124684523D01*
%TO.C,C15*%
X155230714Y-142335714D02*
X155192619Y-142373809D01*
X155078333Y-142411904D01*
X155002142Y-142411904D01*
X154887857Y-142373809D01*
X154811666Y-142297619D01*
X154773571Y-142221428D01*
X154735476Y-142069047D01*
X154735476Y-141954761D01*
X154773571Y-141802380D01*
X154811666Y-141726190D01*
X154887857Y-141650000D01*
X155002142Y-141611904D01*
X155078333Y-141611904D01*
X155192619Y-141650000D01*
X155230714Y-141688095D01*
X155992619Y-142411904D02*
X155535476Y-142411904D01*
X155764047Y-142411904D02*
X155764047Y-141611904D01*
X155687857Y-141726190D01*
X155611666Y-141802380D01*
X155535476Y-141840476D01*
X156716428Y-141611904D02*
X156335476Y-141611904D01*
X156297380Y-141992857D01*
X156335476Y-141954761D01*
X156411666Y-141916666D01*
X156602142Y-141916666D01*
X156678333Y-141954761D01*
X156716428Y-141992857D01*
X156754523Y-142069047D01*
X156754523Y-142259523D01*
X156716428Y-142335714D01*
X156678333Y-142373809D01*
X156602142Y-142411904D01*
X156411666Y-142411904D01*
X156335476Y-142373809D01*
X156297380Y-142335714D01*
%TO.C,C14*%
X164502142Y-121932857D02*
X164549761Y-121980476D01*
X164597380Y-122123333D01*
X164597380Y-122218571D01*
X164549761Y-122361428D01*
X164454523Y-122456666D01*
X164359285Y-122504285D01*
X164168809Y-122551904D01*
X164025952Y-122551904D01*
X163835476Y-122504285D01*
X163740238Y-122456666D01*
X163645000Y-122361428D01*
X163597380Y-122218571D01*
X163597380Y-122123333D01*
X163645000Y-121980476D01*
X163692619Y-121932857D01*
X164597380Y-120980476D02*
X164597380Y-121551904D01*
X164597380Y-121266190D02*
X163597380Y-121266190D01*
X163740238Y-121361428D01*
X163835476Y-121456666D01*
X163883095Y-121551904D01*
X163930714Y-120123333D02*
X164597380Y-120123333D01*
X163549761Y-120361428D02*
X164264047Y-120599523D01*
X164264047Y-119980476D01*
%TO.C,C13*%
X156032142Y-119757142D02*
X155984523Y-119804761D01*
X155841666Y-119852380D01*
X155746428Y-119852380D01*
X155603571Y-119804761D01*
X155508333Y-119709523D01*
X155460714Y-119614285D01*
X155413095Y-119423809D01*
X155413095Y-119280952D01*
X155460714Y-119090476D01*
X155508333Y-118995238D01*
X155603571Y-118900000D01*
X155746428Y-118852380D01*
X155841666Y-118852380D01*
X155984523Y-118900000D01*
X156032142Y-118947619D01*
X156984523Y-119852380D02*
X156413095Y-119852380D01*
X156698809Y-119852380D02*
X156698809Y-118852380D01*
X156603571Y-118995238D01*
X156508333Y-119090476D01*
X156413095Y-119138095D01*
X157317857Y-118852380D02*
X157936904Y-118852380D01*
X157603571Y-119233333D01*
X157746428Y-119233333D01*
X157841666Y-119280952D01*
X157889285Y-119328571D01*
X157936904Y-119423809D01*
X157936904Y-119661904D01*
X157889285Y-119757142D01*
X157841666Y-119804761D01*
X157746428Y-119852380D01*
X157460714Y-119852380D01*
X157365476Y-119804761D01*
X157317857Y-119757142D01*
%TO.C,C12*%
D12*
X172983571Y-142431428D02*
X173007380Y-142455238D01*
X173031190Y-142526666D01*
X173031190Y-142574285D01*
X173007380Y-142645714D01*
X172959761Y-142693333D01*
X172912142Y-142717142D01*
X172816904Y-142740952D01*
X172745476Y-142740952D01*
X172650238Y-142717142D01*
X172602619Y-142693333D01*
X172555000Y-142645714D01*
X172531190Y-142574285D01*
X172531190Y-142526666D01*
X172555000Y-142455238D01*
X172578809Y-142431428D01*
X173031190Y-141955238D02*
X173031190Y-142240952D01*
X173031190Y-142098095D02*
X172531190Y-142098095D01*
X172602619Y-142145714D01*
X172650238Y-142193333D01*
X172674047Y-142240952D01*
X172578809Y-141764761D02*
X172555000Y-141740952D01*
X172531190Y-141693333D01*
X172531190Y-141574285D01*
X172555000Y-141526666D01*
X172578809Y-141502857D01*
X172626428Y-141479047D01*
X172674047Y-141479047D01*
X172745476Y-141502857D01*
X173031190Y-141788571D01*
X173031190Y-141479047D01*
%TO.C,C11*%
D10*
X170435000Y-136370000D02*
X170468333Y-136403333D01*
X170501666Y-136503333D01*
X170501666Y-136570000D01*
X170468333Y-136670000D01*
X170401666Y-136736666D01*
X170335000Y-136770000D01*
X170201666Y-136803333D01*
X170101666Y-136803333D01*
X169968333Y-136770000D01*
X169901666Y-136736666D01*
X169835000Y-136670000D01*
X169801666Y-136570000D01*
X169801666Y-136503333D01*
X169835000Y-136403333D01*
X169868333Y-136370000D01*
X170501666Y-135703333D02*
X170501666Y-136103333D01*
X170501666Y-135903333D02*
X169801666Y-135903333D01*
X169901666Y-135970000D01*
X169968333Y-136036666D01*
X170001666Y-136103333D01*
X170501666Y-135036666D02*
X170501666Y-135436666D01*
X170501666Y-135236666D02*
X169801666Y-135236666D01*
X169901666Y-135303333D01*
X169968333Y-135370000D01*
X170001666Y-135436666D01*
%TO.C,C10*%
X171152142Y-144157142D02*
X171104523Y-144204761D01*
X170961666Y-144252380D01*
X170866428Y-144252380D01*
X170723571Y-144204761D01*
X170628333Y-144109523D01*
X170580714Y-144014285D01*
X170533095Y-143823809D01*
X170533095Y-143680952D01*
X170580714Y-143490476D01*
X170628333Y-143395238D01*
X170723571Y-143300000D01*
X170866428Y-143252380D01*
X170961666Y-143252380D01*
X171104523Y-143300000D01*
X171152142Y-143347619D01*
X172104523Y-144252380D02*
X171533095Y-144252380D01*
X171818809Y-144252380D02*
X171818809Y-143252380D01*
X171723571Y-143395238D01*
X171628333Y-143490476D01*
X171533095Y-143538095D01*
X172723571Y-143252380D02*
X172818809Y-143252380D01*
X172914047Y-143300000D01*
X172961666Y-143347619D01*
X173009285Y-143442857D01*
X173056904Y-143633333D01*
X173056904Y-143871428D01*
X173009285Y-144061904D01*
X172961666Y-144157142D01*
X172914047Y-144204761D01*
X172818809Y-144252380D01*
X172723571Y-144252380D01*
X172628333Y-144204761D01*
X172580714Y-144157142D01*
X172533095Y-144061904D01*
X172485476Y-143871428D01*
X172485476Y-143633333D01*
X172533095Y-143442857D01*
X172580714Y-143347619D01*
X172628333Y-143300000D01*
X172723571Y-143252380D01*
%TO.C,C9*%
X170058333Y-145667142D02*
X170010714Y-145714761D01*
X169867857Y-145762380D01*
X169772619Y-145762380D01*
X169629761Y-145714761D01*
X169534523Y-145619523D01*
X169486904Y-145524285D01*
X169439285Y-145333809D01*
X169439285Y-145190952D01*
X169486904Y-145000476D01*
X169534523Y-144905238D01*
X169629761Y-144810000D01*
X169772619Y-144762380D01*
X169867857Y-144762380D01*
X170010714Y-144810000D01*
X170058333Y-144857619D01*
X170534523Y-145762380D02*
X170725000Y-145762380D01*
X170820238Y-145714761D01*
X170867857Y-145667142D01*
X170963095Y-145524285D01*
X171010714Y-145333809D01*
X171010714Y-144952857D01*
X170963095Y-144857619D01*
X170915476Y-144810000D01*
X170820238Y-144762380D01*
X170629761Y-144762380D01*
X170534523Y-144810000D01*
X170486904Y-144857619D01*
X170439285Y-144952857D01*
X170439285Y-145190952D01*
X170486904Y-145286190D01*
X170534523Y-145333809D01*
X170629761Y-145381428D01*
X170820238Y-145381428D01*
X170915476Y-145333809D01*
X170963095Y-145286190D01*
X171010714Y-145190952D01*
%TO.C,C8*%
X173385000Y-135036666D02*
X173418333Y-135070000D01*
X173451666Y-135170000D01*
X173451666Y-135236666D01*
X173418333Y-135336666D01*
X173351666Y-135403333D01*
X173285000Y-135436666D01*
X173151666Y-135470000D01*
X173051666Y-135470000D01*
X172918333Y-135436666D01*
X172851666Y-135403333D01*
X172785000Y-135336666D01*
X172751666Y-135236666D01*
X172751666Y-135170000D01*
X172785000Y-135070000D01*
X172818333Y-135036666D01*
X173051666Y-134636666D02*
X173018333Y-134703333D01*
X172985000Y-134736666D01*
X172918333Y-134770000D01*
X172885000Y-134770000D01*
X172818333Y-134736666D01*
X172785000Y-134703333D01*
X172751666Y-134636666D01*
X172751666Y-134503333D01*
X172785000Y-134436666D01*
X172818333Y-134403333D01*
X172885000Y-134370000D01*
X172918333Y-134370000D01*
X172985000Y-134403333D01*
X173018333Y-134436666D01*
X173051666Y-134503333D01*
X173051666Y-134636666D01*
X173085000Y-134703333D01*
X173118333Y-134736666D01*
X173185000Y-134770000D01*
X173318333Y-134770000D01*
X173385000Y-134736666D01*
X173418333Y-134703333D01*
X173451666Y-134636666D01*
X173451666Y-134503333D01*
X173418333Y-134436666D01*
X173385000Y-134403333D01*
X173318333Y-134370000D01*
X173185000Y-134370000D01*
X173118333Y-134403333D01*
X173085000Y-134436666D01*
X173051666Y-134503333D01*
%TO.C,C7*%
X179162142Y-132136666D02*
X179209761Y-132184285D01*
X179257380Y-132327142D01*
X179257380Y-132422380D01*
X179209761Y-132565238D01*
X179114523Y-132660476D01*
X179019285Y-132708095D01*
X178828809Y-132755714D01*
X178685952Y-132755714D01*
X178495476Y-132708095D01*
X178400238Y-132660476D01*
X178305000Y-132565238D01*
X178257380Y-132422380D01*
X178257380Y-132327142D01*
X178305000Y-132184285D01*
X178352619Y-132136666D01*
X178257380Y-131803333D02*
X178257380Y-131136666D01*
X179257380Y-131565238D01*
%TO.C,C5*%
X187508333Y-146300000D02*
X187475000Y-146333333D01*
X187375000Y-146366666D01*
X187308333Y-146366666D01*
X187208333Y-146333333D01*
X187141666Y-146266666D01*
X187108333Y-146200000D01*
X187075000Y-146066666D01*
X187075000Y-145966666D01*
X187108333Y-145833333D01*
X187141666Y-145766666D01*
X187208333Y-145700000D01*
X187308333Y-145666666D01*
X187375000Y-145666666D01*
X187475000Y-145700000D01*
X187508333Y-145733333D01*
X188141666Y-145666666D02*
X187808333Y-145666666D01*
X187775000Y-146000000D01*
X187808333Y-145966666D01*
X187875000Y-145933333D01*
X188041666Y-145933333D01*
X188108333Y-145966666D01*
X188141666Y-146000000D01*
X188175000Y-146066666D01*
X188175000Y-146233333D01*
X188141666Y-146300000D01*
X188108333Y-146333333D01*
X188041666Y-146366666D01*
X187875000Y-146366666D01*
X187808333Y-146333333D01*
X187775000Y-146300000D01*
%TO.C,C4*%
D12*
X177903571Y-149433333D02*
X177927380Y-149457142D01*
X177951190Y-149528571D01*
X177951190Y-149576190D01*
X177927380Y-149647619D01*
X177879761Y-149695238D01*
X177832142Y-149719047D01*
X177736904Y-149742857D01*
X177665476Y-149742857D01*
X177570238Y-149719047D01*
X177522619Y-149695238D01*
X177475000Y-149647619D01*
X177451190Y-149576190D01*
X177451190Y-149528571D01*
X177475000Y-149457142D01*
X177498809Y-149433333D01*
X177617857Y-149004761D02*
X177951190Y-149004761D01*
X177427380Y-149123809D02*
X177784523Y-149242857D01*
X177784523Y-148933333D01*
%TO.C,C3*%
D10*
X175632142Y-132136666D02*
X175679761Y-132184285D01*
X175727380Y-132327142D01*
X175727380Y-132422380D01*
X175679761Y-132565238D01*
X175584523Y-132660476D01*
X175489285Y-132708095D01*
X175298809Y-132755714D01*
X175155952Y-132755714D01*
X174965476Y-132708095D01*
X174870238Y-132660476D01*
X174775000Y-132565238D01*
X174727380Y-132422380D01*
X174727380Y-132327142D01*
X174775000Y-132184285D01*
X174822619Y-132136666D01*
X174727380Y-131803333D02*
X174727380Y-131184285D01*
X175108333Y-131517619D01*
X175108333Y-131374761D01*
X175155952Y-131279523D01*
X175203571Y-131231904D01*
X175298809Y-131184285D01*
X175536904Y-131184285D01*
X175632142Y-131231904D01*
X175679761Y-131279523D01*
X175727380Y-131374761D01*
X175727380Y-131660476D01*
X175679761Y-131755714D01*
X175632142Y-131803333D01*
%TO.C,C2*%
X191262142Y-135076666D02*
X191309761Y-135124285D01*
X191357380Y-135267142D01*
X191357380Y-135362380D01*
X191309761Y-135505238D01*
X191214523Y-135600476D01*
X191119285Y-135648095D01*
X190928809Y-135695714D01*
X190785952Y-135695714D01*
X190595476Y-135648095D01*
X190500238Y-135600476D01*
X190405000Y-135505238D01*
X190357380Y-135362380D01*
X190357380Y-135267142D01*
X190405000Y-135124285D01*
X190452619Y-135076666D01*
X190452619Y-134695714D02*
X190405000Y-134648095D01*
X190357380Y-134552857D01*
X190357380Y-134314761D01*
X190405000Y-134219523D01*
X190452619Y-134171904D01*
X190547857Y-134124285D01*
X190643095Y-134124285D01*
X190785952Y-134171904D01*
X191357380Y-134743333D01*
X191357380Y-134124285D01*
%TO.C,C1*%
D12*
X184503571Y-148333333D02*
X184527380Y-148357142D01*
X184551190Y-148428571D01*
X184551190Y-148476190D01*
X184527380Y-148547619D01*
X184479761Y-148595238D01*
X184432142Y-148619047D01*
X184336904Y-148642857D01*
X184265476Y-148642857D01*
X184170238Y-148619047D01*
X184122619Y-148595238D01*
X184075000Y-148547619D01*
X184051190Y-148476190D01*
X184051190Y-148428571D01*
X184075000Y-148357142D01*
X184098809Y-148333333D01*
X184551190Y-147857142D02*
X184551190Y-148142857D01*
X184551190Y-148000000D02*
X184051190Y-148000000D01*
X184122619Y-148047619D01*
X184170238Y-148095238D01*
X184194047Y-148142857D01*
%TD*%
M02*
