%TF.GenerationSoftware,KiCad,Pcbnew,(5.1.7)-1*%
%TF.CreationDate,2020-11-23T19:12:34+01:00*%
%TF.ProjectId,astro_compute_board,61737472-6f5f-4636-9f6d-707574655f62,1*%
%TF.SameCoordinates,Original*%
%TF.FileFunction,Copper,L2,Inr*%
%TF.FilePolarity,Positive*%
%FSLAX46Y46*%
G04 Gerber Fmt 4.6, Leading zero omitted, Abs format (unit mm)*
G04 Created by KiCad (PCBNEW (5.1.7)-1) date 2020-11-23 19:12:34*
%MOMM*%
%LPD*%
G01*
G04 APERTURE LIST*
%TA.AperFunction,ComponentPad*%
%ADD10O,1.900000X1.200000*%
%TD*%
%TA.AperFunction,ComponentPad*%
%ADD11C,1.450000*%
%TD*%
%TA.AperFunction,ComponentPad*%
%ADD12C,0.800000*%
%TD*%
%TA.AperFunction,ComponentPad*%
%ADD13C,6.400000*%
%TD*%
%TA.AperFunction,ComponentPad*%
%ADD14O,1.300000X0.800000*%
%TD*%
%TA.AperFunction,ComponentPad*%
%ADD15O,0.800000X1.300000*%
%TD*%
%TA.AperFunction,ComponentPad*%
%ADD16C,3.000000*%
%TD*%
%TA.AperFunction,ComponentPad*%
%ADD17R,3.000000X3.000000*%
%TD*%
%TA.AperFunction,ComponentPad*%
%ADD18O,1.700000X1.700000*%
%TD*%
%TA.AperFunction,ComponentPad*%
%ADD19R,1.700000X1.700000*%
%TD*%
%TA.AperFunction,ViaPad*%
%ADD20C,0.600000*%
%TD*%
%TA.AperFunction,ViaPad*%
%ADD21C,0.800000*%
%TD*%
%TA.AperFunction,Conductor*%
%ADD22C,0.500000*%
%TD*%
%TA.AperFunction,Conductor*%
%ADD23C,0.254000*%
%TD*%
%TA.AperFunction,Conductor*%
%ADD24C,0.100000*%
%TD*%
G04 APERTURE END LIST*
D10*
%TO.N,Net-(J6-Pad6)*%
%TO.C,J6*%
X202262500Y-122350000D03*
X202262500Y-129350000D03*
D11*
X199562500Y-123350000D03*
X199562500Y-128350000D03*
%TD*%
D12*
%TO.N,GND*%
%TO.C,H4*%
X153122056Y-94927944D03*
X151425000Y-94225000D03*
X149727944Y-94927944D03*
X149025000Y-96625000D03*
X149727944Y-98322056D03*
X151425000Y-99025000D03*
X153122056Y-98322056D03*
X153825000Y-96625000D03*
D13*
X151425000Y-96625000D03*
%TD*%
D12*
%TO.N,GND*%
%TO.C,H3*%
X153122056Y-152952944D03*
X151425000Y-152250000D03*
X149727944Y-152952944D03*
X149025000Y-154650000D03*
X149727944Y-156347056D03*
X151425000Y-157050000D03*
X153122056Y-156347056D03*
X153825000Y-154650000D03*
D13*
X151425000Y-154650000D03*
%TD*%
D12*
%TO.N,GND*%
%TO.C,H2*%
X202122056Y-152952944D03*
X200425000Y-152250000D03*
X198727944Y-152952944D03*
X198025000Y-154650000D03*
X198727944Y-156347056D03*
X200425000Y-157050000D03*
X202122056Y-156347056D03*
X202825000Y-154650000D03*
D13*
X200425000Y-154650000D03*
%TD*%
D12*
%TO.N,GND*%
%TO.C,H1*%
X202122056Y-94927944D03*
X200425000Y-94225000D03*
X198727944Y-94927944D03*
X198025000Y-96625000D03*
X198727944Y-98322056D03*
X200425000Y-99025000D03*
X202122056Y-98322056D03*
X202825000Y-96625000D03*
D13*
X200425000Y-96625000D03*
%TD*%
D14*
%TO.N,GND*%
%TO.C,USART1*%
X197225000Y-133100000D03*
%TO.N,Net-(R13-Pad1)*%
X197225000Y-134350000D03*
%TO.N,Net-(R12-Pad1)*%
X197225000Y-135600000D03*
%TO.N,+3V3*%
%TA.AperFunction,ComponentPad*%
G36*
G01*
X197675000Y-137250000D02*
X196775000Y-137250000D01*
G75*
G02*
X196575000Y-137050000I0J200000D01*
G01*
X196575000Y-136650000D01*
G75*
G02*
X196775000Y-136450000I200000J0D01*
G01*
X197675000Y-136450000D01*
G75*
G02*
X197875000Y-136650000I0J-200000D01*
G01*
X197875000Y-137050000D01*
G75*
G02*
X197675000Y-137250000I-200000J0D01*
G01*
G37*
%TD.AperFunction*%
%TD*%
D15*
%TO.N,GND*%
%TO.C,ADC*%
X170175000Y-151650000D03*
%TO.N,ADC1_IN2*%
X168925000Y-151650000D03*
%TO.N,ADC1_IN1*%
X167675000Y-151650000D03*
%TO.N,ADC1_IN0*%
X166425000Y-151650000D03*
%TO.N,+3.3VA*%
%TA.AperFunction,ComponentPad*%
G36*
G01*
X164775000Y-152100000D02*
X164775000Y-151200000D01*
G75*
G02*
X164975000Y-151000000I200000J0D01*
G01*
X165375000Y-151000000D01*
G75*
G02*
X165575000Y-151200000I0J-200000D01*
G01*
X165575000Y-152100000D01*
G75*
G02*
X165375000Y-152300000I-200000J0D01*
G01*
X164975000Y-152300000D01*
G75*
G02*
X164775000Y-152100000I0J200000D01*
G01*
G37*
%TD.AperFunction*%
%TD*%
D16*
%TO.N,GND*%
%TO.C,J9*%
X160345000Y-97650000D03*
D17*
%TO.N,+12V*%
X165425000Y-97650000D03*
%TD*%
D18*
%TO.N,Net-(J8-Pad40)*%
%TO.C,J8*%
X150135000Y-101510000D03*
%TO.N,GND*%
X152675000Y-101510000D03*
%TO.N,Net-(J8-Pad38)*%
X150135000Y-104050000D03*
%TO.N,Net-(J8-Pad37)*%
X152675000Y-104050000D03*
%TO.N,Net-(J8-Pad36)*%
X150135000Y-106590000D03*
%TO.N,Net-(J8-Pad35)*%
X152675000Y-106590000D03*
%TO.N,GND*%
X150135000Y-109130000D03*
%TO.N,Net-(J8-Pad33)*%
X152675000Y-109130000D03*
%TO.N,Net-(J8-Pad32)*%
X150135000Y-111670000D03*
%TO.N,Net-(J8-Pad31)*%
X152675000Y-111670000D03*
%TO.N,GND*%
X150135000Y-114210000D03*
%TO.N,Net-(J8-Pad29)*%
X152675000Y-114210000D03*
%TO.N,Net-(J8-Pad28)*%
X150135000Y-116750000D03*
%TO.N,Net-(J8-Pad27)*%
X152675000Y-116750000D03*
%TO.N,Net-(J8-Pad26)*%
X150135000Y-119290000D03*
%TO.N,GND*%
X152675000Y-119290000D03*
%TO.N,Net-(J8-Pad24)*%
X150135000Y-121830000D03*
%TO.N,Net-(J8-Pad23)*%
X152675000Y-121830000D03*
%TO.N,Net-(J8-Pad22)*%
X150135000Y-124370000D03*
%TO.N,Net-(J8-Pad21)*%
X152675000Y-124370000D03*
%TO.N,GND*%
X150135000Y-126910000D03*
%TO.N,Net-(J8-Pad19)*%
X152675000Y-126910000D03*
%TO.N,Net-(J8-Pad18)*%
X150135000Y-129450000D03*
%TO.N,+3V3*%
X152675000Y-129450000D03*
%TO.N,Net-(J8-Pad16)*%
X150135000Y-131990000D03*
%TO.N,Net-(J8-Pad15)*%
X152675000Y-131990000D03*
%TO.N,GND*%
X150135000Y-134530000D03*
%TO.N,Net-(J8-Pad13)*%
X152675000Y-134530000D03*
%TO.N,Net-(J8-Pad12)*%
X150135000Y-137070000D03*
%TO.N,Net-(J8-Pad11)*%
X152675000Y-137070000D03*
%TO.N,Net-(J8-Pad10)*%
X150135000Y-139610000D03*
%TO.N,GND*%
X152675000Y-139610000D03*
%TO.N,Net-(J8-Pad8)*%
X150135000Y-142150000D03*
%TO.N,Net-(J8-Pad7)*%
X152675000Y-142150000D03*
%TO.N,GND*%
X150135000Y-144690000D03*
%TO.N,I2C1_SCL*%
X152675000Y-144690000D03*
%TO.N,+5V*%
X150135000Y-147230000D03*
%TO.N,I2C1_SDA*%
X152675000Y-147230000D03*
%TO.N,+5V*%
X150135000Y-149770000D03*
D19*
%TO.N,+3V3*%
X152675000Y-149770000D03*
%TD*%
D16*
%TO.N,Net-(Heater2-Pad2)*%
%TO.C,Heater2*%
X174945000Y-97650000D03*
D17*
%TO.N,+12V*%
X180025000Y-97650000D03*
%TD*%
D16*
%TO.N,Net-(Heater1-Pad2)*%
%TO.C,Heater1*%
X189095000Y-97640000D03*
D17*
%TO.N,+12V*%
X194175000Y-97640000D03*
%TD*%
D20*
%TO.N,GPIO_01*%
X189095000Y-140900000D03*
D21*
%TO.N,Net-(R12-Pad1)*%
X198625000Y-135650000D03*
%TO.N,Net-(R13-Pad1)*%
X198525000Y-134350000D03*
%TO.N,+5V*%
X198045000Y-127200000D03*
%TO.N,GND*%
X197925000Y-123750000D03*
X164625000Y-119050000D03*
%TO.N,+3V3*%
X201225000Y-139850000D03*
X185025000Y-145050000D03*
%TO.N,GND*%
X193625000Y-154650000D03*
%TO.N,+3V3*%
X193625000Y-155850000D03*
%TO.N,SWDIO*%
X185025000Y-138250000D03*
%TO.N,GND*%
X187825000Y-133850000D03*
%TO.N,+3V3*%
X190025000Y-130550000D03*
%TO.N,+5V*%
X160025000Y-146450000D03*
X160025000Y-147450000D03*
%TO.N,+3V3*%
X178825000Y-151250000D03*
X179535000Y-144720000D03*
X174425000Y-156150000D03*
%TO.N,I2C1_SDA*%
X179675000Y-137150000D03*
%TO.N,I2C1_SCL*%
X180675000Y-137150000D03*
%TO.N,+3V3*%
X173175000Y-126400000D03*
%TO.N,GND*%
X170425000Y-109650000D03*
X186425000Y-117900000D03*
%TO.N,+3V3*%
X199925000Y-110900000D03*
%TO.N,GND*%
X198425000Y-107650000D03*
%TO.N,BOOT0*%
X179746000Y-132869500D03*
%TO.N,TEMP_ALERT*%
X185842000Y-132806000D03*
%TO.N,SWCLCK*%
X186921500Y-132806000D03*
%TO.N,NRST*%
X177333000Y-140235500D03*
%TO.N,+3V3*%
X165331500Y-146458500D03*
%TO.N,GND*%
X168887500Y-142902500D03*
%TO.N,PWM_B2*%
X183048000Y-144998000D03*
%TO.N,PWM_A2*%
X181905000Y-144998000D03*
%TO.N,GND*%
X163225000Y-129450000D03*
X163225000Y-130350000D03*
X168665000Y-135150000D03*
X168685000Y-136250000D03*
X169967000Y-142077000D03*
X169459000Y-140299000D03*
X173713500Y-138140000D03*
X167808000Y-143918500D03*
X158156000Y-146839500D03*
X155552500Y-142966000D03*
X155552500Y-135663500D03*
X172189500Y-135346000D03*
X174031000Y-135092000D03*
X170983000Y-131599500D03*
X170348000Y-132679000D03*
X180925000Y-120900000D03*
X181925000Y-120900000D03*
X181925000Y-119900000D03*
X181925000Y-118900000D03*
X182925000Y-120900000D03*
X182925000Y-119900000D03*
X182925000Y-118900000D03*
X195175000Y-120900000D03*
X196175000Y-119900000D03*
X197175000Y-120900000D03*
X196175000Y-120900000D03*
X197175000Y-119900000D03*
X196175000Y-118900000D03*
X197175000Y-118900000D03*
X168425000Y-109400000D03*
X159175000Y-115150000D03*
X158175000Y-115150000D03*
X176425000Y-131900000D03*
X177425000Y-131400000D03*
X176175000Y-135150000D03*
X177425000Y-148400000D03*
X178425000Y-150150000D03*
X176925000Y-149400000D03*
X180175000Y-152900000D03*
X173925000Y-151650000D03*
X174925000Y-151650000D03*
X175925000Y-151650000D03*
X176925000Y-151650000D03*
X173925000Y-152650000D03*
X174925000Y-152650000D03*
X175925000Y-152650000D03*
X176925000Y-152650000D03*
X173925000Y-153650000D03*
X173925000Y-154650000D03*
X195025000Y-130150000D03*
X189225000Y-133050000D03*
X193625000Y-153450000D03*
X193625000Y-150850000D03*
X188425000Y-149050000D03*
X194425000Y-144450000D03*
X184825000Y-110250000D03*
X174015000Y-142020000D03*
X163425000Y-119450000D03*
X176425000Y-123050000D03*
X178175000Y-157400000D03*
X179175000Y-157400000D03*
X180175000Y-157400000D03*
%TO.N,+3V3*%
X163025000Y-136250000D03*
X163925000Y-136250000D03*
X163025000Y-135350000D03*
X163925000Y-135350000D03*
X175110500Y-136108000D03*
X174425000Y-126400000D03*
X175425000Y-133900000D03*
X178675000Y-133400000D03*
X185025000Y-137050000D03*
X194825000Y-138150000D03*
X164795000Y-135760000D03*
%TO.N,+3.3VA*%
X165175000Y-149400000D03*
%TO.N,+5V*%
X164625000Y-131250000D03*
X164625000Y-132450000D03*
X163625000Y-132450000D03*
X167375000Y-114700000D03*
X167375000Y-115700000D03*
X155465000Y-149840000D03*
%TO.N,+12V*%
X169425000Y-94350000D03*
X170925000Y-94350000D03*
X183875000Y-94400000D03*
X185375000Y-94400000D03*
%TO.N,GPIO_01*%
X199825000Y-139850000D03*
%TO.N,Net-(Heater1-Pad2)*%
X188425000Y-102650000D03*
X188425000Y-101650000D03*
X189425000Y-101650000D03*
X190425000Y-101650000D03*
X190425000Y-102650000D03*
X189425000Y-102650000D03*
%TO.N,Net-(Heater2-Pad2)*%
X173925000Y-102650000D03*
X174925000Y-102650000D03*
X175925000Y-102650000D03*
X173925000Y-101650000D03*
X174925000Y-101650000D03*
X175925000Y-101650000D03*
%TO.N,I2C1_SCL*%
X155175000Y-145900000D03*
%TO.N,I2C1_SDA*%
X155175000Y-147150000D03*
%TO.N,ADC1_IN2*%
X168925000Y-149350000D03*
%TO.N,ADC1_IN1*%
X167675000Y-149350000D03*
%TO.N,ADC1_IN0*%
X166425000Y-149350000D03*
%TO.N,BOOT0*%
X185675000Y-127900000D03*
%TO.N,SWDIO*%
X184225000Y-149250000D03*
%TO.N,SWCLCK*%
X183365500Y-153062500D03*
D20*
%TO.N,NRST*%
X184005000Y-151250000D03*
D21*
%TO.N,TEMP_ALERT*%
X178603000Y-152554500D03*
%TO.N,PWM_B2*%
X182925000Y-132850000D03*
%TO.N,PWM_A2*%
X184191000Y-130202500D03*
%TD*%
D22*
%TO.N,GND*%
X197925000Y-121650000D02*
X197175000Y-120900000D01*
X197925000Y-123750000D02*
X197925000Y-121650000D01*
%TD*%
D23*
%TO.N,GND*%
X168765226Y-93546063D02*
X168621063Y-93690226D01*
X168507795Y-93859744D01*
X168429774Y-94048102D01*
X168390000Y-94248061D01*
X168390000Y-94451939D01*
X168429774Y-94651898D01*
X168507795Y-94840256D01*
X168621063Y-95009774D01*
X168765226Y-95153937D01*
X168934744Y-95267205D01*
X169123102Y-95345226D01*
X169323061Y-95385000D01*
X169526939Y-95385000D01*
X169726898Y-95345226D01*
X169915256Y-95267205D01*
X170084774Y-95153937D01*
X170175000Y-95063711D01*
X170265226Y-95153937D01*
X170434744Y-95267205D01*
X170623102Y-95345226D01*
X170823061Y-95385000D01*
X171026939Y-95385000D01*
X171226898Y-95345226D01*
X171415256Y-95267205D01*
X171584774Y-95153937D01*
X171728937Y-95009774D01*
X171842205Y-94840256D01*
X171920226Y-94651898D01*
X171960000Y-94451939D01*
X171960000Y-94248061D01*
X171920226Y-94048102D01*
X171842205Y-93859744D01*
X171728937Y-93690226D01*
X171584774Y-93546063D01*
X171530802Y-93510000D01*
X183344029Y-93510000D01*
X183215226Y-93596063D01*
X183071063Y-93740226D01*
X182957795Y-93909744D01*
X182879774Y-94098102D01*
X182840000Y-94298061D01*
X182840000Y-94501939D01*
X182879774Y-94701898D01*
X182957795Y-94890256D01*
X183071063Y-95059774D01*
X183215226Y-95203937D01*
X183384744Y-95317205D01*
X183573102Y-95395226D01*
X183773061Y-95435000D01*
X183976939Y-95435000D01*
X184176898Y-95395226D01*
X184365256Y-95317205D01*
X184534774Y-95203937D01*
X184625000Y-95113711D01*
X184715226Y-95203937D01*
X184884744Y-95317205D01*
X185073102Y-95395226D01*
X185273061Y-95435000D01*
X185476939Y-95435000D01*
X185676898Y-95395226D01*
X185865256Y-95317205D01*
X186034774Y-95203937D01*
X186178937Y-95059774D01*
X186292205Y-94890256D01*
X186370226Y-94701898D01*
X186410000Y-94501939D01*
X186410000Y-94298061D01*
X186370226Y-94098102D01*
X186292205Y-93909744D01*
X186178937Y-93740226D01*
X186034774Y-93596063D01*
X185905971Y-93510000D01*
X198208341Y-93510000D01*
X197903724Y-93924119D01*
X200425000Y-96445395D01*
X200439143Y-96431253D01*
X200618748Y-96610858D01*
X200604605Y-96625000D01*
X203125881Y-99146276D01*
X203265001Y-99043943D01*
X203265001Y-121298418D01*
X203087401Y-121203489D01*
X202854602Y-121132870D01*
X202673165Y-121115000D01*
X201851835Y-121115000D01*
X201670398Y-121132870D01*
X201437599Y-121203489D01*
X201223051Y-121318167D01*
X201034998Y-121472498D01*
X200880667Y-121660551D01*
X200765989Y-121875099D01*
X200695370Y-122107898D01*
X200671525Y-122350000D01*
X200695370Y-122592102D01*
X200698383Y-122602035D01*
X200618881Y-122483051D01*
X200429449Y-122293619D01*
X200206701Y-122144784D01*
X199959197Y-122042264D01*
X199696448Y-121990000D01*
X199428552Y-121990000D01*
X199165803Y-122042264D01*
X198918299Y-122144784D01*
X198695551Y-122293619D01*
X198506119Y-122483051D01*
X198357284Y-122705799D01*
X198254764Y-122953303D01*
X198202500Y-123216052D01*
X198202500Y-123483948D01*
X198254764Y-123746697D01*
X198357284Y-123994201D01*
X198506119Y-124216949D01*
X198695551Y-124406381D01*
X198918299Y-124555216D01*
X199165803Y-124657736D01*
X199428552Y-124710000D01*
X199696448Y-124710000D01*
X199959197Y-124657736D01*
X200206701Y-124555216D01*
X200429449Y-124406381D01*
X200618881Y-124216949D01*
X200767716Y-123994201D01*
X200870236Y-123746697D01*
X200922500Y-123483948D01*
X200922500Y-123216052D01*
X200889516Y-123050232D01*
X201034998Y-123227502D01*
X201223051Y-123381833D01*
X201437599Y-123496511D01*
X201670398Y-123567130D01*
X201851835Y-123585000D01*
X202673165Y-123585000D01*
X202854602Y-123567130D01*
X203087401Y-123496511D01*
X203265001Y-123401582D01*
X203265000Y-128298418D01*
X203087401Y-128203489D01*
X202854602Y-128132870D01*
X202673165Y-128115000D01*
X201851835Y-128115000D01*
X201670398Y-128132870D01*
X201437599Y-128203489D01*
X201223051Y-128318167D01*
X201034998Y-128472498D01*
X200889516Y-128649768D01*
X200922500Y-128483948D01*
X200922500Y-128216052D01*
X200870236Y-127953303D01*
X200767716Y-127705799D01*
X200618881Y-127483051D01*
X200429449Y-127293619D01*
X200206701Y-127144784D01*
X199959197Y-127042264D01*
X199696448Y-126990000D01*
X199428552Y-126990000D01*
X199165803Y-127042264D01*
X199076278Y-127079347D01*
X199040226Y-126898102D01*
X198962205Y-126709744D01*
X198848937Y-126540226D01*
X198704774Y-126396063D01*
X198535256Y-126282795D01*
X198346898Y-126204774D01*
X198146939Y-126165000D01*
X197943061Y-126165000D01*
X197743102Y-126204774D01*
X197554744Y-126282795D01*
X197385226Y-126396063D01*
X197241063Y-126540226D01*
X197127795Y-126709744D01*
X197049774Y-126898102D01*
X197010000Y-127098061D01*
X197010000Y-127301939D01*
X197049774Y-127501898D01*
X197127795Y-127690256D01*
X197241063Y-127859774D01*
X197385226Y-128003937D01*
X197554744Y-128117205D01*
X197743102Y-128195226D01*
X197943061Y-128235000D01*
X198146939Y-128235000D01*
X198202500Y-128223948D01*
X198202500Y-128483948D01*
X198254764Y-128746697D01*
X198357284Y-128994201D01*
X198506119Y-129216949D01*
X198695551Y-129406381D01*
X198918299Y-129555216D01*
X199165803Y-129657736D01*
X199428552Y-129710000D01*
X199696448Y-129710000D01*
X199959197Y-129657736D01*
X200206701Y-129555216D01*
X200429449Y-129406381D01*
X200618881Y-129216949D01*
X200698383Y-129097965D01*
X200695370Y-129107898D01*
X200671525Y-129350000D01*
X200695370Y-129592102D01*
X200765989Y-129824901D01*
X200880667Y-130039449D01*
X201034998Y-130227502D01*
X201223051Y-130381833D01*
X201437599Y-130496511D01*
X201670398Y-130567130D01*
X201851835Y-130585000D01*
X202673165Y-130585000D01*
X202854602Y-130567130D01*
X203087401Y-130496511D01*
X203265000Y-130401582D01*
X203265000Y-152231057D01*
X203125881Y-152128724D01*
X200604605Y-154650000D01*
X200618748Y-154664143D01*
X200439143Y-154843748D01*
X200425000Y-154829605D01*
X197903724Y-157350881D01*
X198006057Y-157490000D01*
X153843943Y-157490000D01*
X153946276Y-157350881D01*
X151425000Y-154829605D01*
X151410858Y-154843748D01*
X151231253Y-154664143D01*
X151245395Y-154650000D01*
X151604605Y-154650000D01*
X154125881Y-157171276D01*
X154615548Y-156811088D01*
X154975849Y-156147118D01*
X155006581Y-156048061D01*
X173390000Y-156048061D01*
X173390000Y-156251939D01*
X173429774Y-156451898D01*
X173507795Y-156640256D01*
X173621063Y-156809774D01*
X173765226Y-156953937D01*
X173934744Y-157067205D01*
X174123102Y-157145226D01*
X174323061Y-157185000D01*
X174526939Y-157185000D01*
X174726898Y-157145226D01*
X174915256Y-157067205D01*
X175084774Y-156953937D01*
X175228937Y-156809774D01*
X175342205Y-156640256D01*
X175420226Y-156451898D01*
X175460000Y-156251939D01*
X175460000Y-156048061D01*
X175420226Y-155848102D01*
X175378788Y-155748061D01*
X192590000Y-155748061D01*
X192590000Y-155951939D01*
X192629774Y-156151898D01*
X192707795Y-156340256D01*
X192821063Y-156509774D01*
X192965226Y-156653937D01*
X193134744Y-156767205D01*
X193323102Y-156845226D01*
X193523061Y-156885000D01*
X193726939Y-156885000D01*
X193926898Y-156845226D01*
X194115256Y-156767205D01*
X194284774Y-156653937D01*
X194428937Y-156509774D01*
X194542205Y-156340256D01*
X194620226Y-156151898D01*
X194660000Y-155951939D01*
X194660000Y-155748061D01*
X194620226Y-155548102D01*
X194542205Y-155359744D01*
X194428937Y-155190226D01*
X194284774Y-155046063D01*
X194115256Y-154932795D01*
X193926898Y-154854774D01*
X193726939Y-154815000D01*
X193523061Y-154815000D01*
X193323102Y-154854774D01*
X193134744Y-154932795D01*
X192965226Y-155046063D01*
X192821063Y-155190226D01*
X192707795Y-155359744D01*
X192629774Y-155548102D01*
X192590000Y-155748061D01*
X175378788Y-155748061D01*
X175342205Y-155659744D01*
X175228937Y-155490226D01*
X175084774Y-155346063D01*
X174915256Y-155232795D01*
X174726898Y-155154774D01*
X174526939Y-155115000D01*
X174323061Y-155115000D01*
X174123102Y-155154774D01*
X173934744Y-155232795D01*
X173765226Y-155346063D01*
X173621063Y-155490226D01*
X173507795Y-155659744D01*
X173429774Y-155848102D01*
X173390000Y-156048061D01*
X155006581Y-156048061D01*
X155199694Y-155425615D01*
X155278480Y-154674305D01*
X155274002Y-154625695D01*
X196571520Y-154625695D01*
X196640822Y-155377938D01*
X196855548Y-156102208D01*
X197207445Y-156770670D01*
X197234452Y-156811088D01*
X197724119Y-157171276D01*
X200245395Y-154650000D01*
X197724119Y-152128724D01*
X197234452Y-152488912D01*
X196874151Y-153152882D01*
X196650306Y-153874385D01*
X196571520Y-154625695D01*
X155274002Y-154625695D01*
X155209178Y-153922062D01*
X155007230Y-153240890D01*
X157305048Y-153240890D01*
X157305048Y-153487110D01*
X157353083Y-153728598D01*
X157447307Y-153956074D01*
X157584099Y-154160798D01*
X157758202Y-154334901D01*
X157962926Y-154471693D01*
X158190402Y-154565917D01*
X158431890Y-154613952D01*
X158678110Y-154613952D01*
X158919598Y-154565917D01*
X159147074Y-154471693D01*
X159351798Y-154334901D01*
X159525901Y-154160798D01*
X159662693Y-153956074D01*
X159756917Y-153728598D01*
X159804952Y-153487110D01*
X159804952Y-153240890D01*
X159756917Y-152999402D01*
X159662693Y-152771926D01*
X159525901Y-152567202D01*
X159351798Y-152393099D01*
X159147074Y-152256307D01*
X158919598Y-152162083D01*
X158678110Y-152114048D01*
X158431890Y-152114048D01*
X158190402Y-152162083D01*
X157962926Y-152256307D01*
X157758202Y-152393099D01*
X157584099Y-152567202D01*
X157447307Y-152771926D01*
X157353083Y-152999402D01*
X157305048Y-153240890D01*
X155007230Y-153240890D01*
X154994452Y-153197792D01*
X154642555Y-152529330D01*
X154615548Y-152488912D01*
X154125881Y-152128724D01*
X151604605Y-154650000D01*
X151245395Y-154650000D01*
X148724119Y-152128724D01*
X148585000Y-152231057D01*
X148585000Y-101363740D01*
X148650000Y-101363740D01*
X148650000Y-101656260D01*
X148707068Y-101943158D01*
X148819010Y-102213411D01*
X148981525Y-102456632D01*
X149188368Y-102663475D01*
X149362760Y-102780000D01*
X149188368Y-102896525D01*
X148981525Y-103103368D01*
X148819010Y-103346589D01*
X148707068Y-103616842D01*
X148650000Y-103903740D01*
X148650000Y-104196260D01*
X148707068Y-104483158D01*
X148819010Y-104753411D01*
X148981525Y-104996632D01*
X149188368Y-105203475D01*
X149362760Y-105320000D01*
X149188368Y-105436525D01*
X148981525Y-105643368D01*
X148819010Y-105886589D01*
X148707068Y-106156842D01*
X148650000Y-106443740D01*
X148650000Y-106736260D01*
X148707068Y-107023158D01*
X148819010Y-107293411D01*
X148981525Y-107536632D01*
X149188368Y-107743475D01*
X149370534Y-107865195D01*
X149253645Y-107934822D01*
X149037412Y-108129731D01*
X148863359Y-108363080D01*
X148738175Y-108625901D01*
X148693524Y-108773110D01*
X148814845Y-109003000D01*
X150008000Y-109003000D01*
X150008000Y-108983000D01*
X150262000Y-108983000D01*
X150262000Y-109003000D01*
X150282000Y-109003000D01*
X150282000Y-109257000D01*
X150262000Y-109257000D01*
X150262000Y-109277000D01*
X150008000Y-109277000D01*
X150008000Y-109257000D01*
X148814845Y-109257000D01*
X148693524Y-109486890D01*
X148738175Y-109634099D01*
X148863359Y-109896920D01*
X149037412Y-110130269D01*
X149253645Y-110325178D01*
X149370534Y-110394805D01*
X149188368Y-110516525D01*
X148981525Y-110723368D01*
X148819010Y-110966589D01*
X148707068Y-111236842D01*
X148650000Y-111523740D01*
X148650000Y-111816260D01*
X148707068Y-112103158D01*
X148819010Y-112373411D01*
X148981525Y-112616632D01*
X149188368Y-112823475D01*
X149370534Y-112945195D01*
X149253645Y-113014822D01*
X149037412Y-113209731D01*
X148863359Y-113443080D01*
X148738175Y-113705901D01*
X148693524Y-113853110D01*
X148814845Y-114083000D01*
X150008000Y-114083000D01*
X150008000Y-114063000D01*
X150262000Y-114063000D01*
X150262000Y-114083000D01*
X150282000Y-114083000D01*
X150282000Y-114337000D01*
X150262000Y-114337000D01*
X150262000Y-114357000D01*
X150008000Y-114357000D01*
X150008000Y-114337000D01*
X148814845Y-114337000D01*
X148693524Y-114566890D01*
X148738175Y-114714099D01*
X148863359Y-114976920D01*
X149037412Y-115210269D01*
X149253645Y-115405178D01*
X149370534Y-115474805D01*
X149188368Y-115596525D01*
X148981525Y-115803368D01*
X148819010Y-116046589D01*
X148707068Y-116316842D01*
X148650000Y-116603740D01*
X148650000Y-116896260D01*
X148707068Y-117183158D01*
X148819010Y-117453411D01*
X148981525Y-117696632D01*
X149188368Y-117903475D01*
X149362760Y-118020000D01*
X149188368Y-118136525D01*
X148981525Y-118343368D01*
X148819010Y-118586589D01*
X148707068Y-118856842D01*
X148650000Y-119143740D01*
X148650000Y-119436260D01*
X148707068Y-119723158D01*
X148819010Y-119993411D01*
X148981525Y-120236632D01*
X149188368Y-120443475D01*
X149362760Y-120560000D01*
X149188368Y-120676525D01*
X148981525Y-120883368D01*
X148819010Y-121126589D01*
X148707068Y-121396842D01*
X148650000Y-121683740D01*
X148650000Y-121976260D01*
X148707068Y-122263158D01*
X148819010Y-122533411D01*
X148981525Y-122776632D01*
X149188368Y-122983475D01*
X149362760Y-123100000D01*
X149188368Y-123216525D01*
X148981525Y-123423368D01*
X148819010Y-123666589D01*
X148707068Y-123936842D01*
X148650000Y-124223740D01*
X148650000Y-124516260D01*
X148707068Y-124803158D01*
X148819010Y-125073411D01*
X148981525Y-125316632D01*
X149188368Y-125523475D01*
X149370534Y-125645195D01*
X149253645Y-125714822D01*
X149037412Y-125909731D01*
X148863359Y-126143080D01*
X148738175Y-126405901D01*
X148693524Y-126553110D01*
X148814845Y-126783000D01*
X150008000Y-126783000D01*
X150008000Y-126763000D01*
X150262000Y-126763000D01*
X150262000Y-126783000D01*
X150282000Y-126783000D01*
X150282000Y-127037000D01*
X150262000Y-127037000D01*
X150262000Y-127057000D01*
X150008000Y-127057000D01*
X150008000Y-127037000D01*
X148814845Y-127037000D01*
X148693524Y-127266890D01*
X148738175Y-127414099D01*
X148863359Y-127676920D01*
X149037412Y-127910269D01*
X149253645Y-128105178D01*
X149370534Y-128174805D01*
X149188368Y-128296525D01*
X148981525Y-128503368D01*
X148819010Y-128746589D01*
X148707068Y-129016842D01*
X148650000Y-129303740D01*
X148650000Y-129596260D01*
X148707068Y-129883158D01*
X148819010Y-130153411D01*
X148981525Y-130396632D01*
X149188368Y-130603475D01*
X149362760Y-130720000D01*
X149188368Y-130836525D01*
X148981525Y-131043368D01*
X148819010Y-131286589D01*
X148707068Y-131556842D01*
X148650000Y-131843740D01*
X148650000Y-132136260D01*
X148707068Y-132423158D01*
X148819010Y-132693411D01*
X148981525Y-132936632D01*
X149188368Y-133143475D01*
X149370534Y-133265195D01*
X149253645Y-133334822D01*
X149037412Y-133529731D01*
X148863359Y-133763080D01*
X148738175Y-134025901D01*
X148693524Y-134173110D01*
X148814845Y-134403000D01*
X150008000Y-134403000D01*
X150008000Y-134383000D01*
X150262000Y-134383000D01*
X150262000Y-134403000D01*
X150282000Y-134403000D01*
X150282000Y-134657000D01*
X150262000Y-134657000D01*
X150262000Y-134677000D01*
X150008000Y-134677000D01*
X150008000Y-134657000D01*
X148814845Y-134657000D01*
X148693524Y-134886890D01*
X148738175Y-135034099D01*
X148863359Y-135296920D01*
X149037412Y-135530269D01*
X149253645Y-135725178D01*
X149370534Y-135794805D01*
X149188368Y-135916525D01*
X148981525Y-136123368D01*
X148819010Y-136366589D01*
X148707068Y-136636842D01*
X148650000Y-136923740D01*
X148650000Y-137216260D01*
X148707068Y-137503158D01*
X148819010Y-137773411D01*
X148981525Y-138016632D01*
X149188368Y-138223475D01*
X149362760Y-138340000D01*
X149188368Y-138456525D01*
X148981525Y-138663368D01*
X148819010Y-138906589D01*
X148707068Y-139176842D01*
X148650000Y-139463740D01*
X148650000Y-139756260D01*
X148707068Y-140043158D01*
X148819010Y-140313411D01*
X148981525Y-140556632D01*
X149188368Y-140763475D01*
X149362760Y-140880000D01*
X149188368Y-140996525D01*
X148981525Y-141203368D01*
X148819010Y-141446589D01*
X148707068Y-141716842D01*
X148650000Y-142003740D01*
X148650000Y-142296260D01*
X148707068Y-142583158D01*
X148819010Y-142853411D01*
X148981525Y-143096632D01*
X149188368Y-143303475D01*
X149370534Y-143425195D01*
X149253645Y-143494822D01*
X149037412Y-143689731D01*
X148863359Y-143923080D01*
X148738175Y-144185901D01*
X148693524Y-144333110D01*
X148814845Y-144563000D01*
X150008000Y-144563000D01*
X150008000Y-144543000D01*
X150262000Y-144543000D01*
X150262000Y-144563000D01*
X150282000Y-144563000D01*
X150282000Y-144817000D01*
X150262000Y-144817000D01*
X150262000Y-144837000D01*
X150008000Y-144837000D01*
X150008000Y-144817000D01*
X148814845Y-144817000D01*
X148693524Y-145046890D01*
X148738175Y-145194099D01*
X148863359Y-145456920D01*
X149037412Y-145690269D01*
X149253645Y-145885178D01*
X149370534Y-145954805D01*
X149188368Y-146076525D01*
X148981525Y-146283368D01*
X148819010Y-146526589D01*
X148707068Y-146796842D01*
X148650000Y-147083740D01*
X148650000Y-147376260D01*
X148707068Y-147663158D01*
X148819010Y-147933411D01*
X148981525Y-148176632D01*
X149188368Y-148383475D01*
X149362760Y-148500000D01*
X149188368Y-148616525D01*
X148981525Y-148823368D01*
X148819010Y-149066589D01*
X148707068Y-149336842D01*
X148650000Y-149623740D01*
X148650000Y-149916260D01*
X148707068Y-150203158D01*
X148819010Y-150473411D01*
X148981525Y-150716632D01*
X149188368Y-150923475D01*
X149431589Y-151085990D01*
X149701842Y-151197932D01*
X149736655Y-151204857D01*
X149304330Y-151432445D01*
X149263912Y-151459452D01*
X148903724Y-151949119D01*
X151425000Y-154470395D01*
X153946276Y-151949119D01*
X153586088Y-151459452D01*
X153214981Y-151258072D01*
X153525000Y-151258072D01*
X153649482Y-151245812D01*
X153769180Y-151209502D01*
X153786956Y-151200000D01*
X164136928Y-151200000D01*
X164136928Y-152100000D01*
X164153031Y-152263500D01*
X164200722Y-152420716D01*
X164278169Y-152565608D01*
X164382394Y-152692606D01*
X164509392Y-152796831D01*
X164654284Y-152874278D01*
X164811500Y-152921969D01*
X164975000Y-152938072D01*
X165375000Y-152938072D01*
X165538500Y-152921969D01*
X165695716Y-152874278D01*
X165840608Y-152796831D01*
X165866894Y-152775259D01*
X166027008Y-152860841D01*
X166222106Y-152920024D01*
X166425000Y-152940007D01*
X166627895Y-152920024D01*
X166822993Y-152860841D01*
X167002797Y-152764734D01*
X167050000Y-152725995D01*
X167097204Y-152764734D01*
X167277008Y-152860841D01*
X167472106Y-152920024D01*
X167675000Y-152940007D01*
X167877895Y-152920024D01*
X168072993Y-152860841D01*
X168252797Y-152764734D01*
X168300000Y-152725995D01*
X168347204Y-152764734D01*
X168527008Y-152860841D01*
X168722106Y-152920024D01*
X168925000Y-152940007D01*
X169127895Y-152920024D01*
X169322993Y-152860841D01*
X169502797Y-152764734D01*
X169542938Y-152731791D01*
X169626840Y-152795255D01*
X169812028Y-152884994D01*
X169888877Y-152894666D01*
X170048000Y-152766998D01*
X170048000Y-151777000D01*
X170302000Y-151777000D01*
X170302000Y-152766998D01*
X170461123Y-152894666D01*
X170537972Y-152884994D01*
X170723160Y-152795255D01*
X170887283Y-152671112D01*
X171024033Y-152517336D01*
X171062030Y-152452561D01*
X177568000Y-152452561D01*
X177568000Y-152656439D01*
X177607774Y-152856398D01*
X177685795Y-153044756D01*
X177799063Y-153214274D01*
X177943226Y-153358437D01*
X178112744Y-153471705D01*
X178301102Y-153549726D01*
X178501061Y-153589500D01*
X178704939Y-153589500D01*
X178904898Y-153549726D01*
X179093256Y-153471705D01*
X179262774Y-153358437D01*
X179406937Y-153214274D01*
X179520205Y-153044756D01*
X179555079Y-152960561D01*
X182330500Y-152960561D01*
X182330500Y-153164439D01*
X182370274Y-153364398D01*
X182448295Y-153552756D01*
X182561563Y-153722274D01*
X182705726Y-153866437D01*
X182875244Y-153979705D01*
X183063602Y-154057726D01*
X183263561Y-154097500D01*
X183467439Y-154097500D01*
X183667398Y-154057726D01*
X183855756Y-153979705D01*
X184025274Y-153866437D01*
X184169437Y-153722274D01*
X184282705Y-153552756D01*
X184360726Y-153364398D01*
X184400500Y-153164439D01*
X184400500Y-152960561D01*
X184360726Y-152760602D01*
X184282705Y-152572244D01*
X184169437Y-152402726D01*
X184025274Y-152258563D01*
X183915179Y-152185000D01*
X184097089Y-152185000D01*
X184277729Y-152149068D01*
X184447889Y-152078586D01*
X184601028Y-151976262D01*
X184628171Y-151949119D01*
X197903724Y-151949119D01*
X200425000Y-154470395D01*
X202946276Y-151949119D01*
X202586088Y-151459452D01*
X201922118Y-151099151D01*
X201200615Y-150875306D01*
X200449305Y-150796520D01*
X199697062Y-150865822D01*
X198972792Y-151080548D01*
X198304330Y-151432445D01*
X198263912Y-151459452D01*
X197903724Y-151949119D01*
X184628171Y-151949119D01*
X184731262Y-151846028D01*
X184833586Y-151692889D01*
X184904068Y-151522729D01*
X184940000Y-151342089D01*
X184940000Y-151157911D01*
X184904068Y-150977271D01*
X184833586Y-150807111D01*
X184731262Y-150653972D01*
X184601028Y-150523738D01*
X184447889Y-150421414D01*
X184277729Y-150350932D01*
X184097089Y-150315000D01*
X183912911Y-150315000D01*
X183732271Y-150350932D01*
X183562111Y-150421414D01*
X183408972Y-150523738D01*
X183278738Y-150653972D01*
X183176414Y-150807111D01*
X183105932Y-150977271D01*
X183070000Y-151157911D01*
X183070000Y-151342089D01*
X183105932Y-151522729D01*
X183176414Y-151692889D01*
X183278738Y-151846028D01*
X183408972Y-151976262D01*
X183493377Y-152032659D01*
X183467439Y-152027500D01*
X183263561Y-152027500D01*
X183063602Y-152067274D01*
X182875244Y-152145295D01*
X182705726Y-152258563D01*
X182561563Y-152402726D01*
X182448295Y-152572244D01*
X182370274Y-152760602D01*
X182330500Y-152960561D01*
X179555079Y-152960561D01*
X179598226Y-152856398D01*
X179638000Y-152656439D01*
X179638000Y-152452561D01*
X179598226Y-152252602D01*
X179520205Y-152064244D01*
X179501885Y-152036826D01*
X179628937Y-151909774D01*
X179742205Y-151740256D01*
X179820226Y-151551898D01*
X179860000Y-151351939D01*
X179860000Y-151148061D01*
X179820226Y-150948102D01*
X179742205Y-150759744D01*
X179628937Y-150590226D01*
X179484774Y-150446063D01*
X179315256Y-150332795D01*
X179126898Y-150254774D01*
X178926939Y-150215000D01*
X178723061Y-150215000D01*
X178523102Y-150254774D01*
X178334744Y-150332795D01*
X178165226Y-150446063D01*
X178021063Y-150590226D01*
X177907795Y-150759744D01*
X177829774Y-150948102D01*
X177790000Y-151148061D01*
X177790000Y-151351939D01*
X177829774Y-151551898D01*
X177907795Y-151740256D01*
X177926115Y-151767674D01*
X177799063Y-151894726D01*
X177685795Y-152064244D01*
X177607774Y-152252602D01*
X177568000Y-152452561D01*
X171062030Y-152452561D01*
X171128155Y-152339836D01*
X171195648Y-152145433D01*
X171223918Y-151941599D01*
X171058762Y-151777000D01*
X170302000Y-151777000D01*
X170048000Y-151777000D01*
X170028000Y-151777000D01*
X170028000Y-151523000D01*
X170048000Y-151523000D01*
X170048000Y-150533002D01*
X170302000Y-150533002D01*
X170302000Y-151523000D01*
X171058762Y-151523000D01*
X171223918Y-151358401D01*
X171195648Y-151154567D01*
X171128155Y-150960164D01*
X171024033Y-150782664D01*
X170887283Y-150628888D01*
X170723160Y-150504745D01*
X170537972Y-150415006D01*
X170461123Y-150405334D01*
X170302000Y-150533002D01*
X170048000Y-150533002D01*
X169888877Y-150405334D01*
X169812028Y-150415006D01*
X169626840Y-150504745D01*
X169542938Y-150568209D01*
X169502797Y-150535266D01*
X169322992Y-150439159D01*
X169127894Y-150379976D01*
X169077265Y-150374990D01*
X169226898Y-150345226D01*
X169415256Y-150267205D01*
X169584774Y-150153937D01*
X169728937Y-150009774D01*
X169842205Y-149840256D01*
X169920226Y-149651898D01*
X169960000Y-149451939D01*
X169960000Y-149248061D01*
X169940109Y-149148061D01*
X183190000Y-149148061D01*
X183190000Y-149351939D01*
X183229774Y-149551898D01*
X183307795Y-149740256D01*
X183421063Y-149909774D01*
X183565226Y-150053937D01*
X183734744Y-150167205D01*
X183923102Y-150245226D01*
X184123061Y-150285000D01*
X184326939Y-150285000D01*
X184526898Y-150245226D01*
X184715256Y-150167205D01*
X184884774Y-150053937D01*
X185028937Y-149909774D01*
X185142205Y-149740256D01*
X185220226Y-149551898D01*
X185260000Y-149351939D01*
X185260000Y-149148061D01*
X185220226Y-148948102D01*
X185142205Y-148759744D01*
X185028937Y-148590226D01*
X184884774Y-148446063D01*
X184715256Y-148332795D01*
X184526898Y-148254774D01*
X184326939Y-148215000D01*
X184123061Y-148215000D01*
X183923102Y-148254774D01*
X183734744Y-148332795D01*
X183565226Y-148446063D01*
X183421063Y-148590226D01*
X183307795Y-148759744D01*
X183229774Y-148948102D01*
X183190000Y-149148061D01*
X169940109Y-149148061D01*
X169920226Y-149048102D01*
X169842205Y-148859744D01*
X169728937Y-148690226D01*
X169584774Y-148546063D01*
X169415256Y-148432795D01*
X169226898Y-148354774D01*
X169026939Y-148315000D01*
X168823061Y-148315000D01*
X168623102Y-148354774D01*
X168434744Y-148432795D01*
X168300000Y-148522828D01*
X168165256Y-148432795D01*
X167976898Y-148354774D01*
X167776939Y-148315000D01*
X167573061Y-148315000D01*
X167373102Y-148354774D01*
X167184744Y-148432795D01*
X167050000Y-148522828D01*
X166915256Y-148432795D01*
X166726898Y-148354774D01*
X166526939Y-148315000D01*
X166323061Y-148315000D01*
X166123102Y-148354774D01*
X165934744Y-148432795D01*
X165765226Y-148546063D01*
X165763110Y-148548179D01*
X165665256Y-148482795D01*
X165476898Y-148404774D01*
X165276939Y-148365000D01*
X165073061Y-148365000D01*
X164873102Y-148404774D01*
X164684744Y-148482795D01*
X164515226Y-148596063D01*
X164371063Y-148740226D01*
X164257795Y-148909744D01*
X164179774Y-149098102D01*
X164140000Y-149298061D01*
X164140000Y-149501939D01*
X164179774Y-149701898D01*
X164257795Y-149890256D01*
X164371063Y-150059774D01*
X164515226Y-150203937D01*
X164684744Y-150317205D01*
X164827731Y-150376432D01*
X164811500Y-150378031D01*
X164654284Y-150425722D01*
X164509392Y-150503169D01*
X164382394Y-150607394D01*
X164278169Y-150734392D01*
X164200722Y-150879284D01*
X164153031Y-151036500D01*
X164136928Y-151200000D01*
X153786956Y-151200000D01*
X153879494Y-151150537D01*
X153976185Y-151071185D01*
X154055537Y-150974494D01*
X154114502Y-150864180D01*
X154150812Y-150744482D01*
X154163072Y-150620000D01*
X154163072Y-149738061D01*
X154430000Y-149738061D01*
X154430000Y-149941939D01*
X154469774Y-150141898D01*
X154547795Y-150330256D01*
X154661063Y-150499774D01*
X154805226Y-150643937D01*
X154974744Y-150757205D01*
X155163102Y-150835226D01*
X155363061Y-150875000D01*
X155566939Y-150875000D01*
X155766898Y-150835226D01*
X155955256Y-150757205D01*
X156124774Y-150643937D01*
X156268937Y-150499774D01*
X156382205Y-150330256D01*
X156460226Y-150141898D01*
X156500000Y-149941939D01*
X156500000Y-149738061D01*
X156460226Y-149538102D01*
X156382205Y-149349744D01*
X156268937Y-149180226D01*
X156124774Y-149036063D01*
X155955256Y-148922795D01*
X155766898Y-148844774D01*
X155566939Y-148805000D01*
X155363061Y-148805000D01*
X155163102Y-148844774D01*
X154974744Y-148922795D01*
X154805226Y-149036063D01*
X154661063Y-149180226D01*
X154547795Y-149349744D01*
X154469774Y-149538102D01*
X154430000Y-149738061D01*
X154163072Y-149738061D01*
X154163072Y-148920000D01*
X154150812Y-148795518D01*
X154114502Y-148675820D01*
X154055537Y-148565506D01*
X153976185Y-148468815D01*
X153879494Y-148389463D01*
X153769180Y-148330498D01*
X153696620Y-148308487D01*
X153828475Y-148176632D01*
X153990990Y-147933411D01*
X154102932Y-147663158D01*
X154160000Y-147376260D01*
X154160000Y-147352487D01*
X154179774Y-147451898D01*
X154257795Y-147640256D01*
X154371063Y-147809774D01*
X154515226Y-147953937D01*
X154684744Y-148067205D01*
X154873102Y-148145226D01*
X155073061Y-148185000D01*
X155276939Y-148185000D01*
X155476898Y-148145226D01*
X155665256Y-148067205D01*
X155834774Y-147953937D01*
X155978937Y-147809774D01*
X156092205Y-147640256D01*
X156170226Y-147451898D01*
X156210000Y-147251939D01*
X156210000Y-147048061D01*
X156170226Y-146848102D01*
X156092205Y-146659744D01*
X156002172Y-146525000D01*
X156092205Y-146390256D01*
X156109682Y-146348061D01*
X158990000Y-146348061D01*
X158990000Y-146551939D01*
X159029774Y-146751898D01*
X159107795Y-146940256D01*
X159114306Y-146950000D01*
X159107795Y-146959744D01*
X159029774Y-147148102D01*
X158990000Y-147348061D01*
X158990000Y-147551939D01*
X159029774Y-147751898D01*
X159107795Y-147940256D01*
X159221063Y-148109774D01*
X159365226Y-148253937D01*
X159534744Y-148367205D01*
X159723102Y-148445226D01*
X159923061Y-148485000D01*
X160126939Y-148485000D01*
X160326898Y-148445226D01*
X160515256Y-148367205D01*
X160684774Y-148253937D01*
X160828937Y-148109774D01*
X160942205Y-147940256D01*
X161020226Y-147751898D01*
X161060000Y-147551939D01*
X161060000Y-147348061D01*
X161020226Y-147148102D01*
X160942205Y-146959744D01*
X160935694Y-146950000D01*
X160942205Y-146940256D01*
X161020226Y-146751898D01*
X161060000Y-146551939D01*
X161060000Y-146356561D01*
X164296500Y-146356561D01*
X164296500Y-146560439D01*
X164336274Y-146760398D01*
X164414295Y-146948756D01*
X164527563Y-147118274D01*
X164671726Y-147262437D01*
X164841244Y-147375705D01*
X165029602Y-147453726D01*
X165229561Y-147493500D01*
X165433439Y-147493500D01*
X165633398Y-147453726D01*
X165821756Y-147375705D01*
X165991274Y-147262437D01*
X166135437Y-147118274D01*
X166248705Y-146948756D01*
X166326726Y-146760398D01*
X166366500Y-146560439D01*
X166366500Y-146356561D01*
X166326726Y-146156602D01*
X166248705Y-145968244D01*
X166135437Y-145798726D01*
X165991274Y-145654563D01*
X165821756Y-145541295D01*
X165633398Y-145463274D01*
X165433439Y-145423500D01*
X165229561Y-145423500D01*
X165029602Y-145463274D01*
X164841244Y-145541295D01*
X164671726Y-145654563D01*
X164527563Y-145798726D01*
X164414295Y-145968244D01*
X164336274Y-146156602D01*
X164296500Y-146356561D01*
X161060000Y-146356561D01*
X161060000Y-146348061D01*
X161020226Y-146148102D01*
X160942205Y-145959744D01*
X160828937Y-145790226D01*
X160684774Y-145646063D01*
X160515256Y-145532795D01*
X160326898Y-145454774D01*
X160126939Y-145415000D01*
X159923061Y-145415000D01*
X159723102Y-145454774D01*
X159534744Y-145532795D01*
X159365226Y-145646063D01*
X159221063Y-145790226D01*
X159107795Y-145959744D01*
X159029774Y-146148102D01*
X158990000Y-146348061D01*
X156109682Y-146348061D01*
X156170226Y-146201898D01*
X156210000Y-146001939D01*
X156210000Y-145798061D01*
X156170226Y-145598102D01*
X156092205Y-145409744D01*
X155978937Y-145240226D01*
X155834774Y-145096063D01*
X155665256Y-144982795D01*
X155476898Y-144904774D01*
X155276939Y-144865000D01*
X155073061Y-144865000D01*
X154873102Y-144904774D01*
X154684744Y-144982795D01*
X154515226Y-145096063D01*
X154371063Y-145240226D01*
X154257795Y-145409744D01*
X154179774Y-145598102D01*
X154140000Y-145798061D01*
X154140000Y-146001939D01*
X154179774Y-146201898D01*
X154257795Y-146390256D01*
X154347828Y-146525000D01*
X154257795Y-146659744D01*
X154179774Y-146848102D01*
X154146451Y-147015627D01*
X154102932Y-146796842D01*
X153990990Y-146526589D01*
X153828475Y-146283368D01*
X153621632Y-146076525D01*
X153447240Y-145960000D01*
X153621632Y-145843475D01*
X153828475Y-145636632D01*
X153990990Y-145393411D01*
X154102932Y-145123158D01*
X154160000Y-144836260D01*
X154160000Y-144618061D01*
X178500000Y-144618061D01*
X178500000Y-144821939D01*
X178539774Y-145021898D01*
X178617795Y-145210256D01*
X178731063Y-145379774D01*
X178875226Y-145523937D01*
X179044744Y-145637205D01*
X179233102Y-145715226D01*
X179433061Y-145755000D01*
X179636939Y-145755000D01*
X179836898Y-145715226D01*
X180025256Y-145637205D01*
X180194774Y-145523937D01*
X180338937Y-145379774D01*
X180452205Y-145210256D01*
X180530226Y-145021898D01*
X180555256Y-144896061D01*
X180870000Y-144896061D01*
X180870000Y-145099939D01*
X180909774Y-145299898D01*
X180987795Y-145488256D01*
X181101063Y-145657774D01*
X181245226Y-145801937D01*
X181414744Y-145915205D01*
X181603102Y-145993226D01*
X181803061Y-146033000D01*
X182006939Y-146033000D01*
X182206898Y-145993226D01*
X182395256Y-145915205D01*
X182476500Y-145860920D01*
X182557744Y-145915205D01*
X182746102Y-145993226D01*
X182946061Y-146033000D01*
X183149939Y-146033000D01*
X183349898Y-145993226D01*
X183538256Y-145915205D01*
X183707774Y-145801937D01*
X183851937Y-145657774D01*
X183965205Y-145488256D01*
X184027150Y-145338708D01*
X184029774Y-145351898D01*
X184107795Y-145540256D01*
X184221063Y-145709774D01*
X184365226Y-145853937D01*
X184534744Y-145967205D01*
X184723102Y-146045226D01*
X184923061Y-146085000D01*
X185126939Y-146085000D01*
X185326898Y-146045226D01*
X185515256Y-145967205D01*
X185684774Y-145853937D01*
X185828937Y-145709774D01*
X185942205Y-145540256D01*
X186020226Y-145351898D01*
X186060000Y-145151939D01*
X186060000Y-144948061D01*
X186020226Y-144748102D01*
X185942205Y-144559744D01*
X185828937Y-144390226D01*
X185684774Y-144246063D01*
X185515256Y-144132795D01*
X185326898Y-144054774D01*
X185126939Y-144015000D01*
X184923061Y-144015000D01*
X184723102Y-144054774D01*
X184534744Y-144132795D01*
X184365226Y-144246063D01*
X184221063Y-144390226D01*
X184107795Y-144559744D01*
X184045850Y-144709292D01*
X184043226Y-144696102D01*
X183965205Y-144507744D01*
X183851937Y-144338226D01*
X183707774Y-144194063D01*
X183538256Y-144080795D01*
X183349898Y-144002774D01*
X183149939Y-143963000D01*
X182946061Y-143963000D01*
X182746102Y-144002774D01*
X182557744Y-144080795D01*
X182476500Y-144135080D01*
X182395256Y-144080795D01*
X182206898Y-144002774D01*
X182006939Y-143963000D01*
X181803061Y-143963000D01*
X181603102Y-144002774D01*
X181414744Y-144080795D01*
X181245226Y-144194063D01*
X181101063Y-144338226D01*
X180987795Y-144507744D01*
X180909774Y-144696102D01*
X180870000Y-144896061D01*
X180555256Y-144896061D01*
X180570000Y-144821939D01*
X180570000Y-144618061D01*
X180530226Y-144418102D01*
X180452205Y-144229744D01*
X180338937Y-144060226D01*
X180194774Y-143916063D01*
X180025256Y-143802795D01*
X179836898Y-143724774D01*
X179636939Y-143685000D01*
X179433061Y-143685000D01*
X179233102Y-143724774D01*
X179044744Y-143802795D01*
X178875226Y-143916063D01*
X178731063Y-144060226D01*
X178617795Y-144229744D01*
X178539774Y-144418102D01*
X178500000Y-144618061D01*
X154160000Y-144618061D01*
X154160000Y-144543740D01*
X154102932Y-144256842D01*
X153990990Y-143986589D01*
X153828475Y-143743368D01*
X153621632Y-143536525D01*
X153447240Y-143420000D01*
X153621632Y-143303475D01*
X153828475Y-143096632D01*
X153990990Y-142853411D01*
X154102932Y-142583158D01*
X154160000Y-142296260D01*
X154160000Y-142003740D01*
X154102932Y-141716842D01*
X153990990Y-141446589D01*
X153828475Y-141203368D01*
X153621632Y-140996525D01*
X153439466Y-140874805D01*
X153556355Y-140805178D01*
X153772588Y-140610269D01*
X153946641Y-140376920D01*
X154062555Y-140133561D01*
X176298000Y-140133561D01*
X176298000Y-140337439D01*
X176337774Y-140537398D01*
X176415795Y-140725756D01*
X176529063Y-140895274D01*
X176673226Y-141039437D01*
X176842744Y-141152705D01*
X177031102Y-141230726D01*
X177231061Y-141270500D01*
X177434939Y-141270500D01*
X177634898Y-141230726D01*
X177823256Y-141152705D01*
X177992774Y-141039437D01*
X178136937Y-140895274D01*
X178195310Y-140807911D01*
X188160000Y-140807911D01*
X188160000Y-140992089D01*
X188195932Y-141172729D01*
X188266414Y-141342889D01*
X188368738Y-141496028D01*
X188498972Y-141626262D01*
X188652111Y-141728586D01*
X188822271Y-141799068D01*
X189002911Y-141835000D01*
X189187089Y-141835000D01*
X189367729Y-141799068D01*
X189537889Y-141728586D01*
X189691028Y-141626262D01*
X189821262Y-141496028D01*
X189923586Y-141342889D01*
X189994068Y-141172729D01*
X190030000Y-140992089D01*
X190030000Y-140807911D01*
X189994068Y-140627271D01*
X189923586Y-140457111D01*
X189821262Y-140303972D01*
X189691028Y-140173738D01*
X189537889Y-140071414D01*
X189367729Y-140000932D01*
X189187089Y-139965000D01*
X189002911Y-139965000D01*
X188822271Y-140000932D01*
X188652111Y-140071414D01*
X188498972Y-140173738D01*
X188368738Y-140303972D01*
X188266414Y-140457111D01*
X188195932Y-140627271D01*
X188160000Y-140807911D01*
X178195310Y-140807911D01*
X178250205Y-140725756D01*
X178328226Y-140537398D01*
X178368000Y-140337439D01*
X178368000Y-140133561D01*
X178328226Y-139933602D01*
X178251372Y-139748061D01*
X198790000Y-139748061D01*
X198790000Y-139951939D01*
X198829774Y-140151898D01*
X198907795Y-140340256D01*
X199021063Y-140509774D01*
X199165226Y-140653937D01*
X199334744Y-140767205D01*
X199523102Y-140845226D01*
X199723061Y-140885000D01*
X199926939Y-140885000D01*
X200126898Y-140845226D01*
X200315256Y-140767205D01*
X200484774Y-140653937D01*
X200525000Y-140613711D01*
X200565226Y-140653937D01*
X200734744Y-140767205D01*
X200923102Y-140845226D01*
X201123061Y-140885000D01*
X201326939Y-140885000D01*
X201526898Y-140845226D01*
X201715256Y-140767205D01*
X201884774Y-140653937D01*
X202028937Y-140509774D01*
X202142205Y-140340256D01*
X202220226Y-140151898D01*
X202260000Y-139951939D01*
X202260000Y-139748061D01*
X202220226Y-139548102D01*
X202142205Y-139359744D01*
X202028937Y-139190226D01*
X201884774Y-139046063D01*
X201715256Y-138932795D01*
X201526898Y-138854774D01*
X201326939Y-138815000D01*
X201123061Y-138815000D01*
X200923102Y-138854774D01*
X200734744Y-138932795D01*
X200565226Y-139046063D01*
X200525000Y-139086289D01*
X200484774Y-139046063D01*
X200315256Y-138932795D01*
X200126898Y-138854774D01*
X199926939Y-138815000D01*
X199723061Y-138815000D01*
X199523102Y-138854774D01*
X199334744Y-138932795D01*
X199165226Y-139046063D01*
X199021063Y-139190226D01*
X198907795Y-139359744D01*
X198829774Y-139548102D01*
X198790000Y-139748061D01*
X178251372Y-139748061D01*
X178250205Y-139745244D01*
X178136937Y-139575726D01*
X177992774Y-139431563D01*
X177823256Y-139318295D01*
X177634898Y-139240274D01*
X177434939Y-139200500D01*
X177231061Y-139200500D01*
X177031102Y-139240274D01*
X176842744Y-139318295D01*
X176673226Y-139431563D01*
X176529063Y-139575726D01*
X176415795Y-139745244D01*
X176337774Y-139933602D01*
X176298000Y-140133561D01*
X154062555Y-140133561D01*
X154071825Y-140114099D01*
X154116476Y-139966890D01*
X153995155Y-139737000D01*
X152802000Y-139737000D01*
X152802000Y-139757000D01*
X152548000Y-139757000D01*
X152548000Y-139737000D01*
X152528000Y-139737000D01*
X152528000Y-139483000D01*
X152548000Y-139483000D01*
X152548000Y-139463000D01*
X152802000Y-139463000D01*
X152802000Y-139483000D01*
X153995155Y-139483000D01*
X154116476Y-139253110D01*
X154071825Y-139105901D01*
X153946641Y-138843080D01*
X153772588Y-138609731D01*
X153556355Y-138414822D01*
X153439466Y-138345195D01*
X153621632Y-138223475D01*
X153828475Y-138016632D01*
X153990990Y-137773411D01*
X154102932Y-137503158D01*
X154160000Y-137216260D01*
X154160000Y-136923740D01*
X154102932Y-136636842D01*
X153990990Y-136366589D01*
X153828475Y-136123368D01*
X153621632Y-135916525D01*
X153447240Y-135800000D01*
X153621632Y-135683475D01*
X153828475Y-135476632D01*
X153981201Y-135248061D01*
X161990000Y-135248061D01*
X161990000Y-135451939D01*
X162029774Y-135651898D01*
X162091120Y-135800000D01*
X162029774Y-135948102D01*
X161990000Y-136148061D01*
X161990000Y-136351939D01*
X162029774Y-136551898D01*
X162107795Y-136740256D01*
X162221063Y-136909774D01*
X162365226Y-137053937D01*
X162534744Y-137167205D01*
X162723102Y-137245226D01*
X162923061Y-137285000D01*
X163126939Y-137285000D01*
X163326898Y-137245226D01*
X163475000Y-137183880D01*
X163623102Y-137245226D01*
X163823061Y-137285000D01*
X164026939Y-137285000D01*
X164226898Y-137245226D01*
X164415256Y-137167205D01*
X164584774Y-137053937D01*
X164728937Y-136909774D01*
X164805626Y-136795000D01*
X164896939Y-136795000D01*
X165096898Y-136755226D01*
X165285256Y-136677205D01*
X165454774Y-136563937D01*
X165598937Y-136419774D01*
X165712205Y-136250256D01*
X165790226Y-136061898D01*
X165801332Y-136006061D01*
X174075500Y-136006061D01*
X174075500Y-136209939D01*
X174115274Y-136409898D01*
X174193295Y-136598256D01*
X174306563Y-136767774D01*
X174450726Y-136911937D01*
X174620244Y-137025205D01*
X174808602Y-137103226D01*
X175008561Y-137143000D01*
X175212439Y-137143000D01*
X175412398Y-137103226D01*
X175545577Y-137048061D01*
X178640000Y-137048061D01*
X178640000Y-137251939D01*
X178679774Y-137451898D01*
X178757795Y-137640256D01*
X178871063Y-137809774D01*
X179015226Y-137953937D01*
X179184744Y-138067205D01*
X179373102Y-138145226D01*
X179573061Y-138185000D01*
X179776939Y-138185000D01*
X179976898Y-138145226D01*
X180165256Y-138067205D01*
X180175000Y-138060694D01*
X180184744Y-138067205D01*
X180373102Y-138145226D01*
X180573061Y-138185000D01*
X180776939Y-138185000D01*
X180976898Y-138145226D01*
X181165256Y-138067205D01*
X181334774Y-137953937D01*
X181478937Y-137809774D01*
X181592205Y-137640256D01*
X181670226Y-137451898D01*
X181710000Y-137251939D01*
X181710000Y-137048061D01*
X181690109Y-136948061D01*
X183990000Y-136948061D01*
X183990000Y-137151939D01*
X184029774Y-137351898D01*
X184107795Y-137540256D01*
X184181123Y-137650000D01*
X184107795Y-137759744D01*
X184029774Y-137948102D01*
X183990000Y-138148061D01*
X183990000Y-138351939D01*
X184029774Y-138551898D01*
X184107795Y-138740256D01*
X184221063Y-138909774D01*
X184365226Y-139053937D01*
X184534744Y-139167205D01*
X184723102Y-139245226D01*
X184923061Y-139285000D01*
X185126939Y-139285000D01*
X185326898Y-139245226D01*
X185515256Y-139167205D01*
X185684774Y-139053937D01*
X185828937Y-138909774D01*
X185942205Y-138740256D01*
X186020226Y-138551898D01*
X186060000Y-138351939D01*
X186060000Y-138148061D01*
X186040109Y-138048061D01*
X193790000Y-138048061D01*
X193790000Y-138251939D01*
X193829774Y-138451898D01*
X193907795Y-138640256D01*
X194021063Y-138809774D01*
X194165226Y-138953937D01*
X194334744Y-139067205D01*
X194523102Y-139145226D01*
X194723061Y-139185000D01*
X194926939Y-139185000D01*
X195126898Y-139145226D01*
X195315256Y-139067205D01*
X195484774Y-138953937D01*
X195628937Y-138809774D01*
X195742205Y-138640256D01*
X195820226Y-138451898D01*
X195860000Y-138251939D01*
X195860000Y-138048061D01*
X195820226Y-137848102D01*
X195742205Y-137659744D01*
X195628937Y-137490226D01*
X195484774Y-137346063D01*
X195315256Y-137232795D01*
X195126898Y-137154774D01*
X194926939Y-137115000D01*
X194723061Y-137115000D01*
X194523102Y-137154774D01*
X194334744Y-137232795D01*
X194165226Y-137346063D01*
X194021063Y-137490226D01*
X193907795Y-137659744D01*
X193829774Y-137848102D01*
X193790000Y-138048061D01*
X186040109Y-138048061D01*
X186020226Y-137948102D01*
X185942205Y-137759744D01*
X185868877Y-137650000D01*
X185942205Y-137540256D01*
X186020226Y-137351898D01*
X186060000Y-137151939D01*
X186060000Y-136948061D01*
X186020226Y-136748102D01*
X185942205Y-136559744D01*
X185828937Y-136390226D01*
X185684774Y-136246063D01*
X185515256Y-136132795D01*
X185326898Y-136054774D01*
X185126939Y-136015000D01*
X184923061Y-136015000D01*
X184723102Y-136054774D01*
X184534744Y-136132795D01*
X184365226Y-136246063D01*
X184221063Y-136390226D01*
X184107795Y-136559744D01*
X184029774Y-136748102D01*
X183990000Y-136948061D01*
X181690109Y-136948061D01*
X181670226Y-136848102D01*
X181592205Y-136659744D01*
X181478937Y-136490226D01*
X181334774Y-136346063D01*
X181165256Y-136232795D01*
X180976898Y-136154774D01*
X180776939Y-136115000D01*
X180573061Y-136115000D01*
X180373102Y-136154774D01*
X180184744Y-136232795D01*
X180175000Y-136239306D01*
X180165256Y-136232795D01*
X179976898Y-136154774D01*
X179776939Y-136115000D01*
X179573061Y-136115000D01*
X179373102Y-136154774D01*
X179184744Y-136232795D01*
X179015226Y-136346063D01*
X178871063Y-136490226D01*
X178757795Y-136659744D01*
X178679774Y-136848102D01*
X178640000Y-137048061D01*
X175545577Y-137048061D01*
X175600756Y-137025205D01*
X175770274Y-136911937D01*
X175914437Y-136767774D01*
X176027705Y-136598256D01*
X176105726Y-136409898D01*
X176145500Y-136209939D01*
X176145500Y-136006061D01*
X176105726Y-135806102D01*
X176027705Y-135617744D01*
X175914437Y-135448226D01*
X175770274Y-135304063D01*
X175600756Y-135190795D01*
X175412398Y-135112774D01*
X175212439Y-135073000D01*
X175008561Y-135073000D01*
X174808602Y-135112774D01*
X174620244Y-135190795D01*
X174450726Y-135304063D01*
X174306563Y-135448226D01*
X174193295Y-135617744D01*
X174115274Y-135806102D01*
X174075500Y-136006061D01*
X165801332Y-136006061D01*
X165830000Y-135861939D01*
X165830000Y-135658061D01*
X165790226Y-135458102D01*
X165712205Y-135269744D01*
X165598937Y-135100226D01*
X165454774Y-134956063D01*
X165285256Y-134842795D01*
X165096898Y-134764774D01*
X164896939Y-134725000D01*
X164752172Y-134725000D01*
X164728937Y-134690226D01*
X164584774Y-134546063D01*
X164415256Y-134432795D01*
X164226898Y-134354774D01*
X164026939Y-134315000D01*
X163823061Y-134315000D01*
X163623102Y-134354774D01*
X163475000Y-134416120D01*
X163326898Y-134354774D01*
X163126939Y-134315000D01*
X162923061Y-134315000D01*
X162723102Y-134354774D01*
X162534744Y-134432795D01*
X162365226Y-134546063D01*
X162221063Y-134690226D01*
X162107795Y-134859744D01*
X162029774Y-135048102D01*
X161990000Y-135248061D01*
X153981201Y-135248061D01*
X153990990Y-135233411D01*
X154102932Y-134963158D01*
X154160000Y-134676260D01*
X154160000Y-134383740D01*
X154102932Y-134096842D01*
X153990990Y-133826589D01*
X153971929Y-133798061D01*
X174390000Y-133798061D01*
X174390000Y-134001939D01*
X174429774Y-134201898D01*
X174507795Y-134390256D01*
X174621063Y-134559774D01*
X174765226Y-134703937D01*
X174934744Y-134817205D01*
X175123102Y-134895226D01*
X175323061Y-134935000D01*
X175526939Y-134935000D01*
X175726898Y-134895226D01*
X175915256Y-134817205D01*
X176084774Y-134703937D01*
X176228937Y-134559774D01*
X176342205Y-134390256D01*
X176420226Y-134201898D01*
X176460000Y-134001939D01*
X176460000Y-133798061D01*
X176420226Y-133598102D01*
X176342205Y-133409744D01*
X176267582Y-133298061D01*
X177640000Y-133298061D01*
X177640000Y-133501939D01*
X177679774Y-133701898D01*
X177757795Y-133890256D01*
X177871063Y-134059774D01*
X178015226Y-134203937D01*
X178184744Y-134317205D01*
X178373102Y-134395226D01*
X178573061Y-134435000D01*
X178776939Y-134435000D01*
X178976898Y-134395226D01*
X179086082Y-134350000D01*
X195934993Y-134350000D01*
X195954976Y-134552895D01*
X196014159Y-134747993D01*
X196110266Y-134927797D01*
X196149004Y-134975000D01*
X196110266Y-135022203D01*
X196014159Y-135202007D01*
X195954976Y-135397105D01*
X195934993Y-135600000D01*
X195954976Y-135802895D01*
X196014159Y-135997993D01*
X196099741Y-136158106D01*
X196078169Y-136184392D01*
X196000722Y-136329284D01*
X195953031Y-136486500D01*
X195936928Y-136650000D01*
X195936928Y-137050000D01*
X195953031Y-137213500D01*
X196000722Y-137370716D01*
X196078169Y-137515608D01*
X196182394Y-137642606D01*
X196309392Y-137746831D01*
X196454284Y-137824278D01*
X196611500Y-137871969D01*
X196775000Y-137888072D01*
X197675000Y-137888072D01*
X197838500Y-137871969D01*
X197995716Y-137824278D01*
X198140608Y-137746831D01*
X198267606Y-137642606D01*
X198371831Y-137515608D01*
X198449278Y-137370716D01*
X198496969Y-137213500D01*
X198513072Y-137050000D01*
X198513072Y-136683013D01*
X198523061Y-136685000D01*
X198726939Y-136685000D01*
X198926898Y-136645226D01*
X199115256Y-136567205D01*
X199284774Y-136453937D01*
X199428937Y-136309774D01*
X199542205Y-136140256D01*
X199620226Y-135951898D01*
X199660000Y-135751939D01*
X199660000Y-135548061D01*
X199620226Y-135348102D01*
X199542205Y-135159744D01*
X199428937Y-134990226D01*
X199376821Y-134938110D01*
X199442205Y-134840256D01*
X199520226Y-134651898D01*
X199560000Y-134451939D01*
X199560000Y-134248061D01*
X199520226Y-134048102D01*
X199442205Y-133859744D01*
X199328937Y-133690226D01*
X199184774Y-133546063D01*
X199015256Y-133432795D01*
X198826898Y-133354774D01*
X198626939Y-133315000D01*
X198423061Y-133315000D01*
X198414042Y-133316794D01*
X198341998Y-133227000D01*
X197352000Y-133227000D01*
X197352000Y-133247000D01*
X197098000Y-133247000D01*
X197098000Y-133227000D01*
X196108002Y-133227000D01*
X195980334Y-133386123D01*
X195990006Y-133462972D01*
X196079745Y-133648160D01*
X196143209Y-133732062D01*
X196110266Y-133772203D01*
X196014159Y-133952007D01*
X195954976Y-134147105D01*
X195934993Y-134350000D01*
X179086082Y-134350000D01*
X179165256Y-134317205D01*
X179334774Y-134203937D01*
X179478937Y-134059774D01*
X179589888Y-133893724D01*
X179644061Y-133904500D01*
X179847939Y-133904500D01*
X180047898Y-133864726D01*
X180236256Y-133786705D01*
X180405774Y-133673437D01*
X180549937Y-133529274D01*
X180663205Y-133359756D01*
X180741226Y-133171398D01*
X180781000Y-132971439D01*
X180781000Y-132767561D01*
X180777122Y-132748061D01*
X181890000Y-132748061D01*
X181890000Y-132951939D01*
X181929774Y-133151898D01*
X182007795Y-133340256D01*
X182121063Y-133509774D01*
X182265226Y-133653937D01*
X182434744Y-133767205D01*
X182623102Y-133845226D01*
X182823061Y-133885000D01*
X183026939Y-133885000D01*
X183226898Y-133845226D01*
X183415256Y-133767205D01*
X183584774Y-133653937D01*
X183728937Y-133509774D01*
X183842205Y-133340256D01*
X183920226Y-133151898D01*
X183960000Y-132951939D01*
X183960000Y-132748061D01*
X183951248Y-132704061D01*
X184807000Y-132704061D01*
X184807000Y-132907939D01*
X184846774Y-133107898D01*
X184924795Y-133296256D01*
X185038063Y-133465774D01*
X185182226Y-133609937D01*
X185351744Y-133723205D01*
X185540102Y-133801226D01*
X185740061Y-133841000D01*
X185943939Y-133841000D01*
X186143898Y-133801226D01*
X186332256Y-133723205D01*
X186381750Y-133690134D01*
X186431244Y-133723205D01*
X186619602Y-133801226D01*
X186819561Y-133841000D01*
X187023439Y-133841000D01*
X187223398Y-133801226D01*
X187411756Y-133723205D01*
X187581274Y-133609937D01*
X187725437Y-133465774D01*
X187838705Y-133296256D01*
X187916726Y-133107898D01*
X187956500Y-132907939D01*
X187956500Y-132813877D01*
X195980334Y-132813877D01*
X196108002Y-132973000D01*
X197098000Y-132973000D01*
X197098000Y-132216238D01*
X197352000Y-132216238D01*
X197352000Y-132973000D01*
X198341998Y-132973000D01*
X198469666Y-132813877D01*
X198459994Y-132737028D01*
X198370255Y-132551840D01*
X198246112Y-132387717D01*
X198092336Y-132250967D01*
X197914836Y-132146845D01*
X197720433Y-132079352D01*
X197516599Y-132051082D01*
X197352000Y-132216238D01*
X197098000Y-132216238D01*
X196933401Y-132051082D01*
X196729567Y-132079352D01*
X196535164Y-132146845D01*
X196357664Y-132250967D01*
X196203888Y-132387717D01*
X196079745Y-132551840D01*
X195990006Y-132737028D01*
X195980334Y-132813877D01*
X187956500Y-132813877D01*
X187956500Y-132704061D01*
X187916726Y-132504102D01*
X187838705Y-132315744D01*
X187725437Y-132146226D01*
X187581274Y-132002063D01*
X187411756Y-131888795D01*
X187223398Y-131810774D01*
X187023439Y-131771000D01*
X186819561Y-131771000D01*
X186619602Y-131810774D01*
X186431244Y-131888795D01*
X186381750Y-131921866D01*
X186332256Y-131888795D01*
X186143898Y-131810774D01*
X185943939Y-131771000D01*
X185740061Y-131771000D01*
X185540102Y-131810774D01*
X185351744Y-131888795D01*
X185182226Y-132002063D01*
X185038063Y-132146226D01*
X184924795Y-132315744D01*
X184846774Y-132504102D01*
X184807000Y-132704061D01*
X183951248Y-132704061D01*
X183920226Y-132548102D01*
X183842205Y-132359744D01*
X183728937Y-132190226D01*
X183584774Y-132046063D01*
X183415256Y-131932795D01*
X183226898Y-131854774D01*
X183026939Y-131815000D01*
X182823061Y-131815000D01*
X182623102Y-131854774D01*
X182434744Y-131932795D01*
X182265226Y-132046063D01*
X182121063Y-132190226D01*
X182007795Y-132359744D01*
X181929774Y-132548102D01*
X181890000Y-132748061D01*
X180777122Y-132748061D01*
X180741226Y-132567602D01*
X180663205Y-132379244D01*
X180549937Y-132209726D01*
X180405774Y-132065563D01*
X180236256Y-131952295D01*
X180047898Y-131874274D01*
X179847939Y-131834500D01*
X179644061Y-131834500D01*
X179444102Y-131874274D01*
X179255744Y-131952295D01*
X179086226Y-132065563D01*
X178942063Y-132209726D01*
X178831112Y-132375776D01*
X178776939Y-132365000D01*
X178573061Y-132365000D01*
X178373102Y-132404774D01*
X178184744Y-132482795D01*
X178015226Y-132596063D01*
X177871063Y-132740226D01*
X177757795Y-132909744D01*
X177679774Y-133098102D01*
X177640000Y-133298061D01*
X176267582Y-133298061D01*
X176228937Y-133240226D01*
X176084774Y-133096063D01*
X175915256Y-132982795D01*
X175726898Y-132904774D01*
X175526939Y-132865000D01*
X175323061Y-132865000D01*
X175123102Y-132904774D01*
X174934744Y-132982795D01*
X174765226Y-133096063D01*
X174621063Y-133240226D01*
X174507795Y-133409744D01*
X174429774Y-133598102D01*
X174390000Y-133798061D01*
X153971929Y-133798061D01*
X153828475Y-133583368D01*
X153621632Y-133376525D01*
X153447240Y-133260000D01*
X153621632Y-133143475D01*
X153828475Y-132936632D01*
X153990990Y-132693411D01*
X154102932Y-132423158D01*
X154117869Y-132348061D01*
X162590000Y-132348061D01*
X162590000Y-132551939D01*
X162629774Y-132751898D01*
X162707795Y-132940256D01*
X162821063Y-133109774D01*
X162965226Y-133253937D01*
X163134744Y-133367205D01*
X163323102Y-133445226D01*
X163523061Y-133485000D01*
X163726939Y-133485000D01*
X163926898Y-133445226D01*
X164115256Y-133367205D01*
X164125000Y-133360694D01*
X164134744Y-133367205D01*
X164323102Y-133445226D01*
X164523061Y-133485000D01*
X164726939Y-133485000D01*
X164926898Y-133445226D01*
X165115256Y-133367205D01*
X165284774Y-133253937D01*
X165428937Y-133109774D01*
X165542205Y-132940256D01*
X165620226Y-132751898D01*
X165660000Y-132551939D01*
X165660000Y-132348061D01*
X165620226Y-132148102D01*
X165542205Y-131959744D01*
X165468877Y-131850000D01*
X165542205Y-131740256D01*
X165620226Y-131551898D01*
X165660000Y-131351939D01*
X165660000Y-131148061D01*
X165620226Y-130948102D01*
X165542205Y-130759744D01*
X165428937Y-130590226D01*
X165284774Y-130446063D01*
X165115256Y-130332795D01*
X164926898Y-130254774D01*
X164726939Y-130215000D01*
X164523061Y-130215000D01*
X164323102Y-130254774D01*
X164134744Y-130332795D01*
X163965226Y-130446063D01*
X163821063Y-130590226D01*
X163707795Y-130759744D01*
X163629774Y-130948102D01*
X163590000Y-131148061D01*
X163590000Y-131351939D01*
X163602544Y-131415000D01*
X163523061Y-131415000D01*
X163323102Y-131454774D01*
X163134744Y-131532795D01*
X162965226Y-131646063D01*
X162821063Y-131790226D01*
X162707795Y-131959744D01*
X162629774Y-132148102D01*
X162590000Y-132348061D01*
X154117869Y-132348061D01*
X154160000Y-132136260D01*
X154160000Y-131843740D01*
X154102932Y-131556842D01*
X153990990Y-131286589D01*
X153828475Y-131043368D01*
X153621632Y-130836525D01*
X153447240Y-130720000D01*
X153621632Y-130603475D01*
X153828475Y-130396632D01*
X153990990Y-130153411D01*
X154012881Y-130100561D01*
X183156000Y-130100561D01*
X183156000Y-130304439D01*
X183195774Y-130504398D01*
X183273795Y-130692756D01*
X183387063Y-130862274D01*
X183531226Y-131006437D01*
X183700744Y-131119705D01*
X183889102Y-131197726D01*
X184089061Y-131237500D01*
X184292939Y-131237500D01*
X184492898Y-131197726D01*
X184681256Y-131119705D01*
X184850774Y-131006437D01*
X184994937Y-130862274D01*
X185108205Y-130692756D01*
X185186226Y-130504398D01*
X185197432Y-130448061D01*
X188990000Y-130448061D01*
X188990000Y-130651939D01*
X189029774Y-130851898D01*
X189107795Y-131040256D01*
X189221063Y-131209774D01*
X189365226Y-131353937D01*
X189534744Y-131467205D01*
X189723102Y-131545226D01*
X189923061Y-131585000D01*
X190126939Y-131585000D01*
X190326898Y-131545226D01*
X190515256Y-131467205D01*
X190684774Y-131353937D01*
X190828937Y-131209774D01*
X190942205Y-131040256D01*
X191020226Y-130851898D01*
X191060000Y-130651939D01*
X191060000Y-130448061D01*
X191020226Y-130248102D01*
X190942205Y-130059744D01*
X190828937Y-129890226D01*
X190684774Y-129746063D01*
X190515256Y-129632795D01*
X190326898Y-129554774D01*
X190126939Y-129515000D01*
X189923061Y-129515000D01*
X189723102Y-129554774D01*
X189534744Y-129632795D01*
X189365226Y-129746063D01*
X189221063Y-129890226D01*
X189107795Y-130059744D01*
X189029774Y-130248102D01*
X188990000Y-130448061D01*
X185197432Y-130448061D01*
X185226000Y-130304439D01*
X185226000Y-130100561D01*
X185186226Y-129900602D01*
X185108205Y-129712244D01*
X184994937Y-129542726D01*
X184850774Y-129398563D01*
X184681256Y-129285295D01*
X184492898Y-129207274D01*
X184292939Y-129167500D01*
X184089061Y-129167500D01*
X183889102Y-129207274D01*
X183700744Y-129285295D01*
X183531226Y-129398563D01*
X183387063Y-129542726D01*
X183273795Y-129712244D01*
X183195774Y-129900602D01*
X183156000Y-130100561D01*
X154012881Y-130100561D01*
X154102932Y-129883158D01*
X154160000Y-129596260D01*
X154160000Y-129303740D01*
X154102932Y-129016842D01*
X153990990Y-128746589D01*
X153828475Y-128503368D01*
X153621632Y-128296525D01*
X153447240Y-128180000D01*
X153621632Y-128063475D01*
X153828475Y-127856632D01*
X153867610Y-127798061D01*
X184640000Y-127798061D01*
X184640000Y-128001939D01*
X184679774Y-128201898D01*
X184757795Y-128390256D01*
X184871063Y-128559774D01*
X185015226Y-128703937D01*
X185184744Y-128817205D01*
X185373102Y-128895226D01*
X185573061Y-128935000D01*
X185776939Y-128935000D01*
X185976898Y-128895226D01*
X186165256Y-128817205D01*
X186334774Y-128703937D01*
X186478937Y-128559774D01*
X186592205Y-128390256D01*
X186670226Y-128201898D01*
X186710000Y-128001939D01*
X186710000Y-127798061D01*
X186670226Y-127598102D01*
X186592205Y-127409744D01*
X186478937Y-127240226D01*
X186334774Y-127096063D01*
X186165256Y-126982795D01*
X185976898Y-126904774D01*
X185776939Y-126865000D01*
X185573061Y-126865000D01*
X185373102Y-126904774D01*
X185184744Y-126982795D01*
X185015226Y-127096063D01*
X184871063Y-127240226D01*
X184757795Y-127409744D01*
X184679774Y-127598102D01*
X184640000Y-127798061D01*
X153867610Y-127798061D01*
X153990990Y-127613411D01*
X154102932Y-127343158D01*
X154160000Y-127056260D01*
X154160000Y-126763740D01*
X154102932Y-126476842D01*
X154028879Y-126298061D01*
X172140000Y-126298061D01*
X172140000Y-126501939D01*
X172179774Y-126701898D01*
X172257795Y-126890256D01*
X172371063Y-127059774D01*
X172515226Y-127203937D01*
X172684744Y-127317205D01*
X172873102Y-127395226D01*
X173073061Y-127435000D01*
X173276939Y-127435000D01*
X173476898Y-127395226D01*
X173665256Y-127317205D01*
X173800000Y-127227172D01*
X173934744Y-127317205D01*
X174123102Y-127395226D01*
X174323061Y-127435000D01*
X174526939Y-127435000D01*
X174726898Y-127395226D01*
X174915256Y-127317205D01*
X175084774Y-127203937D01*
X175228937Y-127059774D01*
X175342205Y-126890256D01*
X175420226Y-126701898D01*
X175460000Y-126501939D01*
X175460000Y-126298061D01*
X175420226Y-126098102D01*
X175342205Y-125909744D01*
X175228937Y-125740226D01*
X175084774Y-125596063D01*
X174915256Y-125482795D01*
X174726898Y-125404774D01*
X174526939Y-125365000D01*
X174323061Y-125365000D01*
X174123102Y-125404774D01*
X173934744Y-125482795D01*
X173800000Y-125572828D01*
X173665256Y-125482795D01*
X173476898Y-125404774D01*
X173276939Y-125365000D01*
X173073061Y-125365000D01*
X172873102Y-125404774D01*
X172684744Y-125482795D01*
X172515226Y-125596063D01*
X172371063Y-125740226D01*
X172257795Y-125909744D01*
X172179774Y-126098102D01*
X172140000Y-126298061D01*
X154028879Y-126298061D01*
X153990990Y-126206589D01*
X153828475Y-125963368D01*
X153621632Y-125756525D01*
X153447240Y-125640000D01*
X153621632Y-125523475D01*
X153828475Y-125316632D01*
X153990990Y-125073411D01*
X154102932Y-124803158D01*
X154160000Y-124516260D01*
X154160000Y-124223740D01*
X154102932Y-123936842D01*
X153990990Y-123666589D01*
X153828475Y-123423368D01*
X153621632Y-123216525D01*
X153447240Y-123100000D01*
X153621632Y-122983475D01*
X153828475Y-122776632D01*
X153990990Y-122533411D01*
X154102932Y-122263158D01*
X154160000Y-121976260D01*
X154160000Y-121683740D01*
X154102932Y-121396842D01*
X153990990Y-121126589D01*
X153828475Y-120883368D01*
X153621632Y-120676525D01*
X153439466Y-120554805D01*
X153556355Y-120485178D01*
X153772588Y-120290269D01*
X153946641Y-120056920D01*
X154071825Y-119794099D01*
X154116476Y-119646890D01*
X153995155Y-119417000D01*
X152802000Y-119417000D01*
X152802000Y-119437000D01*
X152548000Y-119437000D01*
X152548000Y-119417000D01*
X152528000Y-119417000D01*
X152528000Y-119163000D01*
X152548000Y-119163000D01*
X152548000Y-119143000D01*
X152802000Y-119143000D01*
X152802000Y-119163000D01*
X153995155Y-119163000D01*
X154116476Y-118933110D01*
X154071825Y-118785901D01*
X153946641Y-118523080D01*
X153772588Y-118289731D01*
X153556355Y-118094822D01*
X153439466Y-118025195D01*
X153621632Y-117903475D01*
X153828475Y-117696632D01*
X153990990Y-117453411D01*
X154102932Y-117183158D01*
X154160000Y-116896260D01*
X154160000Y-116603740D01*
X154102932Y-116316842D01*
X153990990Y-116046589D01*
X153828475Y-115803368D01*
X153621632Y-115596525D01*
X153447240Y-115480000D01*
X153621632Y-115363475D01*
X153828475Y-115156632D01*
X153990990Y-114913411D01*
X154102932Y-114643158D01*
X154111902Y-114598061D01*
X166340000Y-114598061D01*
X166340000Y-114801939D01*
X166379774Y-115001898D01*
X166457795Y-115190256D01*
X166464306Y-115200000D01*
X166457795Y-115209744D01*
X166379774Y-115398102D01*
X166340000Y-115598061D01*
X166340000Y-115801939D01*
X166379774Y-116001898D01*
X166457795Y-116190256D01*
X166571063Y-116359774D01*
X166715226Y-116503937D01*
X166884744Y-116617205D01*
X167073102Y-116695226D01*
X167273061Y-116735000D01*
X167476939Y-116735000D01*
X167676898Y-116695226D01*
X167865256Y-116617205D01*
X168034774Y-116503937D01*
X168178937Y-116359774D01*
X168292205Y-116190256D01*
X168370226Y-116001898D01*
X168410000Y-115801939D01*
X168410000Y-115598061D01*
X168370226Y-115398102D01*
X168292205Y-115209744D01*
X168285694Y-115200000D01*
X168292205Y-115190256D01*
X168370226Y-115001898D01*
X168410000Y-114801939D01*
X168410000Y-114598061D01*
X168370226Y-114398102D01*
X168292205Y-114209744D01*
X168178937Y-114040226D01*
X168034774Y-113896063D01*
X167865256Y-113782795D01*
X167676898Y-113704774D01*
X167476939Y-113665000D01*
X167273061Y-113665000D01*
X167073102Y-113704774D01*
X166884744Y-113782795D01*
X166715226Y-113896063D01*
X166571063Y-114040226D01*
X166457795Y-114209744D01*
X166379774Y-114398102D01*
X166340000Y-114598061D01*
X154111902Y-114598061D01*
X154160000Y-114356260D01*
X154160000Y-114063740D01*
X154102932Y-113776842D01*
X153990990Y-113506589D01*
X153828475Y-113263368D01*
X153621632Y-113056525D01*
X153447240Y-112940000D01*
X153621632Y-112823475D01*
X153828475Y-112616632D01*
X153990990Y-112373411D01*
X154102932Y-112103158D01*
X154160000Y-111816260D01*
X154160000Y-111523740D01*
X154102932Y-111236842D01*
X153990990Y-110966589D01*
X153878384Y-110798061D01*
X198890000Y-110798061D01*
X198890000Y-111001939D01*
X198929774Y-111201898D01*
X199007795Y-111390256D01*
X199121063Y-111559774D01*
X199265226Y-111703937D01*
X199434744Y-111817205D01*
X199623102Y-111895226D01*
X199823061Y-111935000D01*
X200026939Y-111935000D01*
X200226898Y-111895226D01*
X200415256Y-111817205D01*
X200584774Y-111703937D01*
X200728937Y-111559774D01*
X200770000Y-111498319D01*
X200770000Y-111506863D01*
X200811696Y-111716483D01*
X200893485Y-111913940D01*
X201012225Y-112091647D01*
X201163353Y-112242775D01*
X201341060Y-112361515D01*
X201538517Y-112443304D01*
X201748137Y-112485000D01*
X201961863Y-112485000D01*
X202171483Y-112443304D01*
X202368940Y-112361515D01*
X202546647Y-112242775D01*
X202697775Y-112091647D01*
X202816515Y-111913940D01*
X202898304Y-111716483D01*
X202940000Y-111506863D01*
X202940000Y-111293137D01*
X202898304Y-111083517D01*
X202816515Y-110886060D01*
X202697775Y-110708353D01*
X202546647Y-110557225D01*
X202368940Y-110438485D01*
X202171483Y-110356696D01*
X201961863Y-110315000D01*
X201748137Y-110315000D01*
X201538517Y-110356696D01*
X201341060Y-110438485D01*
X201163353Y-110557225D01*
X201012225Y-110708353D01*
X200958230Y-110789162D01*
X200920226Y-110598102D01*
X200842205Y-110409744D01*
X200728937Y-110240226D01*
X200584774Y-110096063D01*
X200415256Y-109982795D01*
X200226898Y-109904774D01*
X200026939Y-109865000D01*
X199823061Y-109865000D01*
X199623102Y-109904774D01*
X199434744Y-109982795D01*
X199265226Y-110096063D01*
X199121063Y-110240226D01*
X199007795Y-110409744D01*
X198929774Y-110598102D01*
X198890000Y-110798061D01*
X153878384Y-110798061D01*
X153828475Y-110723368D01*
X153621632Y-110516525D01*
X153447240Y-110400000D01*
X153621632Y-110283475D01*
X153828475Y-110076632D01*
X153990990Y-109833411D01*
X154102932Y-109563158D01*
X154160000Y-109276260D01*
X154160000Y-108983740D01*
X154102932Y-108696842D01*
X153990990Y-108426589D01*
X153901821Y-108293137D01*
X200770000Y-108293137D01*
X200770000Y-108506863D01*
X200811696Y-108716483D01*
X200893485Y-108913940D01*
X201012225Y-109091647D01*
X201163353Y-109242775D01*
X201341060Y-109361515D01*
X201538517Y-109443304D01*
X201748137Y-109485000D01*
X201961863Y-109485000D01*
X202171483Y-109443304D01*
X202368940Y-109361515D01*
X202546647Y-109242775D01*
X202697775Y-109091647D01*
X202816515Y-108913940D01*
X202898304Y-108716483D01*
X202940000Y-108506863D01*
X202940000Y-108293137D01*
X202898304Y-108083517D01*
X202816515Y-107886060D01*
X202697775Y-107708353D01*
X202546647Y-107557225D01*
X202368940Y-107438485D01*
X202171483Y-107356696D01*
X201961863Y-107315000D01*
X201748137Y-107315000D01*
X201538517Y-107356696D01*
X201341060Y-107438485D01*
X201163353Y-107557225D01*
X201012225Y-107708353D01*
X200893485Y-107886060D01*
X200811696Y-108083517D01*
X200770000Y-108293137D01*
X153901821Y-108293137D01*
X153828475Y-108183368D01*
X153621632Y-107976525D01*
X153447240Y-107860000D01*
X153621632Y-107743475D01*
X153828475Y-107536632D01*
X153990990Y-107293411D01*
X154102932Y-107023158D01*
X154160000Y-106736260D01*
X154160000Y-106443740D01*
X154102932Y-106156842D01*
X153990990Y-105886589D01*
X153828475Y-105643368D01*
X153621632Y-105436525D01*
X153447240Y-105320000D01*
X153621632Y-105203475D01*
X153828475Y-104996632D01*
X153990990Y-104753411D01*
X154102932Y-104483158D01*
X154160000Y-104196260D01*
X154160000Y-103903740D01*
X154102932Y-103616842D01*
X153990990Y-103346589D01*
X153828475Y-103103368D01*
X153621632Y-102896525D01*
X153439466Y-102774805D01*
X153556355Y-102705178D01*
X153772588Y-102510269D01*
X153946641Y-102276920D01*
X154071825Y-102014099D01*
X154116476Y-101866890D01*
X153995155Y-101637000D01*
X152802000Y-101637000D01*
X152802000Y-101657000D01*
X152548000Y-101657000D01*
X152548000Y-101637000D01*
X152528000Y-101637000D01*
X152528000Y-101383000D01*
X152548000Y-101383000D01*
X152548000Y-101363000D01*
X152802000Y-101363000D01*
X152802000Y-101383000D01*
X153995155Y-101383000D01*
X154116476Y-101153110D01*
X154071825Y-101005901D01*
X153946641Y-100743080D01*
X153772588Y-100509731D01*
X153556355Y-100314822D01*
X153526252Y-100296890D01*
X168625048Y-100296890D01*
X168625048Y-100543110D01*
X168673083Y-100784598D01*
X168767307Y-101012074D01*
X168904099Y-101216798D01*
X169078202Y-101390901D01*
X169282926Y-101527693D01*
X169510402Y-101621917D01*
X169751890Y-101669952D01*
X169998110Y-101669952D01*
X170239598Y-101621917D01*
X170417901Y-101548061D01*
X172890000Y-101548061D01*
X172890000Y-101751939D01*
X172929774Y-101951898D01*
X173007795Y-102140256D01*
X173014306Y-102150000D01*
X173007795Y-102159744D01*
X172929774Y-102348102D01*
X172890000Y-102548061D01*
X172890000Y-102751939D01*
X172929774Y-102951898D01*
X173007795Y-103140256D01*
X173121063Y-103309774D01*
X173265226Y-103453937D01*
X173434744Y-103567205D01*
X173623102Y-103645226D01*
X173823061Y-103685000D01*
X174026939Y-103685000D01*
X174226898Y-103645226D01*
X174415256Y-103567205D01*
X174425000Y-103560694D01*
X174434744Y-103567205D01*
X174623102Y-103645226D01*
X174823061Y-103685000D01*
X175026939Y-103685000D01*
X175226898Y-103645226D01*
X175415256Y-103567205D01*
X175425000Y-103560694D01*
X175434744Y-103567205D01*
X175623102Y-103645226D01*
X175823061Y-103685000D01*
X176026939Y-103685000D01*
X176226898Y-103645226D01*
X176415256Y-103567205D01*
X176584774Y-103453937D01*
X176728937Y-103309774D01*
X176842205Y-103140256D01*
X176920226Y-102951898D01*
X176960000Y-102751939D01*
X176960000Y-102548061D01*
X176920226Y-102348102D01*
X176842205Y-102159744D01*
X176835694Y-102150000D01*
X176842205Y-102140256D01*
X176920226Y-101951898D01*
X176960000Y-101751939D01*
X176960000Y-101548061D01*
X187390000Y-101548061D01*
X187390000Y-101751939D01*
X187429774Y-101951898D01*
X187507795Y-102140256D01*
X187514306Y-102150000D01*
X187507795Y-102159744D01*
X187429774Y-102348102D01*
X187390000Y-102548061D01*
X187390000Y-102751939D01*
X187429774Y-102951898D01*
X187507795Y-103140256D01*
X187621063Y-103309774D01*
X187765226Y-103453937D01*
X187934744Y-103567205D01*
X188123102Y-103645226D01*
X188323061Y-103685000D01*
X188526939Y-103685000D01*
X188726898Y-103645226D01*
X188915256Y-103567205D01*
X188925000Y-103560694D01*
X188934744Y-103567205D01*
X189123102Y-103645226D01*
X189323061Y-103685000D01*
X189526939Y-103685000D01*
X189726898Y-103645226D01*
X189915256Y-103567205D01*
X189925000Y-103560694D01*
X189934744Y-103567205D01*
X190123102Y-103645226D01*
X190323061Y-103685000D01*
X190526939Y-103685000D01*
X190726898Y-103645226D01*
X190915256Y-103567205D01*
X191084774Y-103453937D01*
X191228937Y-103309774D01*
X191342205Y-103140256D01*
X191420226Y-102951898D01*
X191440317Y-102850890D01*
X199075048Y-102850890D01*
X199075048Y-103097110D01*
X199123083Y-103338598D01*
X199217307Y-103566074D01*
X199354099Y-103770798D01*
X199528202Y-103944901D01*
X199732926Y-104081693D01*
X199960402Y-104175917D01*
X200201890Y-104223952D01*
X200448110Y-104223952D01*
X200689598Y-104175917D01*
X200917074Y-104081693D01*
X201121798Y-103944901D01*
X201295901Y-103770798D01*
X201432693Y-103566074D01*
X201526917Y-103338598D01*
X201574952Y-103097110D01*
X201574952Y-102850890D01*
X201526917Y-102609402D01*
X201432693Y-102381926D01*
X201295901Y-102177202D01*
X201121798Y-102003099D01*
X200917074Y-101866307D01*
X200689598Y-101772083D01*
X200448110Y-101724048D01*
X200201890Y-101724048D01*
X199960402Y-101772083D01*
X199732926Y-101866307D01*
X199528202Y-102003099D01*
X199354099Y-102177202D01*
X199217307Y-102381926D01*
X199123083Y-102609402D01*
X199075048Y-102850890D01*
X191440317Y-102850890D01*
X191460000Y-102751939D01*
X191460000Y-102548061D01*
X191420226Y-102348102D01*
X191342205Y-102159744D01*
X191335694Y-102150000D01*
X191342205Y-102140256D01*
X191420226Y-101951898D01*
X191460000Y-101751939D01*
X191460000Y-101548061D01*
X191420226Y-101348102D01*
X191342205Y-101159744D01*
X191228937Y-100990226D01*
X191084774Y-100846063D01*
X190915256Y-100732795D01*
X190726898Y-100654774D01*
X190526939Y-100615000D01*
X190323061Y-100615000D01*
X190123102Y-100654774D01*
X189934744Y-100732795D01*
X189925000Y-100739306D01*
X189915256Y-100732795D01*
X189726898Y-100654774D01*
X189526939Y-100615000D01*
X189323061Y-100615000D01*
X189123102Y-100654774D01*
X188934744Y-100732795D01*
X188925000Y-100739306D01*
X188915256Y-100732795D01*
X188726898Y-100654774D01*
X188526939Y-100615000D01*
X188323061Y-100615000D01*
X188123102Y-100654774D01*
X187934744Y-100732795D01*
X187765226Y-100846063D01*
X187621063Y-100990226D01*
X187507795Y-101159744D01*
X187429774Y-101348102D01*
X187390000Y-101548061D01*
X176960000Y-101548061D01*
X176920226Y-101348102D01*
X176842205Y-101159744D01*
X176728937Y-100990226D01*
X176584774Y-100846063D01*
X176415256Y-100732795D01*
X176226898Y-100654774D01*
X176026939Y-100615000D01*
X175823061Y-100615000D01*
X175623102Y-100654774D01*
X175434744Y-100732795D01*
X175425000Y-100739306D01*
X175415256Y-100732795D01*
X175226898Y-100654774D01*
X175026939Y-100615000D01*
X174823061Y-100615000D01*
X174623102Y-100654774D01*
X174434744Y-100732795D01*
X174425000Y-100739306D01*
X174415256Y-100732795D01*
X174226898Y-100654774D01*
X174026939Y-100615000D01*
X173823061Y-100615000D01*
X173623102Y-100654774D01*
X173434744Y-100732795D01*
X173265226Y-100846063D01*
X173121063Y-100990226D01*
X173007795Y-101159744D01*
X172929774Y-101348102D01*
X172890000Y-101548061D01*
X170417901Y-101548061D01*
X170467074Y-101527693D01*
X170671798Y-101390901D01*
X170845901Y-101216798D01*
X170982693Y-101012074D01*
X171076917Y-100784598D01*
X171124952Y-100543110D01*
X171124952Y-100296890D01*
X171076917Y-100055402D01*
X170982693Y-99827926D01*
X170845901Y-99623202D01*
X170671798Y-99449099D01*
X170467074Y-99312307D01*
X170239598Y-99218083D01*
X169998110Y-99170048D01*
X169751890Y-99170048D01*
X169510402Y-99218083D01*
X169282926Y-99312307D01*
X169078202Y-99449099D01*
X168904099Y-99623202D01*
X168767307Y-99827926D01*
X168673083Y-100055402D01*
X168625048Y-100296890D01*
X153526252Y-100296890D01*
X153306252Y-100165843D01*
X153082397Y-100086435D01*
X153545670Y-99842555D01*
X153586088Y-99815548D01*
X153946276Y-99325881D01*
X151425000Y-96804605D01*
X148903724Y-99325881D01*
X149263912Y-99815548D01*
X149740785Y-100074322D01*
X149701842Y-100082068D01*
X149431589Y-100194010D01*
X149188368Y-100356525D01*
X148981525Y-100563368D01*
X148819010Y-100806589D01*
X148707068Y-101076842D01*
X148650000Y-101363740D01*
X148585000Y-101363740D01*
X148585000Y-99043943D01*
X148724119Y-99146276D01*
X151245395Y-96625000D01*
X151604605Y-96625000D01*
X154125881Y-99146276D01*
X154132165Y-99141653D01*
X159032952Y-99141653D01*
X159188962Y-99457214D01*
X159563745Y-99648020D01*
X159968551Y-99762044D01*
X160387824Y-99794902D01*
X160805451Y-99745334D01*
X161205383Y-99615243D01*
X161501038Y-99457214D01*
X161657048Y-99141653D01*
X160345000Y-97829605D01*
X159032952Y-99141653D01*
X154132165Y-99141653D01*
X154615548Y-98786088D01*
X154975849Y-98122118D01*
X155109036Y-97692824D01*
X158200098Y-97692824D01*
X158249666Y-98110451D01*
X158379757Y-98510383D01*
X158537786Y-98806038D01*
X158853347Y-98962048D01*
X160165395Y-97650000D01*
X160524605Y-97650000D01*
X161836653Y-98962048D01*
X162152214Y-98806038D01*
X162343020Y-98431255D01*
X162457044Y-98026449D01*
X162489902Y-97607176D01*
X162440334Y-97189549D01*
X162310243Y-96789617D01*
X162152214Y-96493962D01*
X161836653Y-96337952D01*
X160524605Y-97650000D01*
X160165395Y-97650000D01*
X158853347Y-96337952D01*
X158537786Y-96493962D01*
X158346980Y-96868745D01*
X158232956Y-97273551D01*
X158200098Y-97692824D01*
X155109036Y-97692824D01*
X155199694Y-97400615D01*
X155278480Y-96649305D01*
X155233250Y-96158347D01*
X159032952Y-96158347D01*
X160345000Y-97470395D01*
X161657048Y-96158347D01*
X161652922Y-96150000D01*
X163286928Y-96150000D01*
X163286928Y-99150000D01*
X163299188Y-99274482D01*
X163335498Y-99394180D01*
X163394463Y-99504494D01*
X163473815Y-99601185D01*
X163570506Y-99680537D01*
X163680820Y-99739502D01*
X163800518Y-99775812D01*
X163925000Y-99788072D01*
X166925000Y-99788072D01*
X167049482Y-99775812D01*
X167169180Y-99739502D01*
X167279494Y-99680537D01*
X167376185Y-99601185D01*
X167455537Y-99504494D01*
X167514502Y-99394180D01*
X167550812Y-99274482D01*
X167563072Y-99150000D01*
X167563072Y-97439721D01*
X172810000Y-97439721D01*
X172810000Y-97860279D01*
X172892047Y-98272756D01*
X173052988Y-98661302D01*
X173286637Y-99010983D01*
X173584017Y-99308363D01*
X173933698Y-99542012D01*
X174322244Y-99702953D01*
X174734721Y-99785000D01*
X175155279Y-99785000D01*
X175567756Y-99702953D01*
X175956302Y-99542012D01*
X176305983Y-99308363D01*
X176603363Y-99010983D01*
X176837012Y-98661302D01*
X176997953Y-98272756D01*
X177080000Y-97860279D01*
X177080000Y-97439721D01*
X176997953Y-97027244D01*
X176837012Y-96638698D01*
X176603363Y-96289017D01*
X176464346Y-96150000D01*
X177886928Y-96150000D01*
X177886928Y-99150000D01*
X177899188Y-99274482D01*
X177935498Y-99394180D01*
X177994463Y-99504494D01*
X178073815Y-99601185D01*
X178170506Y-99680537D01*
X178280820Y-99739502D01*
X178400518Y-99775812D01*
X178525000Y-99788072D01*
X181525000Y-99788072D01*
X181649482Y-99775812D01*
X181769180Y-99739502D01*
X181879494Y-99680537D01*
X181976185Y-99601185D01*
X182055537Y-99504494D01*
X182114502Y-99394180D01*
X182150812Y-99274482D01*
X182163072Y-99150000D01*
X182163072Y-97429721D01*
X186960000Y-97429721D01*
X186960000Y-97850279D01*
X187042047Y-98262756D01*
X187202988Y-98651302D01*
X187436637Y-99000983D01*
X187734017Y-99298363D01*
X188083698Y-99532012D01*
X188472244Y-99692953D01*
X188884721Y-99775000D01*
X189305279Y-99775000D01*
X189717756Y-99692953D01*
X190106302Y-99532012D01*
X190455983Y-99298363D01*
X190753363Y-99000983D01*
X190987012Y-98651302D01*
X191147953Y-98262756D01*
X191230000Y-97850279D01*
X191230000Y-97429721D01*
X191147953Y-97017244D01*
X190987012Y-96628698D01*
X190753363Y-96279017D01*
X190614346Y-96140000D01*
X192036928Y-96140000D01*
X192036928Y-99140000D01*
X192049188Y-99264482D01*
X192085498Y-99384180D01*
X192144463Y-99494494D01*
X192223815Y-99591185D01*
X192320506Y-99670537D01*
X192430820Y-99729502D01*
X192550518Y-99765812D01*
X192675000Y-99778072D01*
X195675000Y-99778072D01*
X195799482Y-99765812D01*
X195919180Y-99729502D01*
X196029494Y-99670537D01*
X196126185Y-99591185D01*
X196205537Y-99494494D01*
X196264502Y-99384180D01*
X196282186Y-99325881D01*
X197903724Y-99325881D01*
X198263912Y-99815548D01*
X198927882Y-100175849D01*
X199649385Y-100399694D01*
X200400695Y-100478480D01*
X201152938Y-100409178D01*
X201877208Y-100194452D01*
X202545670Y-99842555D01*
X202586088Y-99815548D01*
X202946276Y-99325881D01*
X200425000Y-96804605D01*
X197903724Y-99325881D01*
X196282186Y-99325881D01*
X196300812Y-99264482D01*
X196313072Y-99140000D01*
X196313072Y-96600695D01*
X196571520Y-96600695D01*
X196640822Y-97352938D01*
X196855548Y-98077208D01*
X197207445Y-98745670D01*
X197234452Y-98786088D01*
X197724119Y-99146276D01*
X200245395Y-96625000D01*
X197724119Y-94103724D01*
X197234452Y-94463912D01*
X196874151Y-95127882D01*
X196650306Y-95849385D01*
X196571520Y-96600695D01*
X196313072Y-96600695D01*
X196313072Y-96140000D01*
X196300812Y-96015518D01*
X196264502Y-95895820D01*
X196205537Y-95785506D01*
X196126185Y-95688815D01*
X196029494Y-95609463D01*
X195919180Y-95550498D01*
X195799482Y-95514188D01*
X195675000Y-95501928D01*
X192675000Y-95501928D01*
X192550518Y-95514188D01*
X192430820Y-95550498D01*
X192320506Y-95609463D01*
X192223815Y-95688815D01*
X192144463Y-95785506D01*
X192085498Y-95895820D01*
X192049188Y-96015518D01*
X192036928Y-96140000D01*
X190614346Y-96140000D01*
X190455983Y-95981637D01*
X190106302Y-95747988D01*
X189717756Y-95587047D01*
X189305279Y-95505000D01*
X188884721Y-95505000D01*
X188472244Y-95587047D01*
X188083698Y-95747988D01*
X187734017Y-95981637D01*
X187436637Y-96279017D01*
X187202988Y-96628698D01*
X187042047Y-97017244D01*
X186960000Y-97429721D01*
X182163072Y-97429721D01*
X182163072Y-96150000D01*
X182150812Y-96025518D01*
X182114502Y-95905820D01*
X182055537Y-95795506D01*
X181976185Y-95698815D01*
X181879494Y-95619463D01*
X181769180Y-95560498D01*
X181649482Y-95524188D01*
X181525000Y-95511928D01*
X178525000Y-95511928D01*
X178400518Y-95524188D01*
X178280820Y-95560498D01*
X178170506Y-95619463D01*
X178073815Y-95698815D01*
X177994463Y-95795506D01*
X177935498Y-95905820D01*
X177899188Y-96025518D01*
X177886928Y-96150000D01*
X176464346Y-96150000D01*
X176305983Y-95991637D01*
X175956302Y-95757988D01*
X175567756Y-95597047D01*
X175155279Y-95515000D01*
X174734721Y-95515000D01*
X174322244Y-95597047D01*
X173933698Y-95757988D01*
X173584017Y-95991637D01*
X173286637Y-96289017D01*
X173052988Y-96638698D01*
X172892047Y-97027244D01*
X172810000Y-97439721D01*
X167563072Y-97439721D01*
X167563072Y-96150000D01*
X167550812Y-96025518D01*
X167514502Y-95905820D01*
X167455537Y-95795506D01*
X167376185Y-95698815D01*
X167279494Y-95619463D01*
X167169180Y-95560498D01*
X167049482Y-95524188D01*
X166925000Y-95511928D01*
X163925000Y-95511928D01*
X163800518Y-95524188D01*
X163680820Y-95560498D01*
X163570506Y-95619463D01*
X163473815Y-95698815D01*
X163394463Y-95795506D01*
X163335498Y-95905820D01*
X163299188Y-96025518D01*
X163286928Y-96150000D01*
X161652922Y-96150000D01*
X161501038Y-95842786D01*
X161126255Y-95651980D01*
X160721449Y-95537956D01*
X160302176Y-95505098D01*
X159884549Y-95554666D01*
X159484617Y-95684757D01*
X159188962Y-95842786D01*
X159032952Y-96158347D01*
X155233250Y-96158347D01*
X155209178Y-95897062D01*
X154994452Y-95172792D01*
X154642555Y-94504330D01*
X154615548Y-94463912D01*
X154125881Y-94103724D01*
X151604605Y-96625000D01*
X151245395Y-96625000D01*
X151231253Y-96610858D01*
X151410858Y-96431253D01*
X151425000Y-96445395D01*
X153946276Y-93924119D01*
X153641659Y-93510000D01*
X168819198Y-93510000D01*
X168765226Y-93546063D01*
%TA.AperFunction,Conductor*%
D24*
G36*
X168765226Y-93546063D02*
G01*
X168621063Y-93690226D01*
X168507795Y-93859744D01*
X168429774Y-94048102D01*
X168390000Y-94248061D01*
X168390000Y-94451939D01*
X168429774Y-94651898D01*
X168507795Y-94840256D01*
X168621063Y-95009774D01*
X168765226Y-95153937D01*
X168934744Y-95267205D01*
X169123102Y-95345226D01*
X169323061Y-95385000D01*
X169526939Y-95385000D01*
X169726898Y-95345226D01*
X169915256Y-95267205D01*
X170084774Y-95153937D01*
X170175000Y-95063711D01*
X170265226Y-95153937D01*
X170434744Y-95267205D01*
X170623102Y-95345226D01*
X170823061Y-95385000D01*
X171026939Y-95385000D01*
X171226898Y-95345226D01*
X171415256Y-95267205D01*
X171584774Y-95153937D01*
X171728937Y-95009774D01*
X171842205Y-94840256D01*
X171920226Y-94651898D01*
X171960000Y-94451939D01*
X171960000Y-94248061D01*
X171920226Y-94048102D01*
X171842205Y-93859744D01*
X171728937Y-93690226D01*
X171584774Y-93546063D01*
X171530802Y-93510000D01*
X183344029Y-93510000D01*
X183215226Y-93596063D01*
X183071063Y-93740226D01*
X182957795Y-93909744D01*
X182879774Y-94098102D01*
X182840000Y-94298061D01*
X182840000Y-94501939D01*
X182879774Y-94701898D01*
X182957795Y-94890256D01*
X183071063Y-95059774D01*
X183215226Y-95203937D01*
X183384744Y-95317205D01*
X183573102Y-95395226D01*
X183773061Y-95435000D01*
X183976939Y-95435000D01*
X184176898Y-95395226D01*
X184365256Y-95317205D01*
X184534774Y-95203937D01*
X184625000Y-95113711D01*
X184715226Y-95203937D01*
X184884744Y-95317205D01*
X185073102Y-95395226D01*
X185273061Y-95435000D01*
X185476939Y-95435000D01*
X185676898Y-95395226D01*
X185865256Y-95317205D01*
X186034774Y-95203937D01*
X186178937Y-95059774D01*
X186292205Y-94890256D01*
X186370226Y-94701898D01*
X186410000Y-94501939D01*
X186410000Y-94298061D01*
X186370226Y-94098102D01*
X186292205Y-93909744D01*
X186178937Y-93740226D01*
X186034774Y-93596063D01*
X185905971Y-93510000D01*
X198208341Y-93510000D01*
X197903724Y-93924119D01*
X200425000Y-96445395D01*
X200439143Y-96431253D01*
X200618748Y-96610858D01*
X200604605Y-96625000D01*
X203125881Y-99146276D01*
X203265001Y-99043943D01*
X203265001Y-121298418D01*
X203087401Y-121203489D01*
X202854602Y-121132870D01*
X202673165Y-121115000D01*
X201851835Y-121115000D01*
X201670398Y-121132870D01*
X201437599Y-121203489D01*
X201223051Y-121318167D01*
X201034998Y-121472498D01*
X200880667Y-121660551D01*
X200765989Y-121875099D01*
X200695370Y-122107898D01*
X200671525Y-122350000D01*
X200695370Y-122592102D01*
X200698383Y-122602035D01*
X200618881Y-122483051D01*
X200429449Y-122293619D01*
X200206701Y-122144784D01*
X199959197Y-122042264D01*
X199696448Y-121990000D01*
X199428552Y-121990000D01*
X199165803Y-122042264D01*
X198918299Y-122144784D01*
X198695551Y-122293619D01*
X198506119Y-122483051D01*
X198357284Y-122705799D01*
X198254764Y-122953303D01*
X198202500Y-123216052D01*
X198202500Y-123483948D01*
X198254764Y-123746697D01*
X198357284Y-123994201D01*
X198506119Y-124216949D01*
X198695551Y-124406381D01*
X198918299Y-124555216D01*
X199165803Y-124657736D01*
X199428552Y-124710000D01*
X199696448Y-124710000D01*
X199959197Y-124657736D01*
X200206701Y-124555216D01*
X200429449Y-124406381D01*
X200618881Y-124216949D01*
X200767716Y-123994201D01*
X200870236Y-123746697D01*
X200922500Y-123483948D01*
X200922500Y-123216052D01*
X200889516Y-123050232D01*
X201034998Y-123227502D01*
X201223051Y-123381833D01*
X201437599Y-123496511D01*
X201670398Y-123567130D01*
X201851835Y-123585000D01*
X202673165Y-123585000D01*
X202854602Y-123567130D01*
X203087401Y-123496511D01*
X203265001Y-123401582D01*
X203265000Y-128298418D01*
X203087401Y-128203489D01*
X202854602Y-128132870D01*
X202673165Y-128115000D01*
X201851835Y-128115000D01*
X201670398Y-128132870D01*
X201437599Y-128203489D01*
X201223051Y-128318167D01*
X201034998Y-128472498D01*
X200889516Y-128649768D01*
X200922500Y-128483948D01*
X200922500Y-128216052D01*
X200870236Y-127953303D01*
X200767716Y-127705799D01*
X200618881Y-127483051D01*
X200429449Y-127293619D01*
X200206701Y-127144784D01*
X199959197Y-127042264D01*
X199696448Y-126990000D01*
X199428552Y-126990000D01*
X199165803Y-127042264D01*
X199076278Y-127079347D01*
X199040226Y-126898102D01*
X198962205Y-126709744D01*
X198848937Y-126540226D01*
X198704774Y-126396063D01*
X198535256Y-126282795D01*
X198346898Y-126204774D01*
X198146939Y-126165000D01*
X197943061Y-126165000D01*
X197743102Y-126204774D01*
X197554744Y-126282795D01*
X197385226Y-126396063D01*
X197241063Y-126540226D01*
X197127795Y-126709744D01*
X197049774Y-126898102D01*
X197010000Y-127098061D01*
X197010000Y-127301939D01*
X197049774Y-127501898D01*
X197127795Y-127690256D01*
X197241063Y-127859774D01*
X197385226Y-128003937D01*
X197554744Y-128117205D01*
X197743102Y-128195226D01*
X197943061Y-128235000D01*
X198146939Y-128235000D01*
X198202500Y-128223948D01*
X198202500Y-128483948D01*
X198254764Y-128746697D01*
X198357284Y-128994201D01*
X198506119Y-129216949D01*
X198695551Y-129406381D01*
X198918299Y-129555216D01*
X199165803Y-129657736D01*
X199428552Y-129710000D01*
X199696448Y-129710000D01*
X199959197Y-129657736D01*
X200206701Y-129555216D01*
X200429449Y-129406381D01*
X200618881Y-129216949D01*
X200698383Y-129097965D01*
X200695370Y-129107898D01*
X200671525Y-129350000D01*
X200695370Y-129592102D01*
X200765989Y-129824901D01*
X200880667Y-130039449D01*
X201034998Y-130227502D01*
X201223051Y-130381833D01*
X201437599Y-130496511D01*
X201670398Y-130567130D01*
X201851835Y-130585000D01*
X202673165Y-130585000D01*
X202854602Y-130567130D01*
X203087401Y-130496511D01*
X203265000Y-130401582D01*
X203265000Y-152231057D01*
X203125881Y-152128724D01*
X200604605Y-154650000D01*
X200618748Y-154664143D01*
X200439143Y-154843748D01*
X200425000Y-154829605D01*
X197903724Y-157350881D01*
X198006057Y-157490000D01*
X153843943Y-157490000D01*
X153946276Y-157350881D01*
X151425000Y-154829605D01*
X151410858Y-154843748D01*
X151231253Y-154664143D01*
X151245395Y-154650000D01*
X151604605Y-154650000D01*
X154125881Y-157171276D01*
X154615548Y-156811088D01*
X154975849Y-156147118D01*
X155006581Y-156048061D01*
X173390000Y-156048061D01*
X173390000Y-156251939D01*
X173429774Y-156451898D01*
X173507795Y-156640256D01*
X173621063Y-156809774D01*
X173765226Y-156953937D01*
X173934744Y-157067205D01*
X174123102Y-157145226D01*
X174323061Y-157185000D01*
X174526939Y-157185000D01*
X174726898Y-157145226D01*
X174915256Y-157067205D01*
X175084774Y-156953937D01*
X175228937Y-156809774D01*
X175342205Y-156640256D01*
X175420226Y-156451898D01*
X175460000Y-156251939D01*
X175460000Y-156048061D01*
X175420226Y-155848102D01*
X175378788Y-155748061D01*
X192590000Y-155748061D01*
X192590000Y-155951939D01*
X192629774Y-156151898D01*
X192707795Y-156340256D01*
X192821063Y-156509774D01*
X192965226Y-156653937D01*
X193134744Y-156767205D01*
X193323102Y-156845226D01*
X193523061Y-156885000D01*
X193726939Y-156885000D01*
X193926898Y-156845226D01*
X194115256Y-156767205D01*
X194284774Y-156653937D01*
X194428937Y-156509774D01*
X194542205Y-156340256D01*
X194620226Y-156151898D01*
X194660000Y-155951939D01*
X194660000Y-155748061D01*
X194620226Y-155548102D01*
X194542205Y-155359744D01*
X194428937Y-155190226D01*
X194284774Y-155046063D01*
X194115256Y-154932795D01*
X193926898Y-154854774D01*
X193726939Y-154815000D01*
X193523061Y-154815000D01*
X193323102Y-154854774D01*
X193134744Y-154932795D01*
X192965226Y-155046063D01*
X192821063Y-155190226D01*
X192707795Y-155359744D01*
X192629774Y-155548102D01*
X192590000Y-155748061D01*
X175378788Y-155748061D01*
X175342205Y-155659744D01*
X175228937Y-155490226D01*
X175084774Y-155346063D01*
X174915256Y-155232795D01*
X174726898Y-155154774D01*
X174526939Y-155115000D01*
X174323061Y-155115000D01*
X174123102Y-155154774D01*
X173934744Y-155232795D01*
X173765226Y-155346063D01*
X173621063Y-155490226D01*
X173507795Y-155659744D01*
X173429774Y-155848102D01*
X173390000Y-156048061D01*
X155006581Y-156048061D01*
X155199694Y-155425615D01*
X155278480Y-154674305D01*
X155274002Y-154625695D01*
X196571520Y-154625695D01*
X196640822Y-155377938D01*
X196855548Y-156102208D01*
X197207445Y-156770670D01*
X197234452Y-156811088D01*
X197724119Y-157171276D01*
X200245395Y-154650000D01*
X197724119Y-152128724D01*
X197234452Y-152488912D01*
X196874151Y-153152882D01*
X196650306Y-153874385D01*
X196571520Y-154625695D01*
X155274002Y-154625695D01*
X155209178Y-153922062D01*
X155007230Y-153240890D01*
X157305048Y-153240890D01*
X157305048Y-153487110D01*
X157353083Y-153728598D01*
X157447307Y-153956074D01*
X157584099Y-154160798D01*
X157758202Y-154334901D01*
X157962926Y-154471693D01*
X158190402Y-154565917D01*
X158431890Y-154613952D01*
X158678110Y-154613952D01*
X158919598Y-154565917D01*
X159147074Y-154471693D01*
X159351798Y-154334901D01*
X159525901Y-154160798D01*
X159662693Y-153956074D01*
X159756917Y-153728598D01*
X159804952Y-153487110D01*
X159804952Y-153240890D01*
X159756917Y-152999402D01*
X159662693Y-152771926D01*
X159525901Y-152567202D01*
X159351798Y-152393099D01*
X159147074Y-152256307D01*
X158919598Y-152162083D01*
X158678110Y-152114048D01*
X158431890Y-152114048D01*
X158190402Y-152162083D01*
X157962926Y-152256307D01*
X157758202Y-152393099D01*
X157584099Y-152567202D01*
X157447307Y-152771926D01*
X157353083Y-152999402D01*
X157305048Y-153240890D01*
X155007230Y-153240890D01*
X154994452Y-153197792D01*
X154642555Y-152529330D01*
X154615548Y-152488912D01*
X154125881Y-152128724D01*
X151604605Y-154650000D01*
X151245395Y-154650000D01*
X148724119Y-152128724D01*
X148585000Y-152231057D01*
X148585000Y-101363740D01*
X148650000Y-101363740D01*
X148650000Y-101656260D01*
X148707068Y-101943158D01*
X148819010Y-102213411D01*
X148981525Y-102456632D01*
X149188368Y-102663475D01*
X149362760Y-102780000D01*
X149188368Y-102896525D01*
X148981525Y-103103368D01*
X148819010Y-103346589D01*
X148707068Y-103616842D01*
X148650000Y-103903740D01*
X148650000Y-104196260D01*
X148707068Y-104483158D01*
X148819010Y-104753411D01*
X148981525Y-104996632D01*
X149188368Y-105203475D01*
X149362760Y-105320000D01*
X149188368Y-105436525D01*
X148981525Y-105643368D01*
X148819010Y-105886589D01*
X148707068Y-106156842D01*
X148650000Y-106443740D01*
X148650000Y-106736260D01*
X148707068Y-107023158D01*
X148819010Y-107293411D01*
X148981525Y-107536632D01*
X149188368Y-107743475D01*
X149370534Y-107865195D01*
X149253645Y-107934822D01*
X149037412Y-108129731D01*
X148863359Y-108363080D01*
X148738175Y-108625901D01*
X148693524Y-108773110D01*
X148814845Y-109003000D01*
X150008000Y-109003000D01*
X150008000Y-108983000D01*
X150262000Y-108983000D01*
X150262000Y-109003000D01*
X150282000Y-109003000D01*
X150282000Y-109257000D01*
X150262000Y-109257000D01*
X150262000Y-109277000D01*
X150008000Y-109277000D01*
X150008000Y-109257000D01*
X148814845Y-109257000D01*
X148693524Y-109486890D01*
X148738175Y-109634099D01*
X148863359Y-109896920D01*
X149037412Y-110130269D01*
X149253645Y-110325178D01*
X149370534Y-110394805D01*
X149188368Y-110516525D01*
X148981525Y-110723368D01*
X148819010Y-110966589D01*
X148707068Y-111236842D01*
X148650000Y-111523740D01*
X148650000Y-111816260D01*
X148707068Y-112103158D01*
X148819010Y-112373411D01*
X148981525Y-112616632D01*
X149188368Y-112823475D01*
X149370534Y-112945195D01*
X149253645Y-113014822D01*
X149037412Y-113209731D01*
X148863359Y-113443080D01*
X148738175Y-113705901D01*
X148693524Y-113853110D01*
X148814845Y-114083000D01*
X150008000Y-114083000D01*
X150008000Y-114063000D01*
X150262000Y-114063000D01*
X150262000Y-114083000D01*
X150282000Y-114083000D01*
X150282000Y-114337000D01*
X150262000Y-114337000D01*
X150262000Y-114357000D01*
X150008000Y-114357000D01*
X150008000Y-114337000D01*
X148814845Y-114337000D01*
X148693524Y-114566890D01*
X148738175Y-114714099D01*
X148863359Y-114976920D01*
X149037412Y-115210269D01*
X149253645Y-115405178D01*
X149370534Y-115474805D01*
X149188368Y-115596525D01*
X148981525Y-115803368D01*
X148819010Y-116046589D01*
X148707068Y-116316842D01*
X148650000Y-116603740D01*
X148650000Y-116896260D01*
X148707068Y-117183158D01*
X148819010Y-117453411D01*
X148981525Y-117696632D01*
X149188368Y-117903475D01*
X149362760Y-118020000D01*
X149188368Y-118136525D01*
X148981525Y-118343368D01*
X148819010Y-118586589D01*
X148707068Y-118856842D01*
X148650000Y-119143740D01*
X148650000Y-119436260D01*
X148707068Y-119723158D01*
X148819010Y-119993411D01*
X148981525Y-120236632D01*
X149188368Y-120443475D01*
X149362760Y-120560000D01*
X149188368Y-120676525D01*
X148981525Y-120883368D01*
X148819010Y-121126589D01*
X148707068Y-121396842D01*
X148650000Y-121683740D01*
X148650000Y-121976260D01*
X148707068Y-122263158D01*
X148819010Y-122533411D01*
X148981525Y-122776632D01*
X149188368Y-122983475D01*
X149362760Y-123100000D01*
X149188368Y-123216525D01*
X148981525Y-123423368D01*
X148819010Y-123666589D01*
X148707068Y-123936842D01*
X148650000Y-124223740D01*
X148650000Y-124516260D01*
X148707068Y-124803158D01*
X148819010Y-125073411D01*
X148981525Y-125316632D01*
X149188368Y-125523475D01*
X149370534Y-125645195D01*
X149253645Y-125714822D01*
X149037412Y-125909731D01*
X148863359Y-126143080D01*
X148738175Y-126405901D01*
X148693524Y-126553110D01*
X148814845Y-126783000D01*
X150008000Y-126783000D01*
X150008000Y-126763000D01*
X150262000Y-126763000D01*
X150262000Y-126783000D01*
X150282000Y-126783000D01*
X150282000Y-127037000D01*
X150262000Y-127037000D01*
X150262000Y-127057000D01*
X150008000Y-127057000D01*
X150008000Y-127037000D01*
X148814845Y-127037000D01*
X148693524Y-127266890D01*
X148738175Y-127414099D01*
X148863359Y-127676920D01*
X149037412Y-127910269D01*
X149253645Y-128105178D01*
X149370534Y-128174805D01*
X149188368Y-128296525D01*
X148981525Y-128503368D01*
X148819010Y-128746589D01*
X148707068Y-129016842D01*
X148650000Y-129303740D01*
X148650000Y-129596260D01*
X148707068Y-129883158D01*
X148819010Y-130153411D01*
X148981525Y-130396632D01*
X149188368Y-130603475D01*
X149362760Y-130720000D01*
X149188368Y-130836525D01*
X148981525Y-131043368D01*
X148819010Y-131286589D01*
X148707068Y-131556842D01*
X148650000Y-131843740D01*
X148650000Y-132136260D01*
X148707068Y-132423158D01*
X148819010Y-132693411D01*
X148981525Y-132936632D01*
X149188368Y-133143475D01*
X149370534Y-133265195D01*
X149253645Y-133334822D01*
X149037412Y-133529731D01*
X148863359Y-133763080D01*
X148738175Y-134025901D01*
X148693524Y-134173110D01*
X148814845Y-134403000D01*
X150008000Y-134403000D01*
X150008000Y-134383000D01*
X150262000Y-134383000D01*
X150262000Y-134403000D01*
X150282000Y-134403000D01*
X150282000Y-134657000D01*
X150262000Y-134657000D01*
X150262000Y-134677000D01*
X150008000Y-134677000D01*
X150008000Y-134657000D01*
X148814845Y-134657000D01*
X148693524Y-134886890D01*
X148738175Y-135034099D01*
X148863359Y-135296920D01*
X149037412Y-135530269D01*
X149253645Y-135725178D01*
X149370534Y-135794805D01*
X149188368Y-135916525D01*
X148981525Y-136123368D01*
X148819010Y-136366589D01*
X148707068Y-136636842D01*
X148650000Y-136923740D01*
X148650000Y-137216260D01*
X148707068Y-137503158D01*
X148819010Y-137773411D01*
X148981525Y-138016632D01*
X149188368Y-138223475D01*
X149362760Y-138340000D01*
X149188368Y-138456525D01*
X148981525Y-138663368D01*
X148819010Y-138906589D01*
X148707068Y-139176842D01*
X148650000Y-139463740D01*
X148650000Y-139756260D01*
X148707068Y-140043158D01*
X148819010Y-140313411D01*
X148981525Y-140556632D01*
X149188368Y-140763475D01*
X149362760Y-140880000D01*
X149188368Y-140996525D01*
X148981525Y-141203368D01*
X148819010Y-141446589D01*
X148707068Y-141716842D01*
X148650000Y-142003740D01*
X148650000Y-142296260D01*
X148707068Y-142583158D01*
X148819010Y-142853411D01*
X148981525Y-143096632D01*
X149188368Y-143303475D01*
X149370534Y-143425195D01*
X149253645Y-143494822D01*
X149037412Y-143689731D01*
X148863359Y-143923080D01*
X148738175Y-144185901D01*
X148693524Y-144333110D01*
X148814845Y-144563000D01*
X150008000Y-144563000D01*
X150008000Y-144543000D01*
X150262000Y-144543000D01*
X150262000Y-144563000D01*
X150282000Y-144563000D01*
X150282000Y-144817000D01*
X150262000Y-144817000D01*
X150262000Y-144837000D01*
X150008000Y-144837000D01*
X150008000Y-144817000D01*
X148814845Y-144817000D01*
X148693524Y-145046890D01*
X148738175Y-145194099D01*
X148863359Y-145456920D01*
X149037412Y-145690269D01*
X149253645Y-145885178D01*
X149370534Y-145954805D01*
X149188368Y-146076525D01*
X148981525Y-146283368D01*
X148819010Y-146526589D01*
X148707068Y-146796842D01*
X148650000Y-147083740D01*
X148650000Y-147376260D01*
X148707068Y-147663158D01*
X148819010Y-147933411D01*
X148981525Y-148176632D01*
X149188368Y-148383475D01*
X149362760Y-148500000D01*
X149188368Y-148616525D01*
X148981525Y-148823368D01*
X148819010Y-149066589D01*
X148707068Y-149336842D01*
X148650000Y-149623740D01*
X148650000Y-149916260D01*
X148707068Y-150203158D01*
X148819010Y-150473411D01*
X148981525Y-150716632D01*
X149188368Y-150923475D01*
X149431589Y-151085990D01*
X149701842Y-151197932D01*
X149736655Y-151204857D01*
X149304330Y-151432445D01*
X149263912Y-151459452D01*
X148903724Y-151949119D01*
X151425000Y-154470395D01*
X153946276Y-151949119D01*
X153586088Y-151459452D01*
X153214981Y-151258072D01*
X153525000Y-151258072D01*
X153649482Y-151245812D01*
X153769180Y-151209502D01*
X153786956Y-151200000D01*
X164136928Y-151200000D01*
X164136928Y-152100000D01*
X164153031Y-152263500D01*
X164200722Y-152420716D01*
X164278169Y-152565608D01*
X164382394Y-152692606D01*
X164509392Y-152796831D01*
X164654284Y-152874278D01*
X164811500Y-152921969D01*
X164975000Y-152938072D01*
X165375000Y-152938072D01*
X165538500Y-152921969D01*
X165695716Y-152874278D01*
X165840608Y-152796831D01*
X165866894Y-152775259D01*
X166027008Y-152860841D01*
X166222106Y-152920024D01*
X166425000Y-152940007D01*
X166627895Y-152920024D01*
X166822993Y-152860841D01*
X167002797Y-152764734D01*
X167050000Y-152725995D01*
X167097204Y-152764734D01*
X167277008Y-152860841D01*
X167472106Y-152920024D01*
X167675000Y-152940007D01*
X167877895Y-152920024D01*
X168072993Y-152860841D01*
X168252797Y-152764734D01*
X168300000Y-152725995D01*
X168347204Y-152764734D01*
X168527008Y-152860841D01*
X168722106Y-152920024D01*
X168925000Y-152940007D01*
X169127895Y-152920024D01*
X169322993Y-152860841D01*
X169502797Y-152764734D01*
X169542938Y-152731791D01*
X169626840Y-152795255D01*
X169812028Y-152884994D01*
X169888877Y-152894666D01*
X170048000Y-152766998D01*
X170048000Y-151777000D01*
X170302000Y-151777000D01*
X170302000Y-152766998D01*
X170461123Y-152894666D01*
X170537972Y-152884994D01*
X170723160Y-152795255D01*
X170887283Y-152671112D01*
X171024033Y-152517336D01*
X171062030Y-152452561D01*
X177568000Y-152452561D01*
X177568000Y-152656439D01*
X177607774Y-152856398D01*
X177685795Y-153044756D01*
X177799063Y-153214274D01*
X177943226Y-153358437D01*
X178112744Y-153471705D01*
X178301102Y-153549726D01*
X178501061Y-153589500D01*
X178704939Y-153589500D01*
X178904898Y-153549726D01*
X179093256Y-153471705D01*
X179262774Y-153358437D01*
X179406937Y-153214274D01*
X179520205Y-153044756D01*
X179555079Y-152960561D01*
X182330500Y-152960561D01*
X182330500Y-153164439D01*
X182370274Y-153364398D01*
X182448295Y-153552756D01*
X182561563Y-153722274D01*
X182705726Y-153866437D01*
X182875244Y-153979705D01*
X183063602Y-154057726D01*
X183263561Y-154097500D01*
X183467439Y-154097500D01*
X183667398Y-154057726D01*
X183855756Y-153979705D01*
X184025274Y-153866437D01*
X184169437Y-153722274D01*
X184282705Y-153552756D01*
X184360726Y-153364398D01*
X184400500Y-153164439D01*
X184400500Y-152960561D01*
X184360726Y-152760602D01*
X184282705Y-152572244D01*
X184169437Y-152402726D01*
X184025274Y-152258563D01*
X183915179Y-152185000D01*
X184097089Y-152185000D01*
X184277729Y-152149068D01*
X184447889Y-152078586D01*
X184601028Y-151976262D01*
X184628171Y-151949119D01*
X197903724Y-151949119D01*
X200425000Y-154470395D01*
X202946276Y-151949119D01*
X202586088Y-151459452D01*
X201922118Y-151099151D01*
X201200615Y-150875306D01*
X200449305Y-150796520D01*
X199697062Y-150865822D01*
X198972792Y-151080548D01*
X198304330Y-151432445D01*
X198263912Y-151459452D01*
X197903724Y-151949119D01*
X184628171Y-151949119D01*
X184731262Y-151846028D01*
X184833586Y-151692889D01*
X184904068Y-151522729D01*
X184940000Y-151342089D01*
X184940000Y-151157911D01*
X184904068Y-150977271D01*
X184833586Y-150807111D01*
X184731262Y-150653972D01*
X184601028Y-150523738D01*
X184447889Y-150421414D01*
X184277729Y-150350932D01*
X184097089Y-150315000D01*
X183912911Y-150315000D01*
X183732271Y-150350932D01*
X183562111Y-150421414D01*
X183408972Y-150523738D01*
X183278738Y-150653972D01*
X183176414Y-150807111D01*
X183105932Y-150977271D01*
X183070000Y-151157911D01*
X183070000Y-151342089D01*
X183105932Y-151522729D01*
X183176414Y-151692889D01*
X183278738Y-151846028D01*
X183408972Y-151976262D01*
X183493377Y-152032659D01*
X183467439Y-152027500D01*
X183263561Y-152027500D01*
X183063602Y-152067274D01*
X182875244Y-152145295D01*
X182705726Y-152258563D01*
X182561563Y-152402726D01*
X182448295Y-152572244D01*
X182370274Y-152760602D01*
X182330500Y-152960561D01*
X179555079Y-152960561D01*
X179598226Y-152856398D01*
X179638000Y-152656439D01*
X179638000Y-152452561D01*
X179598226Y-152252602D01*
X179520205Y-152064244D01*
X179501885Y-152036826D01*
X179628937Y-151909774D01*
X179742205Y-151740256D01*
X179820226Y-151551898D01*
X179860000Y-151351939D01*
X179860000Y-151148061D01*
X179820226Y-150948102D01*
X179742205Y-150759744D01*
X179628937Y-150590226D01*
X179484774Y-150446063D01*
X179315256Y-150332795D01*
X179126898Y-150254774D01*
X178926939Y-150215000D01*
X178723061Y-150215000D01*
X178523102Y-150254774D01*
X178334744Y-150332795D01*
X178165226Y-150446063D01*
X178021063Y-150590226D01*
X177907795Y-150759744D01*
X177829774Y-150948102D01*
X177790000Y-151148061D01*
X177790000Y-151351939D01*
X177829774Y-151551898D01*
X177907795Y-151740256D01*
X177926115Y-151767674D01*
X177799063Y-151894726D01*
X177685795Y-152064244D01*
X177607774Y-152252602D01*
X177568000Y-152452561D01*
X171062030Y-152452561D01*
X171128155Y-152339836D01*
X171195648Y-152145433D01*
X171223918Y-151941599D01*
X171058762Y-151777000D01*
X170302000Y-151777000D01*
X170048000Y-151777000D01*
X170028000Y-151777000D01*
X170028000Y-151523000D01*
X170048000Y-151523000D01*
X170048000Y-150533002D01*
X170302000Y-150533002D01*
X170302000Y-151523000D01*
X171058762Y-151523000D01*
X171223918Y-151358401D01*
X171195648Y-151154567D01*
X171128155Y-150960164D01*
X171024033Y-150782664D01*
X170887283Y-150628888D01*
X170723160Y-150504745D01*
X170537972Y-150415006D01*
X170461123Y-150405334D01*
X170302000Y-150533002D01*
X170048000Y-150533002D01*
X169888877Y-150405334D01*
X169812028Y-150415006D01*
X169626840Y-150504745D01*
X169542938Y-150568209D01*
X169502797Y-150535266D01*
X169322992Y-150439159D01*
X169127894Y-150379976D01*
X169077265Y-150374990D01*
X169226898Y-150345226D01*
X169415256Y-150267205D01*
X169584774Y-150153937D01*
X169728937Y-150009774D01*
X169842205Y-149840256D01*
X169920226Y-149651898D01*
X169960000Y-149451939D01*
X169960000Y-149248061D01*
X169940109Y-149148061D01*
X183190000Y-149148061D01*
X183190000Y-149351939D01*
X183229774Y-149551898D01*
X183307795Y-149740256D01*
X183421063Y-149909774D01*
X183565226Y-150053937D01*
X183734744Y-150167205D01*
X183923102Y-150245226D01*
X184123061Y-150285000D01*
X184326939Y-150285000D01*
X184526898Y-150245226D01*
X184715256Y-150167205D01*
X184884774Y-150053937D01*
X185028937Y-149909774D01*
X185142205Y-149740256D01*
X185220226Y-149551898D01*
X185260000Y-149351939D01*
X185260000Y-149148061D01*
X185220226Y-148948102D01*
X185142205Y-148759744D01*
X185028937Y-148590226D01*
X184884774Y-148446063D01*
X184715256Y-148332795D01*
X184526898Y-148254774D01*
X184326939Y-148215000D01*
X184123061Y-148215000D01*
X183923102Y-148254774D01*
X183734744Y-148332795D01*
X183565226Y-148446063D01*
X183421063Y-148590226D01*
X183307795Y-148759744D01*
X183229774Y-148948102D01*
X183190000Y-149148061D01*
X169940109Y-149148061D01*
X169920226Y-149048102D01*
X169842205Y-148859744D01*
X169728937Y-148690226D01*
X169584774Y-148546063D01*
X169415256Y-148432795D01*
X169226898Y-148354774D01*
X169026939Y-148315000D01*
X168823061Y-148315000D01*
X168623102Y-148354774D01*
X168434744Y-148432795D01*
X168300000Y-148522828D01*
X168165256Y-148432795D01*
X167976898Y-148354774D01*
X167776939Y-148315000D01*
X167573061Y-148315000D01*
X167373102Y-148354774D01*
X167184744Y-148432795D01*
X167050000Y-148522828D01*
X166915256Y-148432795D01*
X166726898Y-148354774D01*
X166526939Y-148315000D01*
X166323061Y-148315000D01*
X166123102Y-148354774D01*
X165934744Y-148432795D01*
X165765226Y-148546063D01*
X165763110Y-148548179D01*
X165665256Y-148482795D01*
X165476898Y-148404774D01*
X165276939Y-148365000D01*
X165073061Y-148365000D01*
X164873102Y-148404774D01*
X164684744Y-148482795D01*
X164515226Y-148596063D01*
X164371063Y-148740226D01*
X164257795Y-148909744D01*
X164179774Y-149098102D01*
X164140000Y-149298061D01*
X164140000Y-149501939D01*
X164179774Y-149701898D01*
X164257795Y-149890256D01*
X164371063Y-150059774D01*
X164515226Y-150203937D01*
X164684744Y-150317205D01*
X164827731Y-150376432D01*
X164811500Y-150378031D01*
X164654284Y-150425722D01*
X164509392Y-150503169D01*
X164382394Y-150607394D01*
X164278169Y-150734392D01*
X164200722Y-150879284D01*
X164153031Y-151036500D01*
X164136928Y-151200000D01*
X153786956Y-151200000D01*
X153879494Y-151150537D01*
X153976185Y-151071185D01*
X154055537Y-150974494D01*
X154114502Y-150864180D01*
X154150812Y-150744482D01*
X154163072Y-150620000D01*
X154163072Y-149738061D01*
X154430000Y-149738061D01*
X154430000Y-149941939D01*
X154469774Y-150141898D01*
X154547795Y-150330256D01*
X154661063Y-150499774D01*
X154805226Y-150643937D01*
X154974744Y-150757205D01*
X155163102Y-150835226D01*
X155363061Y-150875000D01*
X155566939Y-150875000D01*
X155766898Y-150835226D01*
X155955256Y-150757205D01*
X156124774Y-150643937D01*
X156268937Y-150499774D01*
X156382205Y-150330256D01*
X156460226Y-150141898D01*
X156500000Y-149941939D01*
X156500000Y-149738061D01*
X156460226Y-149538102D01*
X156382205Y-149349744D01*
X156268937Y-149180226D01*
X156124774Y-149036063D01*
X155955256Y-148922795D01*
X155766898Y-148844774D01*
X155566939Y-148805000D01*
X155363061Y-148805000D01*
X155163102Y-148844774D01*
X154974744Y-148922795D01*
X154805226Y-149036063D01*
X154661063Y-149180226D01*
X154547795Y-149349744D01*
X154469774Y-149538102D01*
X154430000Y-149738061D01*
X154163072Y-149738061D01*
X154163072Y-148920000D01*
X154150812Y-148795518D01*
X154114502Y-148675820D01*
X154055537Y-148565506D01*
X153976185Y-148468815D01*
X153879494Y-148389463D01*
X153769180Y-148330498D01*
X153696620Y-148308487D01*
X153828475Y-148176632D01*
X153990990Y-147933411D01*
X154102932Y-147663158D01*
X154160000Y-147376260D01*
X154160000Y-147352487D01*
X154179774Y-147451898D01*
X154257795Y-147640256D01*
X154371063Y-147809774D01*
X154515226Y-147953937D01*
X154684744Y-148067205D01*
X154873102Y-148145226D01*
X155073061Y-148185000D01*
X155276939Y-148185000D01*
X155476898Y-148145226D01*
X155665256Y-148067205D01*
X155834774Y-147953937D01*
X155978937Y-147809774D01*
X156092205Y-147640256D01*
X156170226Y-147451898D01*
X156210000Y-147251939D01*
X156210000Y-147048061D01*
X156170226Y-146848102D01*
X156092205Y-146659744D01*
X156002172Y-146525000D01*
X156092205Y-146390256D01*
X156109682Y-146348061D01*
X158990000Y-146348061D01*
X158990000Y-146551939D01*
X159029774Y-146751898D01*
X159107795Y-146940256D01*
X159114306Y-146950000D01*
X159107795Y-146959744D01*
X159029774Y-147148102D01*
X158990000Y-147348061D01*
X158990000Y-147551939D01*
X159029774Y-147751898D01*
X159107795Y-147940256D01*
X159221063Y-148109774D01*
X159365226Y-148253937D01*
X159534744Y-148367205D01*
X159723102Y-148445226D01*
X159923061Y-148485000D01*
X160126939Y-148485000D01*
X160326898Y-148445226D01*
X160515256Y-148367205D01*
X160684774Y-148253937D01*
X160828937Y-148109774D01*
X160942205Y-147940256D01*
X161020226Y-147751898D01*
X161060000Y-147551939D01*
X161060000Y-147348061D01*
X161020226Y-147148102D01*
X160942205Y-146959744D01*
X160935694Y-146950000D01*
X160942205Y-146940256D01*
X161020226Y-146751898D01*
X161060000Y-146551939D01*
X161060000Y-146356561D01*
X164296500Y-146356561D01*
X164296500Y-146560439D01*
X164336274Y-146760398D01*
X164414295Y-146948756D01*
X164527563Y-147118274D01*
X164671726Y-147262437D01*
X164841244Y-147375705D01*
X165029602Y-147453726D01*
X165229561Y-147493500D01*
X165433439Y-147493500D01*
X165633398Y-147453726D01*
X165821756Y-147375705D01*
X165991274Y-147262437D01*
X166135437Y-147118274D01*
X166248705Y-146948756D01*
X166326726Y-146760398D01*
X166366500Y-146560439D01*
X166366500Y-146356561D01*
X166326726Y-146156602D01*
X166248705Y-145968244D01*
X166135437Y-145798726D01*
X165991274Y-145654563D01*
X165821756Y-145541295D01*
X165633398Y-145463274D01*
X165433439Y-145423500D01*
X165229561Y-145423500D01*
X165029602Y-145463274D01*
X164841244Y-145541295D01*
X164671726Y-145654563D01*
X164527563Y-145798726D01*
X164414295Y-145968244D01*
X164336274Y-146156602D01*
X164296500Y-146356561D01*
X161060000Y-146356561D01*
X161060000Y-146348061D01*
X161020226Y-146148102D01*
X160942205Y-145959744D01*
X160828937Y-145790226D01*
X160684774Y-145646063D01*
X160515256Y-145532795D01*
X160326898Y-145454774D01*
X160126939Y-145415000D01*
X159923061Y-145415000D01*
X159723102Y-145454774D01*
X159534744Y-145532795D01*
X159365226Y-145646063D01*
X159221063Y-145790226D01*
X159107795Y-145959744D01*
X159029774Y-146148102D01*
X158990000Y-146348061D01*
X156109682Y-146348061D01*
X156170226Y-146201898D01*
X156210000Y-146001939D01*
X156210000Y-145798061D01*
X156170226Y-145598102D01*
X156092205Y-145409744D01*
X155978937Y-145240226D01*
X155834774Y-145096063D01*
X155665256Y-144982795D01*
X155476898Y-144904774D01*
X155276939Y-144865000D01*
X155073061Y-144865000D01*
X154873102Y-144904774D01*
X154684744Y-144982795D01*
X154515226Y-145096063D01*
X154371063Y-145240226D01*
X154257795Y-145409744D01*
X154179774Y-145598102D01*
X154140000Y-145798061D01*
X154140000Y-146001939D01*
X154179774Y-146201898D01*
X154257795Y-146390256D01*
X154347828Y-146525000D01*
X154257795Y-146659744D01*
X154179774Y-146848102D01*
X154146451Y-147015627D01*
X154102932Y-146796842D01*
X153990990Y-146526589D01*
X153828475Y-146283368D01*
X153621632Y-146076525D01*
X153447240Y-145960000D01*
X153621632Y-145843475D01*
X153828475Y-145636632D01*
X153990990Y-145393411D01*
X154102932Y-145123158D01*
X154160000Y-144836260D01*
X154160000Y-144618061D01*
X178500000Y-144618061D01*
X178500000Y-144821939D01*
X178539774Y-145021898D01*
X178617795Y-145210256D01*
X178731063Y-145379774D01*
X178875226Y-145523937D01*
X179044744Y-145637205D01*
X179233102Y-145715226D01*
X179433061Y-145755000D01*
X179636939Y-145755000D01*
X179836898Y-145715226D01*
X180025256Y-145637205D01*
X180194774Y-145523937D01*
X180338937Y-145379774D01*
X180452205Y-145210256D01*
X180530226Y-145021898D01*
X180555256Y-144896061D01*
X180870000Y-144896061D01*
X180870000Y-145099939D01*
X180909774Y-145299898D01*
X180987795Y-145488256D01*
X181101063Y-145657774D01*
X181245226Y-145801937D01*
X181414744Y-145915205D01*
X181603102Y-145993226D01*
X181803061Y-146033000D01*
X182006939Y-146033000D01*
X182206898Y-145993226D01*
X182395256Y-145915205D01*
X182476500Y-145860920D01*
X182557744Y-145915205D01*
X182746102Y-145993226D01*
X182946061Y-146033000D01*
X183149939Y-146033000D01*
X183349898Y-145993226D01*
X183538256Y-145915205D01*
X183707774Y-145801937D01*
X183851937Y-145657774D01*
X183965205Y-145488256D01*
X184027150Y-145338708D01*
X184029774Y-145351898D01*
X184107795Y-145540256D01*
X184221063Y-145709774D01*
X184365226Y-145853937D01*
X184534744Y-145967205D01*
X184723102Y-146045226D01*
X184923061Y-146085000D01*
X185126939Y-146085000D01*
X185326898Y-146045226D01*
X185515256Y-145967205D01*
X185684774Y-145853937D01*
X185828937Y-145709774D01*
X185942205Y-145540256D01*
X186020226Y-145351898D01*
X186060000Y-145151939D01*
X186060000Y-144948061D01*
X186020226Y-144748102D01*
X185942205Y-144559744D01*
X185828937Y-144390226D01*
X185684774Y-144246063D01*
X185515256Y-144132795D01*
X185326898Y-144054774D01*
X185126939Y-144015000D01*
X184923061Y-144015000D01*
X184723102Y-144054774D01*
X184534744Y-144132795D01*
X184365226Y-144246063D01*
X184221063Y-144390226D01*
X184107795Y-144559744D01*
X184045850Y-144709292D01*
X184043226Y-144696102D01*
X183965205Y-144507744D01*
X183851937Y-144338226D01*
X183707774Y-144194063D01*
X183538256Y-144080795D01*
X183349898Y-144002774D01*
X183149939Y-143963000D01*
X182946061Y-143963000D01*
X182746102Y-144002774D01*
X182557744Y-144080795D01*
X182476500Y-144135080D01*
X182395256Y-144080795D01*
X182206898Y-144002774D01*
X182006939Y-143963000D01*
X181803061Y-143963000D01*
X181603102Y-144002774D01*
X181414744Y-144080795D01*
X181245226Y-144194063D01*
X181101063Y-144338226D01*
X180987795Y-144507744D01*
X180909774Y-144696102D01*
X180870000Y-144896061D01*
X180555256Y-144896061D01*
X180570000Y-144821939D01*
X180570000Y-144618061D01*
X180530226Y-144418102D01*
X180452205Y-144229744D01*
X180338937Y-144060226D01*
X180194774Y-143916063D01*
X180025256Y-143802795D01*
X179836898Y-143724774D01*
X179636939Y-143685000D01*
X179433061Y-143685000D01*
X179233102Y-143724774D01*
X179044744Y-143802795D01*
X178875226Y-143916063D01*
X178731063Y-144060226D01*
X178617795Y-144229744D01*
X178539774Y-144418102D01*
X178500000Y-144618061D01*
X154160000Y-144618061D01*
X154160000Y-144543740D01*
X154102932Y-144256842D01*
X153990990Y-143986589D01*
X153828475Y-143743368D01*
X153621632Y-143536525D01*
X153447240Y-143420000D01*
X153621632Y-143303475D01*
X153828475Y-143096632D01*
X153990990Y-142853411D01*
X154102932Y-142583158D01*
X154160000Y-142296260D01*
X154160000Y-142003740D01*
X154102932Y-141716842D01*
X153990990Y-141446589D01*
X153828475Y-141203368D01*
X153621632Y-140996525D01*
X153439466Y-140874805D01*
X153556355Y-140805178D01*
X153772588Y-140610269D01*
X153946641Y-140376920D01*
X154062555Y-140133561D01*
X176298000Y-140133561D01*
X176298000Y-140337439D01*
X176337774Y-140537398D01*
X176415795Y-140725756D01*
X176529063Y-140895274D01*
X176673226Y-141039437D01*
X176842744Y-141152705D01*
X177031102Y-141230726D01*
X177231061Y-141270500D01*
X177434939Y-141270500D01*
X177634898Y-141230726D01*
X177823256Y-141152705D01*
X177992774Y-141039437D01*
X178136937Y-140895274D01*
X178195310Y-140807911D01*
X188160000Y-140807911D01*
X188160000Y-140992089D01*
X188195932Y-141172729D01*
X188266414Y-141342889D01*
X188368738Y-141496028D01*
X188498972Y-141626262D01*
X188652111Y-141728586D01*
X188822271Y-141799068D01*
X189002911Y-141835000D01*
X189187089Y-141835000D01*
X189367729Y-141799068D01*
X189537889Y-141728586D01*
X189691028Y-141626262D01*
X189821262Y-141496028D01*
X189923586Y-141342889D01*
X189994068Y-141172729D01*
X190030000Y-140992089D01*
X190030000Y-140807911D01*
X189994068Y-140627271D01*
X189923586Y-140457111D01*
X189821262Y-140303972D01*
X189691028Y-140173738D01*
X189537889Y-140071414D01*
X189367729Y-140000932D01*
X189187089Y-139965000D01*
X189002911Y-139965000D01*
X188822271Y-140000932D01*
X188652111Y-140071414D01*
X188498972Y-140173738D01*
X188368738Y-140303972D01*
X188266414Y-140457111D01*
X188195932Y-140627271D01*
X188160000Y-140807911D01*
X178195310Y-140807911D01*
X178250205Y-140725756D01*
X178328226Y-140537398D01*
X178368000Y-140337439D01*
X178368000Y-140133561D01*
X178328226Y-139933602D01*
X178251372Y-139748061D01*
X198790000Y-139748061D01*
X198790000Y-139951939D01*
X198829774Y-140151898D01*
X198907795Y-140340256D01*
X199021063Y-140509774D01*
X199165226Y-140653937D01*
X199334744Y-140767205D01*
X199523102Y-140845226D01*
X199723061Y-140885000D01*
X199926939Y-140885000D01*
X200126898Y-140845226D01*
X200315256Y-140767205D01*
X200484774Y-140653937D01*
X200525000Y-140613711D01*
X200565226Y-140653937D01*
X200734744Y-140767205D01*
X200923102Y-140845226D01*
X201123061Y-140885000D01*
X201326939Y-140885000D01*
X201526898Y-140845226D01*
X201715256Y-140767205D01*
X201884774Y-140653937D01*
X202028937Y-140509774D01*
X202142205Y-140340256D01*
X202220226Y-140151898D01*
X202260000Y-139951939D01*
X202260000Y-139748061D01*
X202220226Y-139548102D01*
X202142205Y-139359744D01*
X202028937Y-139190226D01*
X201884774Y-139046063D01*
X201715256Y-138932795D01*
X201526898Y-138854774D01*
X201326939Y-138815000D01*
X201123061Y-138815000D01*
X200923102Y-138854774D01*
X200734744Y-138932795D01*
X200565226Y-139046063D01*
X200525000Y-139086289D01*
X200484774Y-139046063D01*
X200315256Y-138932795D01*
X200126898Y-138854774D01*
X199926939Y-138815000D01*
X199723061Y-138815000D01*
X199523102Y-138854774D01*
X199334744Y-138932795D01*
X199165226Y-139046063D01*
X199021063Y-139190226D01*
X198907795Y-139359744D01*
X198829774Y-139548102D01*
X198790000Y-139748061D01*
X178251372Y-139748061D01*
X178250205Y-139745244D01*
X178136937Y-139575726D01*
X177992774Y-139431563D01*
X177823256Y-139318295D01*
X177634898Y-139240274D01*
X177434939Y-139200500D01*
X177231061Y-139200500D01*
X177031102Y-139240274D01*
X176842744Y-139318295D01*
X176673226Y-139431563D01*
X176529063Y-139575726D01*
X176415795Y-139745244D01*
X176337774Y-139933602D01*
X176298000Y-140133561D01*
X154062555Y-140133561D01*
X154071825Y-140114099D01*
X154116476Y-139966890D01*
X153995155Y-139737000D01*
X152802000Y-139737000D01*
X152802000Y-139757000D01*
X152548000Y-139757000D01*
X152548000Y-139737000D01*
X152528000Y-139737000D01*
X152528000Y-139483000D01*
X152548000Y-139483000D01*
X152548000Y-139463000D01*
X152802000Y-139463000D01*
X152802000Y-139483000D01*
X153995155Y-139483000D01*
X154116476Y-139253110D01*
X154071825Y-139105901D01*
X153946641Y-138843080D01*
X153772588Y-138609731D01*
X153556355Y-138414822D01*
X153439466Y-138345195D01*
X153621632Y-138223475D01*
X153828475Y-138016632D01*
X153990990Y-137773411D01*
X154102932Y-137503158D01*
X154160000Y-137216260D01*
X154160000Y-136923740D01*
X154102932Y-136636842D01*
X153990990Y-136366589D01*
X153828475Y-136123368D01*
X153621632Y-135916525D01*
X153447240Y-135800000D01*
X153621632Y-135683475D01*
X153828475Y-135476632D01*
X153981201Y-135248061D01*
X161990000Y-135248061D01*
X161990000Y-135451939D01*
X162029774Y-135651898D01*
X162091120Y-135800000D01*
X162029774Y-135948102D01*
X161990000Y-136148061D01*
X161990000Y-136351939D01*
X162029774Y-136551898D01*
X162107795Y-136740256D01*
X162221063Y-136909774D01*
X162365226Y-137053937D01*
X162534744Y-137167205D01*
X162723102Y-137245226D01*
X162923061Y-137285000D01*
X163126939Y-137285000D01*
X163326898Y-137245226D01*
X163475000Y-137183880D01*
X163623102Y-137245226D01*
X163823061Y-137285000D01*
X164026939Y-137285000D01*
X164226898Y-137245226D01*
X164415256Y-137167205D01*
X164584774Y-137053937D01*
X164728937Y-136909774D01*
X164805626Y-136795000D01*
X164896939Y-136795000D01*
X165096898Y-136755226D01*
X165285256Y-136677205D01*
X165454774Y-136563937D01*
X165598937Y-136419774D01*
X165712205Y-136250256D01*
X165790226Y-136061898D01*
X165801332Y-136006061D01*
X174075500Y-136006061D01*
X174075500Y-136209939D01*
X174115274Y-136409898D01*
X174193295Y-136598256D01*
X174306563Y-136767774D01*
X174450726Y-136911937D01*
X174620244Y-137025205D01*
X174808602Y-137103226D01*
X175008561Y-137143000D01*
X175212439Y-137143000D01*
X175412398Y-137103226D01*
X175545577Y-137048061D01*
X178640000Y-137048061D01*
X178640000Y-137251939D01*
X178679774Y-137451898D01*
X178757795Y-137640256D01*
X178871063Y-137809774D01*
X179015226Y-137953937D01*
X179184744Y-138067205D01*
X179373102Y-138145226D01*
X179573061Y-138185000D01*
X179776939Y-138185000D01*
X179976898Y-138145226D01*
X180165256Y-138067205D01*
X180175000Y-138060694D01*
X180184744Y-138067205D01*
X180373102Y-138145226D01*
X180573061Y-138185000D01*
X180776939Y-138185000D01*
X180976898Y-138145226D01*
X181165256Y-138067205D01*
X181334774Y-137953937D01*
X181478937Y-137809774D01*
X181592205Y-137640256D01*
X181670226Y-137451898D01*
X181710000Y-137251939D01*
X181710000Y-137048061D01*
X181690109Y-136948061D01*
X183990000Y-136948061D01*
X183990000Y-137151939D01*
X184029774Y-137351898D01*
X184107795Y-137540256D01*
X184181123Y-137650000D01*
X184107795Y-137759744D01*
X184029774Y-137948102D01*
X183990000Y-138148061D01*
X183990000Y-138351939D01*
X184029774Y-138551898D01*
X184107795Y-138740256D01*
X184221063Y-138909774D01*
X184365226Y-139053937D01*
X184534744Y-139167205D01*
X184723102Y-139245226D01*
X184923061Y-139285000D01*
X185126939Y-139285000D01*
X185326898Y-139245226D01*
X185515256Y-139167205D01*
X185684774Y-139053937D01*
X185828937Y-138909774D01*
X185942205Y-138740256D01*
X186020226Y-138551898D01*
X186060000Y-138351939D01*
X186060000Y-138148061D01*
X186040109Y-138048061D01*
X193790000Y-138048061D01*
X193790000Y-138251939D01*
X193829774Y-138451898D01*
X193907795Y-138640256D01*
X194021063Y-138809774D01*
X194165226Y-138953937D01*
X194334744Y-139067205D01*
X194523102Y-139145226D01*
X194723061Y-139185000D01*
X194926939Y-139185000D01*
X195126898Y-139145226D01*
X195315256Y-139067205D01*
X195484774Y-138953937D01*
X195628937Y-138809774D01*
X195742205Y-138640256D01*
X195820226Y-138451898D01*
X195860000Y-138251939D01*
X195860000Y-138048061D01*
X195820226Y-137848102D01*
X195742205Y-137659744D01*
X195628937Y-137490226D01*
X195484774Y-137346063D01*
X195315256Y-137232795D01*
X195126898Y-137154774D01*
X194926939Y-137115000D01*
X194723061Y-137115000D01*
X194523102Y-137154774D01*
X194334744Y-137232795D01*
X194165226Y-137346063D01*
X194021063Y-137490226D01*
X193907795Y-137659744D01*
X193829774Y-137848102D01*
X193790000Y-138048061D01*
X186040109Y-138048061D01*
X186020226Y-137948102D01*
X185942205Y-137759744D01*
X185868877Y-137650000D01*
X185942205Y-137540256D01*
X186020226Y-137351898D01*
X186060000Y-137151939D01*
X186060000Y-136948061D01*
X186020226Y-136748102D01*
X185942205Y-136559744D01*
X185828937Y-136390226D01*
X185684774Y-136246063D01*
X185515256Y-136132795D01*
X185326898Y-136054774D01*
X185126939Y-136015000D01*
X184923061Y-136015000D01*
X184723102Y-136054774D01*
X184534744Y-136132795D01*
X184365226Y-136246063D01*
X184221063Y-136390226D01*
X184107795Y-136559744D01*
X184029774Y-136748102D01*
X183990000Y-136948061D01*
X181690109Y-136948061D01*
X181670226Y-136848102D01*
X181592205Y-136659744D01*
X181478937Y-136490226D01*
X181334774Y-136346063D01*
X181165256Y-136232795D01*
X180976898Y-136154774D01*
X180776939Y-136115000D01*
X180573061Y-136115000D01*
X180373102Y-136154774D01*
X180184744Y-136232795D01*
X180175000Y-136239306D01*
X180165256Y-136232795D01*
X179976898Y-136154774D01*
X179776939Y-136115000D01*
X179573061Y-136115000D01*
X179373102Y-136154774D01*
X179184744Y-136232795D01*
X179015226Y-136346063D01*
X178871063Y-136490226D01*
X178757795Y-136659744D01*
X178679774Y-136848102D01*
X178640000Y-137048061D01*
X175545577Y-137048061D01*
X175600756Y-137025205D01*
X175770274Y-136911937D01*
X175914437Y-136767774D01*
X176027705Y-136598256D01*
X176105726Y-136409898D01*
X176145500Y-136209939D01*
X176145500Y-136006061D01*
X176105726Y-135806102D01*
X176027705Y-135617744D01*
X175914437Y-135448226D01*
X175770274Y-135304063D01*
X175600756Y-135190795D01*
X175412398Y-135112774D01*
X175212439Y-135073000D01*
X175008561Y-135073000D01*
X174808602Y-135112774D01*
X174620244Y-135190795D01*
X174450726Y-135304063D01*
X174306563Y-135448226D01*
X174193295Y-135617744D01*
X174115274Y-135806102D01*
X174075500Y-136006061D01*
X165801332Y-136006061D01*
X165830000Y-135861939D01*
X165830000Y-135658061D01*
X165790226Y-135458102D01*
X165712205Y-135269744D01*
X165598937Y-135100226D01*
X165454774Y-134956063D01*
X165285256Y-134842795D01*
X165096898Y-134764774D01*
X164896939Y-134725000D01*
X164752172Y-134725000D01*
X164728937Y-134690226D01*
X164584774Y-134546063D01*
X164415256Y-134432795D01*
X164226898Y-134354774D01*
X164026939Y-134315000D01*
X163823061Y-134315000D01*
X163623102Y-134354774D01*
X163475000Y-134416120D01*
X163326898Y-134354774D01*
X163126939Y-134315000D01*
X162923061Y-134315000D01*
X162723102Y-134354774D01*
X162534744Y-134432795D01*
X162365226Y-134546063D01*
X162221063Y-134690226D01*
X162107795Y-134859744D01*
X162029774Y-135048102D01*
X161990000Y-135248061D01*
X153981201Y-135248061D01*
X153990990Y-135233411D01*
X154102932Y-134963158D01*
X154160000Y-134676260D01*
X154160000Y-134383740D01*
X154102932Y-134096842D01*
X153990990Y-133826589D01*
X153971929Y-133798061D01*
X174390000Y-133798061D01*
X174390000Y-134001939D01*
X174429774Y-134201898D01*
X174507795Y-134390256D01*
X174621063Y-134559774D01*
X174765226Y-134703937D01*
X174934744Y-134817205D01*
X175123102Y-134895226D01*
X175323061Y-134935000D01*
X175526939Y-134935000D01*
X175726898Y-134895226D01*
X175915256Y-134817205D01*
X176084774Y-134703937D01*
X176228937Y-134559774D01*
X176342205Y-134390256D01*
X176420226Y-134201898D01*
X176460000Y-134001939D01*
X176460000Y-133798061D01*
X176420226Y-133598102D01*
X176342205Y-133409744D01*
X176267582Y-133298061D01*
X177640000Y-133298061D01*
X177640000Y-133501939D01*
X177679774Y-133701898D01*
X177757795Y-133890256D01*
X177871063Y-134059774D01*
X178015226Y-134203937D01*
X178184744Y-134317205D01*
X178373102Y-134395226D01*
X178573061Y-134435000D01*
X178776939Y-134435000D01*
X178976898Y-134395226D01*
X179086082Y-134350000D01*
X195934993Y-134350000D01*
X195954976Y-134552895D01*
X196014159Y-134747993D01*
X196110266Y-134927797D01*
X196149004Y-134975000D01*
X196110266Y-135022203D01*
X196014159Y-135202007D01*
X195954976Y-135397105D01*
X195934993Y-135600000D01*
X195954976Y-135802895D01*
X196014159Y-135997993D01*
X196099741Y-136158106D01*
X196078169Y-136184392D01*
X196000722Y-136329284D01*
X195953031Y-136486500D01*
X195936928Y-136650000D01*
X195936928Y-137050000D01*
X195953031Y-137213500D01*
X196000722Y-137370716D01*
X196078169Y-137515608D01*
X196182394Y-137642606D01*
X196309392Y-137746831D01*
X196454284Y-137824278D01*
X196611500Y-137871969D01*
X196775000Y-137888072D01*
X197675000Y-137888072D01*
X197838500Y-137871969D01*
X197995716Y-137824278D01*
X198140608Y-137746831D01*
X198267606Y-137642606D01*
X198371831Y-137515608D01*
X198449278Y-137370716D01*
X198496969Y-137213500D01*
X198513072Y-137050000D01*
X198513072Y-136683013D01*
X198523061Y-136685000D01*
X198726939Y-136685000D01*
X198926898Y-136645226D01*
X199115256Y-136567205D01*
X199284774Y-136453937D01*
X199428937Y-136309774D01*
X199542205Y-136140256D01*
X199620226Y-135951898D01*
X199660000Y-135751939D01*
X199660000Y-135548061D01*
X199620226Y-135348102D01*
X199542205Y-135159744D01*
X199428937Y-134990226D01*
X199376821Y-134938110D01*
X199442205Y-134840256D01*
X199520226Y-134651898D01*
X199560000Y-134451939D01*
X199560000Y-134248061D01*
X199520226Y-134048102D01*
X199442205Y-133859744D01*
X199328937Y-133690226D01*
X199184774Y-133546063D01*
X199015256Y-133432795D01*
X198826898Y-133354774D01*
X198626939Y-133315000D01*
X198423061Y-133315000D01*
X198414042Y-133316794D01*
X198341998Y-133227000D01*
X197352000Y-133227000D01*
X197352000Y-133247000D01*
X197098000Y-133247000D01*
X197098000Y-133227000D01*
X196108002Y-133227000D01*
X195980334Y-133386123D01*
X195990006Y-133462972D01*
X196079745Y-133648160D01*
X196143209Y-133732062D01*
X196110266Y-133772203D01*
X196014159Y-133952007D01*
X195954976Y-134147105D01*
X195934993Y-134350000D01*
X179086082Y-134350000D01*
X179165256Y-134317205D01*
X179334774Y-134203937D01*
X179478937Y-134059774D01*
X179589888Y-133893724D01*
X179644061Y-133904500D01*
X179847939Y-133904500D01*
X180047898Y-133864726D01*
X180236256Y-133786705D01*
X180405774Y-133673437D01*
X180549937Y-133529274D01*
X180663205Y-133359756D01*
X180741226Y-133171398D01*
X180781000Y-132971439D01*
X180781000Y-132767561D01*
X180777122Y-132748061D01*
X181890000Y-132748061D01*
X181890000Y-132951939D01*
X181929774Y-133151898D01*
X182007795Y-133340256D01*
X182121063Y-133509774D01*
X182265226Y-133653937D01*
X182434744Y-133767205D01*
X182623102Y-133845226D01*
X182823061Y-133885000D01*
X183026939Y-133885000D01*
X183226898Y-133845226D01*
X183415256Y-133767205D01*
X183584774Y-133653937D01*
X183728937Y-133509774D01*
X183842205Y-133340256D01*
X183920226Y-133151898D01*
X183960000Y-132951939D01*
X183960000Y-132748061D01*
X183951248Y-132704061D01*
X184807000Y-132704061D01*
X184807000Y-132907939D01*
X184846774Y-133107898D01*
X184924795Y-133296256D01*
X185038063Y-133465774D01*
X185182226Y-133609937D01*
X185351744Y-133723205D01*
X185540102Y-133801226D01*
X185740061Y-133841000D01*
X185943939Y-133841000D01*
X186143898Y-133801226D01*
X186332256Y-133723205D01*
X186381750Y-133690134D01*
X186431244Y-133723205D01*
X186619602Y-133801226D01*
X186819561Y-133841000D01*
X187023439Y-133841000D01*
X187223398Y-133801226D01*
X187411756Y-133723205D01*
X187581274Y-133609937D01*
X187725437Y-133465774D01*
X187838705Y-133296256D01*
X187916726Y-133107898D01*
X187956500Y-132907939D01*
X187956500Y-132813877D01*
X195980334Y-132813877D01*
X196108002Y-132973000D01*
X197098000Y-132973000D01*
X197098000Y-132216238D01*
X197352000Y-132216238D01*
X197352000Y-132973000D01*
X198341998Y-132973000D01*
X198469666Y-132813877D01*
X198459994Y-132737028D01*
X198370255Y-132551840D01*
X198246112Y-132387717D01*
X198092336Y-132250967D01*
X197914836Y-132146845D01*
X197720433Y-132079352D01*
X197516599Y-132051082D01*
X197352000Y-132216238D01*
X197098000Y-132216238D01*
X196933401Y-132051082D01*
X196729567Y-132079352D01*
X196535164Y-132146845D01*
X196357664Y-132250967D01*
X196203888Y-132387717D01*
X196079745Y-132551840D01*
X195990006Y-132737028D01*
X195980334Y-132813877D01*
X187956500Y-132813877D01*
X187956500Y-132704061D01*
X187916726Y-132504102D01*
X187838705Y-132315744D01*
X187725437Y-132146226D01*
X187581274Y-132002063D01*
X187411756Y-131888795D01*
X187223398Y-131810774D01*
X187023439Y-131771000D01*
X186819561Y-131771000D01*
X186619602Y-131810774D01*
X186431244Y-131888795D01*
X186381750Y-131921866D01*
X186332256Y-131888795D01*
X186143898Y-131810774D01*
X185943939Y-131771000D01*
X185740061Y-131771000D01*
X185540102Y-131810774D01*
X185351744Y-131888795D01*
X185182226Y-132002063D01*
X185038063Y-132146226D01*
X184924795Y-132315744D01*
X184846774Y-132504102D01*
X184807000Y-132704061D01*
X183951248Y-132704061D01*
X183920226Y-132548102D01*
X183842205Y-132359744D01*
X183728937Y-132190226D01*
X183584774Y-132046063D01*
X183415256Y-131932795D01*
X183226898Y-131854774D01*
X183026939Y-131815000D01*
X182823061Y-131815000D01*
X182623102Y-131854774D01*
X182434744Y-131932795D01*
X182265226Y-132046063D01*
X182121063Y-132190226D01*
X182007795Y-132359744D01*
X181929774Y-132548102D01*
X181890000Y-132748061D01*
X180777122Y-132748061D01*
X180741226Y-132567602D01*
X180663205Y-132379244D01*
X180549937Y-132209726D01*
X180405774Y-132065563D01*
X180236256Y-131952295D01*
X180047898Y-131874274D01*
X179847939Y-131834500D01*
X179644061Y-131834500D01*
X179444102Y-131874274D01*
X179255744Y-131952295D01*
X179086226Y-132065563D01*
X178942063Y-132209726D01*
X178831112Y-132375776D01*
X178776939Y-132365000D01*
X178573061Y-132365000D01*
X178373102Y-132404774D01*
X178184744Y-132482795D01*
X178015226Y-132596063D01*
X177871063Y-132740226D01*
X177757795Y-132909744D01*
X177679774Y-133098102D01*
X177640000Y-133298061D01*
X176267582Y-133298061D01*
X176228937Y-133240226D01*
X176084774Y-133096063D01*
X175915256Y-132982795D01*
X175726898Y-132904774D01*
X175526939Y-132865000D01*
X175323061Y-132865000D01*
X175123102Y-132904774D01*
X174934744Y-132982795D01*
X174765226Y-133096063D01*
X174621063Y-133240226D01*
X174507795Y-133409744D01*
X174429774Y-133598102D01*
X174390000Y-133798061D01*
X153971929Y-133798061D01*
X153828475Y-133583368D01*
X153621632Y-133376525D01*
X153447240Y-133260000D01*
X153621632Y-133143475D01*
X153828475Y-132936632D01*
X153990990Y-132693411D01*
X154102932Y-132423158D01*
X154117869Y-132348061D01*
X162590000Y-132348061D01*
X162590000Y-132551939D01*
X162629774Y-132751898D01*
X162707795Y-132940256D01*
X162821063Y-133109774D01*
X162965226Y-133253937D01*
X163134744Y-133367205D01*
X163323102Y-133445226D01*
X163523061Y-133485000D01*
X163726939Y-133485000D01*
X163926898Y-133445226D01*
X164115256Y-133367205D01*
X164125000Y-133360694D01*
X164134744Y-133367205D01*
X164323102Y-133445226D01*
X164523061Y-133485000D01*
X164726939Y-133485000D01*
X164926898Y-133445226D01*
X165115256Y-133367205D01*
X165284774Y-133253937D01*
X165428937Y-133109774D01*
X165542205Y-132940256D01*
X165620226Y-132751898D01*
X165660000Y-132551939D01*
X165660000Y-132348061D01*
X165620226Y-132148102D01*
X165542205Y-131959744D01*
X165468877Y-131850000D01*
X165542205Y-131740256D01*
X165620226Y-131551898D01*
X165660000Y-131351939D01*
X165660000Y-131148061D01*
X165620226Y-130948102D01*
X165542205Y-130759744D01*
X165428937Y-130590226D01*
X165284774Y-130446063D01*
X165115256Y-130332795D01*
X164926898Y-130254774D01*
X164726939Y-130215000D01*
X164523061Y-130215000D01*
X164323102Y-130254774D01*
X164134744Y-130332795D01*
X163965226Y-130446063D01*
X163821063Y-130590226D01*
X163707795Y-130759744D01*
X163629774Y-130948102D01*
X163590000Y-131148061D01*
X163590000Y-131351939D01*
X163602544Y-131415000D01*
X163523061Y-131415000D01*
X163323102Y-131454774D01*
X163134744Y-131532795D01*
X162965226Y-131646063D01*
X162821063Y-131790226D01*
X162707795Y-131959744D01*
X162629774Y-132148102D01*
X162590000Y-132348061D01*
X154117869Y-132348061D01*
X154160000Y-132136260D01*
X154160000Y-131843740D01*
X154102932Y-131556842D01*
X153990990Y-131286589D01*
X153828475Y-131043368D01*
X153621632Y-130836525D01*
X153447240Y-130720000D01*
X153621632Y-130603475D01*
X153828475Y-130396632D01*
X153990990Y-130153411D01*
X154012881Y-130100561D01*
X183156000Y-130100561D01*
X183156000Y-130304439D01*
X183195774Y-130504398D01*
X183273795Y-130692756D01*
X183387063Y-130862274D01*
X183531226Y-131006437D01*
X183700744Y-131119705D01*
X183889102Y-131197726D01*
X184089061Y-131237500D01*
X184292939Y-131237500D01*
X184492898Y-131197726D01*
X184681256Y-131119705D01*
X184850774Y-131006437D01*
X184994937Y-130862274D01*
X185108205Y-130692756D01*
X185186226Y-130504398D01*
X185197432Y-130448061D01*
X188990000Y-130448061D01*
X188990000Y-130651939D01*
X189029774Y-130851898D01*
X189107795Y-131040256D01*
X189221063Y-131209774D01*
X189365226Y-131353937D01*
X189534744Y-131467205D01*
X189723102Y-131545226D01*
X189923061Y-131585000D01*
X190126939Y-131585000D01*
X190326898Y-131545226D01*
X190515256Y-131467205D01*
X190684774Y-131353937D01*
X190828937Y-131209774D01*
X190942205Y-131040256D01*
X191020226Y-130851898D01*
X191060000Y-130651939D01*
X191060000Y-130448061D01*
X191020226Y-130248102D01*
X190942205Y-130059744D01*
X190828937Y-129890226D01*
X190684774Y-129746063D01*
X190515256Y-129632795D01*
X190326898Y-129554774D01*
X190126939Y-129515000D01*
X189923061Y-129515000D01*
X189723102Y-129554774D01*
X189534744Y-129632795D01*
X189365226Y-129746063D01*
X189221063Y-129890226D01*
X189107795Y-130059744D01*
X189029774Y-130248102D01*
X188990000Y-130448061D01*
X185197432Y-130448061D01*
X185226000Y-130304439D01*
X185226000Y-130100561D01*
X185186226Y-129900602D01*
X185108205Y-129712244D01*
X184994937Y-129542726D01*
X184850774Y-129398563D01*
X184681256Y-129285295D01*
X184492898Y-129207274D01*
X184292939Y-129167500D01*
X184089061Y-129167500D01*
X183889102Y-129207274D01*
X183700744Y-129285295D01*
X183531226Y-129398563D01*
X183387063Y-129542726D01*
X183273795Y-129712244D01*
X183195774Y-129900602D01*
X183156000Y-130100561D01*
X154012881Y-130100561D01*
X154102932Y-129883158D01*
X154160000Y-129596260D01*
X154160000Y-129303740D01*
X154102932Y-129016842D01*
X153990990Y-128746589D01*
X153828475Y-128503368D01*
X153621632Y-128296525D01*
X153447240Y-128180000D01*
X153621632Y-128063475D01*
X153828475Y-127856632D01*
X153867610Y-127798061D01*
X184640000Y-127798061D01*
X184640000Y-128001939D01*
X184679774Y-128201898D01*
X184757795Y-128390256D01*
X184871063Y-128559774D01*
X185015226Y-128703937D01*
X185184744Y-128817205D01*
X185373102Y-128895226D01*
X185573061Y-128935000D01*
X185776939Y-128935000D01*
X185976898Y-128895226D01*
X186165256Y-128817205D01*
X186334774Y-128703937D01*
X186478937Y-128559774D01*
X186592205Y-128390256D01*
X186670226Y-128201898D01*
X186710000Y-128001939D01*
X186710000Y-127798061D01*
X186670226Y-127598102D01*
X186592205Y-127409744D01*
X186478937Y-127240226D01*
X186334774Y-127096063D01*
X186165256Y-126982795D01*
X185976898Y-126904774D01*
X185776939Y-126865000D01*
X185573061Y-126865000D01*
X185373102Y-126904774D01*
X185184744Y-126982795D01*
X185015226Y-127096063D01*
X184871063Y-127240226D01*
X184757795Y-127409744D01*
X184679774Y-127598102D01*
X184640000Y-127798061D01*
X153867610Y-127798061D01*
X153990990Y-127613411D01*
X154102932Y-127343158D01*
X154160000Y-127056260D01*
X154160000Y-126763740D01*
X154102932Y-126476842D01*
X154028879Y-126298061D01*
X172140000Y-126298061D01*
X172140000Y-126501939D01*
X172179774Y-126701898D01*
X172257795Y-126890256D01*
X172371063Y-127059774D01*
X172515226Y-127203937D01*
X172684744Y-127317205D01*
X172873102Y-127395226D01*
X173073061Y-127435000D01*
X173276939Y-127435000D01*
X173476898Y-127395226D01*
X173665256Y-127317205D01*
X173800000Y-127227172D01*
X173934744Y-127317205D01*
X174123102Y-127395226D01*
X174323061Y-127435000D01*
X174526939Y-127435000D01*
X174726898Y-127395226D01*
X174915256Y-127317205D01*
X175084774Y-127203937D01*
X175228937Y-127059774D01*
X175342205Y-126890256D01*
X175420226Y-126701898D01*
X175460000Y-126501939D01*
X175460000Y-126298061D01*
X175420226Y-126098102D01*
X175342205Y-125909744D01*
X175228937Y-125740226D01*
X175084774Y-125596063D01*
X174915256Y-125482795D01*
X174726898Y-125404774D01*
X174526939Y-125365000D01*
X174323061Y-125365000D01*
X174123102Y-125404774D01*
X173934744Y-125482795D01*
X173800000Y-125572828D01*
X173665256Y-125482795D01*
X173476898Y-125404774D01*
X173276939Y-125365000D01*
X173073061Y-125365000D01*
X172873102Y-125404774D01*
X172684744Y-125482795D01*
X172515226Y-125596063D01*
X172371063Y-125740226D01*
X172257795Y-125909744D01*
X172179774Y-126098102D01*
X172140000Y-126298061D01*
X154028879Y-126298061D01*
X153990990Y-126206589D01*
X153828475Y-125963368D01*
X153621632Y-125756525D01*
X153447240Y-125640000D01*
X153621632Y-125523475D01*
X153828475Y-125316632D01*
X153990990Y-125073411D01*
X154102932Y-124803158D01*
X154160000Y-124516260D01*
X154160000Y-124223740D01*
X154102932Y-123936842D01*
X153990990Y-123666589D01*
X153828475Y-123423368D01*
X153621632Y-123216525D01*
X153447240Y-123100000D01*
X153621632Y-122983475D01*
X153828475Y-122776632D01*
X153990990Y-122533411D01*
X154102932Y-122263158D01*
X154160000Y-121976260D01*
X154160000Y-121683740D01*
X154102932Y-121396842D01*
X153990990Y-121126589D01*
X153828475Y-120883368D01*
X153621632Y-120676525D01*
X153439466Y-120554805D01*
X153556355Y-120485178D01*
X153772588Y-120290269D01*
X153946641Y-120056920D01*
X154071825Y-119794099D01*
X154116476Y-119646890D01*
X153995155Y-119417000D01*
X152802000Y-119417000D01*
X152802000Y-119437000D01*
X152548000Y-119437000D01*
X152548000Y-119417000D01*
X152528000Y-119417000D01*
X152528000Y-119163000D01*
X152548000Y-119163000D01*
X152548000Y-119143000D01*
X152802000Y-119143000D01*
X152802000Y-119163000D01*
X153995155Y-119163000D01*
X154116476Y-118933110D01*
X154071825Y-118785901D01*
X153946641Y-118523080D01*
X153772588Y-118289731D01*
X153556355Y-118094822D01*
X153439466Y-118025195D01*
X153621632Y-117903475D01*
X153828475Y-117696632D01*
X153990990Y-117453411D01*
X154102932Y-117183158D01*
X154160000Y-116896260D01*
X154160000Y-116603740D01*
X154102932Y-116316842D01*
X153990990Y-116046589D01*
X153828475Y-115803368D01*
X153621632Y-115596525D01*
X153447240Y-115480000D01*
X153621632Y-115363475D01*
X153828475Y-115156632D01*
X153990990Y-114913411D01*
X154102932Y-114643158D01*
X154111902Y-114598061D01*
X166340000Y-114598061D01*
X166340000Y-114801939D01*
X166379774Y-115001898D01*
X166457795Y-115190256D01*
X166464306Y-115200000D01*
X166457795Y-115209744D01*
X166379774Y-115398102D01*
X166340000Y-115598061D01*
X166340000Y-115801939D01*
X166379774Y-116001898D01*
X166457795Y-116190256D01*
X166571063Y-116359774D01*
X166715226Y-116503937D01*
X166884744Y-116617205D01*
X167073102Y-116695226D01*
X167273061Y-116735000D01*
X167476939Y-116735000D01*
X167676898Y-116695226D01*
X167865256Y-116617205D01*
X168034774Y-116503937D01*
X168178937Y-116359774D01*
X168292205Y-116190256D01*
X168370226Y-116001898D01*
X168410000Y-115801939D01*
X168410000Y-115598061D01*
X168370226Y-115398102D01*
X168292205Y-115209744D01*
X168285694Y-115200000D01*
X168292205Y-115190256D01*
X168370226Y-115001898D01*
X168410000Y-114801939D01*
X168410000Y-114598061D01*
X168370226Y-114398102D01*
X168292205Y-114209744D01*
X168178937Y-114040226D01*
X168034774Y-113896063D01*
X167865256Y-113782795D01*
X167676898Y-113704774D01*
X167476939Y-113665000D01*
X167273061Y-113665000D01*
X167073102Y-113704774D01*
X166884744Y-113782795D01*
X166715226Y-113896063D01*
X166571063Y-114040226D01*
X166457795Y-114209744D01*
X166379774Y-114398102D01*
X166340000Y-114598061D01*
X154111902Y-114598061D01*
X154160000Y-114356260D01*
X154160000Y-114063740D01*
X154102932Y-113776842D01*
X153990990Y-113506589D01*
X153828475Y-113263368D01*
X153621632Y-113056525D01*
X153447240Y-112940000D01*
X153621632Y-112823475D01*
X153828475Y-112616632D01*
X153990990Y-112373411D01*
X154102932Y-112103158D01*
X154160000Y-111816260D01*
X154160000Y-111523740D01*
X154102932Y-111236842D01*
X153990990Y-110966589D01*
X153878384Y-110798061D01*
X198890000Y-110798061D01*
X198890000Y-111001939D01*
X198929774Y-111201898D01*
X199007795Y-111390256D01*
X199121063Y-111559774D01*
X199265226Y-111703937D01*
X199434744Y-111817205D01*
X199623102Y-111895226D01*
X199823061Y-111935000D01*
X200026939Y-111935000D01*
X200226898Y-111895226D01*
X200415256Y-111817205D01*
X200584774Y-111703937D01*
X200728937Y-111559774D01*
X200770000Y-111498319D01*
X200770000Y-111506863D01*
X200811696Y-111716483D01*
X200893485Y-111913940D01*
X201012225Y-112091647D01*
X201163353Y-112242775D01*
X201341060Y-112361515D01*
X201538517Y-112443304D01*
X201748137Y-112485000D01*
X201961863Y-112485000D01*
X202171483Y-112443304D01*
X202368940Y-112361515D01*
X202546647Y-112242775D01*
X202697775Y-112091647D01*
X202816515Y-111913940D01*
X202898304Y-111716483D01*
X202940000Y-111506863D01*
X202940000Y-111293137D01*
X202898304Y-111083517D01*
X202816515Y-110886060D01*
X202697775Y-110708353D01*
X202546647Y-110557225D01*
X202368940Y-110438485D01*
X202171483Y-110356696D01*
X201961863Y-110315000D01*
X201748137Y-110315000D01*
X201538517Y-110356696D01*
X201341060Y-110438485D01*
X201163353Y-110557225D01*
X201012225Y-110708353D01*
X200958230Y-110789162D01*
X200920226Y-110598102D01*
X200842205Y-110409744D01*
X200728937Y-110240226D01*
X200584774Y-110096063D01*
X200415256Y-109982795D01*
X200226898Y-109904774D01*
X200026939Y-109865000D01*
X199823061Y-109865000D01*
X199623102Y-109904774D01*
X199434744Y-109982795D01*
X199265226Y-110096063D01*
X199121063Y-110240226D01*
X199007795Y-110409744D01*
X198929774Y-110598102D01*
X198890000Y-110798061D01*
X153878384Y-110798061D01*
X153828475Y-110723368D01*
X153621632Y-110516525D01*
X153447240Y-110400000D01*
X153621632Y-110283475D01*
X153828475Y-110076632D01*
X153990990Y-109833411D01*
X154102932Y-109563158D01*
X154160000Y-109276260D01*
X154160000Y-108983740D01*
X154102932Y-108696842D01*
X153990990Y-108426589D01*
X153901821Y-108293137D01*
X200770000Y-108293137D01*
X200770000Y-108506863D01*
X200811696Y-108716483D01*
X200893485Y-108913940D01*
X201012225Y-109091647D01*
X201163353Y-109242775D01*
X201341060Y-109361515D01*
X201538517Y-109443304D01*
X201748137Y-109485000D01*
X201961863Y-109485000D01*
X202171483Y-109443304D01*
X202368940Y-109361515D01*
X202546647Y-109242775D01*
X202697775Y-109091647D01*
X202816515Y-108913940D01*
X202898304Y-108716483D01*
X202940000Y-108506863D01*
X202940000Y-108293137D01*
X202898304Y-108083517D01*
X202816515Y-107886060D01*
X202697775Y-107708353D01*
X202546647Y-107557225D01*
X202368940Y-107438485D01*
X202171483Y-107356696D01*
X201961863Y-107315000D01*
X201748137Y-107315000D01*
X201538517Y-107356696D01*
X201341060Y-107438485D01*
X201163353Y-107557225D01*
X201012225Y-107708353D01*
X200893485Y-107886060D01*
X200811696Y-108083517D01*
X200770000Y-108293137D01*
X153901821Y-108293137D01*
X153828475Y-108183368D01*
X153621632Y-107976525D01*
X153447240Y-107860000D01*
X153621632Y-107743475D01*
X153828475Y-107536632D01*
X153990990Y-107293411D01*
X154102932Y-107023158D01*
X154160000Y-106736260D01*
X154160000Y-106443740D01*
X154102932Y-106156842D01*
X153990990Y-105886589D01*
X153828475Y-105643368D01*
X153621632Y-105436525D01*
X153447240Y-105320000D01*
X153621632Y-105203475D01*
X153828475Y-104996632D01*
X153990990Y-104753411D01*
X154102932Y-104483158D01*
X154160000Y-104196260D01*
X154160000Y-103903740D01*
X154102932Y-103616842D01*
X153990990Y-103346589D01*
X153828475Y-103103368D01*
X153621632Y-102896525D01*
X153439466Y-102774805D01*
X153556355Y-102705178D01*
X153772588Y-102510269D01*
X153946641Y-102276920D01*
X154071825Y-102014099D01*
X154116476Y-101866890D01*
X153995155Y-101637000D01*
X152802000Y-101637000D01*
X152802000Y-101657000D01*
X152548000Y-101657000D01*
X152548000Y-101637000D01*
X152528000Y-101637000D01*
X152528000Y-101383000D01*
X152548000Y-101383000D01*
X152548000Y-101363000D01*
X152802000Y-101363000D01*
X152802000Y-101383000D01*
X153995155Y-101383000D01*
X154116476Y-101153110D01*
X154071825Y-101005901D01*
X153946641Y-100743080D01*
X153772588Y-100509731D01*
X153556355Y-100314822D01*
X153526252Y-100296890D01*
X168625048Y-100296890D01*
X168625048Y-100543110D01*
X168673083Y-100784598D01*
X168767307Y-101012074D01*
X168904099Y-101216798D01*
X169078202Y-101390901D01*
X169282926Y-101527693D01*
X169510402Y-101621917D01*
X169751890Y-101669952D01*
X169998110Y-101669952D01*
X170239598Y-101621917D01*
X170417901Y-101548061D01*
X172890000Y-101548061D01*
X172890000Y-101751939D01*
X172929774Y-101951898D01*
X173007795Y-102140256D01*
X173014306Y-102150000D01*
X173007795Y-102159744D01*
X172929774Y-102348102D01*
X172890000Y-102548061D01*
X172890000Y-102751939D01*
X172929774Y-102951898D01*
X173007795Y-103140256D01*
X173121063Y-103309774D01*
X173265226Y-103453937D01*
X173434744Y-103567205D01*
X173623102Y-103645226D01*
X173823061Y-103685000D01*
X174026939Y-103685000D01*
X174226898Y-103645226D01*
X174415256Y-103567205D01*
X174425000Y-103560694D01*
X174434744Y-103567205D01*
X174623102Y-103645226D01*
X174823061Y-103685000D01*
X175026939Y-103685000D01*
X175226898Y-103645226D01*
X175415256Y-103567205D01*
X175425000Y-103560694D01*
X175434744Y-103567205D01*
X175623102Y-103645226D01*
X175823061Y-103685000D01*
X176026939Y-103685000D01*
X176226898Y-103645226D01*
X176415256Y-103567205D01*
X176584774Y-103453937D01*
X176728937Y-103309774D01*
X176842205Y-103140256D01*
X176920226Y-102951898D01*
X176960000Y-102751939D01*
X176960000Y-102548061D01*
X176920226Y-102348102D01*
X176842205Y-102159744D01*
X176835694Y-102150000D01*
X176842205Y-102140256D01*
X176920226Y-101951898D01*
X176960000Y-101751939D01*
X176960000Y-101548061D01*
X187390000Y-101548061D01*
X187390000Y-101751939D01*
X187429774Y-101951898D01*
X187507795Y-102140256D01*
X187514306Y-102150000D01*
X187507795Y-102159744D01*
X187429774Y-102348102D01*
X187390000Y-102548061D01*
X187390000Y-102751939D01*
X187429774Y-102951898D01*
X187507795Y-103140256D01*
X187621063Y-103309774D01*
X187765226Y-103453937D01*
X187934744Y-103567205D01*
X188123102Y-103645226D01*
X188323061Y-103685000D01*
X188526939Y-103685000D01*
X188726898Y-103645226D01*
X188915256Y-103567205D01*
X188925000Y-103560694D01*
X188934744Y-103567205D01*
X189123102Y-103645226D01*
X189323061Y-103685000D01*
X189526939Y-103685000D01*
X189726898Y-103645226D01*
X189915256Y-103567205D01*
X189925000Y-103560694D01*
X189934744Y-103567205D01*
X190123102Y-103645226D01*
X190323061Y-103685000D01*
X190526939Y-103685000D01*
X190726898Y-103645226D01*
X190915256Y-103567205D01*
X191084774Y-103453937D01*
X191228937Y-103309774D01*
X191342205Y-103140256D01*
X191420226Y-102951898D01*
X191440317Y-102850890D01*
X199075048Y-102850890D01*
X199075048Y-103097110D01*
X199123083Y-103338598D01*
X199217307Y-103566074D01*
X199354099Y-103770798D01*
X199528202Y-103944901D01*
X199732926Y-104081693D01*
X199960402Y-104175917D01*
X200201890Y-104223952D01*
X200448110Y-104223952D01*
X200689598Y-104175917D01*
X200917074Y-104081693D01*
X201121798Y-103944901D01*
X201295901Y-103770798D01*
X201432693Y-103566074D01*
X201526917Y-103338598D01*
X201574952Y-103097110D01*
X201574952Y-102850890D01*
X201526917Y-102609402D01*
X201432693Y-102381926D01*
X201295901Y-102177202D01*
X201121798Y-102003099D01*
X200917074Y-101866307D01*
X200689598Y-101772083D01*
X200448110Y-101724048D01*
X200201890Y-101724048D01*
X199960402Y-101772083D01*
X199732926Y-101866307D01*
X199528202Y-102003099D01*
X199354099Y-102177202D01*
X199217307Y-102381926D01*
X199123083Y-102609402D01*
X199075048Y-102850890D01*
X191440317Y-102850890D01*
X191460000Y-102751939D01*
X191460000Y-102548061D01*
X191420226Y-102348102D01*
X191342205Y-102159744D01*
X191335694Y-102150000D01*
X191342205Y-102140256D01*
X191420226Y-101951898D01*
X191460000Y-101751939D01*
X191460000Y-101548061D01*
X191420226Y-101348102D01*
X191342205Y-101159744D01*
X191228937Y-100990226D01*
X191084774Y-100846063D01*
X190915256Y-100732795D01*
X190726898Y-100654774D01*
X190526939Y-100615000D01*
X190323061Y-100615000D01*
X190123102Y-100654774D01*
X189934744Y-100732795D01*
X189925000Y-100739306D01*
X189915256Y-100732795D01*
X189726898Y-100654774D01*
X189526939Y-100615000D01*
X189323061Y-100615000D01*
X189123102Y-100654774D01*
X188934744Y-100732795D01*
X188925000Y-100739306D01*
X188915256Y-100732795D01*
X188726898Y-100654774D01*
X188526939Y-100615000D01*
X188323061Y-100615000D01*
X188123102Y-100654774D01*
X187934744Y-100732795D01*
X187765226Y-100846063D01*
X187621063Y-100990226D01*
X187507795Y-101159744D01*
X187429774Y-101348102D01*
X187390000Y-101548061D01*
X176960000Y-101548061D01*
X176920226Y-101348102D01*
X176842205Y-101159744D01*
X176728937Y-100990226D01*
X176584774Y-100846063D01*
X176415256Y-100732795D01*
X176226898Y-100654774D01*
X176026939Y-100615000D01*
X175823061Y-100615000D01*
X175623102Y-100654774D01*
X175434744Y-100732795D01*
X175425000Y-100739306D01*
X175415256Y-100732795D01*
X175226898Y-100654774D01*
X175026939Y-100615000D01*
X174823061Y-100615000D01*
X174623102Y-100654774D01*
X174434744Y-100732795D01*
X174425000Y-100739306D01*
X174415256Y-100732795D01*
X174226898Y-100654774D01*
X174026939Y-100615000D01*
X173823061Y-100615000D01*
X173623102Y-100654774D01*
X173434744Y-100732795D01*
X173265226Y-100846063D01*
X173121063Y-100990226D01*
X173007795Y-101159744D01*
X172929774Y-101348102D01*
X172890000Y-101548061D01*
X170417901Y-101548061D01*
X170467074Y-101527693D01*
X170671798Y-101390901D01*
X170845901Y-101216798D01*
X170982693Y-101012074D01*
X171076917Y-100784598D01*
X171124952Y-100543110D01*
X171124952Y-100296890D01*
X171076917Y-100055402D01*
X170982693Y-99827926D01*
X170845901Y-99623202D01*
X170671798Y-99449099D01*
X170467074Y-99312307D01*
X170239598Y-99218083D01*
X169998110Y-99170048D01*
X169751890Y-99170048D01*
X169510402Y-99218083D01*
X169282926Y-99312307D01*
X169078202Y-99449099D01*
X168904099Y-99623202D01*
X168767307Y-99827926D01*
X168673083Y-100055402D01*
X168625048Y-100296890D01*
X153526252Y-100296890D01*
X153306252Y-100165843D01*
X153082397Y-100086435D01*
X153545670Y-99842555D01*
X153586088Y-99815548D01*
X153946276Y-99325881D01*
X151425000Y-96804605D01*
X148903724Y-99325881D01*
X149263912Y-99815548D01*
X149740785Y-100074322D01*
X149701842Y-100082068D01*
X149431589Y-100194010D01*
X149188368Y-100356525D01*
X148981525Y-100563368D01*
X148819010Y-100806589D01*
X148707068Y-101076842D01*
X148650000Y-101363740D01*
X148585000Y-101363740D01*
X148585000Y-99043943D01*
X148724119Y-99146276D01*
X151245395Y-96625000D01*
X151604605Y-96625000D01*
X154125881Y-99146276D01*
X154132165Y-99141653D01*
X159032952Y-99141653D01*
X159188962Y-99457214D01*
X159563745Y-99648020D01*
X159968551Y-99762044D01*
X160387824Y-99794902D01*
X160805451Y-99745334D01*
X161205383Y-99615243D01*
X161501038Y-99457214D01*
X161657048Y-99141653D01*
X160345000Y-97829605D01*
X159032952Y-99141653D01*
X154132165Y-99141653D01*
X154615548Y-98786088D01*
X154975849Y-98122118D01*
X155109036Y-97692824D01*
X158200098Y-97692824D01*
X158249666Y-98110451D01*
X158379757Y-98510383D01*
X158537786Y-98806038D01*
X158853347Y-98962048D01*
X160165395Y-97650000D01*
X160524605Y-97650000D01*
X161836653Y-98962048D01*
X162152214Y-98806038D01*
X162343020Y-98431255D01*
X162457044Y-98026449D01*
X162489902Y-97607176D01*
X162440334Y-97189549D01*
X162310243Y-96789617D01*
X162152214Y-96493962D01*
X161836653Y-96337952D01*
X160524605Y-97650000D01*
X160165395Y-97650000D01*
X158853347Y-96337952D01*
X158537786Y-96493962D01*
X158346980Y-96868745D01*
X158232956Y-97273551D01*
X158200098Y-97692824D01*
X155109036Y-97692824D01*
X155199694Y-97400615D01*
X155278480Y-96649305D01*
X155233250Y-96158347D01*
X159032952Y-96158347D01*
X160345000Y-97470395D01*
X161657048Y-96158347D01*
X161652922Y-96150000D01*
X163286928Y-96150000D01*
X163286928Y-99150000D01*
X163299188Y-99274482D01*
X163335498Y-99394180D01*
X163394463Y-99504494D01*
X163473815Y-99601185D01*
X163570506Y-99680537D01*
X163680820Y-99739502D01*
X163800518Y-99775812D01*
X163925000Y-99788072D01*
X166925000Y-99788072D01*
X167049482Y-99775812D01*
X167169180Y-99739502D01*
X167279494Y-99680537D01*
X167376185Y-99601185D01*
X167455537Y-99504494D01*
X167514502Y-99394180D01*
X167550812Y-99274482D01*
X167563072Y-99150000D01*
X167563072Y-97439721D01*
X172810000Y-97439721D01*
X172810000Y-97860279D01*
X172892047Y-98272756D01*
X173052988Y-98661302D01*
X173286637Y-99010983D01*
X173584017Y-99308363D01*
X173933698Y-99542012D01*
X174322244Y-99702953D01*
X174734721Y-99785000D01*
X175155279Y-99785000D01*
X175567756Y-99702953D01*
X175956302Y-99542012D01*
X176305983Y-99308363D01*
X176603363Y-99010983D01*
X176837012Y-98661302D01*
X176997953Y-98272756D01*
X177080000Y-97860279D01*
X177080000Y-97439721D01*
X176997953Y-97027244D01*
X176837012Y-96638698D01*
X176603363Y-96289017D01*
X176464346Y-96150000D01*
X177886928Y-96150000D01*
X177886928Y-99150000D01*
X177899188Y-99274482D01*
X177935498Y-99394180D01*
X177994463Y-99504494D01*
X178073815Y-99601185D01*
X178170506Y-99680537D01*
X178280820Y-99739502D01*
X178400518Y-99775812D01*
X178525000Y-99788072D01*
X181525000Y-99788072D01*
X181649482Y-99775812D01*
X181769180Y-99739502D01*
X181879494Y-99680537D01*
X181976185Y-99601185D01*
X182055537Y-99504494D01*
X182114502Y-99394180D01*
X182150812Y-99274482D01*
X182163072Y-99150000D01*
X182163072Y-97429721D01*
X186960000Y-97429721D01*
X186960000Y-97850279D01*
X187042047Y-98262756D01*
X187202988Y-98651302D01*
X187436637Y-99000983D01*
X187734017Y-99298363D01*
X188083698Y-99532012D01*
X188472244Y-99692953D01*
X188884721Y-99775000D01*
X189305279Y-99775000D01*
X189717756Y-99692953D01*
X190106302Y-99532012D01*
X190455983Y-99298363D01*
X190753363Y-99000983D01*
X190987012Y-98651302D01*
X191147953Y-98262756D01*
X191230000Y-97850279D01*
X191230000Y-97429721D01*
X191147953Y-97017244D01*
X190987012Y-96628698D01*
X190753363Y-96279017D01*
X190614346Y-96140000D01*
X192036928Y-96140000D01*
X192036928Y-99140000D01*
X192049188Y-99264482D01*
X192085498Y-99384180D01*
X192144463Y-99494494D01*
X192223815Y-99591185D01*
X192320506Y-99670537D01*
X192430820Y-99729502D01*
X192550518Y-99765812D01*
X192675000Y-99778072D01*
X195675000Y-99778072D01*
X195799482Y-99765812D01*
X195919180Y-99729502D01*
X196029494Y-99670537D01*
X196126185Y-99591185D01*
X196205537Y-99494494D01*
X196264502Y-99384180D01*
X196282186Y-99325881D01*
X197903724Y-99325881D01*
X198263912Y-99815548D01*
X198927882Y-100175849D01*
X199649385Y-100399694D01*
X200400695Y-100478480D01*
X201152938Y-100409178D01*
X201877208Y-100194452D01*
X202545670Y-99842555D01*
X202586088Y-99815548D01*
X202946276Y-99325881D01*
X200425000Y-96804605D01*
X197903724Y-99325881D01*
X196282186Y-99325881D01*
X196300812Y-99264482D01*
X196313072Y-99140000D01*
X196313072Y-96600695D01*
X196571520Y-96600695D01*
X196640822Y-97352938D01*
X196855548Y-98077208D01*
X197207445Y-98745670D01*
X197234452Y-98786088D01*
X197724119Y-99146276D01*
X200245395Y-96625000D01*
X197724119Y-94103724D01*
X197234452Y-94463912D01*
X196874151Y-95127882D01*
X196650306Y-95849385D01*
X196571520Y-96600695D01*
X196313072Y-96600695D01*
X196313072Y-96140000D01*
X196300812Y-96015518D01*
X196264502Y-95895820D01*
X196205537Y-95785506D01*
X196126185Y-95688815D01*
X196029494Y-95609463D01*
X195919180Y-95550498D01*
X195799482Y-95514188D01*
X195675000Y-95501928D01*
X192675000Y-95501928D01*
X192550518Y-95514188D01*
X192430820Y-95550498D01*
X192320506Y-95609463D01*
X192223815Y-95688815D01*
X192144463Y-95785506D01*
X192085498Y-95895820D01*
X192049188Y-96015518D01*
X192036928Y-96140000D01*
X190614346Y-96140000D01*
X190455983Y-95981637D01*
X190106302Y-95747988D01*
X189717756Y-95587047D01*
X189305279Y-95505000D01*
X188884721Y-95505000D01*
X188472244Y-95587047D01*
X188083698Y-95747988D01*
X187734017Y-95981637D01*
X187436637Y-96279017D01*
X187202988Y-96628698D01*
X187042047Y-97017244D01*
X186960000Y-97429721D01*
X182163072Y-97429721D01*
X182163072Y-96150000D01*
X182150812Y-96025518D01*
X182114502Y-95905820D01*
X182055537Y-95795506D01*
X181976185Y-95698815D01*
X181879494Y-95619463D01*
X181769180Y-95560498D01*
X181649482Y-95524188D01*
X181525000Y-95511928D01*
X178525000Y-95511928D01*
X178400518Y-95524188D01*
X178280820Y-95560498D01*
X178170506Y-95619463D01*
X178073815Y-95698815D01*
X177994463Y-95795506D01*
X177935498Y-95905820D01*
X177899188Y-96025518D01*
X177886928Y-96150000D01*
X176464346Y-96150000D01*
X176305983Y-95991637D01*
X175956302Y-95757988D01*
X175567756Y-95597047D01*
X175155279Y-95515000D01*
X174734721Y-95515000D01*
X174322244Y-95597047D01*
X173933698Y-95757988D01*
X173584017Y-95991637D01*
X173286637Y-96289017D01*
X173052988Y-96638698D01*
X172892047Y-97027244D01*
X172810000Y-97439721D01*
X167563072Y-97439721D01*
X167563072Y-96150000D01*
X167550812Y-96025518D01*
X167514502Y-95905820D01*
X167455537Y-95795506D01*
X167376185Y-95698815D01*
X167279494Y-95619463D01*
X167169180Y-95560498D01*
X167049482Y-95524188D01*
X166925000Y-95511928D01*
X163925000Y-95511928D01*
X163800518Y-95524188D01*
X163680820Y-95560498D01*
X163570506Y-95619463D01*
X163473815Y-95698815D01*
X163394463Y-95795506D01*
X163335498Y-95905820D01*
X163299188Y-96025518D01*
X163286928Y-96150000D01*
X161652922Y-96150000D01*
X161501038Y-95842786D01*
X161126255Y-95651980D01*
X160721449Y-95537956D01*
X160302176Y-95505098D01*
X159884549Y-95554666D01*
X159484617Y-95684757D01*
X159188962Y-95842786D01*
X159032952Y-96158347D01*
X155233250Y-96158347D01*
X155209178Y-95897062D01*
X154994452Y-95172792D01*
X154642555Y-94504330D01*
X154615548Y-94463912D01*
X154125881Y-94103724D01*
X151604605Y-96625000D01*
X151245395Y-96625000D01*
X151231253Y-96610858D01*
X151410858Y-96431253D01*
X151425000Y-96445395D01*
X153946276Y-93924119D01*
X153641659Y-93510000D01*
X168819198Y-93510000D01*
X168765226Y-93546063D01*
G37*
%TD.AperFunction*%
%TD*%
M02*
